G04 #@! TF.GenerationSoftware,KiCad,Pcbnew,5.1.9*
G04 #@! TF.CreationDate,2021-01-09T13:55:21+02:00*
G04 #@! TF.ProjectId,block,626c6f63-6b2e-46b6-9963-61645f706362,rev?*
G04 #@! TF.SameCoordinates,Original*
G04 #@! TF.FileFunction,Legend,Top*
G04 #@! TF.FilePolarity,Positive*
%FSLAX46Y46*%
G04 Gerber Fmt 4.6, Leading zero omitted, Abs format (unit mm)*
G04 Created by KiCad (PCBNEW 5.1.9) date 2021-01-09 13:55:21*
%MOMM*%
%LPD*%
G01*
G04 APERTURE LIST*
%ADD10C,0.750000*%
%ADD11C,0.120000*%
%ADD12C,0.010000*%
%ADD13C,0.150000*%
%ADD14C,0.254000*%
%ADD15C,0.100000*%
G04 APERTURE END LIST*
D10*
X99870285Y-67016142D02*
X99870285Y-64016142D01*
X99870285Y-65159000D02*
X100156000Y-65016142D01*
X100727428Y-65016142D01*
X101013142Y-65159000D01*
X101156000Y-65301857D01*
X101298857Y-65587571D01*
X101298857Y-66444714D01*
X101156000Y-66730428D01*
X101013142Y-66873285D01*
X100727428Y-67016142D01*
X100156000Y-67016142D01*
X99870285Y-66873285D01*
X103013142Y-67016142D02*
X102727428Y-66873285D01*
X102584571Y-66587571D01*
X102584571Y-64016142D01*
X104584571Y-67016142D02*
X104298857Y-66873285D01*
X104156000Y-66730428D01*
X104013142Y-66444714D01*
X104013142Y-65587571D01*
X104156000Y-65301857D01*
X104298857Y-65159000D01*
X104584571Y-65016142D01*
X105013142Y-65016142D01*
X105298857Y-65159000D01*
X105441714Y-65301857D01*
X105584571Y-65587571D01*
X105584571Y-66444714D01*
X105441714Y-66730428D01*
X105298857Y-66873285D01*
X105013142Y-67016142D01*
X104584571Y-67016142D01*
X108156000Y-66873285D02*
X107870285Y-67016142D01*
X107298857Y-67016142D01*
X107013142Y-66873285D01*
X106870285Y-66730428D01*
X106727428Y-66444714D01*
X106727428Y-65587571D01*
X106870285Y-65301857D01*
X107013142Y-65159000D01*
X107298857Y-65016142D01*
X107870285Y-65016142D01*
X108156000Y-65159000D01*
X109441714Y-67016142D02*
X109441714Y-64016142D01*
X109727428Y-65873285D02*
X110584571Y-67016142D01*
X110584571Y-65016142D02*
X109441714Y-66159000D01*
D11*
X108690210Y-90678000D02*
G75*
G03*
X108690210Y-90678000I-359210J0D01*
G01*
D12*
G04 #@! TO.C,REF\u002A\u002A*
G36*
X119646878Y-66137776D02*
G01*
X119752612Y-66138355D01*
X119829132Y-66139922D01*
X119881372Y-66142972D01*
X119914263Y-66147996D01*
X119932737Y-66155489D01*
X119941727Y-66165944D01*
X119946163Y-66179853D01*
X119946594Y-66181654D01*
X119953333Y-66214145D01*
X119965808Y-66278252D01*
X119982719Y-66367151D01*
X120002771Y-66474019D01*
X120024664Y-66592033D01*
X120025429Y-66596178D01*
X120047359Y-66711831D01*
X120067877Y-66814014D01*
X120085659Y-66896598D01*
X120099381Y-66953456D01*
X120107718Y-66978458D01*
X120108116Y-66978901D01*
X120132677Y-66991110D01*
X120183315Y-67011456D01*
X120249095Y-67035545D01*
X120249461Y-67035674D01*
X120332317Y-67066818D01*
X120430000Y-67106491D01*
X120522077Y-67146381D01*
X120526434Y-67148353D01*
X120676407Y-67216420D01*
X121008498Y-66989639D01*
X121110374Y-66920504D01*
X121202657Y-66858697D01*
X121280003Y-66807733D01*
X121337064Y-66771127D01*
X121368495Y-66752394D01*
X121371479Y-66751004D01*
X121394321Y-66757190D01*
X121436982Y-66787035D01*
X121501128Y-66841947D01*
X121588421Y-66923334D01*
X121677535Y-67009922D01*
X121763441Y-67095247D01*
X121840327Y-67173108D01*
X121903564Y-67238697D01*
X121948523Y-67287205D01*
X121970576Y-67313825D01*
X121971396Y-67315195D01*
X121973834Y-67333463D01*
X121964650Y-67363295D01*
X121941574Y-67408721D01*
X121902337Y-67473770D01*
X121844670Y-67562470D01*
X121767795Y-67676657D01*
X121699570Y-67777162D01*
X121638582Y-67867303D01*
X121588356Y-67941849D01*
X121552416Y-67995565D01*
X121534287Y-68023218D01*
X121533146Y-68025095D01*
X121535359Y-68051590D01*
X121552138Y-68103086D01*
X121580142Y-68169851D01*
X121590122Y-68191172D01*
X121633672Y-68286159D01*
X121680134Y-68393937D01*
X121717877Y-68487192D01*
X121745073Y-68556406D01*
X121766675Y-68609006D01*
X121779158Y-68636497D01*
X121780709Y-68638616D01*
X121803668Y-68642124D01*
X121857786Y-68651738D01*
X121935868Y-68666089D01*
X122030719Y-68683807D01*
X122135143Y-68703525D01*
X122241944Y-68723874D01*
X122343926Y-68743486D01*
X122433894Y-68760991D01*
X122504653Y-68775022D01*
X122549006Y-68784209D01*
X122559885Y-68786807D01*
X122571122Y-68793218D01*
X122579605Y-68807697D01*
X122585714Y-68835133D01*
X122589832Y-68880411D01*
X122592341Y-68948420D01*
X122593621Y-69044047D01*
X122594054Y-69172180D01*
X122594077Y-69224701D01*
X122594077Y-69651845D01*
X122491500Y-69672091D01*
X122434431Y-69683070D01*
X122349269Y-69699095D01*
X122246372Y-69718233D01*
X122136096Y-69738551D01*
X122105615Y-69744132D01*
X122003855Y-69763917D01*
X121915205Y-69783373D01*
X121847108Y-69800697D01*
X121807004Y-69814088D01*
X121800323Y-69818079D01*
X121783919Y-69846342D01*
X121760399Y-69901109D01*
X121734316Y-69971588D01*
X121729142Y-69986769D01*
X121694956Y-70080896D01*
X121652523Y-70187101D01*
X121610997Y-70282473D01*
X121610792Y-70282916D01*
X121541640Y-70432525D01*
X121996512Y-71101617D01*
X121704500Y-71394116D01*
X121616180Y-71481170D01*
X121535625Y-71557909D01*
X121467360Y-71620237D01*
X121415908Y-71664056D01*
X121385794Y-71685270D01*
X121381474Y-71686616D01*
X121356111Y-71676016D01*
X121304358Y-71646547D01*
X121231868Y-71601705D01*
X121144294Y-71544984D01*
X121049612Y-71481462D01*
X120953516Y-71416668D01*
X120867837Y-71360287D01*
X120798016Y-71315788D01*
X120749494Y-71286639D01*
X120727782Y-71276308D01*
X120701293Y-71285050D01*
X120651062Y-71308087D01*
X120587451Y-71340631D01*
X120580708Y-71344249D01*
X120495046Y-71387210D01*
X120436306Y-71408279D01*
X120399772Y-71408503D01*
X120380731Y-71388928D01*
X120380620Y-71388654D01*
X120371102Y-71365472D01*
X120348403Y-71310441D01*
X120314282Y-71227822D01*
X120270500Y-71121872D01*
X120218816Y-70996852D01*
X120160992Y-70857020D01*
X120104991Y-70721637D01*
X120043447Y-70572234D01*
X119986939Y-70433832D01*
X119937161Y-70310673D01*
X119895806Y-70207002D01*
X119864568Y-70127059D01*
X119845141Y-70075088D01*
X119839154Y-70055692D01*
X119854168Y-70033443D01*
X119893439Y-69997982D01*
X119945807Y-69958887D01*
X120094941Y-69835245D01*
X120211511Y-69693522D01*
X120294118Y-69536704D01*
X120341366Y-69367775D01*
X120351857Y-69189722D01*
X120344231Y-69107539D01*
X120302682Y-68937031D01*
X120231123Y-68786459D01*
X120133995Y-68657309D01*
X120015734Y-68551064D01*
X119880780Y-68469210D01*
X119733571Y-68413232D01*
X119578544Y-68384615D01*
X119420139Y-68384844D01*
X119262794Y-68415405D01*
X119110946Y-68477782D01*
X118969035Y-68573460D01*
X118909803Y-68627572D01*
X118796203Y-68766520D01*
X118717106Y-68918361D01*
X118671986Y-69078667D01*
X118660316Y-69243012D01*
X118681569Y-69406971D01*
X118735220Y-69566118D01*
X118820740Y-69716025D01*
X118937605Y-69852267D01*
X119068193Y-69958887D01*
X119122588Y-69999642D01*
X119161014Y-70034718D01*
X119174846Y-70055726D01*
X119167603Y-70078635D01*
X119147005Y-70133365D01*
X119114746Y-70215672D01*
X119072521Y-70321315D01*
X119022023Y-70446050D01*
X118964948Y-70585636D01*
X118908854Y-70721670D01*
X118846967Y-70871201D01*
X118789644Y-71009767D01*
X118738644Y-71133107D01*
X118695727Y-71236964D01*
X118662653Y-71317080D01*
X118641181Y-71369195D01*
X118633225Y-71388654D01*
X118614429Y-71408423D01*
X118578074Y-71408365D01*
X118519479Y-71387441D01*
X118433968Y-71344613D01*
X118433292Y-71344249D01*
X118368907Y-71311012D01*
X118316861Y-71286802D01*
X118287512Y-71276404D01*
X118286217Y-71276308D01*
X118264124Y-71286855D01*
X118215348Y-71316184D01*
X118145331Y-71360827D01*
X118059514Y-71417314D01*
X117964388Y-71481462D01*
X117867540Y-71546411D01*
X117780253Y-71602896D01*
X117708181Y-71647421D01*
X117656977Y-71676490D01*
X117632526Y-71686616D01*
X117610010Y-71673307D01*
X117564742Y-71636112D01*
X117501244Y-71579128D01*
X117424039Y-71506449D01*
X117337651Y-71422171D01*
X117309399Y-71394016D01*
X117017287Y-71101416D01*
X117239631Y-70775104D01*
X117307202Y-70674897D01*
X117366507Y-70584963D01*
X117414217Y-70510510D01*
X117447007Y-70456751D01*
X117461548Y-70428894D01*
X117461974Y-70426912D01*
X117454308Y-70400655D01*
X117433689Y-70347837D01*
X117403685Y-70277310D01*
X117382625Y-70230093D01*
X117343248Y-70139694D01*
X117306165Y-70048366D01*
X117277415Y-69971200D01*
X117269605Y-69947692D01*
X117247417Y-69884916D01*
X117225727Y-69836411D01*
X117213813Y-69818079D01*
X117187523Y-69806859D01*
X117130142Y-69790954D01*
X117049118Y-69772167D01*
X116951895Y-69752299D01*
X116908385Y-69744132D01*
X116797896Y-69723829D01*
X116691916Y-69704170D01*
X116600801Y-69687088D01*
X116534908Y-69674518D01*
X116522500Y-69672091D01*
X116419923Y-69651845D01*
X116419923Y-69224701D01*
X116420153Y-69084246D01*
X116421099Y-68977979D01*
X116423141Y-68901013D01*
X116426662Y-68848460D01*
X116432043Y-68815433D01*
X116439666Y-68797045D01*
X116449912Y-68788408D01*
X116454115Y-68786807D01*
X116479470Y-68781127D01*
X116535484Y-68769795D01*
X116614964Y-68754179D01*
X116710712Y-68735647D01*
X116815533Y-68715569D01*
X116922232Y-68695312D01*
X117023613Y-68676246D01*
X117112479Y-68659739D01*
X117181637Y-68647159D01*
X117223889Y-68639875D01*
X117233290Y-68638616D01*
X117241807Y-68621763D01*
X117260660Y-68576870D01*
X117286324Y-68512430D01*
X117296123Y-68487192D01*
X117335648Y-68389686D01*
X117382192Y-68281959D01*
X117423877Y-68191172D01*
X117454550Y-68121753D01*
X117474956Y-68064710D01*
X117481768Y-68029777D01*
X117480682Y-68025095D01*
X117466285Y-68002991D01*
X117433412Y-67953831D01*
X117385590Y-67882848D01*
X117326348Y-67795278D01*
X117259215Y-67696357D01*
X117245941Y-67676830D01*
X117168046Y-67561140D01*
X117110787Y-67473044D01*
X117071881Y-67408486D01*
X117049044Y-67363411D01*
X117039994Y-67333763D01*
X117042448Y-67315485D01*
X117042511Y-67315369D01*
X117061827Y-67291361D01*
X117104551Y-67244947D01*
X117166051Y-67180937D01*
X117241698Y-67104145D01*
X117326861Y-67019382D01*
X117336465Y-67009922D01*
X117443790Y-66905989D01*
X117526615Y-66829675D01*
X117586605Y-66779571D01*
X117625423Y-66754270D01*
X117642520Y-66751004D01*
X117667473Y-66765250D01*
X117719255Y-66798156D01*
X117792520Y-66846208D01*
X117881920Y-66905890D01*
X117982111Y-66973688D01*
X118005501Y-66989639D01*
X118337593Y-67216420D01*
X118487565Y-67148353D01*
X118578770Y-67108685D01*
X118676669Y-67068791D01*
X118760831Y-67036983D01*
X118764538Y-67035674D01*
X118830369Y-67011576D01*
X118881116Y-66991200D01*
X118905842Y-66978936D01*
X118905884Y-66978901D01*
X118913729Y-66956734D01*
X118927066Y-66902217D01*
X118944570Y-66821480D01*
X118964917Y-66720650D01*
X118986782Y-66605856D01*
X118988571Y-66596178D01*
X119010504Y-66477904D01*
X119030640Y-66370542D01*
X119047680Y-66280917D01*
X119060328Y-66215851D01*
X119067284Y-66182168D01*
X119067406Y-66181654D01*
X119071639Y-66167325D01*
X119079871Y-66156507D01*
X119097033Y-66148706D01*
X119128058Y-66143429D01*
X119177878Y-66140182D01*
X119251424Y-66138472D01*
X119353629Y-66137807D01*
X119489425Y-66137693D01*
X119507000Y-66137692D01*
X119646878Y-66137776D01*
G37*
X119646878Y-66137776D02*
X119752612Y-66138355D01*
X119829132Y-66139922D01*
X119881372Y-66142972D01*
X119914263Y-66147996D01*
X119932737Y-66155489D01*
X119941727Y-66165944D01*
X119946163Y-66179853D01*
X119946594Y-66181654D01*
X119953333Y-66214145D01*
X119965808Y-66278252D01*
X119982719Y-66367151D01*
X120002771Y-66474019D01*
X120024664Y-66592033D01*
X120025429Y-66596178D01*
X120047359Y-66711831D01*
X120067877Y-66814014D01*
X120085659Y-66896598D01*
X120099381Y-66953456D01*
X120107718Y-66978458D01*
X120108116Y-66978901D01*
X120132677Y-66991110D01*
X120183315Y-67011456D01*
X120249095Y-67035545D01*
X120249461Y-67035674D01*
X120332317Y-67066818D01*
X120430000Y-67106491D01*
X120522077Y-67146381D01*
X120526434Y-67148353D01*
X120676407Y-67216420D01*
X121008498Y-66989639D01*
X121110374Y-66920504D01*
X121202657Y-66858697D01*
X121280003Y-66807733D01*
X121337064Y-66771127D01*
X121368495Y-66752394D01*
X121371479Y-66751004D01*
X121394321Y-66757190D01*
X121436982Y-66787035D01*
X121501128Y-66841947D01*
X121588421Y-66923334D01*
X121677535Y-67009922D01*
X121763441Y-67095247D01*
X121840327Y-67173108D01*
X121903564Y-67238697D01*
X121948523Y-67287205D01*
X121970576Y-67313825D01*
X121971396Y-67315195D01*
X121973834Y-67333463D01*
X121964650Y-67363295D01*
X121941574Y-67408721D01*
X121902337Y-67473770D01*
X121844670Y-67562470D01*
X121767795Y-67676657D01*
X121699570Y-67777162D01*
X121638582Y-67867303D01*
X121588356Y-67941849D01*
X121552416Y-67995565D01*
X121534287Y-68023218D01*
X121533146Y-68025095D01*
X121535359Y-68051590D01*
X121552138Y-68103086D01*
X121580142Y-68169851D01*
X121590122Y-68191172D01*
X121633672Y-68286159D01*
X121680134Y-68393937D01*
X121717877Y-68487192D01*
X121745073Y-68556406D01*
X121766675Y-68609006D01*
X121779158Y-68636497D01*
X121780709Y-68638616D01*
X121803668Y-68642124D01*
X121857786Y-68651738D01*
X121935868Y-68666089D01*
X122030719Y-68683807D01*
X122135143Y-68703525D01*
X122241944Y-68723874D01*
X122343926Y-68743486D01*
X122433894Y-68760991D01*
X122504653Y-68775022D01*
X122549006Y-68784209D01*
X122559885Y-68786807D01*
X122571122Y-68793218D01*
X122579605Y-68807697D01*
X122585714Y-68835133D01*
X122589832Y-68880411D01*
X122592341Y-68948420D01*
X122593621Y-69044047D01*
X122594054Y-69172180D01*
X122594077Y-69224701D01*
X122594077Y-69651845D01*
X122491500Y-69672091D01*
X122434431Y-69683070D01*
X122349269Y-69699095D01*
X122246372Y-69718233D01*
X122136096Y-69738551D01*
X122105615Y-69744132D01*
X122003855Y-69763917D01*
X121915205Y-69783373D01*
X121847108Y-69800697D01*
X121807004Y-69814088D01*
X121800323Y-69818079D01*
X121783919Y-69846342D01*
X121760399Y-69901109D01*
X121734316Y-69971588D01*
X121729142Y-69986769D01*
X121694956Y-70080896D01*
X121652523Y-70187101D01*
X121610997Y-70282473D01*
X121610792Y-70282916D01*
X121541640Y-70432525D01*
X121996512Y-71101617D01*
X121704500Y-71394116D01*
X121616180Y-71481170D01*
X121535625Y-71557909D01*
X121467360Y-71620237D01*
X121415908Y-71664056D01*
X121385794Y-71685270D01*
X121381474Y-71686616D01*
X121356111Y-71676016D01*
X121304358Y-71646547D01*
X121231868Y-71601705D01*
X121144294Y-71544984D01*
X121049612Y-71481462D01*
X120953516Y-71416668D01*
X120867837Y-71360287D01*
X120798016Y-71315788D01*
X120749494Y-71286639D01*
X120727782Y-71276308D01*
X120701293Y-71285050D01*
X120651062Y-71308087D01*
X120587451Y-71340631D01*
X120580708Y-71344249D01*
X120495046Y-71387210D01*
X120436306Y-71408279D01*
X120399772Y-71408503D01*
X120380731Y-71388928D01*
X120380620Y-71388654D01*
X120371102Y-71365472D01*
X120348403Y-71310441D01*
X120314282Y-71227822D01*
X120270500Y-71121872D01*
X120218816Y-70996852D01*
X120160992Y-70857020D01*
X120104991Y-70721637D01*
X120043447Y-70572234D01*
X119986939Y-70433832D01*
X119937161Y-70310673D01*
X119895806Y-70207002D01*
X119864568Y-70127059D01*
X119845141Y-70075088D01*
X119839154Y-70055692D01*
X119854168Y-70033443D01*
X119893439Y-69997982D01*
X119945807Y-69958887D01*
X120094941Y-69835245D01*
X120211511Y-69693522D01*
X120294118Y-69536704D01*
X120341366Y-69367775D01*
X120351857Y-69189722D01*
X120344231Y-69107539D01*
X120302682Y-68937031D01*
X120231123Y-68786459D01*
X120133995Y-68657309D01*
X120015734Y-68551064D01*
X119880780Y-68469210D01*
X119733571Y-68413232D01*
X119578544Y-68384615D01*
X119420139Y-68384844D01*
X119262794Y-68415405D01*
X119110946Y-68477782D01*
X118969035Y-68573460D01*
X118909803Y-68627572D01*
X118796203Y-68766520D01*
X118717106Y-68918361D01*
X118671986Y-69078667D01*
X118660316Y-69243012D01*
X118681569Y-69406971D01*
X118735220Y-69566118D01*
X118820740Y-69716025D01*
X118937605Y-69852267D01*
X119068193Y-69958887D01*
X119122588Y-69999642D01*
X119161014Y-70034718D01*
X119174846Y-70055726D01*
X119167603Y-70078635D01*
X119147005Y-70133365D01*
X119114746Y-70215672D01*
X119072521Y-70321315D01*
X119022023Y-70446050D01*
X118964948Y-70585636D01*
X118908854Y-70721670D01*
X118846967Y-70871201D01*
X118789644Y-71009767D01*
X118738644Y-71133107D01*
X118695727Y-71236964D01*
X118662653Y-71317080D01*
X118641181Y-71369195D01*
X118633225Y-71388654D01*
X118614429Y-71408423D01*
X118578074Y-71408365D01*
X118519479Y-71387441D01*
X118433968Y-71344613D01*
X118433292Y-71344249D01*
X118368907Y-71311012D01*
X118316861Y-71286802D01*
X118287512Y-71276404D01*
X118286217Y-71276308D01*
X118264124Y-71286855D01*
X118215348Y-71316184D01*
X118145331Y-71360827D01*
X118059514Y-71417314D01*
X117964388Y-71481462D01*
X117867540Y-71546411D01*
X117780253Y-71602896D01*
X117708181Y-71647421D01*
X117656977Y-71676490D01*
X117632526Y-71686616D01*
X117610010Y-71673307D01*
X117564742Y-71636112D01*
X117501244Y-71579128D01*
X117424039Y-71506449D01*
X117337651Y-71422171D01*
X117309399Y-71394016D01*
X117017287Y-71101416D01*
X117239631Y-70775104D01*
X117307202Y-70674897D01*
X117366507Y-70584963D01*
X117414217Y-70510510D01*
X117447007Y-70456751D01*
X117461548Y-70428894D01*
X117461974Y-70426912D01*
X117454308Y-70400655D01*
X117433689Y-70347837D01*
X117403685Y-70277310D01*
X117382625Y-70230093D01*
X117343248Y-70139694D01*
X117306165Y-70048366D01*
X117277415Y-69971200D01*
X117269605Y-69947692D01*
X117247417Y-69884916D01*
X117225727Y-69836411D01*
X117213813Y-69818079D01*
X117187523Y-69806859D01*
X117130142Y-69790954D01*
X117049118Y-69772167D01*
X116951895Y-69752299D01*
X116908385Y-69744132D01*
X116797896Y-69723829D01*
X116691916Y-69704170D01*
X116600801Y-69687088D01*
X116534908Y-69674518D01*
X116522500Y-69672091D01*
X116419923Y-69651845D01*
X116419923Y-69224701D01*
X116420153Y-69084246D01*
X116421099Y-68977979D01*
X116423141Y-68901013D01*
X116426662Y-68848460D01*
X116432043Y-68815433D01*
X116439666Y-68797045D01*
X116449912Y-68788408D01*
X116454115Y-68786807D01*
X116479470Y-68781127D01*
X116535484Y-68769795D01*
X116614964Y-68754179D01*
X116710712Y-68735647D01*
X116815533Y-68715569D01*
X116922232Y-68695312D01*
X117023613Y-68676246D01*
X117112479Y-68659739D01*
X117181637Y-68647159D01*
X117223889Y-68639875D01*
X117233290Y-68638616D01*
X117241807Y-68621763D01*
X117260660Y-68576870D01*
X117286324Y-68512430D01*
X117296123Y-68487192D01*
X117335648Y-68389686D01*
X117382192Y-68281959D01*
X117423877Y-68191172D01*
X117454550Y-68121753D01*
X117474956Y-68064710D01*
X117481768Y-68029777D01*
X117480682Y-68025095D01*
X117466285Y-68002991D01*
X117433412Y-67953831D01*
X117385590Y-67882848D01*
X117326348Y-67795278D01*
X117259215Y-67696357D01*
X117245941Y-67676830D01*
X117168046Y-67561140D01*
X117110787Y-67473044D01*
X117071881Y-67408486D01*
X117049044Y-67363411D01*
X117039994Y-67333763D01*
X117042448Y-67315485D01*
X117042511Y-67315369D01*
X117061827Y-67291361D01*
X117104551Y-67244947D01*
X117166051Y-67180937D01*
X117241698Y-67104145D01*
X117326861Y-67019382D01*
X117336465Y-67009922D01*
X117443790Y-66905989D01*
X117526615Y-66829675D01*
X117586605Y-66779571D01*
X117625423Y-66754270D01*
X117642520Y-66751004D01*
X117667473Y-66765250D01*
X117719255Y-66798156D01*
X117792520Y-66846208D01*
X117881920Y-66905890D01*
X117982111Y-66973688D01*
X118005501Y-66989639D01*
X118337593Y-67216420D01*
X118487565Y-67148353D01*
X118578770Y-67108685D01*
X118676669Y-67068791D01*
X118760831Y-67036983D01*
X118764538Y-67035674D01*
X118830369Y-67011576D01*
X118881116Y-66991200D01*
X118905842Y-66978936D01*
X118905884Y-66978901D01*
X118913729Y-66956734D01*
X118927066Y-66902217D01*
X118944570Y-66821480D01*
X118964917Y-66720650D01*
X118986782Y-66605856D01*
X118988571Y-66596178D01*
X119010504Y-66477904D01*
X119030640Y-66370542D01*
X119047680Y-66280917D01*
X119060328Y-66215851D01*
X119067284Y-66182168D01*
X119067406Y-66181654D01*
X119071639Y-66167325D01*
X119079871Y-66156507D01*
X119097033Y-66148706D01*
X119128058Y-66143429D01*
X119177878Y-66140182D01*
X119251424Y-66138472D01*
X119353629Y-66137807D01*
X119489425Y-66137693D01*
X119507000Y-66137692D01*
X119646878Y-66137776D01*
G36*
X123752224Y-72497838D02*
G01*
X123829528Y-72548361D01*
X123866814Y-72593590D01*
X123896353Y-72675663D01*
X123898699Y-72740607D01*
X123893385Y-72827445D01*
X123693115Y-72915103D01*
X123595739Y-72959887D01*
X123532113Y-72995913D01*
X123499029Y-73027117D01*
X123493280Y-73057436D01*
X123511658Y-73090805D01*
X123531923Y-73112923D01*
X123590889Y-73148393D01*
X123655024Y-73150879D01*
X123713926Y-73123235D01*
X123757197Y-73068320D01*
X123764936Y-73048928D01*
X123802006Y-72988364D01*
X123844654Y-72962552D01*
X123903154Y-72940471D01*
X123903154Y-73024184D01*
X123897982Y-73081150D01*
X123877723Y-73129189D01*
X123835262Y-73184346D01*
X123828951Y-73191514D01*
X123781720Y-73240585D01*
X123741121Y-73266920D01*
X123690328Y-73279035D01*
X123648220Y-73283003D01*
X123572902Y-73283991D01*
X123519286Y-73271466D01*
X123485838Y-73252869D01*
X123433268Y-73211975D01*
X123396879Y-73167748D01*
X123373850Y-73112126D01*
X123361359Y-73037047D01*
X123356587Y-72934449D01*
X123356206Y-72882376D01*
X123357501Y-72819948D01*
X123475471Y-72819948D01*
X123476839Y-72853438D01*
X123480249Y-72858923D01*
X123502753Y-72851472D01*
X123551182Y-72831753D01*
X123615908Y-72803718D01*
X123629443Y-72797692D01*
X123711244Y-72756096D01*
X123756312Y-72719538D01*
X123766217Y-72685296D01*
X123742526Y-72650648D01*
X123722960Y-72635339D01*
X123652360Y-72604721D01*
X123586280Y-72609780D01*
X123530959Y-72647151D01*
X123492636Y-72713473D01*
X123480349Y-72766116D01*
X123475471Y-72819948D01*
X123357501Y-72819948D01*
X123358730Y-72760720D01*
X123368032Y-72670710D01*
X123386460Y-72605167D01*
X123416360Y-72556912D01*
X123460080Y-72518767D01*
X123479141Y-72506440D01*
X123565726Y-72474336D01*
X123660522Y-72472316D01*
X123752224Y-72497838D01*
G37*
X123752224Y-72497838D02*
X123829528Y-72548361D01*
X123866814Y-72593590D01*
X123896353Y-72675663D01*
X123898699Y-72740607D01*
X123893385Y-72827445D01*
X123693115Y-72915103D01*
X123595739Y-72959887D01*
X123532113Y-72995913D01*
X123499029Y-73027117D01*
X123493280Y-73057436D01*
X123511658Y-73090805D01*
X123531923Y-73112923D01*
X123590889Y-73148393D01*
X123655024Y-73150879D01*
X123713926Y-73123235D01*
X123757197Y-73068320D01*
X123764936Y-73048928D01*
X123802006Y-72988364D01*
X123844654Y-72962552D01*
X123903154Y-72940471D01*
X123903154Y-73024184D01*
X123897982Y-73081150D01*
X123877723Y-73129189D01*
X123835262Y-73184346D01*
X123828951Y-73191514D01*
X123781720Y-73240585D01*
X123741121Y-73266920D01*
X123690328Y-73279035D01*
X123648220Y-73283003D01*
X123572902Y-73283991D01*
X123519286Y-73271466D01*
X123485838Y-73252869D01*
X123433268Y-73211975D01*
X123396879Y-73167748D01*
X123373850Y-73112126D01*
X123361359Y-73037047D01*
X123356587Y-72934449D01*
X123356206Y-72882376D01*
X123357501Y-72819948D01*
X123475471Y-72819948D01*
X123476839Y-72853438D01*
X123480249Y-72858923D01*
X123502753Y-72851472D01*
X123551182Y-72831753D01*
X123615908Y-72803718D01*
X123629443Y-72797692D01*
X123711244Y-72756096D01*
X123756312Y-72719538D01*
X123766217Y-72685296D01*
X123742526Y-72650648D01*
X123722960Y-72635339D01*
X123652360Y-72604721D01*
X123586280Y-72609780D01*
X123530959Y-72647151D01*
X123492636Y-72713473D01*
X123480349Y-72766116D01*
X123475471Y-72819948D01*
X123357501Y-72819948D01*
X123358730Y-72760720D01*
X123368032Y-72670710D01*
X123386460Y-72605167D01*
X123416360Y-72556912D01*
X123460080Y-72518767D01*
X123479141Y-72506440D01*
X123565726Y-72474336D01*
X123660522Y-72472316D01*
X123752224Y-72497838D01*
G36*
X123077807Y-72486782D02*
G01*
X123101161Y-72496988D01*
X123156902Y-72541134D01*
X123204569Y-72604967D01*
X123234048Y-72673087D01*
X123238846Y-72706670D01*
X123222760Y-72753556D01*
X123187475Y-72778365D01*
X123149644Y-72793387D01*
X123132321Y-72796155D01*
X123123886Y-72776066D01*
X123107230Y-72732351D01*
X123099923Y-72712598D01*
X123058948Y-72644271D01*
X122999622Y-72610191D01*
X122923552Y-72611239D01*
X122917918Y-72612581D01*
X122877305Y-72631836D01*
X122847448Y-72669375D01*
X122827055Y-72729809D01*
X122814836Y-72817751D01*
X122809500Y-72937813D01*
X122809000Y-73001698D01*
X122808752Y-73102403D01*
X122807126Y-73171054D01*
X122802801Y-73214673D01*
X122794454Y-73240282D01*
X122780765Y-73254903D01*
X122760411Y-73265558D01*
X122759234Y-73266095D01*
X122720038Y-73282667D01*
X122700619Y-73288769D01*
X122697635Y-73270319D01*
X122695081Y-73219323D01*
X122693140Y-73142308D01*
X122691997Y-73045805D01*
X122691769Y-72975184D01*
X122692932Y-72838525D01*
X122697479Y-72734851D01*
X122706999Y-72658108D01*
X122723081Y-72602246D01*
X122747313Y-72561212D01*
X122781286Y-72528954D01*
X122814833Y-72506440D01*
X122895499Y-72476476D01*
X122989381Y-72469718D01*
X123077807Y-72486782D01*
G37*
X123077807Y-72486782D02*
X123101161Y-72496988D01*
X123156902Y-72541134D01*
X123204569Y-72604967D01*
X123234048Y-72673087D01*
X123238846Y-72706670D01*
X123222760Y-72753556D01*
X123187475Y-72778365D01*
X123149644Y-72793387D01*
X123132321Y-72796155D01*
X123123886Y-72776066D01*
X123107230Y-72732351D01*
X123099923Y-72712598D01*
X123058948Y-72644271D01*
X122999622Y-72610191D01*
X122923552Y-72611239D01*
X122917918Y-72612581D01*
X122877305Y-72631836D01*
X122847448Y-72669375D01*
X122827055Y-72729809D01*
X122814836Y-72817751D01*
X122809500Y-72937813D01*
X122809000Y-73001698D01*
X122808752Y-73102403D01*
X122807126Y-73171054D01*
X122802801Y-73214673D01*
X122794454Y-73240282D01*
X122780765Y-73254903D01*
X122760411Y-73265558D01*
X122759234Y-73266095D01*
X122720038Y-73282667D01*
X122700619Y-73288769D01*
X122697635Y-73270319D01*
X122695081Y-73219323D01*
X122693140Y-73142308D01*
X122691997Y-73045805D01*
X122691769Y-72975184D01*
X122692932Y-72838525D01*
X122697479Y-72734851D01*
X122706999Y-72658108D01*
X122723081Y-72602246D01*
X122747313Y-72561212D01*
X122781286Y-72528954D01*
X122814833Y-72506440D01*
X122895499Y-72476476D01*
X122989381Y-72469718D01*
X123077807Y-72486782D01*
G36*
X122394333Y-72483528D02*
G01*
X122450590Y-72509117D01*
X122494747Y-72540124D01*
X122527101Y-72574795D01*
X122549438Y-72619520D01*
X122563546Y-72680692D01*
X122571211Y-72764701D01*
X122574220Y-72877940D01*
X122574538Y-72952509D01*
X122574538Y-73243420D01*
X122524773Y-73266095D01*
X122485576Y-73282667D01*
X122466157Y-73288769D01*
X122462442Y-73270610D01*
X122459495Y-73221648D01*
X122457691Y-73150153D01*
X122457308Y-73093385D01*
X122455661Y-73011371D01*
X122451222Y-72946309D01*
X122444740Y-72906467D01*
X122439590Y-72898000D01*
X122404977Y-72906646D01*
X122350640Y-72928823D01*
X122287722Y-72958886D01*
X122227368Y-72991192D01*
X122180721Y-73020098D01*
X122158926Y-73039961D01*
X122158839Y-73040175D01*
X122160714Y-73076935D01*
X122177525Y-73112026D01*
X122207039Y-73140528D01*
X122250116Y-73150061D01*
X122286932Y-73148950D01*
X122339074Y-73148133D01*
X122366444Y-73160349D01*
X122382882Y-73192624D01*
X122384955Y-73198710D01*
X122392081Y-73244739D01*
X122373024Y-73272687D01*
X122323353Y-73286007D01*
X122269697Y-73288470D01*
X122173142Y-73270210D01*
X122123159Y-73244131D01*
X122061429Y-73182868D01*
X122028690Y-73107670D01*
X122025753Y-73028211D01*
X122053424Y-72954167D01*
X122095047Y-72907769D01*
X122136604Y-72881793D01*
X122201922Y-72848907D01*
X122278038Y-72815557D01*
X122290726Y-72810461D01*
X122374333Y-72773565D01*
X122422530Y-72741046D01*
X122438030Y-72708718D01*
X122423550Y-72672394D01*
X122398692Y-72644000D01*
X122339939Y-72609039D01*
X122275293Y-72606417D01*
X122216008Y-72633358D01*
X122173339Y-72687088D01*
X122167739Y-72700950D01*
X122135133Y-72751936D01*
X122087530Y-72789787D01*
X122027461Y-72820850D01*
X122027461Y-72732768D01*
X122030997Y-72678951D01*
X122046156Y-72636534D01*
X122079768Y-72591279D01*
X122112035Y-72556420D01*
X122162209Y-72507062D01*
X122201193Y-72480547D01*
X122243064Y-72469911D01*
X122290460Y-72468154D01*
X122394333Y-72483528D01*
G37*
X122394333Y-72483528D02*
X122450590Y-72509117D01*
X122494747Y-72540124D01*
X122527101Y-72574795D01*
X122549438Y-72619520D01*
X122563546Y-72680692D01*
X122571211Y-72764701D01*
X122574220Y-72877940D01*
X122574538Y-72952509D01*
X122574538Y-73243420D01*
X122524773Y-73266095D01*
X122485576Y-73282667D01*
X122466157Y-73288769D01*
X122462442Y-73270610D01*
X122459495Y-73221648D01*
X122457691Y-73150153D01*
X122457308Y-73093385D01*
X122455661Y-73011371D01*
X122451222Y-72946309D01*
X122444740Y-72906467D01*
X122439590Y-72898000D01*
X122404977Y-72906646D01*
X122350640Y-72928823D01*
X122287722Y-72958886D01*
X122227368Y-72991192D01*
X122180721Y-73020098D01*
X122158926Y-73039961D01*
X122158839Y-73040175D01*
X122160714Y-73076935D01*
X122177525Y-73112026D01*
X122207039Y-73140528D01*
X122250116Y-73150061D01*
X122286932Y-73148950D01*
X122339074Y-73148133D01*
X122366444Y-73160349D01*
X122382882Y-73192624D01*
X122384955Y-73198710D01*
X122392081Y-73244739D01*
X122373024Y-73272687D01*
X122323353Y-73286007D01*
X122269697Y-73288470D01*
X122173142Y-73270210D01*
X122123159Y-73244131D01*
X122061429Y-73182868D01*
X122028690Y-73107670D01*
X122025753Y-73028211D01*
X122053424Y-72954167D01*
X122095047Y-72907769D01*
X122136604Y-72881793D01*
X122201922Y-72848907D01*
X122278038Y-72815557D01*
X122290726Y-72810461D01*
X122374333Y-72773565D01*
X122422530Y-72741046D01*
X122438030Y-72708718D01*
X122423550Y-72672394D01*
X122398692Y-72644000D01*
X122339939Y-72609039D01*
X122275293Y-72606417D01*
X122216008Y-72633358D01*
X122173339Y-72687088D01*
X122167739Y-72700950D01*
X122135133Y-72751936D01*
X122087530Y-72789787D01*
X122027461Y-72820850D01*
X122027461Y-72732768D01*
X122030997Y-72678951D01*
X122046156Y-72636534D01*
X122079768Y-72591279D01*
X122112035Y-72556420D01*
X122162209Y-72507062D01*
X122201193Y-72480547D01*
X122243064Y-72469911D01*
X122290460Y-72468154D01*
X122394333Y-72483528D01*
G36*
X121902929Y-72486662D02*
G01*
X121905911Y-72538068D01*
X121908247Y-72616192D01*
X121909749Y-72714857D01*
X121910231Y-72818343D01*
X121910231Y-73168533D01*
X121848401Y-73230363D01*
X121805793Y-73268462D01*
X121768390Y-73283895D01*
X121717270Y-73282918D01*
X121696978Y-73280433D01*
X121633554Y-73273200D01*
X121581095Y-73269055D01*
X121568308Y-73268672D01*
X121525199Y-73271176D01*
X121463544Y-73277462D01*
X121439638Y-73280433D01*
X121380922Y-73285028D01*
X121341464Y-73275046D01*
X121302338Y-73244228D01*
X121288215Y-73230363D01*
X121226385Y-73168533D01*
X121226385Y-72513503D01*
X121276150Y-72490829D01*
X121319002Y-72474034D01*
X121344073Y-72468154D01*
X121350501Y-72486736D01*
X121356509Y-72538655D01*
X121361697Y-72618172D01*
X121365664Y-72719546D01*
X121367577Y-72805192D01*
X121372923Y-73142231D01*
X121419560Y-73148825D01*
X121461976Y-73144214D01*
X121482760Y-73129287D01*
X121488570Y-73101377D01*
X121493530Y-73041925D01*
X121497246Y-72958466D01*
X121499324Y-72858532D01*
X121499624Y-72807104D01*
X121499923Y-72511054D01*
X121561454Y-72489604D01*
X121605004Y-72475020D01*
X121628694Y-72468219D01*
X121629377Y-72468154D01*
X121631754Y-72486642D01*
X121634366Y-72537906D01*
X121636995Y-72615649D01*
X121639421Y-72713574D01*
X121641115Y-72805192D01*
X121646461Y-73142231D01*
X121763692Y-73142231D01*
X121769072Y-72834746D01*
X121774451Y-72527261D01*
X121831601Y-72497707D01*
X121873797Y-72477413D01*
X121898770Y-72468204D01*
X121899491Y-72468154D01*
X121902929Y-72486662D01*
G37*
X121902929Y-72486662D02*
X121905911Y-72538068D01*
X121908247Y-72616192D01*
X121909749Y-72714857D01*
X121910231Y-72818343D01*
X121910231Y-73168533D01*
X121848401Y-73230363D01*
X121805793Y-73268462D01*
X121768390Y-73283895D01*
X121717270Y-73282918D01*
X121696978Y-73280433D01*
X121633554Y-73273200D01*
X121581095Y-73269055D01*
X121568308Y-73268672D01*
X121525199Y-73271176D01*
X121463544Y-73277462D01*
X121439638Y-73280433D01*
X121380922Y-73285028D01*
X121341464Y-73275046D01*
X121302338Y-73244228D01*
X121288215Y-73230363D01*
X121226385Y-73168533D01*
X121226385Y-72513503D01*
X121276150Y-72490829D01*
X121319002Y-72474034D01*
X121344073Y-72468154D01*
X121350501Y-72486736D01*
X121356509Y-72538655D01*
X121361697Y-72618172D01*
X121365664Y-72719546D01*
X121367577Y-72805192D01*
X121372923Y-73142231D01*
X121419560Y-73148825D01*
X121461976Y-73144214D01*
X121482760Y-73129287D01*
X121488570Y-73101377D01*
X121493530Y-73041925D01*
X121497246Y-72958466D01*
X121499324Y-72858532D01*
X121499624Y-72807104D01*
X121499923Y-72511054D01*
X121561454Y-72489604D01*
X121605004Y-72475020D01*
X121628694Y-72468219D01*
X121629377Y-72468154D01*
X121631754Y-72486642D01*
X121634366Y-72537906D01*
X121636995Y-72615649D01*
X121639421Y-72713574D01*
X121641115Y-72805192D01*
X121646461Y-73142231D01*
X121763692Y-73142231D01*
X121769072Y-72834746D01*
X121774451Y-72527261D01*
X121831601Y-72497707D01*
X121873797Y-72477413D01*
X121898770Y-72468204D01*
X121899491Y-72468154D01*
X121902929Y-72486662D01*
G36*
X121109081Y-72630289D02*
G01*
X121108833Y-72776320D01*
X121107872Y-72888655D01*
X121105794Y-72972678D01*
X121102193Y-73033769D01*
X121096665Y-73077309D01*
X121088804Y-73108679D01*
X121078207Y-73133262D01*
X121070182Y-73147294D01*
X121003728Y-73223388D01*
X120919470Y-73271084D01*
X120826249Y-73288199D01*
X120732900Y-73272546D01*
X120677312Y-73244418D01*
X120618957Y-73195760D01*
X120579186Y-73136333D01*
X120555190Y-73058507D01*
X120544161Y-72954652D01*
X120542599Y-72878462D01*
X120542809Y-72872986D01*
X120679308Y-72872986D01*
X120680141Y-72960355D01*
X120683961Y-73018192D01*
X120692746Y-73056029D01*
X120708474Y-73083398D01*
X120727266Y-73104042D01*
X120790375Y-73143890D01*
X120858137Y-73147295D01*
X120922179Y-73114025D01*
X120927164Y-73109517D01*
X120948439Y-73086067D01*
X120961779Y-73058166D01*
X120969001Y-73016641D01*
X120971923Y-72952316D01*
X120972385Y-72881200D01*
X120971383Y-72791858D01*
X120967238Y-72732258D01*
X120958236Y-72693089D01*
X120942667Y-72665040D01*
X120929902Y-72650144D01*
X120870600Y-72612575D01*
X120802301Y-72608057D01*
X120737110Y-72636753D01*
X120724528Y-72647406D01*
X120703111Y-72671063D01*
X120689744Y-72699251D01*
X120682566Y-72741245D01*
X120679719Y-72806319D01*
X120679308Y-72872986D01*
X120542809Y-72872986D01*
X120547322Y-72755765D01*
X120563362Y-72663577D01*
X120593528Y-72594269D01*
X120640629Y-72540211D01*
X120677312Y-72512505D01*
X120743990Y-72482572D01*
X120821272Y-72468678D01*
X120893110Y-72472397D01*
X120933308Y-72487400D01*
X120949082Y-72491670D01*
X120959550Y-72475750D01*
X120966856Y-72433089D01*
X120972385Y-72368106D01*
X120978437Y-72295732D01*
X120986844Y-72252187D01*
X121002141Y-72227287D01*
X121028864Y-72210845D01*
X121045654Y-72203564D01*
X121109154Y-72176963D01*
X121109081Y-72630289D01*
G37*
X121109081Y-72630289D02*
X121108833Y-72776320D01*
X121107872Y-72888655D01*
X121105794Y-72972678D01*
X121102193Y-73033769D01*
X121096665Y-73077309D01*
X121088804Y-73108679D01*
X121078207Y-73133262D01*
X121070182Y-73147294D01*
X121003728Y-73223388D01*
X120919470Y-73271084D01*
X120826249Y-73288199D01*
X120732900Y-73272546D01*
X120677312Y-73244418D01*
X120618957Y-73195760D01*
X120579186Y-73136333D01*
X120555190Y-73058507D01*
X120544161Y-72954652D01*
X120542599Y-72878462D01*
X120542809Y-72872986D01*
X120679308Y-72872986D01*
X120680141Y-72960355D01*
X120683961Y-73018192D01*
X120692746Y-73056029D01*
X120708474Y-73083398D01*
X120727266Y-73104042D01*
X120790375Y-73143890D01*
X120858137Y-73147295D01*
X120922179Y-73114025D01*
X120927164Y-73109517D01*
X120948439Y-73086067D01*
X120961779Y-73058166D01*
X120969001Y-73016641D01*
X120971923Y-72952316D01*
X120972385Y-72881200D01*
X120971383Y-72791858D01*
X120967238Y-72732258D01*
X120958236Y-72693089D01*
X120942667Y-72665040D01*
X120929902Y-72650144D01*
X120870600Y-72612575D01*
X120802301Y-72608057D01*
X120737110Y-72636753D01*
X120724528Y-72647406D01*
X120703111Y-72671063D01*
X120689744Y-72699251D01*
X120682566Y-72741245D01*
X120679719Y-72806319D01*
X120679308Y-72872986D01*
X120542809Y-72872986D01*
X120547322Y-72755765D01*
X120563362Y-72663577D01*
X120593528Y-72594269D01*
X120640629Y-72540211D01*
X120677312Y-72512505D01*
X120743990Y-72482572D01*
X120821272Y-72468678D01*
X120893110Y-72472397D01*
X120933308Y-72487400D01*
X120949082Y-72491670D01*
X120959550Y-72475750D01*
X120966856Y-72433089D01*
X120972385Y-72368106D01*
X120978437Y-72295732D01*
X120986844Y-72252187D01*
X121002141Y-72227287D01*
X121028864Y-72210845D01*
X121045654Y-72203564D01*
X121109154Y-72176963D01*
X121109081Y-72630289D01*
G36*
X120220362Y-72474670D02*
G01*
X120309117Y-72507421D01*
X120381022Y-72565350D01*
X120409144Y-72606128D01*
X120439802Y-72680954D01*
X120439165Y-72735058D01*
X120406987Y-72771446D01*
X120395081Y-72777633D01*
X120343675Y-72796925D01*
X120317422Y-72791982D01*
X120308530Y-72759587D01*
X120308077Y-72741692D01*
X120291797Y-72675859D01*
X120249365Y-72629807D01*
X120190388Y-72607564D01*
X120124475Y-72613161D01*
X120070895Y-72642229D01*
X120052798Y-72658810D01*
X120039971Y-72678925D01*
X120031306Y-72709332D01*
X120025696Y-72756788D01*
X120022035Y-72828050D01*
X120019215Y-72929875D01*
X120018484Y-72962115D01*
X120015820Y-73072410D01*
X120012792Y-73150036D01*
X120008250Y-73201396D01*
X120001046Y-73232890D01*
X119990033Y-73250920D01*
X119974060Y-73261888D01*
X119963834Y-73266733D01*
X119920406Y-73283301D01*
X119894842Y-73288769D01*
X119886395Y-73270507D01*
X119881239Y-73215296D01*
X119879346Y-73122499D01*
X119880689Y-72991478D01*
X119881107Y-72971269D01*
X119884058Y-72851733D01*
X119887548Y-72764449D01*
X119892514Y-72702591D01*
X119899893Y-72659336D01*
X119910624Y-72627860D01*
X119925645Y-72601339D01*
X119933502Y-72589975D01*
X119978553Y-72539692D01*
X120028940Y-72500581D01*
X120035108Y-72497167D01*
X120125458Y-72470212D01*
X120220362Y-72474670D01*
G37*
X120220362Y-72474670D02*
X120309117Y-72507421D01*
X120381022Y-72565350D01*
X120409144Y-72606128D01*
X120439802Y-72680954D01*
X120439165Y-72735058D01*
X120406987Y-72771446D01*
X120395081Y-72777633D01*
X120343675Y-72796925D01*
X120317422Y-72791982D01*
X120308530Y-72759587D01*
X120308077Y-72741692D01*
X120291797Y-72675859D01*
X120249365Y-72629807D01*
X120190388Y-72607564D01*
X120124475Y-72613161D01*
X120070895Y-72642229D01*
X120052798Y-72658810D01*
X120039971Y-72678925D01*
X120031306Y-72709332D01*
X120025696Y-72756788D01*
X120022035Y-72828050D01*
X120019215Y-72929875D01*
X120018484Y-72962115D01*
X120015820Y-73072410D01*
X120012792Y-73150036D01*
X120008250Y-73201396D01*
X120001046Y-73232890D01*
X119990033Y-73250920D01*
X119974060Y-73261888D01*
X119963834Y-73266733D01*
X119920406Y-73283301D01*
X119894842Y-73288769D01*
X119886395Y-73270507D01*
X119881239Y-73215296D01*
X119879346Y-73122499D01*
X119880689Y-72991478D01*
X119881107Y-72971269D01*
X119884058Y-72851733D01*
X119887548Y-72764449D01*
X119892514Y-72702591D01*
X119899893Y-72659336D01*
X119910624Y-72627860D01*
X119925645Y-72601339D01*
X119933502Y-72589975D01*
X119978553Y-72539692D01*
X120028940Y-72500581D01*
X120035108Y-72497167D01*
X120125458Y-72470212D01*
X120220362Y-72474670D01*
G36*
X119560501Y-72476303D02*
G01*
X119637060Y-72504733D01*
X119637936Y-72505279D01*
X119685285Y-72540127D01*
X119720241Y-72580852D01*
X119744825Y-72633925D01*
X119761062Y-72705814D01*
X119770975Y-72802992D01*
X119776586Y-72931928D01*
X119777077Y-72950298D01*
X119784141Y-73227287D01*
X119724695Y-73258028D01*
X119681681Y-73278802D01*
X119655710Y-73288646D01*
X119654509Y-73288769D01*
X119650014Y-73270606D01*
X119646444Y-73221612D01*
X119644248Y-73150031D01*
X119643769Y-73092068D01*
X119643758Y-72998170D01*
X119639466Y-72939203D01*
X119624503Y-72911079D01*
X119592482Y-72909706D01*
X119537014Y-72930998D01*
X119453269Y-72970136D01*
X119391689Y-73002643D01*
X119360017Y-73030845D01*
X119350706Y-73061582D01*
X119350692Y-73063104D01*
X119366057Y-73116054D01*
X119411547Y-73144660D01*
X119481166Y-73148803D01*
X119531313Y-73148084D01*
X119557754Y-73162527D01*
X119574243Y-73197218D01*
X119583733Y-73241416D01*
X119570057Y-73266493D01*
X119564907Y-73270082D01*
X119516425Y-73284496D01*
X119448531Y-73286537D01*
X119378612Y-73276983D01*
X119329068Y-73259522D01*
X119260570Y-73201364D01*
X119221634Y-73120408D01*
X119213923Y-73057160D01*
X119219807Y-73000111D01*
X119241101Y-72953542D01*
X119283265Y-72912181D01*
X119351759Y-72870755D01*
X119452044Y-72823993D01*
X119458154Y-72821350D01*
X119548490Y-72779617D01*
X119604235Y-72745391D01*
X119628129Y-72714635D01*
X119622913Y-72683311D01*
X119591328Y-72647383D01*
X119581883Y-72639116D01*
X119518617Y-72607058D01*
X119453064Y-72608407D01*
X119395972Y-72639838D01*
X119358093Y-72698024D01*
X119354574Y-72709446D01*
X119320300Y-72764837D01*
X119276809Y-72791518D01*
X119213923Y-72817960D01*
X119213923Y-72749548D01*
X119233052Y-72650110D01*
X119289831Y-72558902D01*
X119319378Y-72528389D01*
X119386542Y-72489228D01*
X119471956Y-72471500D01*
X119560501Y-72476303D01*
G37*
X119560501Y-72476303D02*
X119637060Y-72504733D01*
X119637936Y-72505279D01*
X119685285Y-72540127D01*
X119720241Y-72580852D01*
X119744825Y-72633925D01*
X119761062Y-72705814D01*
X119770975Y-72802992D01*
X119776586Y-72931928D01*
X119777077Y-72950298D01*
X119784141Y-73227287D01*
X119724695Y-73258028D01*
X119681681Y-73278802D01*
X119655710Y-73288646D01*
X119654509Y-73288769D01*
X119650014Y-73270606D01*
X119646444Y-73221612D01*
X119644248Y-73150031D01*
X119643769Y-73092068D01*
X119643758Y-72998170D01*
X119639466Y-72939203D01*
X119624503Y-72911079D01*
X119592482Y-72909706D01*
X119537014Y-72930998D01*
X119453269Y-72970136D01*
X119391689Y-73002643D01*
X119360017Y-73030845D01*
X119350706Y-73061582D01*
X119350692Y-73063104D01*
X119366057Y-73116054D01*
X119411547Y-73144660D01*
X119481166Y-73148803D01*
X119531313Y-73148084D01*
X119557754Y-73162527D01*
X119574243Y-73197218D01*
X119583733Y-73241416D01*
X119570057Y-73266493D01*
X119564907Y-73270082D01*
X119516425Y-73284496D01*
X119448531Y-73286537D01*
X119378612Y-73276983D01*
X119329068Y-73259522D01*
X119260570Y-73201364D01*
X119221634Y-73120408D01*
X119213923Y-73057160D01*
X119219807Y-73000111D01*
X119241101Y-72953542D01*
X119283265Y-72912181D01*
X119351759Y-72870755D01*
X119452044Y-72823993D01*
X119458154Y-72821350D01*
X119548490Y-72779617D01*
X119604235Y-72745391D01*
X119628129Y-72714635D01*
X119622913Y-72683311D01*
X119591328Y-72647383D01*
X119581883Y-72639116D01*
X119518617Y-72607058D01*
X119453064Y-72608407D01*
X119395972Y-72639838D01*
X119358093Y-72698024D01*
X119354574Y-72709446D01*
X119320300Y-72764837D01*
X119276809Y-72791518D01*
X119213923Y-72817960D01*
X119213923Y-72749548D01*
X119233052Y-72650110D01*
X119289831Y-72558902D01*
X119319378Y-72528389D01*
X119386542Y-72489228D01*
X119471956Y-72471500D01*
X119560501Y-72476303D01*
G36*
X118666846Y-72342120D02*
G01*
X118672572Y-72421980D01*
X118679149Y-72469039D01*
X118688262Y-72489566D01*
X118701598Y-72489829D01*
X118705923Y-72487378D01*
X118763444Y-72469636D01*
X118838268Y-72470672D01*
X118914339Y-72488910D01*
X118961918Y-72512505D01*
X119010702Y-72550198D01*
X119046364Y-72592855D01*
X119070845Y-72647057D01*
X119086087Y-72719384D01*
X119094030Y-72816419D01*
X119096616Y-72944742D01*
X119096662Y-72969358D01*
X119096692Y-73245870D01*
X119035161Y-73267320D01*
X118991459Y-73281912D01*
X118967482Y-73288706D01*
X118966777Y-73288769D01*
X118964415Y-73270345D01*
X118962406Y-73219526D01*
X118960901Y-73142993D01*
X118960053Y-73047430D01*
X118959923Y-72989329D01*
X118959651Y-72874771D01*
X118958252Y-72792667D01*
X118954849Y-72736393D01*
X118948567Y-72699326D01*
X118938529Y-72674844D01*
X118923861Y-72656325D01*
X118914702Y-72647406D01*
X118851789Y-72611466D01*
X118783136Y-72608775D01*
X118720848Y-72639170D01*
X118709329Y-72650144D01*
X118692433Y-72670779D01*
X118680714Y-72695256D01*
X118673233Y-72730647D01*
X118669054Y-72784026D01*
X118667237Y-72862466D01*
X118666846Y-72970617D01*
X118666846Y-73245870D01*
X118605315Y-73267320D01*
X118561613Y-73281912D01*
X118537636Y-73288706D01*
X118536930Y-73288769D01*
X118535126Y-73270069D01*
X118533500Y-73217322D01*
X118532117Y-73135557D01*
X118531042Y-73029805D01*
X118530340Y-72905094D01*
X118530077Y-72766455D01*
X118530077Y-72231806D01*
X118657077Y-72178236D01*
X118666846Y-72342120D01*
G37*
X118666846Y-72342120D02*
X118672572Y-72421980D01*
X118679149Y-72469039D01*
X118688262Y-72489566D01*
X118701598Y-72489829D01*
X118705923Y-72487378D01*
X118763444Y-72469636D01*
X118838268Y-72470672D01*
X118914339Y-72488910D01*
X118961918Y-72512505D01*
X119010702Y-72550198D01*
X119046364Y-72592855D01*
X119070845Y-72647057D01*
X119086087Y-72719384D01*
X119094030Y-72816419D01*
X119096616Y-72944742D01*
X119096662Y-72969358D01*
X119096692Y-73245870D01*
X119035161Y-73267320D01*
X118991459Y-73281912D01*
X118967482Y-73288706D01*
X118966777Y-73288769D01*
X118964415Y-73270345D01*
X118962406Y-73219526D01*
X118960901Y-73142993D01*
X118960053Y-73047430D01*
X118959923Y-72989329D01*
X118959651Y-72874771D01*
X118958252Y-72792667D01*
X118954849Y-72736393D01*
X118948567Y-72699326D01*
X118938529Y-72674844D01*
X118923861Y-72656325D01*
X118914702Y-72647406D01*
X118851789Y-72611466D01*
X118783136Y-72608775D01*
X118720848Y-72639170D01*
X118709329Y-72650144D01*
X118692433Y-72670779D01*
X118680714Y-72695256D01*
X118673233Y-72730647D01*
X118669054Y-72784026D01*
X118667237Y-72862466D01*
X118666846Y-72970617D01*
X118666846Y-73245870D01*
X118605315Y-73267320D01*
X118561613Y-73281912D01*
X118537636Y-73288706D01*
X118536930Y-73288769D01*
X118535126Y-73270069D01*
X118533500Y-73217322D01*
X118532117Y-73135557D01*
X118531042Y-73029805D01*
X118530340Y-72905094D01*
X118530077Y-72766455D01*
X118530077Y-72231806D01*
X118657077Y-72178236D01*
X118666846Y-72342120D01*
G36*
X117041254Y-72449745D02*
G01*
X117118286Y-72501567D01*
X117177816Y-72576412D01*
X117213378Y-72671654D01*
X117220571Y-72741756D01*
X117219754Y-72771009D01*
X117212914Y-72793407D01*
X117194112Y-72813474D01*
X117157408Y-72835733D01*
X117096862Y-72864709D01*
X117006534Y-72904927D01*
X117006077Y-72905129D01*
X116922933Y-72943210D01*
X116854753Y-72977025D01*
X116808505Y-73002933D01*
X116791158Y-73017295D01*
X116791154Y-73017411D01*
X116806443Y-73048685D01*
X116842196Y-73083157D01*
X116883242Y-73107990D01*
X116904037Y-73112923D01*
X116960770Y-73095862D01*
X117009627Y-73053133D01*
X117033465Y-73006155D01*
X117056397Y-72971522D01*
X117101318Y-72932081D01*
X117154123Y-72898009D01*
X117200710Y-72879480D01*
X117210452Y-72878462D01*
X117221418Y-72895215D01*
X117222079Y-72938039D01*
X117214020Y-72995781D01*
X117198827Y-73057289D01*
X117178086Y-73111409D01*
X117177038Y-73113510D01*
X117114621Y-73200660D01*
X117033726Y-73259939D01*
X116941856Y-73289034D01*
X116846513Y-73285634D01*
X116755198Y-73247428D01*
X116751138Y-73244741D01*
X116679306Y-73179642D01*
X116632073Y-73094705D01*
X116605934Y-72983021D01*
X116602426Y-72951643D01*
X116596213Y-72803536D01*
X116603661Y-72734468D01*
X116791154Y-72734468D01*
X116793590Y-72777552D01*
X116806914Y-72790126D01*
X116840132Y-72780719D01*
X116892494Y-72758483D01*
X116951024Y-72730610D01*
X116952479Y-72729872D01*
X117002089Y-72703777D01*
X117022000Y-72686363D01*
X117017090Y-72668107D01*
X116996416Y-72644120D01*
X116943819Y-72609406D01*
X116887177Y-72606856D01*
X116836369Y-72632119D01*
X116801276Y-72680847D01*
X116791154Y-72734468D01*
X116603661Y-72734468D01*
X116608992Y-72685036D01*
X116641778Y-72591055D01*
X116687421Y-72525215D01*
X116769802Y-72458681D01*
X116860546Y-72425676D01*
X116953185Y-72423573D01*
X117041254Y-72449745D01*
G37*
X117041254Y-72449745D02*
X117118286Y-72501567D01*
X117177816Y-72576412D01*
X117213378Y-72671654D01*
X117220571Y-72741756D01*
X117219754Y-72771009D01*
X117212914Y-72793407D01*
X117194112Y-72813474D01*
X117157408Y-72835733D01*
X117096862Y-72864709D01*
X117006534Y-72904927D01*
X117006077Y-72905129D01*
X116922933Y-72943210D01*
X116854753Y-72977025D01*
X116808505Y-73002933D01*
X116791158Y-73017295D01*
X116791154Y-73017411D01*
X116806443Y-73048685D01*
X116842196Y-73083157D01*
X116883242Y-73107990D01*
X116904037Y-73112923D01*
X116960770Y-73095862D01*
X117009627Y-73053133D01*
X117033465Y-73006155D01*
X117056397Y-72971522D01*
X117101318Y-72932081D01*
X117154123Y-72898009D01*
X117200710Y-72879480D01*
X117210452Y-72878462D01*
X117221418Y-72895215D01*
X117222079Y-72938039D01*
X117214020Y-72995781D01*
X117198827Y-73057289D01*
X117178086Y-73111409D01*
X117177038Y-73113510D01*
X117114621Y-73200660D01*
X117033726Y-73259939D01*
X116941856Y-73289034D01*
X116846513Y-73285634D01*
X116755198Y-73247428D01*
X116751138Y-73244741D01*
X116679306Y-73179642D01*
X116632073Y-73094705D01*
X116605934Y-72983021D01*
X116602426Y-72951643D01*
X116596213Y-72803536D01*
X116603661Y-72734468D01*
X116791154Y-72734468D01*
X116793590Y-72777552D01*
X116806914Y-72790126D01*
X116840132Y-72780719D01*
X116892494Y-72758483D01*
X116951024Y-72730610D01*
X116952479Y-72729872D01*
X117002089Y-72703777D01*
X117022000Y-72686363D01*
X117017090Y-72668107D01*
X116996416Y-72644120D01*
X116943819Y-72609406D01*
X116887177Y-72606856D01*
X116836369Y-72632119D01*
X116801276Y-72680847D01*
X116791154Y-72734468D01*
X116603661Y-72734468D01*
X116608992Y-72685036D01*
X116641778Y-72591055D01*
X116687421Y-72525215D01*
X116769802Y-72458681D01*
X116860546Y-72425676D01*
X116953185Y-72423573D01*
X117041254Y-72449745D01*
G36*
X115523886Y-72437256D02*
G01*
X115615464Y-72485409D01*
X115683049Y-72562905D01*
X115707057Y-72612727D01*
X115725738Y-72687533D01*
X115735301Y-72782052D01*
X115736208Y-72885210D01*
X115728921Y-72985935D01*
X115713903Y-73073153D01*
X115691615Y-73135791D01*
X115684765Y-73146579D01*
X115603632Y-73227105D01*
X115507266Y-73275336D01*
X115402701Y-73289450D01*
X115296968Y-73267629D01*
X115267543Y-73254547D01*
X115210241Y-73214231D01*
X115159950Y-73160775D01*
X115155197Y-73153995D01*
X115135878Y-73121321D01*
X115123108Y-73086394D01*
X115115564Y-73040414D01*
X115111924Y-72974584D01*
X115110865Y-72880105D01*
X115110846Y-72858923D01*
X115110894Y-72852182D01*
X115306231Y-72852182D01*
X115307368Y-72941349D01*
X115311841Y-73000520D01*
X115321246Y-73038741D01*
X115337176Y-73065053D01*
X115345308Y-73073846D01*
X115392058Y-73107261D01*
X115437447Y-73105737D01*
X115483340Y-73076752D01*
X115510712Y-73045809D01*
X115526923Y-73000643D01*
X115536026Y-72929420D01*
X115536651Y-72921114D01*
X115538204Y-72792037D01*
X115521965Y-72696172D01*
X115488152Y-72634107D01*
X115436984Y-72606432D01*
X115418720Y-72604923D01*
X115370760Y-72612513D01*
X115337953Y-72638808D01*
X115317895Y-72689095D01*
X115308178Y-72768664D01*
X115306231Y-72852182D01*
X115110894Y-72852182D01*
X115111574Y-72758249D01*
X115114629Y-72687906D01*
X115121322Y-72639163D01*
X115132960Y-72603288D01*
X115150853Y-72571548D01*
X115154808Y-72565648D01*
X115221267Y-72486104D01*
X115293685Y-72439929D01*
X115381849Y-72421599D01*
X115411787Y-72420703D01*
X115523886Y-72437256D01*
G37*
X115523886Y-72437256D02*
X115615464Y-72485409D01*
X115683049Y-72562905D01*
X115707057Y-72612727D01*
X115725738Y-72687533D01*
X115735301Y-72782052D01*
X115736208Y-72885210D01*
X115728921Y-72985935D01*
X115713903Y-73073153D01*
X115691615Y-73135791D01*
X115684765Y-73146579D01*
X115603632Y-73227105D01*
X115507266Y-73275336D01*
X115402701Y-73289450D01*
X115296968Y-73267629D01*
X115267543Y-73254547D01*
X115210241Y-73214231D01*
X115159950Y-73160775D01*
X115155197Y-73153995D01*
X115135878Y-73121321D01*
X115123108Y-73086394D01*
X115115564Y-73040414D01*
X115111924Y-72974584D01*
X115110865Y-72880105D01*
X115110846Y-72858923D01*
X115110894Y-72852182D01*
X115306231Y-72852182D01*
X115307368Y-72941349D01*
X115311841Y-73000520D01*
X115321246Y-73038741D01*
X115337176Y-73065053D01*
X115345308Y-73073846D01*
X115392058Y-73107261D01*
X115437447Y-73105737D01*
X115483340Y-73076752D01*
X115510712Y-73045809D01*
X115526923Y-73000643D01*
X115536026Y-72929420D01*
X115536651Y-72921114D01*
X115538204Y-72792037D01*
X115521965Y-72696172D01*
X115488152Y-72634107D01*
X115436984Y-72606432D01*
X115418720Y-72604923D01*
X115370760Y-72612513D01*
X115337953Y-72638808D01*
X115317895Y-72689095D01*
X115308178Y-72768664D01*
X115306231Y-72852182D01*
X115110894Y-72852182D01*
X115111574Y-72758249D01*
X115114629Y-72687906D01*
X115121322Y-72639163D01*
X115132960Y-72603288D01*
X115150853Y-72571548D01*
X115154808Y-72565648D01*
X115221267Y-72486104D01*
X115293685Y-72439929D01*
X115381849Y-72421599D01*
X115411787Y-72420703D01*
X115523886Y-72437256D01*
G36*
X117778664Y-72445089D02*
G01*
X117841367Y-72481358D01*
X117884961Y-72517358D01*
X117916845Y-72555075D01*
X117938810Y-72601199D01*
X117952649Y-72662421D01*
X117960153Y-72745431D01*
X117963117Y-72856919D01*
X117963461Y-72937062D01*
X117963461Y-73232065D01*
X117797385Y-73306515D01*
X117787615Y-72983402D01*
X117783579Y-72862729D01*
X117779344Y-72775141D01*
X117774097Y-72714650D01*
X117767025Y-72675268D01*
X117757311Y-72651007D01*
X117744144Y-72635880D01*
X117739919Y-72632606D01*
X117675909Y-72607034D01*
X117611208Y-72617153D01*
X117572692Y-72644000D01*
X117557025Y-72663024D01*
X117546180Y-72687988D01*
X117539288Y-72725834D01*
X117535479Y-72783502D01*
X117533883Y-72867935D01*
X117533615Y-72955928D01*
X117533563Y-73066323D01*
X117531672Y-73144463D01*
X117525345Y-73197165D01*
X117511983Y-73231242D01*
X117488985Y-73253511D01*
X117453754Y-73270787D01*
X117406697Y-73288738D01*
X117355303Y-73308278D01*
X117361421Y-72961485D01*
X117363884Y-72836468D01*
X117366767Y-72744082D01*
X117370898Y-72677881D01*
X117377107Y-72631420D01*
X117386226Y-72598256D01*
X117399083Y-72571944D01*
X117414584Y-72548729D01*
X117489371Y-72474569D01*
X117580628Y-72431684D01*
X117679883Y-72421412D01*
X117778664Y-72445089D01*
G37*
X117778664Y-72445089D02*
X117841367Y-72481358D01*
X117884961Y-72517358D01*
X117916845Y-72555075D01*
X117938810Y-72601199D01*
X117952649Y-72662421D01*
X117960153Y-72745431D01*
X117963117Y-72856919D01*
X117963461Y-72937062D01*
X117963461Y-73232065D01*
X117797385Y-73306515D01*
X117787615Y-72983402D01*
X117783579Y-72862729D01*
X117779344Y-72775141D01*
X117774097Y-72714650D01*
X117767025Y-72675268D01*
X117757311Y-72651007D01*
X117744144Y-72635880D01*
X117739919Y-72632606D01*
X117675909Y-72607034D01*
X117611208Y-72617153D01*
X117572692Y-72644000D01*
X117557025Y-72663024D01*
X117546180Y-72687988D01*
X117539288Y-72725834D01*
X117535479Y-72783502D01*
X117533883Y-72867935D01*
X117533615Y-72955928D01*
X117533563Y-73066323D01*
X117531672Y-73144463D01*
X117525345Y-73197165D01*
X117511983Y-73231242D01*
X117488985Y-73253511D01*
X117453754Y-73270787D01*
X117406697Y-73288738D01*
X117355303Y-73308278D01*
X117361421Y-72961485D01*
X117363884Y-72836468D01*
X117366767Y-72744082D01*
X117370898Y-72677881D01*
X117377107Y-72631420D01*
X117386226Y-72598256D01*
X117399083Y-72571944D01*
X117414584Y-72548729D01*
X117489371Y-72474569D01*
X117580628Y-72431684D01*
X117679883Y-72421412D01*
X117778664Y-72445089D01*
G36*
X116275886Y-72434505D02*
G01*
X116350539Y-72471727D01*
X116416431Y-72540261D01*
X116434577Y-72565648D01*
X116454345Y-72598866D01*
X116467172Y-72634945D01*
X116474510Y-72683098D01*
X116477813Y-72752536D01*
X116478538Y-72844206D01*
X116475263Y-72969830D01*
X116463877Y-73064154D01*
X116442041Y-73134523D01*
X116407419Y-73188286D01*
X116357670Y-73232788D01*
X116354014Y-73235423D01*
X116304985Y-73262377D01*
X116245945Y-73275712D01*
X116170859Y-73279000D01*
X116048795Y-73279000D01*
X116048744Y-73397497D01*
X116047608Y-73463492D01*
X116040686Y-73502202D01*
X116022598Y-73525419D01*
X115987962Y-73544933D01*
X115979645Y-73548920D01*
X115940720Y-73567603D01*
X115910583Y-73579403D01*
X115888174Y-73580422D01*
X115872433Y-73566761D01*
X115862302Y-73534522D01*
X115856723Y-73479804D01*
X115854635Y-73398711D01*
X115854981Y-73287344D01*
X115856700Y-73141802D01*
X115857237Y-73098269D01*
X115859172Y-72948205D01*
X115860904Y-72850042D01*
X116048692Y-72850042D01*
X116049748Y-72933364D01*
X116054438Y-72987880D01*
X116065051Y-73023837D01*
X116083872Y-73051482D01*
X116096650Y-73064965D01*
X116148890Y-73104417D01*
X116195142Y-73107628D01*
X116242867Y-73075049D01*
X116244077Y-73073846D01*
X116263494Y-73048668D01*
X116275307Y-73014447D01*
X116281265Y-72961748D01*
X116283120Y-72881131D01*
X116283154Y-72863271D01*
X116278670Y-72752175D01*
X116264074Y-72675161D01*
X116237650Y-72628147D01*
X116197683Y-72607050D01*
X116174584Y-72604923D01*
X116119762Y-72614900D01*
X116082158Y-72647752D01*
X116059523Y-72707857D01*
X116049606Y-72799598D01*
X116048692Y-72850042D01*
X115860904Y-72850042D01*
X115861222Y-72832060D01*
X115863873Y-72744679D01*
X115867606Y-72680905D01*
X115872907Y-72635582D01*
X115880258Y-72603555D01*
X115890143Y-72579668D01*
X115903046Y-72558764D01*
X115908579Y-72550898D01*
X115981969Y-72476595D01*
X116074760Y-72434467D01*
X116182096Y-72422722D01*
X116275886Y-72434505D01*
G37*
X116275886Y-72434505D02*
X116350539Y-72471727D01*
X116416431Y-72540261D01*
X116434577Y-72565648D01*
X116454345Y-72598866D01*
X116467172Y-72634945D01*
X116474510Y-72683098D01*
X116477813Y-72752536D01*
X116478538Y-72844206D01*
X116475263Y-72969830D01*
X116463877Y-73064154D01*
X116442041Y-73134523D01*
X116407419Y-73188286D01*
X116357670Y-73232788D01*
X116354014Y-73235423D01*
X116304985Y-73262377D01*
X116245945Y-73275712D01*
X116170859Y-73279000D01*
X116048795Y-73279000D01*
X116048744Y-73397497D01*
X116047608Y-73463492D01*
X116040686Y-73502202D01*
X116022598Y-73525419D01*
X115987962Y-73544933D01*
X115979645Y-73548920D01*
X115940720Y-73567603D01*
X115910583Y-73579403D01*
X115888174Y-73580422D01*
X115872433Y-73566761D01*
X115862302Y-73534522D01*
X115856723Y-73479804D01*
X115854635Y-73398711D01*
X115854981Y-73287344D01*
X115856700Y-73141802D01*
X115857237Y-73098269D01*
X115859172Y-72948205D01*
X115860904Y-72850042D01*
X116048692Y-72850042D01*
X116049748Y-72933364D01*
X116054438Y-72987880D01*
X116065051Y-73023837D01*
X116083872Y-73051482D01*
X116096650Y-73064965D01*
X116148890Y-73104417D01*
X116195142Y-73107628D01*
X116242867Y-73075049D01*
X116244077Y-73073846D01*
X116263494Y-73048668D01*
X116275307Y-73014447D01*
X116281265Y-72961748D01*
X116283120Y-72881131D01*
X116283154Y-72863271D01*
X116278670Y-72752175D01*
X116264074Y-72675161D01*
X116237650Y-72628147D01*
X116197683Y-72607050D01*
X116174584Y-72604923D01*
X116119762Y-72614900D01*
X116082158Y-72647752D01*
X116059523Y-72707857D01*
X116049606Y-72799598D01*
X116048692Y-72850042D01*
X115860904Y-72850042D01*
X115861222Y-72832060D01*
X115863873Y-72744679D01*
X115867606Y-72680905D01*
X115872907Y-72635582D01*
X115880258Y-72603555D01*
X115890143Y-72579668D01*
X115903046Y-72558764D01*
X115908579Y-72550898D01*
X115981969Y-72476595D01*
X116074760Y-72434467D01*
X116182096Y-72422722D01*
X116275886Y-72434505D01*
D11*
G04 #@! TO.C,U9*
X133120000Y-80982000D02*
X133120000Y-81762000D01*
X133120000Y-81762000D02*
X134120000Y-81762000D01*
X151360000Y-80982000D02*
X151360000Y-81762000D01*
X151360000Y-81762000D02*
X150360000Y-81762000D01*
X133120000Y-56017000D02*
X151360000Y-56017000D01*
X151360000Y-56017000D02*
X151360000Y-62437000D01*
X133120000Y-56017000D02*
X133120000Y-62437000D01*
X133120000Y-62437000D02*
X132740000Y-62437000D01*
G04 #@! TO.C,R29*
X164225500Y-84225224D02*
X164225500Y-83715776D01*
X163180500Y-84225224D02*
X163180500Y-83715776D01*
G04 #@! TO.C,R16*
X110856500Y-106045724D02*
X110856500Y-105536276D01*
X111901500Y-106045724D02*
X111901500Y-105536276D01*
G04 #@! TO.C,R7*
X171562500Y-105768224D02*
X171562500Y-105258776D01*
X172607500Y-105768224D02*
X172607500Y-105258776D01*
G04 #@! TO.C,R6*
X171435500Y-112245224D02*
X171435500Y-111735776D01*
X172480500Y-112245224D02*
X172480500Y-111735776D01*
G04 #@! TO.C,NEUTRAL*
X89700000Y-132000000D02*
G75*
G03*
X89700000Y-132000000I-1700000J0D01*
G01*
G04 #@! TO.C,LIVE*
X96700000Y-132000000D02*
G75*
G03*
X96700000Y-132000000I-1700000J0D01*
G01*
G04 #@! TO.C,R36*
X130174276Y-66914500D02*
X130683724Y-66914500D01*
X130174276Y-67959500D02*
X130683724Y-67959500D01*
G04 #@! TO.C,J3*
X154880000Y-70799000D02*
X157540000Y-70799000D01*
X154880000Y-65659000D02*
X154880000Y-70799000D01*
X157540000Y-65659000D02*
X157540000Y-70799000D01*
X154880000Y-65659000D02*
X157540000Y-65659000D01*
X154880000Y-64389000D02*
X154880000Y-63059000D01*
X154880000Y-63059000D02*
X156210000Y-63059000D01*
G04 #@! TO.C,J2*
X154880000Y-84007000D02*
X157540000Y-84007000D01*
X154880000Y-81407000D02*
X154880000Y-84007000D01*
X157540000Y-81407000D02*
X157540000Y-84007000D01*
X154880000Y-81407000D02*
X157540000Y-81407000D01*
X154880000Y-80137000D02*
X154880000Y-78807000D01*
X154880000Y-78807000D02*
X156210000Y-78807000D01*
G04 #@! TO.C,C30*
X130548767Y-64137000D02*
X130256233Y-64137000D01*
X130548767Y-63117000D02*
X130256233Y-63117000D01*
G04 #@! TO.C,C29*
X130436252Y-66288500D02*
X129913748Y-66288500D01*
X130436252Y-64818500D02*
X129913748Y-64818500D01*
G04 #@! TO.C,C31*
X130575267Y-69598000D02*
X130282733Y-69598000D01*
X130575267Y-68578000D02*
X130282733Y-68578000D01*
G04 #@! TO.C,C18*
X93071733Y-83822000D02*
X93364267Y-83822000D01*
X93071733Y-82802000D02*
X93364267Y-82802000D01*
G04 #@! TO.C,C19*
X93364267Y-89791000D02*
X93071733Y-89791000D01*
X93364267Y-88771000D02*
X93071733Y-88771000D01*
G04 #@! TO.C,C10*
X106043000Y-75610767D02*
X106043000Y-75318233D01*
X107063000Y-75610767D02*
X107063000Y-75318233D01*
G04 #@! TO.C,C27*
X130144000Y-97155000D02*
G75*
G03*
X130144000Y-97155000I-2620000J0D01*
G01*
X127524000Y-96115000D02*
X127524000Y-94575000D01*
X127524000Y-99735000D02*
X127524000Y-98195000D01*
X127484000Y-96115000D02*
X127484000Y-94575000D01*
X127484000Y-99735000D02*
X127484000Y-98195000D01*
X127444000Y-99734000D02*
X127444000Y-98195000D01*
X127444000Y-96115000D02*
X127444000Y-94576000D01*
X127404000Y-99733000D02*
X127404000Y-98195000D01*
X127404000Y-96115000D02*
X127404000Y-94577000D01*
X127364000Y-99731000D02*
X127364000Y-98195000D01*
X127364000Y-96115000D02*
X127364000Y-94579000D01*
X127324000Y-99728000D02*
X127324000Y-98195000D01*
X127324000Y-96115000D02*
X127324000Y-94582000D01*
X127284000Y-99724000D02*
X127284000Y-98195000D01*
X127284000Y-96115000D02*
X127284000Y-94586000D01*
X127244000Y-99720000D02*
X127244000Y-98195000D01*
X127244000Y-96115000D02*
X127244000Y-94590000D01*
X127204000Y-99716000D02*
X127204000Y-98195000D01*
X127204000Y-96115000D02*
X127204000Y-94594000D01*
X127164000Y-99711000D02*
X127164000Y-98195000D01*
X127164000Y-96115000D02*
X127164000Y-94599000D01*
X127124000Y-99705000D02*
X127124000Y-98195000D01*
X127124000Y-96115000D02*
X127124000Y-94605000D01*
X127084000Y-99698000D02*
X127084000Y-98195000D01*
X127084000Y-96115000D02*
X127084000Y-94612000D01*
X127044000Y-99691000D02*
X127044000Y-98195000D01*
X127044000Y-96115000D02*
X127044000Y-94619000D01*
X127004000Y-99683000D02*
X127004000Y-98195000D01*
X127004000Y-96115000D02*
X127004000Y-94627000D01*
X126964000Y-99675000D02*
X126964000Y-98195000D01*
X126964000Y-96115000D02*
X126964000Y-94635000D01*
X126924000Y-99666000D02*
X126924000Y-98195000D01*
X126924000Y-96115000D02*
X126924000Y-94644000D01*
X126884000Y-99656000D02*
X126884000Y-98195000D01*
X126884000Y-96115000D02*
X126884000Y-94654000D01*
X126844000Y-99646000D02*
X126844000Y-98195000D01*
X126844000Y-96115000D02*
X126844000Y-94664000D01*
X126803000Y-99635000D02*
X126803000Y-98195000D01*
X126803000Y-96115000D02*
X126803000Y-94675000D01*
X126763000Y-99623000D02*
X126763000Y-98195000D01*
X126763000Y-96115000D02*
X126763000Y-94687000D01*
X126723000Y-99610000D02*
X126723000Y-98195000D01*
X126723000Y-96115000D02*
X126723000Y-94700000D01*
X126683000Y-99597000D02*
X126683000Y-98195000D01*
X126683000Y-96115000D02*
X126683000Y-94713000D01*
X126643000Y-99583000D02*
X126643000Y-98195000D01*
X126643000Y-96115000D02*
X126643000Y-94727000D01*
X126603000Y-99569000D02*
X126603000Y-98195000D01*
X126603000Y-96115000D02*
X126603000Y-94741000D01*
X126563000Y-99553000D02*
X126563000Y-98195000D01*
X126563000Y-96115000D02*
X126563000Y-94757000D01*
X126523000Y-99537000D02*
X126523000Y-98195000D01*
X126523000Y-96115000D02*
X126523000Y-94773000D01*
X126483000Y-99520000D02*
X126483000Y-98195000D01*
X126483000Y-96115000D02*
X126483000Y-94790000D01*
X126443000Y-99503000D02*
X126443000Y-98195000D01*
X126443000Y-96115000D02*
X126443000Y-94807000D01*
X126403000Y-99484000D02*
X126403000Y-98195000D01*
X126403000Y-96115000D02*
X126403000Y-94826000D01*
X126363000Y-99465000D02*
X126363000Y-98195000D01*
X126363000Y-96115000D02*
X126363000Y-94845000D01*
X126323000Y-99445000D02*
X126323000Y-98195000D01*
X126323000Y-96115000D02*
X126323000Y-94865000D01*
X126283000Y-99423000D02*
X126283000Y-98195000D01*
X126283000Y-96115000D02*
X126283000Y-94887000D01*
X126243000Y-99402000D02*
X126243000Y-98195000D01*
X126243000Y-96115000D02*
X126243000Y-94908000D01*
X126203000Y-99379000D02*
X126203000Y-98195000D01*
X126203000Y-96115000D02*
X126203000Y-94931000D01*
X126163000Y-99355000D02*
X126163000Y-98195000D01*
X126163000Y-96115000D02*
X126163000Y-94955000D01*
X126123000Y-99330000D02*
X126123000Y-98195000D01*
X126123000Y-96115000D02*
X126123000Y-94980000D01*
X126083000Y-99304000D02*
X126083000Y-98195000D01*
X126083000Y-96115000D02*
X126083000Y-95006000D01*
X126043000Y-99277000D02*
X126043000Y-98195000D01*
X126043000Y-96115000D02*
X126043000Y-95033000D01*
X126003000Y-99250000D02*
X126003000Y-98195000D01*
X126003000Y-96115000D02*
X126003000Y-95060000D01*
X125963000Y-99220000D02*
X125963000Y-98195000D01*
X125963000Y-96115000D02*
X125963000Y-95090000D01*
X125923000Y-99190000D02*
X125923000Y-98195000D01*
X125923000Y-96115000D02*
X125923000Y-95120000D01*
X125883000Y-99159000D02*
X125883000Y-98195000D01*
X125883000Y-96115000D02*
X125883000Y-95151000D01*
X125843000Y-99126000D02*
X125843000Y-98195000D01*
X125843000Y-96115000D02*
X125843000Y-95184000D01*
X125803000Y-99092000D02*
X125803000Y-98195000D01*
X125803000Y-96115000D02*
X125803000Y-95218000D01*
X125763000Y-99056000D02*
X125763000Y-98195000D01*
X125763000Y-96115000D02*
X125763000Y-95254000D01*
X125723000Y-99019000D02*
X125723000Y-98195000D01*
X125723000Y-96115000D02*
X125723000Y-95291000D01*
X125683000Y-98981000D02*
X125683000Y-98195000D01*
X125683000Y-96115000D02*
X125683000Y-95329000D01*
X125643000Y-98940000D02*
X125643000Y-98195000D01*
X125643000Y-96115000D02*
X125643000Y-95370000D01*
X125603000Y-98898000D02*
X125603000Y-98195000D01*
X125603000Y-96115000D02*
X125603000Y-95412000D01*
X125563000Y-98854000D02*
X125563000Y-98195000D01*
X125563000Y-96115000D02*
X125563000Y-95456000D01*
X125523000Y-98808000D02*
X125523000Y-98195000D01*
X125523000Y-96115000D02*
X125523000Y-95502000D01*
X125483000Y-98760000D02*
X125483000Y-95550000D01*
X125443000Y-98709000D02*
X125443000Y-95601000D01*
X125403000Y-98655000D02*
X125403000Y-95655000D01*
X125363000Y-98598000D02*
X125363000Y-95712000D01*
X125323000Y-98538000D02*
X125323000Y-95772000D01*
X125283000Y-98474000D02*
X125283000Y-95836000D01*
X125243000Y-98406000D02*
X125243000Y-95904000D01*
X125203000Y-98333000D02*
X125203000Y-95977000D01*
X125163000Y-98253000D02*
X125163000Y-96057000D01*
X125123000Y-98166000D02*
X125123000Y-96144000D01*
X125083000Y-98070000D02*
X125083000Y-96240000D01*
X125043000Y-97960000D02*
X125043000Y-96350000D01*
X125003000Y-97832000D02*
X125003000Y-96478000D01*
X124963000Y-97673000D02*
X124963000Y-96637000D01*
X124923000Y-97439000D02*
X124923000Y-96871000D01*
X130328775Y-98630000D02*
X129828775Y-98630000D01*
X130078775Y-98880000D02*
X130078775Y-98380000D01*
G04 #@! TO.C,C12*
X104392000Y-75610767D02*
X104392000Y-75318233D01*
X105412000Y-75610767D02*
X105412000Y-75318233D01*
G04 #@! TO.C,C28*
X130078775Y-104595000D02*
X130078775Y-104095000D01*
X130328775Y-104345000D02*
X129828775Y-104345000D01*
X124923000Y-103154000D02*
X124923000Y-102586000D01*
X124963000Y-103388000D02*
X124963000Y-102352000D01*
X125003000Y-103547000D02*
X125003000Y-102193000D01*
X125043000Y-103675000D02*
X125043000Y-102065000D01*
X125083000Y-103785000D02*
X125083000Y-101955000D01*
X125123000Y-103881000D02*
X125123000Y-101859000D01*
X125163000Y-103968000D02*
X125163000Y-101772000D01*
X125203000Y-104048000D02*
X125203000Y-101692000D01*
X125243000Y-104121000D02*
X125243000Y-101619000D01*
X125283000Y-104189000D02*
X125283000Y-101551000D01*
X125323000Y-104253000D02*
X125323000Y-101487000D01*
X125363000Y-104313000D02*
X125363000Y-101427000D01*
X125403000Y-104370000D02*
X125403000Y-101370000D01*
X125443000Y-104424000D02*
X125443000Y-101316000D01*
X125483000Y-104475000D02*
X125483000Y-101265000D01*
X125523000Y-101830000D02*
X125523000Y-101217000D01*
X125523000Y-104523000D02*
X125523000Y-103910000D01*
X125563000Y-101830000D02*
X125563000Y-101171000D01*
X125563000Y-104569000D02*
X125563000Y-103910000D01*
X125603000Y-101830000D02*
X125603000Y-101127000D01*
X125603000Y-104613000D02*
X125603000Y-103910000D01*
X125643000Y-101830000D02*
X125643000Y-101085000D01*
X125643000Y-104655000D02*
X125643000Y-103910000D01*
X125683000Y-101830000D02*
X125683000Y-101044000D01*
X125683000Y-104696000D02*
X125683000Y-103910000D01*
X125723000Y-101830000D02*
X125723000Y-101006000D01*
X125723000Y-104734000D02*
X125723000Y-103910000D01*
X125763000Y-101830000D02*
X125763000Y-100969000D01*
X125763000Y-104771000D02*
X125763000Y-103910000D01*
X125803000Y-101830000D02*
X125803000Y-100933000D01*
X125803000Y-104807000D02*
X125803000Y-103910000D01*
X125843000Y-101830000D02*
X125843000Y-100899000D01*
X125843000Y-104841000D02*
X125843000Y-103910000D01*
X125883000Y-101830000D02*
X125883000Y-100866000D01*
X125883000Y-104874000D02*
X125883000Y-103910000D01*
X125923000Y-101830000D02*
X125923000Y-100835000D01*
X125923000Y-104905000D02*
X125923000Y-103910000D01*
X125963000Y-101830000D02*
X125963000Y-100805000D01*
X125963000Y-104935000D02*
X125963000Y-103910000D01*
X126003000Y-101830000D02*
X126003000Y-100775000D01*
X126003000Y-104965000D02*
X126003000Y-103910000D01*
X126043000Y-101830000D02*
X126043000Y-100748000D01*
X126043000Y-104992000D02*
X126043000Y-103910000D01*
X126083000Y-101830000D02*
X126083000Y-100721000D01*
X126083000Y-105019000D02*
X126083000Y-103910000D01*
X126123000Y-101830000D02*
X126123000Y-100695000D01*
X126123000Y-105045000D02*
X126123000Y-103910000D01*
X126163000Y-101830000D02*
X126163000Y-100670000D01*
X126163000Y-105070000D02*
X126163000Y-103910000D01*
X126203000Y-101830000D02*
X126203000Y-100646000D01*
X126203000Y-105094000D02*
X126203000Y-103910000D01*
X126243000Y-101830000D02*
X126243000Y-100623000D01*
X126243000Y-105117000D02*
X126243000Y-103910000D01*
X126283000Y-101830000D02*
X126283000Y-100602000D01*
X126283000Y-105138000D02*
X126283000Y-103910000D01*
X126323000Y-101830000D02*
X126323000Y-100580000D01*
X126323000Y-105160000D02*
X126323000Y-103910000D01*
X126363000Y-101830000D02*
X126363000Y-100560000D01*
X126363000Y-105180000D02*
X126363000Y-103910000D01*
X126403000Y-101830000D02*
X126403000Y-100541000D01*
X126403000Y-105199000D02*
X126403000Y-103910000D01*
X126443000Y-101830000D02*
X126443000Y-100522000D01*
X126443000Y-105218000D02*
X126443000Y-103910000D01*
X126483000Y-101830000D02*
X126483000Y-100505000D01*
X126483000Y-105235000D02*
X126483000Y-103910000D01*
X126523000Y-101830000D02*
X126523000Y-100488000D01*
X126523000Y-105252000D02*
X126523000Y-103910000D01*
X126563000Y-101830000D02*
X126563000Y-100472000D01*
X126563000Y-105268000D02*
X126563000Y-103910000D01*
X126603000Y-101830000D02*
X126603000Y-100456000D01*
X126603000Y-105284000D02*
X126603000Y-103910000D01*
X126643000Y-101830000D02*
X126643000Y-100442000D01*
X126643000Y-105298000D02*
X126643000Y-103910000D01*
X126683000Y-101830000D02*
X126683000Y-100428000D01*
X126683000Y-105312000D02*
X126683000Y-103910000D01*
X126723000Y-101830000D02*
X126723000Y-100415000D01*
X126723000Y-105325000D02*
X126723000Y-103910000D01*
X126763000Y-101830000D02*
X126763000Y-100402000D01*
X126763000Y-105338000D02*
X126763000Y-103910000D01*
X126803000Y-101830000D02*
X126803000Y-100390000D01*
X126803000Y-105350000D02*
X126803000Y-103910000D01*
X126844000Y-101830000D02*
X126844000Y-100379000D01*
X126844000Y-105361000D02*
X126844000Y-103910000D01*
X126884000Y-101830000D02*
X126884000Y-100369000D01*
X126884000Y-105371000D02*
X126884000Y-103910000D01*
X126924000Y-101830000D02*
X126924000Y-100359000D01*
X126924000Y-105381000D02*
X126924000Y-103910000D01*
X126964000Y-101830000D02*
X126964000Y-100350000D01*
X126964000Y-105390000D02*
X126964000Y-103910000D01*
X127004000Y-101830000D02*
X127004000Y-100342000D01*
X127004000Y-105398000D02*
X127004000Y-103910000D01*
X127044000Y-101830000D02*
X127044000Y-100334000D01*
X127044000Y-105406000D02*
X127044000Y-103910000D01*
X127084000Y-101830000D02*
X127084000Y-100327000D01*
X127084000Y-105413000D02*
X127084000Y-103910000D01*
X127124000Y-101830000D02*
X127124000Y-100320000D01*
X127124000Y-105420000D02*
X127124000Y-103910000D01*
X127164000Y-101830000D02*
X127164000Y-100314000D01*
X127164000Y-105426000D02*
X127164000Y-103910000D01*
X127204000Y-101830000D02*
X127204000Y-100309000D01*
X127204000Y-105431000D02*
X127204000Y-103910000D01*
X127244000Y-101830000D02*
X127244000Y-100305000D01*
X127244000Y-105435000D02*
X127244000Y-103910000D01*
X127284000Y-101830000D02*
X127284000Y-100301000D01*
X127284000Y-105439000D02*
X127284000Y-103910000D01*
X127324000Y-101830000D02*
X127324000Y-100297000D01*
X127324000Y-105443000D02*
X127324000Y-103910000D01*
X127364000Y-101830000D02*
X127364000Y-100294000D01*
X127364000Y-105446000D02*
X127364000Y-103910000D01*
X127404000Y-101830000D02*
X127404000Y-100292000D01*
X127404000Y-105448000D02*
X127404000Y-103910000D01*
X127444000Y-101830000D02*
X127444000Y-100291000D01*
X127444000Y-105449000D02*
X127444000Y-103910000D01*
X127484000Y-105450000D02*
X127484000Y-103910000D01*
X127484000Y-101830000D02*
X127484000Y-100290000D01*
X127524000Y-105450000D02*
X127524000Y-103910000D01*
X127524000Y-101830000D02*
X127524000Y-100290000D01*
X130144000Y-102870000D02*
G75*
G03*
X130144000Y-102870000I-2620000J0D01*
G01*
G04 #@! TO.C,C25*
X145876000Y-96409000D02*
G75*
G03*
X145876000Y-96409000I-2620000J0D01*
G01*
X144296000Y-96409000D02*
X145836000Y-96409000D01*
X140676000Y-96409000D02*
X142216000Y-96409000D01*
X144296000Y-96369000D02*
X145836000Y-96369000D01*
X140676000Y-96369000D02*
X142216000Y-96369000D01*
X140677000Y-96329000D02*
X142216000Y-96329000D01*
X144296000Y-96329000D02*
X145835000Y-96329000D01*
X140678000Y-96289000D02*
X142216000Y-96289000D01*
X144296000Y-96289000D02*
X145834000Y-96289000D01*
X140680000Y-96249000D02*
X142216000Y-96249000D01*
X144296000Y-96249000D02*
X145832000Y-96249000D01*
X140683000Y-96209000D02*
X142216000Y-96209000D01*
X144296000Y-96209000D02*
X145829000Y-96209000D01*
X140687000Y-96169000D02*
X142216000Y-96169000D01*
X144296000Y-96169000D02*
X145825000Y-96169000D01*
X140691000Y-96129000D02*
X142216000Y-96129000D01*
X144296000Y-96129000D02*
X145821000Y-96129000D01*
X140695000Y-96089000D02*
X142216000Y-96089000D01*
X144296000Y-96089000D02*
X145817000Y-96089000D01*
X140700000Y-96049000D02*
X142216000Y-96049000D01*
X144296000Y-96049000D02*
X145812000Y-96049000D01*
X140706000Y-96009000D02*
X142216000Y-96009000D01*
X144296000Y-96009000D02*
X145806000Y-96009000D01*
X140713000Y-95969000D02*
X142216000Y-95969000D01*
X144296000Y-95969000D02*
X145799000Y-95969000D01*
X140720000Y-95929000D02*
X142216000Y-95929000D01*
X144296000Y-95929000D02*
X145792000Y-95929000D01*
X140728000Y-95889000D02*
X142216000Y-95889000D01*
X144296000Y-95889000D02*
X145784000Y-95889000D01*
X140736000Y-95849000D02*
X142216000Y-95849000D01*
X144296000Y-95849000D02*
X145776000Y-95849000D01*
X140745000Y-95809000D02*
X142216000Y-95809000D01*
X144296000Y-95809000D02*
X145767000Y-95809000D01*
X140755000Y-95769000D02*
X142216000Y-95769000D01*
X144296000Y-95769000D02*
X145757000Y-95769000D01*
X140765000Y-95729000D02*
X142216000Y-95729000D01*
X144296000Y-95729000D02*
X145747000Y-95729000D01*
X140776000Y-95688000D02*
X142216000Y-95688000D01*
X144296000Y-95688000D02*
X145736000Y-95688000D01*
X140788000Y-95648000D02*
X142216000Y-95648000D01*
X144296000Y-95648000D02*
X145724000Y-95648000D01*
X140801000Y-95608000D02*
X142216000Y-95608000D01*
X144296000Y-95608000D02*
X145711000Y-95608000D01*
X140814000Y-95568000D02*
X142216000Y-95568000D01*
X144296000Y-95568000D02*
X145698000Y-95568000D01*
X140828000Y-95528000D02*
X142216000Y-95528000D01*
X144296000Y-95528000D02*
X145684000Y-95528000D01*
X140842000Y-95488000D02*
X142216000Y-95488000D01*
X144296000Y-95488000D02*
X145670000Y-95488000D01*
X140858000Y-95448000D02*
X142216000Y-95448000D01*
X144296000Y-95448000D02*
X145654000Y-95448000D01*
X140874000Y-95408000D02*
X142216000Y-95408000D01*
X144296000Y-95408000D02*
X145638000Y-95408000D01*
X140891000Y-95368000D02*
X142216000Y-95368000D01*
X144296000Y-95368000D02*
X145621000Y-95368000D01*
X140908000Y-95328000D02*
X142216000Y-95328000D01*
X144296000Y-95328000D02*
X145604000Y-95328000D01*
X140927000Y-95288000D02*
X142216000Y-95288000D01*
X144296000Y-95288000D02*
X145585000Y-95288000D01*
X140946000Y-95248000D02*
X142216000Y-95248000D01*
X144296000Y-95248000D02*
X145566000Y-95248000D01*
X140966000Y-95208000D02*
X142216000Y-95208000D01*
X144296000Y-95208000D02*
X145546000Y-95208000D01*
X140988000Y-95168000D02*
X142216000Y-95168000D01*
X144296000Y-95168000D02*
X145524000Y-95168000D01*
X141009000Y-95128000D02*
X142216000Y-95128000D01*
X144296000Y-95128000D02*
X145503000Y-95128000D01*
X141032000Y-95088000D02*
X142216000Y-95088000D01*
X144296000Y-95088000D02*
X145480000Y-95088000D01*
X141056000Y-95048000D02*
X142216000Y-95048000D01*
X144296000Y-95048000D02*
X145456000Y-95048000D01*
X141081000Y-95008000D02*
X142216000Y-95008000D01*
X144296000Y-95008000D02*
X145431000Y-95008000D01*
X141107000Y-94968000D02*
X142216000Y-94968000D01*
X144296000Y-94968000D02*
X145405000Y-94968000D01*
X141134000Y-94928000D02*
X142216000Y-94928000D01*
X144296000Y-94928000D02*
X145378000Y-94928000D01*
X141161000Y-94888000D02*
X142216000Y-94888000D01*
X144296000Y-94888000D02*
X145351000Y-94888000D01*
X141191000Y-94848000D02*
X142216000Y-94848000D01*
X144296000Y-94848000D02*
X145321000Y-94848000D01*
X141221000Y-94808000D02*
X142216000Y-94808000D01*
X144296000Y-94808000D02*
X145291000Y-94808000D01*
X141252000Y-94768000D02*
X142216000Y-94768000D01*
X144296000Y-94768000D02*
X145260000Y-94768000D01*
X141285000Y-94728000D02*
X142216000Y-94728000D01*
X144296000Y-94728000D02*
X145227000Y-94728000D01*
X141319000Y-94688000D02*
X142216000Y-94688000D01*
X144296000Y-94688000D02*
X145193000Y-94688000D01*
X141355000Y-94648000D02*
X142216000Y-94648000D01*
X144296000Y-94648000D02*
X145157000Y-94648000D01*
X141392000Y-94608000D02*
X142216000Y-94608000D01*
X144296000Y-94608000D02*
X145120000Y-94608000D01*
X141430000Y-94568000D02*
X142216000Y-94568000D01*
X144296000Y-94568000D02*
X145082000Y-94568000D01*
X141471000Y-94528000D02*
X142216000Y-94528000D01*
X144296000Y-94528000D02*
X145041000Y-94528000D01*
X141513000Y-94488000D02*
X142216000Y-94488000D01*
X144296000Y-94488000D02*
X144999000Y-94488000D01*
X141557000Y-94448000D02*
X142216000Y-94448000D01*
X144296000Y-94448000D02*
X144955000Y-94448000D01*
X141603000Y-94408000D02*
X142216000Y-94408000D01*
X144296000Y-94408000D02*
X144909000Y-94408000D01*
X141651000Y-94368000D02*
X144861000Y-94368000D01*
X141702000Y-94328000D02*
X144810000Y-94328000D01*
X141756000Y-94288000D02*
X144756000Y-94288000D01*
X141813000Y-94248000D02*
X144699000Y-94248000D01*
X141873000Y-94208000D02*
X144639000Y-94208000D01*
X141937000Y-94168000D02*
X144575000Y-94168000D01*
X142005000Y-94128000D02*
X144507000Y-94128000D01*
X142078000Y-94088000D02*
X144434000Y-94088000D01*
X142158000Y-94048000D02*
X144354000Y-94048000D01*
X142245000Y-94008000D02*
X144267000Y-94008000D01*
X142341000Y-93968000D02*
X144171000Y-93968000D01*
X142451000Y-93928000D02*
X144061000Y-93928000D01*
X142579000Y-93888000D02*
X143933000Y-93888000D01*
X142738000Y-93848000D02*
X143774000Y-93848000D01*
X142972000Y-93808000D02*
X143540000Y-93808000D01*
X141781000Y-99213775D02*
X141781000Y-98713775D01*
X141531000Y-98963775D02*
X142031000Y-98963775D01*
G04 #@! TO.C,C3*
X102999000Y-95369767D02*
X102999000Y-95077233D01*
X101979000Y-95369767D02*
X101979000Y-95077233D01*
G04 #@! TO.C,C4*
X101475000Y-95396267D02*
X101475000Y-95103733D01*
X100455000Y-95396267D02*
X100455000Y-95103733D01*
G04 #@! TO.C,C5*
X111250000Y-82669767D02*
X111250000Y-82377233D01*
X112270000Y-82669767D02*
X112270000Y-82377233D01*
G04 #@! TO.C,C26*
X144981000Y-87853225D02*
X144481000Y-87853225D01*
X144731000Y-87603225D02*
X144731000Y-88103225D01*
X143540000Y-93009000D02*
X142972000Y-93009000D01*
X143774000Y-92969000D02*
X142738000Y-92969000D01*
X143933000Y-92929000D02*
X142579000Y-92929000D01*
X144061000Y-92889000D02*
X142451000Y-92889000D01*
X144171000Y-92849000D02*
X142341000Y-92849000D01*
X144267000Y-92809000D02*
X142245000Y-92809000D01*
X144354000Y-92769000D02*
X142158000Y-92769000D01*
X144434000Y-92729000D02*
X142078000Y-92729000D01*
X144507000Y-92689000D02*
X142005000Y-92689000D01*
X144575000Y-92649000D02*
X141937000Y-92649000D01*
X144639000Y-92609000D02*
X141873000Y-92609000D01*
X144699000Y-92569000D02*
X141813000Y-92569000D01*
X144756000Y-92529000D02*
X141756000Y-92529000D01*
X144810000Y-92489000D02*
X141702000Y-92489000D01*
X144861000Y-92449000D02*
X141651000Y-92449000D01*
X142216000Y-92409000D02*
X141603000Y-92409000D01*
X144909000Y-92409000D02*
X144296000Y-92409000D01*
X142216000Y-92369000D02*
X141557000Y-92369000D01*
X144955000Y-92369000D02*
X144296000Y-92369000D01*
X142216000Y-92329000D02*
X141513000Y-92329000D01*
X144999000Y-92329000D02*
X144296000Y-92329000D01*
X142216000Y-92289000D02*
X141471000Y-92289000D01*
X145041000Y-92289000D02*
X144296000Y-92289000D01*
X142216000Y-92249000D02*
X141430000Y-92249000D01*
X145082000Y-92249000D02*
X144296000Y-92249000D01*
X142216000Y-92209000D02*
X141392000Y-92209000D01*
X145120000Y-92209000D02*
X144296000Y-92209000D01*
X142216000Y-92169000D02*
X141355000Y-92169000D01*
X145157000Y-92169000D02*
X144296000Y-92169000D01*
X142216000Y-92129000D02*
X141319000Y-92129000D01*
X145193000Y-92129000D02*
X144296000Y-92129000D01*
X142216000Y-92089000D02*
X141285000Y-92089000D01*
X145227000Y-92089000D02*
X144296000Y-92089000D01*
X142216000Y-92049000D02*
X141252000Y-92049000D01*
X145260000Y-92049000D02*
X144296000Y-92049000D01*
X142216000Y-92009000D02*
X141221000Y-92009000D01*
X145291000Y-92009000D02*
X144296000Y-92009000D01*
X142216000Y-91969000D02*
X141191000Y-91969000D01*
X145321000Y-91969000D02*
X144296000Y-91969000D01*
X142216000Y-91929000D02*
X141161000Y-91929000D01*
X145351000Y-91929000D02*
X144296000Y-91929000D01*
X142216000Y-91889000D02*
X141134000Y-91889000D01*
X145378000Y-91889000D02*
X144296000Y-91889000D01*
X142216000Y-91849000D02*
X141107000Y-91849000D01*
X145405000Y-91849000D02*
X144296000Y-91849000D01*
X142216000Y-91809000D02*
X141081000Y-91809000D01*
X145431000Y-91809000D02*
X144296000Y-91809000D01*
X142216000Y-91769000D02*
X141056000Y-91769000D01*
X145456000Y-91769000D02*
X144296000Y-91769000D01*
X142216000Y-91729000D02*
X141032000Y-91729000D01*
X145480000Y-91729000D02*
X144296000Y-91729000D01*
X142216000Y-91689000D02*
X141009000Y-91689000D01*
X145503000Y-91689000D02*
X144296000Y-91689000D01*
X142216000Y-91649000D02*
X140988000Y-91649000D01*
X145524000Y-91649000D02*
X144296000Y-91649000D01*
X142216000Y-91609000D02*
X140966000Y-91609000D01*
X145546000Y-91609000D02*
X144296000Y-91609000D01*
X142216000Y-91569000D02*
X140946000Y-91569000D01*
X145566000Y-91569000D02*
X144296000Y-91569000D01*
X142216000Y-91529000D02*
X140927000Y-91529000D01*
X145585000Y-91529000D02*
X144296000Y-91529000D01*
X142216000Y-91489000D02*
X140908000Y-91489000D01*
X145604000Y-91489000D02*
X144296000Y-91489000D01*
X142216000Y-91449000D02*
X140891000Y-91449000D01*
X145621000Y-91449000D02*
X144296000Y-91449000D01*
X142216000Y-91409000D02*
X140874000Y-91409000D01*
X145638000Y-91409000D02*
X144296000Y-91409000D01*
X142216000Y-91369000D02*
X140858000Y-91369000D01*
X145654000Y-91369000D02*
X144296000Y-91369000D01*
X142216000Y-91329000D02*
X140842000Y-91329000D01*
X145670000Y-91329000D02*
X144296000Y-91329000D01*
X142216000Y-91289000D02*
X140828000Y-91289000D01*
X145684000Y-91289000D02*
X144296000Y-91289000D01*
X142216000Y-91249000D02*
X140814000Y-91249000D01*
X145698000Y-91249000D02*
X144296000Y-91249000D01*
X142216000Y-91209000D02*
X140801000Y-91209000D01*
X145711000Y-91209000D02*
X144296000Y-91209000D01*
X142216000Y-91169000D02*
X140788000Y-91169000D01*
X145724000Y-91169000D02*
X144296000Y-91169000D01*
X142216000Y-91129000D02*
X140776000Y-91129000D01*
X145736000Y-91129000D02*
X144296000Y-91129000D01*
X142216000Y-91088000D02*
X140765000Y-91088000D01*
X145747000Y-91088000D02*
X144296000Y-91088000D01*
X142216000Y-91048000D02*
X140755000Y-91048000D01*
X145757000Y-91048000D02*
X144296000Y-91048000D01*
X142216000Y-91008000D02*
X140745000Y-91008000D01*
X145767000Y-91008000D02*
X144296000Y-91008000D01*
X142216000Y-90968000D02*
X140736000Y-90968000D01*
X145776000Y-90968000D02*
X144296000Y-90968000D01*
X142216000Y-90928000D02*
X140728000Y-90928000D01*
X145784000Y-90928000D02*
X144296000Y-90928000D01*
X142216000Y-90888000D02*
X140720000Y-90888000D01*
X145792000Y-90888000D02*
X144296000Y-90888000D01*
X142216000Y-90848000D02*
X140713000Y-90848000D01*
X145799000Y-90848000D02*
X144296000Y-90848000D01*
X142216000Y-90808000D02*
X140706000Y-90808000D01*
X145806000Y-90808000D02*
X144296000Y-90808000D01*
X142216000Y-90768000D02*
X140700000Y-90768000D01*
X145812000Y-90768000D02*
X144296000Y-90768000D01*
X142216000Y-90728000D02*
X140695000Y-90728000D01*
X145817000Y-90728000D02*
X144296000Y-90728000D01*
X142216000Y-90688000D02*
X140691000Y-90688000D01*
X145821000Y-90688000D02*
X144296000Y-90688000D01*
X142216000Y-90648000D02*
X140687000Y-90648000D01*
X145825000Y-90648000D02*
X144296000Y-90648000D01*
X142216000Y-90608000D02*
X140683000Y-90608000D01*
X145829000Y-90608000D02*
X144296000Y-90608000D01*
X142216000Y-90568000D02*
X140680000Y-90568000D01*
X145832000Y-90568000D02*
X144296000Y-90568000D01*
X142216000Y-90528000D02*
X140678000Y-90528000D01*
X145834000Y-90528000D02*
X144296000Y-90528000D01*
X142216000Y-90488000D02*
X140677000Y-90488000D01*
X145835000Y-90488000D02*
X144296000Y-90488000D01*
X145836000Y-90448000D02*
X144296000Y-90448000D01*
X142216000Y-90448000D02*
X140676000Y-90448000D01*
X145836000Y-90408000D02*
X144296000Y-90408000D01*
X142216000Y-90408000D02*
X140676000Y-90408000D01*
X145876000Y-90408000D02*
G75*
G03*
X145876000Y-90408000I-2620000J0D01*
G01*
G04 #@! TO.C,C6*
X113794000Y-82669767D02*
X113794000Y-82377233D01*
X112774000Y-82669767D02*
X112774000Y-82377233D01*
G04 #@! TO.C,C7*
X103634000Y-75291733D02*
X103634000Y-75584267D01*
X102614000Y-75291733D02*
X102614000Y-75584267D01*
G04 #@! TO.C,C15*
X116461000Y-76192767D02*
X116461000Y-75900233D01*
X115441000Y-76192767D02*
X115441000Y-75900233D01*
G04 #@! TO.C,C8*
X101954000Y-74901248D02*
X101954000Y-75423752D01*
X100484000Y-74901248D02*
X100484000Y-75423752D01*
G04 #@! TO.C,C1*
X168277000Y-93452733D02*
X168277000Y-93745267D01*
X167257000Y-93452733D02*
X167257000Y-93745267D01*
G04 #@! TO.C,C2*
X165606000Y-93452733D02*
X165606000Y-93745267D01*
X166626000Y-93452733D02*
X166626000Y-93745267D01*
G04 #@! TO.C,C16*
X126621000Y-77362267D02*
X126621000Y-77069733D01*
X125601000Y-77362267D02*
X125601000Y-77069733D01*
G04 #@! TO.C,C17*
X127252000Y-77335767D02*
X127252000Y-77043233D01*
X128272000Y-77335767D02*
X128272000Y-77043233D01*
G04 #@! TO.C,F1*
X99945000Y-126916000D02*
X99945000Y-130076000D01*
X99945000Y-133576000D02*
X99945000Y-136736000D01*
X122665000Y-133576000D02*
X122665000Y-136736000D01*
X122665000Y-136736000D02*
X99945000Y-136736000D01*
X122665000Y-126916000D02*
X99945000Y-126916000D01*
X122665000Y-126916000D02*
X122665000Y-130076000D01*
G04 #@! TO.C,J1*
X80785000Y-78553000D02*
X84315000Y-78553000D01*
X80785000Y-85023000D02*
X84315000Y-85023000D01*
X79460000Y-78618000D02*
X80785000Y-78618000D01*
X80785000Y-78553000D02*
X80785000Y-78618000D01*
X84315000Y-78553000D02*
X84315000Y-78618000D01*
X80785000Y-84958000D02*
X80785000Y-85023000D01*
X84315000Y-84958000D02*
X84315000Y-85023000D01*
G04 #@! TO.C,PS1*
X131153000Y-125883000D02*
X156793000Y-125883000D01*
X156793000Y-125883000D02*
X156793000Y-100153000D01*
X156793000Y-100153000D02*
X131153000Y-100153000D01*
X131153000Y-125883000D02*
X131153000Y-100153000D01*
X137303000Y-126183000D02*
X139303000Y-126183000D01*
G04 #@! TO.C,R12*
X87263500Y-75056276D02*
X87263500Y-75565724D01*
X86218500Y-75056276D02*
X86218500Y-75565724D01*
G04 #@! TO.C,R34*
X158199000Y-134366000D02*
X158089000Y-134366000D01*
X145839000Y-134366000D02*
X145949000Y-134366000D01*
X158089000Y-131996000D02*
X145949000Y-131996000D01*
X158089000Y-136736000D02*
X158089000Y-131996000D01*
X145949000Y-136736000D02*
X158089000Y-136736000D01*
X145949000Y-131996000D02*
X145949000Y-136736000D01*
G04 #@! TO.C,R35*
X158089000Y-131148000D02*
X158089000Y-126408000D01*
X158089000Y-126408000D02*
X145949000Y-126408000D01*
X145949000Y-126408000D02*
X145949000Y-131148000D01*
X145949000Y-131148000D02*
X158089000Y-131148000D01*
X158199000Y-128778000D02*
X158089000Y-128778000D01*
X145839000Y-128778000D02*
X145949000Y-128778000D01*
G04 #@! TO.C,R17*
X84186500Y-75032776D02*
X84186500Y-75542224D01*
X85231500Y-75032776D02*
X85231500Y-75542224D01*
G04 #@! TO.C,R8*
X77865500Y-91716776D02*
X77865500Y-92226224D01*
X76820500Y-91716776D02*
X76820500Y-92226224D01*
G04 #@! TO.C,R9*
X79897500Y-92202724D02*
X79897500Y-91693276D01*
X78852500Y-92202724D02*
X78852500Y-91693276D01*
G04 #@! TO.C,R20*
X77738500Y-118745724D02*
X77738500Y-118236276D01*
X76693500Y-118745724D02*
X76693500Y-118236276D01*
G04 #@! TO.C,R24*
X76693500Y-105688224D02*
X76693500Y-105178776D01*
X77738500Y-105688224D02*
X77738500Y-105178776D01*
G04 #@! TO.C,R28*
X92470500Y-118722224D02*
X92470500Y-118212776D01*
X91425500Y-118722224D02*
X91425500Y-118212776D01*
G04 #@! TO.C,R32*
X92470500Y-105768224D02*
X92470500Y-105258776D01*
X91425500Y-105768224D02*
X91425500Y-105258776D01*
G04 #@! TO.C,R22*
X77738500Y-112245224D02*
X77738500Y-111735776D01*
X76693500Y-112245224D02*
X76693500Y-111735776D01*
G04 #@! TO.C,R26*
X76693500Y-99291224D02*
X76693500Y-98781776D01*
X77738500Y-99291224D02*
X77738500Y-98781776D01*
G04 #@! TO.C,R30*
X91425500Y-112245224D02*
X91425500Y-111735776D01*
X92470500Y-112245224D02*
X92470500Y-111735776D01*
G04 #@! TO.C,R33*
X96124500Y-118769224D02*
X96124500Y-118259776D01*
X97169500Y-118769224D02*
X97169500Y-118259776D01*
G04 #@! TO.C,R1*
X163844500Y-125326224D02*
X163844500Y-124816776D01*
X162799500Y-125326224D02*
X162799500Y-124816776D01*
G04 #@! TO.C,R3*
X162193500Y-95354224D02*
X162193500Y-94844776D01*
X161148500Y-95354224D02*
X161148500Y-94844776D01*
G04 #@! TO.C,R5*
X172480500Y-118722224D02*
X172480500Y-118212776D01*
X171435500Y-118722224D02*
X171435500Y-118212776D01*
G04 #@! TO.C,R2*
X166003500Y-125349724D02*
X166003500Y-124840276D01*
X164958500Y-125349724D02*
X164958500Y-124840276D01*
G04 #@! TO.C,R4*
X162672500Y-95354224D02*
X162672500Y-94844776D01*
X163717500Y-95354224D02*
X163717500Y-94844776D01*
G04 #@! TO.C,R10*
X96124500Y-112292224D02*
X96124500Y-111782776D01*
X97169500Y-112292224D02*
X97169500Y-111782776D01*
G04 #@! TO.C,R13*
X97169500Y-99211224D02*
X97169500Y-98701776D01*
X96124500Y-99211224D02*
X96124500Y-98701776D01*
G04 #@! TO.C,R15*
X111901500Y-112268724D02*
X111901500Y-111759276D01*
X110856500Y-112268724D02*
X110856500Y-111759276D01*
G04 #@! TO.C,R18*
X116727500Y-118769224D02*
X116727500Y-118259776D01*
X115682500Y-118769224D02*
X115682500Y-118259776D01*
G04 #@! TO.C,R21*
X115682500Y-105768224D02*
X115682500Y-105258776D01*
X116727500Y-105768224D02*
X116727500Y-105258776D01*
G04 #@! TO.C,R25*
X125334500Y-108179776D02*
X125334500Y-108689224D01*
X126379500Y-108179776D02*
X126379500Y-108689224D01*
G04 #@! TO.C,R11*
X96124500Y-105791724D02*
X96124500Y-105282276D01*
X97169500Y-105791724D02*
X97169500Y-105282276D01*
G04 #@! TO.C,R14*
X110856500Y-118769224D02*
X110856500Y-118259776D01*
X111901500Y-118769224D02*
X111901500Y-118259776D01*
G04 #@! TO.C,R19*
X115682500Y-112292224D02*
X115682500Y-111782776D01*
X116727500Y-112292224D02*
X116727500Y-111782776D01*
G04 #@! TO.C,R23*
X115682500Y-99211224D02*
X115682500Y-98701776D01*
X116727500Y-99211224D02*
X116727500Y-98701776D01*
G04 #@! TO.C,R27*
X128157500Y-108179776D02*
X128157500Y-108689224D01*
X127112500Y-108179776D02*
X127112500Y-108689224D01*
G04 #@! TO.C,R31*
X164225500Y-77574224D02*
X164225500Y-77064776D01*
X163180500Y-77574224D02*
X163180500Y-77064776D01*
D13*
G04 #@! TO.C,RV1*
X130488000Y-136616000D02*
X130488000Y-124616000D01*
X124688000Y-136616000D02*
X124688000Y-124616000D01*
X124688000Y-124616000D02*
X130488000Y-124616000D01*
X124688000Y-136616000D02*
X130488000Y-136616000D01*
D11*
G04 #@! TO.C,SW1*
X96051000Y-71798000D02*
X96051000Y-65998000D01*
X89551000Y-71898000D02*
X89551000Y-65898000D01*
X94101000Y-71998000D02*
X91501000Y-71998000D01*
X94101000Y-65798000D02*
X91501000Y-65798000D01*
X95101000Y-63798000D02*
X96101000Y-63798000D01*
X96101000Y-63798000D02*
X96101000Y-64798000D01*
G04 #@! TO.C,TH1*
X137695000Y-134493000D02*
X135085000Y-134493000D01*
X140435000Y-134493000D02*
G75*
G03*
X140435000Y-134493000I-1370000J0D01*
G01*
G04 #@! TO.C,TH2*
X140435000Y-130175000D02*
G75*
G03*
X140435000Y-130175000I-1370000J0D01*
G01*
X137695000Y-130175000D02*
X135085000Y-130175000D01*
G04 #@! TO.C,+5V*
X128065000Y-64008000D02*
G75*
G03*
X128065000Y-64008000I-1700000J0D01*
G01*
G04 #@! TO.C,U7*
X84328000Y-93492000D02*
X87778000Y-93492000D01*
X84328000Y-93492000D02*
X82378000Y-93492000D01*
X84328000Y-88372000D02*
X86278000Y-88372000D01*
X84328000Y-88372000D02*
X82378000Y-88372000D01*
G04 #@! TO.C,U4*
X98329000Y-80361000D02*
X97379000Y-80361000D01*
X97379000Y-80361000D02*
X97379000Y-81311000D01*
X106649000Y-80361000D02*
X107599000Y-80361000D01*
X107599000Y-80361000D02*
X107599000Y-81311000D01*
X98329000Y-90581000D02*
X97379000Y-90581000D01*
X97379000Y-90581000D02*
X97379000Y-89631000D01*
X106649000Y-90581000D02*
X107599000Y-90581000D01*
X107599000Y-90581000D02*
X107599000Y-89631000D01*
X107599000Y-89631000D02*
X108939000Y-89631000D01*
G04 #@! TO.C,U8*
X132313000Y-94002000D02*
X132313000Y-95502000D01*
X132313000Y-95502000D02*
X132583000Y-95502000D01*
X132583000Y-95502000D02*
X132583000Y-98332000D01*
X139213000Y-94002000D02*
X139213000Y-95502000D01*
X139213000Y-95502000D02*
X138943000Y-95502000D01*
X138943000Y-95502000D02*
X138943000Y-96602000D01*
G04 #@! TO.C,U5*
X88900000Y-95929000D02*
X86700000Y-95929000D01*
X88900000Y-95929000D02*
X91100000Y-95929000D01*
X88900000Y-102699000D02*
X86700000Y-102699000D01*
X88900000Y-102699000D02*
X92500000Y-102699000D01*
G04 #@! TO.C,U3*
X120523000Y-74910000D02*
X118573000Y-74910000D01*
X120523000Y-74910000D02*
X122473000Y-74910000D01*
X120523000Y-80030000D02*
X118573000Y-80030000D01*
X120523000Y-80030000D02*
X123973000Y-80030000D01*
G04 #@! TO.C,U1*
X168910000Y-95929000D02*
X166710000Y-95929000D01*
X168910000Y-95929000D02*
X171110000Y-95929000D01*
X168910000Y-102699000D02*
X166710000Y-102699000D01*
X168910000Y-102699000D02*
X172510000Y-102699000D01*
G04 #@! TO.C,U2*
X108458000Y-102699000D02*
X112058000Y-102699000D01*
X108458000Y-102699000D02*
X106258000Y-102699000D01*
X108458000Y-95929000D02*
X110658000Y-95929000D01*
X108458000Y-95929000D02*
X106258000Y-95929000D01*
G04 #@! TO.C,U6*
X119126000Y-94444000D02*
X122726000Y-94444000D01*
X119126000Y-94444000D02*
X116926000Y-94444000D01*
X119126000Y-87674000D02*
X121326000Y-87674000D01*
X119126000Y-87674000D02*
X116926000Y-87674000D01*
G04 #@! TO.C,Y1*
X94780000Y-84317000D02*
X91480000Y-84317000D01*
X91480000Y-84317000D02*
X91480000Y-88317000D01*
G04 #@! TO.C,GND*
X123239000Y-64008000D02*
G75*
G03*
X123239000Y-64008000I-1700000J0D01*
G01*
G04 #@! TO.C,U9*
D13*
X150114095Y-83018380D02*
X150114095Y-83827904D01*
X150161714Y-83923142D01*
X150209333Y-83970761D01*
X150304571Y-84018380D01*
X150495047Y-84018380D01*
X150590285Y-83970761D01*
X150637904Y-83923142D01*
X150685523Y-83827904D01*
X150685523Y-83018380D01*
X151209333Y-84018380D02*
X151399809Y-84018380D01*
X151495047Y-83970761D01*
X151542666Y-83923142D01*
X151637904Y-83780285D01*
X151685523Y-83589809D01*
X151685523Y-83208857D01*
X151637904Y-83113619D01*
X151590285Y-83066000D01*
X151495047Y-83018380D01*
X151304571Y-83018380D01*
X151209333Y-83066000D01*
X151161714Y-83113619D01*
X151114095Y-83208857D01*
X151114095Y-83446952D01*
X151161714Y-83542190D01*
X151209333Y-83589809D01*
X151304571Y-83637428D01*
X151495047Y-83637428D01*
X151590285Y-83589809D01*
X151637904Y-83542190D01*
X151685523Y-83446952D01*
G04 #@! TO.C,R29*
X162425142Y-81986380D02*
X162091809Y-81510190D01*
X161853714Y-81986380D02*
X161853714Y-80986380D01*
X162234666Y-80986380D01*
X162329904Y-81034000D01*
X162377523Y-81081619D01*
X162425142Y-81176857D01*
X162425142Y-81319714D01*
X162377523Y-81414952D01*
X162329904Y-81462571D01*
X162234666Y-81510190D01*
X161853714Y-81510190D01*
X162806095Y-81081619D02*
X162853714Y-81034000D01*
X162948952Y-80986380D01*
X163187047Y-80986380D01*
X163282285Y-81034000D01*
X163329904Y-81081619D01*
X163377523Y-81176857D01*
X163377523Y-81272095D01*
X163329904Y-81414952D01*
X162758476Y-81986380D01*
X163377523Y-81986380D01*
X163853714Y-81986380D02*
X164044190Y-81986380D01*
X164139428Y-81938761D01*
X164187047Y-81891142D01*
X164282285Y-81748285D01*
X164329904Y-81557809D01*
X164329904Y-81176857D01*
X164282285Y-81081619D01*
X164234666Y-81034000D01*
X164139428Y-80986380D01*
X163948952Y-80986380D01*
X163853714Y-81034000D01*
X163806095Y-81081619D01*
X163758476Y-81176857D01*
X163758476Y-81414952D01*
X163806095Y-81510190D01*
X163853714Y-81557809D01*
X163948952Y-81605428D01*
X164139428Y-81605428D01*
X164234666Y-81557809D01*
X164282285Y-81510190D01*
X164329904Y-81414952D01*
G04 #@! TO.C,R16*
X111244142Y-108656380D02*
X110910809Y-108180190D01*
X110672714Y-108656380D02*
X110672714Y-107656380D01*
X111053666Y-107656380D01*
X111148904Y-107704000D01*
X111196523Y-107751619D01*
X111244142Y-107846857D01*
X111244142Y-107989714D01*
X111196523Y-108084952D01*
X111148904Y-108132571D01*
X111053666Y-108180190D01*
X110672714Y-108180190D01*
X112196523Y-108656380D02*
X111625095Y-108656380D01*
X111910809Y-108656380D02*
X111910809Y-107656380D01*
X111815571Y-107799238D01*
X111720333Y-107894476D01*
X111625095Y-107942095D01*
X113053666Y-107656380D02*
X112863190Y-107656380D01*
X112767952Y-107704000D01*
X112720333Y-107751619D01*
X112625095Y-107894476D01*
X112577476Y-108084952D01*
X112577476Y-108465904D01*
X112625095Y-108561142D01*
X112672714Y-108608761D01*
X112767952Y-108656380D01*
X112958428Y-108656380D01*
X113053666Y-108608761D01*
X113101285Y-108561142D01*
X113148904Y-108465904D01*
X113148904Y-108227809D01*
X113101285Y-108132571D01*
X113053666Y-108084952D01*
X112958428Y-108037333D01*
X112767952Y-108037333D01*
X112672714Y-108084952D01*
X112625095Y-108132571D01*
X112577476Y-108227809D01*
G04 #@! TO.C,R7*
X172045333Y-108402380D02*
X171712000Y-107926190D01*
X171473904Y-108402380D02*
X171473904Y-107402380D01*
X171854857Y-107402380D01*
X171950095Y-107450000D01*
X171997714Y-107497619D01*
X172045333Y-107592857D01*
X172045333Y-107735714D01*
X171997714Y-107830952D01*
X171950095Y-107878571D01*
X171854857Y-107926190D01*
X171473904Y-107926190D01*
X172378666Y-107402380D02*
X173045333Y-107402380D01*
X172616761Y-108402380D01*
G04 #@! TO.C,R6*
X171918333Y-114879380D02*
X171585000Y-114403190D01*
X171346904Y-114879380D02*
X171346904Y-113879380D01*
X171727857Y-113879380D01*
X171823095Y-113927000D01*
X171870714Y-113974619D01*
X171918333Y-114069857D01*
X171918333Y-114212714D01*
X171870714Y-114307952D01*
X171823095Y-114355571D01*
X171727857Y-114403190D01*
X171346904Y-114403190D01*
X172775476Y-113879380D02*
X172585000Y-113879380D01*
X172489761Y-113927000D01*
X172442142Y-113974619D01*
X172346904Y-114117476D01*
X172299285Y-114307952D01*
X172299285Y-114688904D01*
X172346904Y-114784142D01*
X172394523Y-114831761D01*
X172489761Y-114879380D01*
X172680238Y-114879380D01*
X172775476Y-114831761D01*
X172823095Y-114784142D01*
X172870714Y-114688904D01*
X172870714Y-114450809D01*
X172823095Y-114355571D01*
X172775476Y-114307952D01*
X172680238Y-114260333D01*
X172489761Y-114260333D01*
X172394523Y-114307952D01*
X172346904Y-114355571D01*
X172299285Y-114450809D01*
G04 #@! TO.C,NEUTRAL*
X84653809Y-129611380D02*
X84653809Y-128611380D01*
X85225238Y-129611380D01*
X85225238Y-128611380D01*
X85701428Y-129087571D02*
X86034761Y-129087571D01*
X86177619Y-129611380D02*
X85701428Y-129611380D01*
X85701428Y-128611380D01*
X86177619Y-128611380D01*
X86606190Y-128611380D02*
X86606190Y-129420904D01*
X86653809Y-129516142D01*
X86701428Y-129563761D01*
X86796666Y-129611380D01*
X86987142Y-129611380D01*
X87082380Y-129563761D01*
X87130000Y-129516142D01*
X87177619Y-129420904D01*
X87177619Y-128611380D01*
X87510952Y-128611380D02*
X88082380Y-128611380D01*
X87796666Y-129611380D02*
X87796666Y-128611380D01*
X88987142Y-129611380D02*
X88653809Y-129135190D01*
X88415714Y-129611380D02*
X88415714Y-128611380D01*
X88796666Y-128611380D01*
X88891904Y-128659000D01*
X88939523Y-128706619D01*
X88987142Y-128801857D01*
X88987142Y-128944714D01*
X88939523Y-129039952D01*
X88891904Y-129087571D01*
X88796666Y-129135190D01*
X88415714Y-129135190D01*
X89368095Y-129325666D02*
X89844285Y-129325666D01*
X89272857Y-129611380D02*
X89606190Y-128611380D01*
X89939523Y-129611380D01*
X90749047Y-129611380D02*
X90272857Y-129611380D01*
X90272857Y-128611380D01*
G04 #@! TO.C,LIVE*
X94186476Y-129611380D02*
X93710285Y-129611380D01*
X93710285Y-128611380D01*
X94519809Y-129611380D02*
X94519809Y-128611380D01*
X94853142Y-128611380D02*
X95186476Y-129611380D01*
X95519809Y-128611380D01*
X95853142Y-129087571D02*
X96186476Y-129087571D01*
X96329333Y-129611380D02*
X95853142Y-129611380D01*
X95853142Y-128611380D01*
X96329333Y-128611380D01*
G04 #@! TO.C,R36*
X125595142Y-68143380D02*
X125261809Y-67667190D01*
X125023714Y-68143380D02*
X125023714Y-67143380D01*
X125404666Y-67143380D01*
X125499904Y-67191000D01*
X125547523Y-67238619D01*
X125595142Y-67333857D01*
X125595142Y-67476714D01*
X125547523Y-67571952D01*
X125499904Y-67619571D01*
X125404666Y-67667190D01*
X125023714Y-67667190D01*
X125928476Y-67143380D02*
X126547523Y-67143380D01*
X126214190Y-67524333D01*
X126357047Y-67524333D01*
X126452285Y-67571952D01*
X126499904Y-67619571D01*
X126547523Y-67714809D01*
X126547523Y-67952904D01*
X126499904Y-68048142D01*
X126452285Y-68095761D01*
X126357047Y-68143380D01*
X126071333Y-68143380D01*
X125976095Y-68095761D01*
X125928476Y-68048142D01*
X127404666Y-67143380D02*
X127214190Y-67143380D01*
X127118952Y-67191000D01*
X127071333Y-67238619D01*
X126976095Y-67381476D01*
X126928476Y-67571952D01*
X126928476Y-67952904D01*
X126976095Y-68048142D01*
X127023714Y-68095761D01*
X127118952Y-68143380D01*
X127309428Y-68143380D01*
X127404666Y-68095761D01*
X127452285Y-68048142D01*
X127499904Y-67952904D01*
X127499904Y-67714809D01*
X127452285Y-67619571D01*
X127404666Y-67571952D01*
X127309428Y-67524333D01*
X127118952Y-67524333D01*
X127023714Y-67571952D01*
X126976095Y-67619571D01*
X126928476Y-67714809D01*
G04 #@! TO.C,J3*
X156003666Y-71461380D02*
X156003666Y-72175666D01*
X155956047Y-72318523D01*
X155860809Y-72413761D01*
X155717952Y-72461380D01*
X155622714Y-72461380D01*
X156384619Y-71461380D02*
X157003666Y-71461380D01*
X156670333Y-71842333D01*
X156813190Y-71842333D01*
X156908428Y-71889952D01*
X156956047Y-71937571D01*
X157003666Y-72032809D01*
X157003666Y-72270904D01*
X156956047Y-72366142D01*
X156908428Y-72413761D01*
X156813190Y-72461380D01*
X156527476Y-72461380D01*
X156432238Y-72413761D01*
X156384619Y-72366142D01*
G04 #@! TO.C,J2*
X155876666Y-77259380D02*
X155876666Y-77973666D01*
X155829047Y-78116523D01*
X155733809Y-78211761D01*
X155590952Y-78259380D01*
X155495714Y-78259380D01*
X156305238Y-77354619D02*
X156352857Y-77307000D01*
X156448095Y-77259380D01*
X156686190Y-77259380D01*
X156781428Y-77307000D01*
X156829047Y-77354619D01*
X156876666Y-77449857D01*
X156876666Y-77545095D01*
X156829047Y-77687952D01*
X156257619Y-78259380D01*
X156876666Y-78259380D01*
G04 #@! TO.C,C30*
X136263142Y-65127142D02*
X136215523Y-65174761D01*
X136072666Y-65222380D01*
X135977428Y-65222380D01*
X135834571Y-65174761D01*
X135739333Y-65079523D01*
X135691714Y-64984285D01*
X135644095Y-64793809D01*
X135644095Y-64650952D01*
X135691714Y-64460476D01*
X135739333Y-64365238D01*
X135834571Y-64270000D01*
X135977428Y-64222380D01*
X136072666Y-64222380D01*
X136215523Y-64270000D01*
X136263142Y-64317619D01*
X136596476Y-64222380D02*
X137215523Y-64222380D01*
X136882190Y-64603333D01*
X137025047Y-64603333D01*
X137120285Y-64650952D01*
X137167904Y-64698571D01*
X137215523Y-64793809D01*
X137215523Y-65031904D01*
X137167904Y-65127142D01*
X137120285Y-65174761D01*
X137025047Y-65222380D01*
X136739333Y-65222380D01*
X136644095Y-65174761D01*
X136596476Y-65127142D01*
X137834571Y-64222380D02*
X137929809Y-64222380D01*
X138025047Y-64270000D01*
X138072666Y-64317619D01*
X138120285Y-64412857D01*
X138167904Y-64603333D01*
X138167904Y-64841428D01*
X138120285Y-65031904D01*
X138072666Y-65127142D01*
X138025047Y-65174761D01*
X137929809Y-65222380D01*
X137834571Y-65222380D01*
X137739333Y-65174761D01*
X137691714Y-65127142D01*
X137644095Y-65031904D01*
X137596476Y-64841428D01*
X137596476Y-64603333D01*
X137644095Y-64412857D01*
X137691714Y-64317619D01*
X137739333Y-64270000D01*
X137834571Y-64222380D01*
G04 #@! TO.C,C29*
X136390142Y-66524142D02*
X136342523Y-66571761D01*
X136199666Y-66619380D01*
X136104428Y-66619380D01*
X135961571Y-66571761D01*
X135866333Y-66476523D01*
X135818714Y-66381285D01*
X135771095Y-66190809D01*
X135771095Y-66047952D01*
X135818714Y-65857476D01*
X135866333Y-65762238D01*
X135961571Y-65667000D01*
X136104428Y-65619380D01*
X136199666Y-65619380D01*
X136342523Y-65667000D01*
X136390142Y-65714619D01*
X136771095Y-65714619D02*
X136818714Y-65667000D01*
X136913952Y-65619380D01*
X137152047Y-65619380D01*
X137247285Y-65667000D01*
X137294904Y-65714619D01*
X137342523Y-65809857D01*
X137342523Y-65905095D01*
X137294904Y-66047952D01*
X136723476Y-66619380D01*
X137342523Y-66619380D01*
X137818714Y-66619380D02*
X138009190Y-66619380D01*
X138104428Y-66571761D01*
X138152047Y-66524142D01*
X138247285Y-66381285D01*
X138294904Y-66190809D01*
X138294904Y-65809857D01*
X138247285Y-65714619D01*
X138199666Y-65667000D01*
X138104428Y-65619380D01*
X137913952Y-65619380D01*
X137818714Y-65667000D01*
X137771095Y-65714619D01*
X137723476Y-65809857D01*
X137723476Y-66047952D01*
X137771095Y-66143190D01*
X137818714Y-66190809D01*
X137913952Y-66238428D01*
X138104428Y-66238428D01*
X138199666Y-66190809D01*
X138247285Y-66143190D01*
X138294904Y-66047952D01*
G04 #@! TO.C,C31*
X125595142Y-69318142D02*
X125547523Y-69365761D01*
X125404666Y-69413380D01*
X125309428Y-69413380D01*
X125166571Y-69365761D01*
X125071333Y-69270523D01*
X125023714Y-69175285D01*
X124976095Y-68984809D01*
X124976095Y-68841952D01*
X125023714Y-68651476D01*
X125071333Y-68556238D01*
X125166571Y-68461000D01*
X125309428Y-68413380D01*
X125404666Y-68413380D01*
X125547523Y-68461000D01*
X125595142Y-68508619D01*
X125928476Y-68413380D02*
X126547523Y-68413380D01*
X126214190Y-68794333D01*
X126357047Y-68794333D01*
X126452285Y-68841952D01*
X126499904Y-68889571D01*
X126547523Y-68984809D01*
X126547523Y-69222904D01*
X126499904Y-69318142D01*
X126452285Y-69365761D01*
X126357047Y-69413380D01*
X126071333Y-69413380D01*
X125976095Y-69365761D01*
X125928476Y-69318142D01*
X127499904Y-69413380D02*
X126928476Y-69413380D01*
X127214190Y-69413380D02*
X127214190Y-68413380D01*
X127118952Y-68556238D01*
X127023714Y-68651476D01*
X126928476Y-68699095D01*
G04 #@! TO.C,C18*
X92575142Y-82239142D02*
X92527523Y-82286761D01*
X92384666Y-82334380D01*
X92289428Y-82334380D01*
X92146571Y-82286761D01*
X92051333Y-82191523D01*
X92003714Y-82096285D01*
X91956095Y-81905809D01*
X91956095Y-81762952D01*
X92003714Y-81572476D01*
X92051333Y-81477238D01*
X92146571Y-81382000D01*
X92289428Y-81334380D01*
X92384666Y-81334380D01*
X92527523Y-81382000D01*
X92575142Y-81429619D01*
X93527523Y-82334380D02*
X92956095Y-82334380D01*
X93241809Y-82334380D02*
X93241809Y-81334380D01*
X93146571Y-81477238D01*
X93051333Y-81572476D01*
X92956095Y-81620095D01*
X94098952Y-81762952D02*
X94003714Y-81715333D01*
X93956095Y-81667714D01*
X93908476Y-81572476D01*
X93908476Y-81524857D01*
X93956095Y-81429619D01*
X94003714Y-81382000D01*
X94098952Y-81334380D01*
X94289428Y-81334380D01*
X94384666Y-81382000D01*
X94432285Y-81429619D01*
X94479904Y-81524857D01*
X94479904Y-81572476D01*
X94432285Y-81667714D01*
X94384666Y-81715333D01*
X94289428Y-81762952D01*
X94098952Y-81762952D01*
X94003714Y-81810571D01*
X93956095Y-81858190D01*
X93908476Y-81953428D01*
X93908476Y-82143904D01*
X93956095Y-82239142D01*
X94003714Y-82286761D01*
X94098952Y-82334380D01*
X94289428Y-82334380D01*
X94384666Y-82286761D01*
X94432285Y-82239142D01*
X94479904Y-82143904D01*
X94479904Y-81953428D01*
X94432285Y-81858190D01*
X94384666Y-81810571D01*
X94289428Y-81762952D01*
G04 #@! TO.C,C19*
X89400142Y-89130142D02*
X89352523Y-89177761D01*
X89209666Y-89225380D01*
X89114428Y-89225380D01*
X88971571Y-89177761D01*
X88876333Y-89082523D01*
X88828714Y-88987285D01*
X88781095Y-88796809D01*
X88781095Y-88653952D01*
X88828714Y-88463476D01*
X88876333Y-88368238D01*
X88971571Y-88273000D01*
X89114428Y-88225380D01*
X89209666Y-88225380D01*
X89352523Y-88273000D01*
X89400142Y-88320619D01*
X90352523Y-89225380D02*
X89781095Y-89225380D01*
X90066809Y-89225380D02*
X90066809Y-88225380D01*
X89971571Y-88368238D01*
X89876333Y-88463476D01*
X89781095Y-88511095D01*
X90828714Y-89225380D02*
X91019190Y-89225380D01*
X91114428Y-89177761D01*
X91162047Y-89130142D01*
X91257285Y-88987285D01*
X91304904Y-88796809D01*
X91304904Y-88415857D01*
X91257285Y-88320619D01*
X91209666Y-88273000D01*
X91114428Y-88225380D01*
X90923952Y-88225380D01*
X90828714Y-88273000D01*
X90781095Y-88320619D01*
X90733476Y-88415857D01*
X90733476Y-88653952D01*
X90781095Y-88749190D01*
X90828714Y-88796809D01*
X90923952Y-88844428D01*
X91114428Y-88844428D01*
X91209666Y-88796809D01*
X91257285Y-88749190D01*
X91304904Y-88653952D01*
G04 #@! TO.C,C10*
X106291142Y-73255142D02*
X106243523Y-73302761D01*
X106100666Y-73350380D01*
X106005428Y-73350380D01*
X105862571Y-73302761D01*
X105767333Y-73207523D01*
X105719714Y-73112285D01*
X105672095Y-72921809D01*
X105672095Y-72778952D01*
X105719714Y-72588476D01*
X105767333Y-72493238D01*
X105862571Y-72398000D01*
X106005428Y-72350380D01*
X106100666Y-72350380D01*
X106243523Y-72398000D01*
X106291142Y-72445619D01*
X107243523Y-73350380D02*
X106672095Y-73350380D01*
X106957809Y-73350380D02*
X106957809Y-72350380D01*
X106862571Y-72493238D01*
X106767333Y-72588476D01*
X106672095Y-72636095D01*
X107862571Y-72350380D02*
X107957809Y-72350380D01*
X108053047Y-72398000D01*
X108100666Y-72445619D01*
X108148285Y-72540857D01*
X108195904Y-72731333D01*
X108195904Y-72969428D01*
X108148285Y-73159904D01*
X108100666Y-73255142D01*
X108053047Y-73302761D01*
X107957809Y-73350380D01*
X107862571Y-73350380D01*
X107767333Y-73302761D01*
X107719714Y-73255142D01*
X107672095Y-73159904D01*
X107624476Y-72969428D01*
X107624476Y-72731333D01*
X107672095Y-72540857D01*
X107719714Y-72445619D01*
X107767333Y-72398000D01*
X107862571Y-72350380D01*
G04 #@! TO.C,C27*
X122547142Y-97893142D02*
X122499523Y-97940761D01*
X122356666Y-97988380D01*
X122261428Y-97988380D01*
X122118571Y-97940761D01*
X122023333Y-97845523D01*
X121975714Y-97750285D01*
X121928095Y-97559809D01*
X121928095Y-97416952D01*
X121975714Y-97226476D01*
X122023333Y-97131238D01*
X122118571Y-97036000D01*
X122261428Y-96988380D01*
X122356666Y-96988380D01*
X122499523Y-97036000D01*
X122547142Y-97083619D01*
X122928095Y-97083619D02*
X122975714Y-97036000D01*
X123070952Y-96988380D01*
X123309047Y-96988380D01*
X123404285Y-97036000D01*
X123451904Y-97083619D01*
X123499523Y-97178857D01*
X123499523Y-97274095D01*
X123451904Y-97416952D01*
X122880476Y-97988380D01*
X123499523Y-97988380D01*
X123832857Y-96988380D02*
X124499523Y-96988380D01*
X124070952Y-97988380D01*
G04 #@! TO.C,C12*
X104259142Y-71604142D02*
X104211523Y-71651761D01*
X104068666Y-71699380D01*
X103973428Y-71699380D01*
X103830571Y-71651761D01*
X103735333Y-71556523D01*
X103687714Y-71461285D01*
X103640095Y-71270809D01*
X103640095Y-71127952D01*
X103687714Y-70937476D01*
X103735333Y-70842238D01*
X103830571Y-70747000D01*
X103973428Y-70699380D01*
X104068666Y-70699380D01*
X104211523Y-70747000D01*
X104259142Y-70794619D01*
X105211523Y-71699380D02*
X104640095Y-71699380D01*
X104925809Y-71699380D02*
X104925809Y-70699380D01*
X104830571Y-70842238D01*
X104735333Y-70937476D01*
X104640095Y-70985095D01*
X105592476Y-70794619D02*
X105640095Y-70747000D01*
X105735333Y-70699380D01*
X105973428Y-70699380D01*
X106068666Y-70747000D01*
X106116285Y-70794619D01*
X106163904Y-70889857D01*
X106163904Y-70985095D01*
X106116285Y-71127952D01*
X105544857Y-71699380D01*
X106163904Y-71699380D01*
G04 #@! TO.C,C28*
X122674142Y-103354142D02*
X122626523Y-103401761D01*
X122483666Y-103449380D01*
X122388428Y-103449380D01*
X122245571Y-103401761D01*
X122150333Y-103306523D01*
X122102714Y-103211285D01*
X122055095Y-103020809D01*
X122055095Y-102877952D01*
X122102714Y-102687476D01*
X122150333Y-102592238D01*
X122245571Y-102497000D01*
X122388428Y-102449380D01*
X122483666Y-102449380D01*
X122626523Y-102497000D01*
X122674142Y-102544619D01*
X123055095Y-102544619D02*
X123102714Y-102497000D01*
X123197952Y-102449380D01*
X123436047Y-102449380D01*
X123531285Y-102497000D01*
X123578904Y-102544619D01*
X123626523Y-102639857D01*
X123626523Y-102735095D01*
X123578904Y-102877952D01*
X123007476Y-103449380D01*
X123626523Y-103449380D01*
X124197952Y-102877952D02*
X124102714Y-102830333D01*
X124055095Y-102782714D01*
X124007476Y-102687476D01*
X124007476Y-102639857D01*
X124055095Y-102544619D01*
X124102714Y-102497000D01*
X124197952Y-102449380D01*
X124388428Y-102449380D01*
X124483666Y-102497000D01*
X124531285Y-102544619D01*
X124578904Y-102639857D01*
X124578904Y-102687476D01*
X124531285Y-102782714D01*
X124483666Y-102830333D01*
X124388428Y-102877952D01*
X124197952Y-102877952D01*
X124102714Y-102925571D01*
X124055095Y-102973190D01*
X124007476Y-103068428D01*
X124007476Y-103258904D01*
X124055095Y-103354142D01*
X124102714Y-103401761D01*
X124197952Y-103449380D01*
X124388428Y-103449380D01*
X124483666Y-103401761D01*
X124531285Y-103354142D01*
X124578904Y-103258904D01*
X124578904Y-103068428D01*
X124531285Y-102973190D01*
X124483666Y-102925571D01*
X124388428Y-102877952D01*
G04 #@! TO.C,C25*
X146931142Y-96242142D02*
X146883523Y-96289761D01*
X146740666Y-96337380D01*
X146645428Y-96337380D01*
X146502571Y-96289761D01*
X146407333Y-96194523D01*
X146359714Y-96099285D01*
X146312095Y-95908809D01*
X146312095Y-95765952D01*
X146359714Y-95575476D01*
X146407333Y-95480238D01*
X146502571Y-95385000D01*
X146645428Y-95337380D01*
X146740666Y-95337380D01*
X146883523Y-95385000D01*
X146931142Y-95432619D01*
X147312095Y-95432619D02*
X147359714Y-95385000D01*
X147454952Y-95337380D01*
X147693047Y-95337380D01*
X147788285Y-95385000D01*
X147835904Y-95432619D01*
X147883523Y-95527857D01*
X147883523Y-95623095D01*
X147835904Y-95765952D01*
X147264476Y-96337380D01*
X147883523Y-96337380D01*
X148788285Y-95337380D02*
X148312095Y-95337380D01*
X148264476Y-95813571D01*
X148312095Y-95765952D01*
X148407333Y-95718333D01*
X148645428Y-95718333D01*
X148740666Y-95765952D01*
X148788285Y-95813571D01*
X148835904Y-95908809D01*
X148835904Y-96146904D01*
X148788285Y-96242142D01*
X148740666Y-96289761D01*
X148645428Y-96337380D01*
X148407333Y-96337380D01*
X148312095Y-96289761D01*
X148264476Y-96242142D01*
G04 #@! TO.C,C3*
X103084333Y-97893142D02*
X103036714Y-97940761D01*
X102893857Y-97988380D01*
X102798619Y-97988380D01*
X102655761Y-97940761D01*
X102560523Y-97845523D01*
X102512904Y-97750285D01*
X102465285Y-97559809D01*
X102465285Y-97416952D01*
X102512904Y-97226476D01*
X102560523Y-97131238D01*
X102655761Y-97036000D01*
X102798619Y-96988380D01*
X102893857Y-96988380D01*
X103036714Y-97036000D01*
X103084333Y-97083619D01*
X103417666Y-96988380D02*
X104036714Y-96988380D01*
X103703380Y-97369333D01*
X103846238Y-97369333D01*
X103941476Y-97416952D01*
X103989095Y-97464571D01*
X104036714Y-97559809D01*
X104036714Y-97797904D01*
X103989095Y-97893142D01*
X103941476Y-97940761D01*
X103846238Y-97988380D01*
X103560523Y-97988380D01*
X103465285Y-97940761D01*
X103417666Y-97893142D01*
G04 #@! TO.C,C4*
X100671333Y-97893142D02*
X100623714Y-97940761D01*
X100480857Y-97988380D01*
X100385619Y-97988380D01*
X100242761Y-97940761D01*
X100147523Y-97845523D01*
X100099904Y-97750285D01*
X100052285Y-97559809D01*
X100052285Y-97416952D01*
X100099904Y-97226476D01*
X100147523Y-97131238D01*
X100242761Y-97036000D01*
X100385619Y-96988380D01*
X100480857Y-96988380D01*
X100623714Y-97036000D01*
X100671333Y-97083619D01*
X101528476Y-97321714D02*
X101528476Y-97988380D01*
X101290380Y-96940761D02*
X101052285Y-97655047D01*
X101671333Y-97655047D01*
G04 #@! TO.C,C5*
X110831333Y-85320142D02*
X110783714Y-85367761D01*
X110640857Y-85415380D01*
X110545619Y-85415380D01*
X110402761Y-85367761D01*
X110307523Y-85272523D01*
X110259904Y-85177285D01*
X110212285Y-84986809D01*
X110212285Y-84843952D01*
X110259904Y-84653476D01*
X110307523Y-84558238D01*
X110402761Y-84463000D01*
X110545619Y-84415380D01*
X110640857Y-84415380D01*
X110783714Y-84463000D01*
X110831333Y-84510619D01*
X111736095Y-84415380D02*
X111259904Y-84415380D01*
X111212285Y-84891571D01*
X111259904Y-84843952D01*
X111355142Y-84796333D01*
X111593238Y-84796333D01*
X111688476Y-84843952D01*
X111736095Y-84891571D01*
X111783714Y-84986809D01*
X111783714Y-85224904D01*
X111736095Y-85320142D01*
X111688476Y-85367761D01*
X111593238Y-85415380D01*
X111355142Y-85415380D01*
X111259904Y-85367761D01*
X111212285Y-85320142D01*
G04 #@! TO.C,C26*
X146804142Y-91924142D02*
X146756523Y-91971761D01*
X146613666Y-92019380D01*
X146518428Y-92019380D01*
X146375571Y-91971761D01*
X146280333Y-91876523D01*
X146232714Y-91781285D01*
X146185095Y-91590809D01*
X146185095Y-91447952D01*
X146232714Y-91257476D01*
X146280333Y-91162238D01*
X146375571Y-91067000D01*
X146518428Y-91019380D01*
X146613666Y-91019380D01*
X146756523Y-91067000D01*
X146804142Y-91114619D01*
X147185095Y-91114619D02*
X147232714Y-91067000D01*
X147327952Y-91019380D01*
X147566047Y-91019380D01*
X147661285Y-91067000D01*
X147708904Y-91114619D01*
X147756523Y-91209857D01*
X147756523Y-91305095D01*
X147708904Y-91447952D01*
X147137476Y-92019380D01*
X147756523Y-92019380D01*
X148613666Y-91019380D02*
X148423190Y-91019380D01*
X148327952Y-91067000D01*
X148280333Y-91114619D01*
X148185095Y-91257476D01*
X148137476Y-91447952D01*
X148137476Y-91828904D01*
X148185095Y-91924142D01*
X148232714Y-91971761D01*
X148327952Y-92019380D01*
X148518428Y-92019380D01*
X148613666Y-91971761D01*
X148661285Y-91924142D01*
X148708904Y-91828904D01*
X148708904Y-91590809D01*
X148661285Y-91495571D01*
X148613666Y-91447952D01*
X148518428Y-91400333D01*
X148327952Y-91400333D01*
X148232714Y-91447952D01*
X148185095Y-91495571D01*
X148137476Y-91590809D01*
G04 #@! TO.C,C6*
X114895333Y-81891142D02*
X114847714Y-81938761D01*
X114704857Y-81986380D01*
X114609619Y-81986380D01*
X114466761Y-81938761D01*
X114371523Y-81843523D01*
X114323904Y-81748285D01*
X114276285Y-81557809D01*
X114276285Y-81414952D01*
X114323904Y-81224476D01*
X114371523Y-81129238D01*
X114466761Y-81034000D01*
X114609619Y-80986380D01*
X114704857Y-80986380D01*
X114847714Y-81034000D01*
X114895333Y-81081619D01*
X115752476Y-80986380D02*
X115562000Y-80986380D01*
X115466761Y-81034000D01*
X115419142Y-81081619D01*
X115323904Y-81224476D01*
X115276285Y-81414952D01*
X115276285Y-81795904D01*
X115323904Y-81891142D01*
X115371523Y-81938761D01*
X115466761Y-81986380D01*
X115657238Y-81986380D01*
X115752476Y-81938761D01*
X115800095Y-81891142D01*
X115847714Y-81795904D01*
X115847714Y-81557809D01*
X115800095Y-81462571D01*
X115752476Y-81414952D01*
X115657238Y-81367333D01*
X115466761Y-81367333D01*
X115371523Y-81414952D01*
X115323904Y-81462571D01*
X115276285Y-81557809D01*
G04 #@! TO.C,C7*
X103084333Y-73382142D02*
X103036714Y-73429761D01*
X102893857Y-73477380D01*
X102798619Y-73477380D01*
X102655761Y-73429761D01*
X102560523Y-73334523D01*
X102512904Y-73239285D01*
X102465285Y-73048809D01*
X102465285Y-72905952D01*
X102512904Y-72715476D01*
X102560523Y-72620238D01*
X102655761Y-72525000D01*
X102798619Y-72477380D01*
X102893857Y-72477380D01*
X103036714Y-72525000D01*
X103084333Y-72572619D01*
X103417666Y-72477380D02*
X104084333Y-72477380D01*
X103655761Y-73477380D01*
G04 #@! TO.C,C15*
X114673142Y-78970142D02*
X114625523Y-79017761D01*
X114482666Y-79065380D01*
X114387428Y-79065380D01*
X114244571Y-79017761D01*
X114149333Y-78922523D01*
X114101714Y-78827285D01*
X114054095Y-78636809D01*
X114054095Y-78493952D01*
X114101714Y-78303476D01*
X114149333Y-78208238D01*
X114244571Y-78113000D01*
X114387428Y-78065380D01*
X114482666Y-78065380D01*
X114625523Y-78113000D01*
X114673142Y-78160619D01*
X115625523Y-79065380D02*
X115054095Y-79065380D01*
X115339809Y-79065380D02*
X115339809Y-78065380D01*
X115244571Y-78208238D01*
X115149333Y-78303476D01*
X115054095Y-78351095D01*
X116530285Y-78065380D02*
X116054095Y-78065380D01*
X116006476Y-78541571D01*
X116054095Y-78493952D01*
X116149333Y-78446333D01*
X116387428Y-78446333D01*
X116482666Y-78493952D01*
X116530285Y-78541571D01*
X116577904Y-78636809D01*
X116577904Y-78874904D01*
X116530285Y-78970142D01*
X116482666Y-79017761D01*
X116387428Y-79065380D01*
X116149333Y-79065380D01*
X116054095Y-79017761D01*
X116006476Y-78970142D01*
G04 #@! TO.C,C8*
X100036333Y-72874142D02*
X99988714Y-72921761D01*
X99845857Y-72969380D01*
X99750619Y-72969380D01*
X99607761Y-72921761D01*
X99512523Y-72826523D01*
X99464904Y-72731285D01*
X99417285Y-72540809D01*
X99417285Y-72397952D01*
X99464904Y-72207476D01*
X99512523Y-72112238D01*
X99607761Y-72017000D01*
X99750619Y-71969380D01*
X99845857Y-71969380D01*
X99988714Y-72017000D01*
X100036333Y-72064619D01*
X100607761Y-72397952D02*
X100512523Y-72350333D01*
X100464904Y-72302714D01*
X100417285Y-72207476D01*
X100417285Y-72159857D01*
X100464904Y-72064619D01*
X100512523Y-72017000D01*
X100607761Y-71969380D01*
X100798238Y-71969380D01*
X100893476Y-72017000D01*
X100941095Y-72064619D01*
X100988714Y-72159857D01*
X100988714Y-72207476D01*
X100941095Y-72302714D01*
X100893476Y-72350333D01*
X100798238Y-72397952D01*
X100607761Y-72397952D01*
X100512523Y-72445571D01*
X100464904Y-72493190D01*
X100417285Y-72588428D01*
X100417285Y-72778904D01*
X100464904Y-72874142D01*
X100512523Y-72921761D01*
X100607761Y-72969380D01*
X100798238Y-72969380D01*
X100893476Y-72921761D01*
X100941095Y-72874142D01*
X100988714Y-72778904D01*
X100988714Y-72588428D01*
X100941095Y-72493190D01*
X100893476Y-72445571D01*
X100798238Y-72397952D01*
G04 #@! TO.C,C1*
X169251333Y-93956142D02*
X169203714Y-94003761D01*
X169060857Y-94051380D01*
X168965619Y-94051380D01*
X168822761Y-94003761D01*
X168727523Y-93908523D01*
X168679904Y-93813285D01*
X168632285Y-93622809D01*
X168632285Y-93479952D01*
X168679904Y-93289476D01*
X168727523Y-93194238D01*
X168822761Y-93099000D01*
X168965619Y-93051380D01*
X169060857Y-93051380D01*
X169203714Y-93099000D01*
X169251333Y-93146619D01*
X170203714Y-94051380D02*
X169632285Y-94051380D01*
X169918000Y-94051380D02*
X169918000Y-93051380D01*
X169822761Y-93194238D01*
X169727523Y-93289476D01*
X169632285Y-93337095D01*
G04 #@! TO.C,C2*
X165695333Y-91797142D02*
X165647714Y-91844761D01*
X165504857Y-91892380D01*
X165409619Y-91892380D01*
X165266761Y-91844761D01*
X165171523Y-91749523D01*
X165123904Y-91654285D01*
X165076285Y-91463809D01*
X165076285Y-91320952D01*
X165123904Y-91130476D01*
X165171523Y-91035238D01*
X165266761Y-90940000D01*
X165409619Y-90892380D01*
X165504857Y-90892380D01*
X165647714Y-90940000D01*
X165695333Y-90987619D01*
X166076285Y-90987619D02*
X166123904Y-90940000D01*
X166219142Y-90892380D01*
X166457238Y-90892380D01*
X166552476Y-90940000D01*
X166600095Y-90987619D01*
X166647714Y-91082857D01*
X166647714Y-91178095D01*
X166600095Y-91320952D01*
X166028666Y-91892380D01*
X166647714Y-91892380D01*
G04 #@! TO.C,C16*
X124960142Y-75160142D02*
X124912523Y-75207761D01*
X124769666Y-75255380D01*
X124674428Y-75255380D01*
X124531571Y-75207761D01*
X124436333Y-75112523D01*
X124388714Y-75017285D01*
X124341095Y-74826809D01*
X124341095Y-74683952D01*
X124388714Y-74493476D01*
X124436333Y-74398238D01*
X124531571Y-74303000D01*
X124674428Y-74255380D01*
X124769666Y-74255380D01*
X124912523Y-74303000D01*
X124960142Y-74350619D01*
X125912523Y-75255380D02*
X125341095Y-75255380D01*
X125626809Y-75255380D02*
X125626809Y-74255380D01*
X125531571Y-74398238D01*
X125436333Y-74493476D01*
X125341095Y-74541095D01*
X126769666Y-74255380D02*
X126579190Y-74255380D01*
X126483952Y-74303000D01*
X126436333Y-74350619D01*
X126341095Y-74493476D01*
X126293476Y-74683952D01*
X126293476Y-75064904D01*
X126341095Y-75160142D01*
X126388714Y-75207761D01*
X126483952Y-75255380D01*
X126674428Y-75255380D01*
X126769666Y-75207761D01*
X126817285Y-75160142D01*
X126864904Y-75064904D01*
X126864904Y-74826809D01*
X126817285Y-74731571D01*
X126769666Y-74683952D01*
X126674428Y-74636333D01*
X126483952Y-74636333D01*
X126388714Y-74683952D01*
X126341095Y-74731571D01*
X126293476Y-74826809D01*
G04 #@! TO.C,C17*
X127627142Y-79986142D02*
X127579523Y-80033761D01*
X127436666Y-80081380D01*
X127341428Y-80081380D01*
X127198571Y-80033761D01*
X127103333Y-79938523D01*
X127055714Y-79843285D01*
X127008095Y-79652809D01*
X127008095Y-79509952D01*
X127055714Y-79319476D01*
X127103333Y-79224238D01*
X127198571Y-79129000D01*
X127341428Y-79081380D01*
X127436666Y-79081380D01*
X127579523Y-79129000D01*
X127627142Y-79176619D01*
X128579523Y-80081380D02*
X128008095Y-80081380D01*
X128293809Y-80081380D02*
X128293809Y-79081380D01*
X128198571Y-79224238D01*
X128103333Y-79319476D01*
X128008095Y-79367095D01*
X128912857Y-79081380D02*
X129579523Y-79081380D01*
X129150952Y-80081380D01*
G04 #@! TO.C,F1*
X110791666Y-125404571D02*
X110458333Y-125404571D01*
X110458333Y-125928380D02*
X110458333Y-124928380D01*
X110934523Y-124928380D01*
X111839285Y-125928380D02*
X111267857Y-125928380D01*
X111553571Y-125928380D02*
X111553571Y-124928380D01*
X111458333Y-125071238D01*
X111363095Y-125166476D01*
X111267857Y-125214095D01*
G04 #@! TO.C,J1*
X84883666Y-85812380D02*
X84883666Y-86526666D01*
X84836047Y-86669523D01*
X84740809Y-86764761D01*
X84597952Y-86812380D01*
X84502714Y-86812380D01*
X85883666Y-86812380D02*
X85312238Y-86812380D01*
X85597952Y-86812380D02*
X85597952Y-85812380D01*
X85502714Y-85955238D01*
X85407476Y-86050476D01*
X85312238Y-86098095D01*
G04 #@! TO.C,PS1*
X157408714Y-126055380D02*
X157408714Y-125055380D01*
X157789666Y-125055380D01*
X157884904Y-125103000D01*
X157932523Y-125150619D01*
X157980142Y-125245857D01*
X157980142Y-125388714D01*
X157932523Y-125483952D01*
X157884904Y-125531571D01*
X157789666Y-125579190D01*
X157408714Y-125579190D01*
X158361095Y-126007761D02*
X158503952Y-126055380D01*
X158742047Y-126055380D01*
X158837285Y-126007761D01*
X158884904Y-125960142D01*
X158932523Y-125864904D01*
X158932523Y-125769666D01*
X158884904Y-125674428D01*
X158837285Y-125626809D01*
X158742047Y-125579190D01*
X158551571Y-125531571D01*
X158456333Y-125483952D01*
X158408714Y-125436333D01*
X158361095Y-125341095D01*
X158361095Y-125245857D01*
X158408714Y-125150619D01*
X158456333Y-125103000D01*
X158551571Y-125055380D01*
X158789666Y-125055380D01*
X158932523Y-125103000D01*
X159884904Y-126055380D02*
X159313476Y-126055380D01*
X159599190Y-126055380D02*
X159599190Y-125055380D01*
X159503952Y-125198238D01*
X159408714Y-125293476D01*
X159313476Y-125341095D01*
G04 #@! TO.C,R12*
X88257142Y-76398380D02*
X87923809Y-75922190D01*
X87685714Y-76398380D02*
X87685714Y-75398380D01*
X88066666Y-75398380D01*
X88161904Y-75446000D01*
X88209523Y-75493619D01*
X88257142Y-75588857D01*
X88257142Y-75731714D01*
X88209523Y-75826952D01*
X88161904Y-75874571D01*
X88066666Y-75922190D01*
X87685714Y-75922190D01*
X89209523Y-76398380D02*
X88638095Y-76398380D01*
X88923809Y-76398380D02*
X88923809Y-75398380D01*
X88828571Y-75541238D01*
X88733333Y-75636476D01*
X88638095Y-75684095D01*
X89590476Y-75493619D02*
X89638095Y-75446000D01*
X89733333Y-75398380D01*
X89971428Y-75398380D01*
X90066666Y-75446000D01*
X90114285Y-75493619D01*
X90161904Y-75588857D01*
X90161904Y-75684095D01*
X90114285Y-75826952D01*
X89542857Y-76398380D01*
X90161904Y-76398380D01*
G04 #@! TO.C,R34*
X161917142Y-136342380D02*
X161583809Y-135866190D01*
X161345714Y-136342380D02*
X161345714Y-135342380D01*
X161726666Y-135342380D01*
X161821904Y-135390000D01*
X161869523Y-135437619D01*
X161917142Y-135532857D01*
X161917142Y-135675714D01*
X161869523Y-135770952D01*
X161821904Y-135818571D01*
X161726666Y-135866190D01*
X161345714Y-135866190D01*
X162250476Y-135342380D02*
X162869523Y-135342380D01*
X162536190Y-135723333D01*
X162679047Y-135723333D01*
X162774285Y-135770952D01*
X162821904Y-135818571D01*
X162869523Y-135913809D01*
X162869523Y-136151904D01*
X162821904Y-136247142D01*
X162774285Y-136294761D01*
X162679047Y-136342380D01*
X162393333Y-136342380D01*
X162298095Y-136294761D01*
X162250476Y-136247142D01*
X163726666Y-135675714D02*
X163726666Y-136342380D01*
X163488571Y-135294761D02*
X163250476Y-136009047D01*
X163869523Y-136009047D01*
G04 #@! TO.C,R35*
X161917142Y-130881380D02*
X161583809Y-130405190D01*
X161345714Y-130881380D02*
X161345714Y-129881380D01*
X161726666Y-129881380D01*
X161821904Y-129929000D01*
X161869523Y-129976619D01*
X161917142Y-130071857D01*
X161917142Y-130214714D01*
X161869523Y-130309952D01*
X161821904Y-130357571D01*
X161726666Y-130405190D01*
X161345714Y-130405190D01*
X162250476Y-129881380D02*
X162869523Y-129881380D01*
X162536190Y-130262333D01*
X162679047Y-130262333D01*
X162774285Y-130309952D01*
X162821904Y-130357571D01*
X162869523Y-130452809D01*
X162869523Y-130690904D01*
X162821904Y-130786142D01*
X162774285Y-130833761D01*
X162679047Y-130881380D01*
X162393333Y-130881380D01*
X162298095Y-130833761D01*
X162250476Y-130786142D01*
X163774285Y-129881380D02*
X163298095Y-129881380D01*
X163250476Y-130357571D01*
X163298095Y-130309952D01*
X163393333Y-130262333D01*
X163631428Y-130262333D01*
X163726666Y-130309952D01*
X163774285Y-130357571D01*
X163821904Y-130452809D01*
X163821904Y-130690904D01*
X163774285Y-130786142D01*
X163726666Y-130833761D01*
X163631428Y-130881380D01*
X163393333Y-130881380D01*
X163298095Y-130833761D01*
X163250476Y-130786142D01*
G04 #@! TO.C,R17*
X81780142Y-76398380D02*
X81446809Y-75922190D01*
X81208714Y-76398380D02*
X81208714Y-75398380D01*
X81589666Y-75398380D01*
X81684904Y-75446000D01*
X81732523Y-75493619D01*
X81780142Y-75588857D01*
X81780142Y-75731714D01*
X81732523Y-75826952D01*
X81684904Y-75874571D01*
X81589666Y-75922190D01*
X81208714Y-75922190D01*
X82732523Y-76398380D02*
X82161095Y-76398380D01*
X82446809Y-76398380D02*
X82446809Y-75398380D01*
X82351571Y-75541238D01*
X82256333Y-75636476D01*
X82161095Y-75684095D01*
X83065857Y-75398380D02*
X83732523Y-75398380D01*
X83303952Y-76398380D01*
G04 #@! TO.C,R8*
X76922333Y-88590380D02*
X76589000Y-88114190D01*
X76350904Y-88590380D02*
X76350904Y-87590380D01*
X76731857Y-87590380D01*
X76827095Y-87638000D01*
X76874714Y-87685619D01*
X76922333Y-87780857D01*
X76922333Y-87923714D01*
X76874714Y-88018952D01*
X76827095Y-88066571D01*
X76731857Y-88114190D01*
X76350904Y-88114190D01*
X77493761Y-88018952D02*
X77398523Y-87971333D01*
X77350904Y-87923714D01*
X77303285Y-87828476D01*
X77303285Y-87780857D01*
X77350904Y-87685619D01*
X77398523Y-87638000D01*
X77493761Y-87590380D01*
X77684238Y-87590380D01*
X77779476Y-87638000D01*
X77827095Y-87685619D01*
X77874714Y-87780857D01*
X77874714Y-87828476D01*
X77827095Y-87923714D01*
X77779476Y-87971333D01*
X77684238Y-88018952D01*
X77493761Y-88018952D01*
X77398523Y-88066571D01*
X77350904Y-88114190D01*
X77303285Y-88209428D01*
X77303285Y-88399904D01*
X77350904Y-88495142D01*
X77398523Y-88542761D01*
X77493761Y-88590380D01*
X77684238Y-88590380D01*
X77779476Y-88542761D01*
X77827095Y-88495142D01*
X77874714Y-88399904D01*
X77874714Y-88209428D01*
X77827095Y-88114190D01*
X77779476Y-88066571D01*
X77684238Y-88018952D01*
G04 #@! TO.C,R9*
X79335333Y-88590380D02*
X79002000Y-88114190D01*
X78763904Y-88590380D02*
X78763904Y-87590380D01*
X79144857Y-87590380D01*
X79240095Y-87638000D01*
X79287714Y-87685619D01*
X79335333Y-87780857D01*
X79335333Y-87923714D01*
X79287714Y-88018952D01*
X79240095Y-88066571D01*
X79144857Y-88114190D01*
X78763904Y-88114190D01*
X79811523Y-88590380D02*
X80002000Y-88590380D01*
X80097238Y-88542761D01*
X80144857Y-88495142D01*
X80240095Y-88352285D01*
X80287714Y-88161809D01*
X80287714Y-87780857D01*
X80240095Y-87685619D01*
X80192476Y-87638000D01*
X80097238Y-87590380D01*
X79906761Y-87590380D01*
X79811523Y-87638000D01*
X79763904Y-87685619D01*
X79716285Y-87780857D01*
X79716285Y-88018952D01*
X79763904Y-88114190D01*
X79811523Y-88161809D01*
X79906761Y-88209428D01*
X80097238Y-88209428D01*
X80192476Y-88161809D01*
X80240095Y-88114190D01*
X80287714Y-88018952D01*
G04 #@! TO.C,R20*
X76065142Y-121356380D02*
X75731809Y-120880190D01*
X75493714Y-121356380D02*
X75493714Y-120356380D01*
X75874666Y-120356380D01*
X75969904Y-120404000D01*
X76017523Y-120451619D01*
X76065142Y-120546857D01*
X76065142Y-120689714D01*
X76017523Y-120784952D01*
X75969904Y-120832571D01*
X75874666Y-120880190D01*
X75493714Y-120880190D01*
X76446095Y-120451619D02*
X76493714Y-120404000D01*
X76588952Y-120356380D01*
X76827047Y-120356380D01*
X76922285Y-120404000D01*
X76969904Y-120451619D01*
X77017523Y-120546857D01*
X77017523Y-120642095D01*
X76969904Y-120784952D01*
X76398476Y-121356380D01*
X77017523Y-121356380D01*
X77636571Y-120356380D02*
X77731809Y-120356380D01*
X77827047Y-120404000D01*
X77874666Y-120451619D01*
X77922285Y-120546857D01*
X77969904Y-120737333D01*
X77969904Y-120975428D01*
X77922285Y-121165904D01*
X77874666Y-121261142D01*
X77827047Y-121308761D01*
X77731809Y-121356380D01*
X77636571Y-121356380D01*
X77541333Y-121308761D01*
X77493714Y-121261142D01*
X77446095Y-121165904D01*
X77398476Y-120975428D01*
X77398476Y-120737333D01*
X77446095Y-120546857D01*
X77493714Y-120451619D01*
X77541333Y-120404000D01*
X77636571Y-120356380D01*
G04 #@! TO.C,R24*
X76065142Y-108275380D02*
X75731809Y-107799190D01*
X75493714Y-108275380D02*
X75493714Y-107275380D01*
X75874666Y-107275380D01*
X75969904Y-107323000D01*
X76017523Y-107370619D01*
X76065142Y-107465857D01*
X76065142Y-107608714D01*
X76017523Y-107703952D01*
X75969904Y-107751571D01*
X75874666Y-107799190D01*
X75493714Y-107799190D01*
X76446095Y-107370619D02*
X76493714Y-107323000D01*
X76588952Y-107275380D01*
X76827047Y-107275380D01*
X76922285Y-107323000D01*
X76969904Y-107370619D01*
X77017523Y-107465857D01*
X77017523Y-107561095D01*
X76969904Y-107703952D01*
X76398476Y-108275380D01*
X77017523Y-108275380D01*
X77874666Y-107608714D02*
X77874666Y-108275380D01*
X77636571Y-107227761D02*
X77398476Y-107942047D01*
X78017523Y-107942047D01*
G04 #@! TO.C,R28*
X91813142Y-121483380D02*
X91479809Y-121007190D01*
X91241714Y-121483380D02*
X91241714Y-120483380D01*
X91622666Y-120483380D01*
X91717904Y-120531000D01*
X91765523Y-120578619D01*
X91813142Y-120673857D01*
X91813142Y-120816714D01*
X91765523Y-120911952D01*
X91717904Y-120959571D01*
X91622666Y-121007190D01*
X91241714Y-121007190D01*
X92194095Y-120578619D02*
X92241714Y-120531000D01*
X92336952Y-120483380D01*
X92575047Y-120483380D01*
X92670285Y-120531000D01*
X92717904Y-120578619D01*
X92765523Y-120673857D01*
X92765523Y-120769095D01*
X92717904Y-120911952D01*
X92146476Y-121483380D01*
X92765523Y-121483380D01*
X93336952Y-120911952D02*
X93241714Y-120864333D01*
X93194095Y-120816714D01*
X93146476Y-120721476D01*
X93146476Y-120673857D01*
X93194095Y-120578619D01*
X93241714Y-120531000D01*
X93336952Y-120483380D01*
X93527428Y-120483380D01*
X93622666Y-120531000D01*
X93670285Y-120578619D01*
X93717904Y-120673857D01*
X93717904Y-120721476D01*
X93670285Y-120816714D01*
X93622666Y-120864333D01*
X93527428Y-120911952D01*
X93336952Y-120911952D01*
X93241714Y-120959571D01*
X93194095Y-121007190D01*
X93146476Y-121102428D01*
X93146476Y-121292904D01*
X93194095Y-121388142D01*
X93241714Y-121435761D01*
X93336952Y-121483380D01*
X93527428Y-121483380D01*
X93622666Y-121435761D01*
X93670285Y-121388142D01*
X93717904Y-121292904D01*
X93717904Y-121102428D01*
X93670285Y-121007190D01*
X93622666Y-120959571D01*
X93527428Y-120911952D01*
G04 #@! TO.C,R32*
X91686142Y-108402380D02*
X91352809Y-107926190D01*
X91114714Y-108402380D02*
X91114714Y-107402380D01*
X91495666Y-107402380D01*
X91590904Y-107450000D01*
X91638523Y-107497619D01*
X91686142Y-107592857D01*
X91686142Y-107735714D01*
X91638523Y-107830952D01*
X91590904Y-107878571D01*
X91495666Y-107926190D01*
X91114714Y-107926190D01*
X92019476Y-107402380D02*
X92638523Y-107402380D01*
X92305190Y-107783333D01*
X92448047Y-107783333D01*
X92543285Y-107830952D01*
X92590904Y-107878571D01*
X92638523Y-107973809D01*
X92638523Y-108211904D01*
X92590904Y-108307142D01*
X92543285Y-108354761D01*
X92448047Y-108402380D01*
X92162333Y-108402380D01*
X92067095Y-108354761D01*
X92019476Y-108307142D01*
X93019476Y-107497619D02*
X93067095Y-107450000D01*
X93162333Y-107402380D01*
X93400428Y-107402380D01*
X93495666Y-107450000D01*
X93543285Y-107497619D01*
X93590904Y-107592857D01*
X93590904Y-107688095D01*
X93543285Y-107830952D01*
X92971857Y-108402380D01*
X93590904Y-108402380D01*
G04 #@! TO.C,R22*
X76065142Y-114879380D02*
X75731809Y-114403190D01*
X75493714Y-114879380D02*
X75493714Y-113879380D01*
X75874666Y-113879380D01*
X75969904Y-113927000D01*
X76017523Y-113974619D01*
X76065142Y-114069857D01*
X76065142Y-114212714D01*
X76017523Y-114307952D01*
X75969904Y-114355571D01*
X75874666Y-114403190D01*
X75493714Y-114403190D01*
X76446095Y-113974619D02*
X76493714Y-113927000D01*
X76588952Y-113879380D01*
X76827047Y-113879380D01*
X76922285Y-113927000D01*
X76969904Y-113974619D01*
X77017523Y-114069857D01*
X77017523Y-114165095D01*
X76969904Y-114307952D01*
X76398476Y-114879380D01*
X77017523Y-114879380D01*
X77398476Y-113974619D02*
X77446095Y-113927000D01*
X77541333Y-113879380D01*
X77779428Y-113879380D01*
X77874666Y-113927000D01*
X77922285Y-113974619D01*
X77969904Y-114069857D01*
X77969904Y-114165095D01*
X77922285Y-114307952D01*
X77350857Y-114879380D01*
X77969904Y-114879380D01*
G04 #@! TO.C,R26*
X76065142Y-101798380D02*
X75731809Y-101322190D01*
X75493714Y-101798380D02*
X75493714Y-100798380D01*
X75874666Y-100798380D01*
X75969904Y-100846000D01*
X76017523Y-100893619D01*
X76065142Y-100988857D01*
X76065142Y-101131714D01*
X76017523Y-101226952D01*
X75969904Y-101274571D01*
X75874666Y-101322190D01*
X75493714Y-101322190D01*
X76446095Y-100893619D02*
X76493714Y-100846000D01*
X76588952Y-100798380D01*
X76827047Y-100798380D01*
X76922285Y-100846000D01*
X76969904Y-100893619D01*
X77017523Y-100988857D01*
X77017523Y-101084095D01*
X76969904Y-101226952D01*
X76398476Y-101798380D01*
X77017523Y-101798380D01*
X77874666Y-100798380D02*
X77684190Y-100798380D01*
X77588952Y-100846000D01*
X77541333Y-100893619D01*
X77446095Y-101036476D01*
X77398476Y-101226952D01*
X77398476Y-101607904D01*
X77446095Y-101703142D01*
X77493714Y-101750761D01*
X77588952Y-101798380D01*
X77779428Y-101798380D01*
X77874666Y-101750761D01*
X77922285Y-101703142D01*
X77969904Y-101607904D01*
X77969904Y-101369809D01*
X77922285Y-101274571D01*
X77874666Y-101226952D01*
X77779428Y-101179333D01*
X77588952Y-101179333D01*
X77493714Y-101226952D01*
X77446095Y-101274571D01*
X77398476Y-101369809D01*
G04 #@! TO.C,R30*
X91813142Y-114879380D02*
X91479809Y-114403190D01*
X91241714Y-114879380D02*
X91241714Y-113879380D01*
X91622666Y-113879380D01*
X91717904Y-113927000D01*
X91765523Y-113974619D01*
X91813142Y-114069857D01*
X91813142Y-114212714D01*
X91765523Y-114307952D01*
X91717904Y-114355571D01*
X91622666Y-114403190D01*
X91241714Y-114403190D01*
X92146476Y-113879380D02*
X92765523Y-113879380D01*
X92432190Y-114260333D01*
X92575047Y-114260333D01*
X92670285Y-114307952D01*
X92717904Y-114355571D01*
X92765523Y-114450809D01*
X92765523Y-114688904D01*
X92717904Y-114784142D01*
X92670285Y-114831761D01*
X92575047Y-114879380D01*
X92289333Y-114879380D01*
X92194095Y-114831761D01*
X92146476Y-114784142D01*
X93384571Y-113879380D02*
X93479809Y-113879380D01*
X93575047Y-113927000D01*
X93622666Y-113974619D01*
X93670285Y-114069857D01*
X93717904Y-114260333D01*
X93717904Y-114498428D01*
X93670285Y-114688904D01*
X93622666Y-114784142D01*
X93575047Y-114831761D01*
X93479809Y-114879380D01*
X93384571Y-114879380D01*
X93289333Y-114831761D01*
X93241714Y-114784142D01*
X93194095Y-114688904D01*
X93146476Y-114498428D01*
X93146476Y-114260333D01*
X93194095Y-114069857D01*
X93241714Y-113974619D01*
X93289333Y-113927000D01*
X93384571Y-113879380D01*
G04 #@! TO.C,R33*
X95496142Y-121483380D02*
X95162809Y-121007190D01*
X94924714Y-121483380D02*
X94924714Y-120483380D01*
X95305666Y-120483380D01*
X95400904Y-120531000D01*
X95448523Y-120578619D01*
X95496142Y-120673857D01*
X95496142Y-120816714D01*
X95448523Y-120911952D01*
X95400904Y-120959571D01*
X95305666Y-121007190D01*
X94924714Y-121007190D01*
X95829476Y-120483380D02*
X96448523Y-120483380D01*
X96115190Y-120864333D01*
X96258047Y-120864333D01*
X96353285Y-120911952D01*
X96400904Y-120959571D01*
X96448523Y-121054809D01*
X96448523Y-121292904D01*
X96400904Y-121388142D01*
X96353285Y-121435761D01*
X96258047Y-121483380D01*
X95972333Y-121483380D01*
X95877095Y-121435761D01*
X95829476Y-121388142D01*
X96781857Y-120483380D02*
X97400904Y-120483380D01*
X97067571Y-120864333D01*
X97210428Y-120864333D01*
X97305666Y-120911952D01*
X97353285Y-120959571D01*
X97400904Y-121054809D01*
X97400904Y-121292904D01*
X97353285Y-121388142D01*
X97305666Y-121435761D01*
X97210428Y-121483380D01*
X96924714Y-121483380D01*
X96829476Y-121435761D01*
X96781857Y-121388142D01*
G04 #@! TO.C,R1*
X163155333Y-127960380D02*
X162822000Y-127484190D01*
X162583904Y-127960380D02*
X162583904Y-126960380D01*
X162964857Y-126960380D01*
X163060095Y-127008000D01*
X163107714Y-127055619D01*
X163155333Y-127150857D01*
X163155333Y-127293714D01*
X163107714Y-127388952D01*
X163060095Y-127436571D01*
X162964857Y-127484190D01*
X162583904Y-127484190D01*
X164107714Y-127960380D02*
X163536285Y-127960380D01*
X163822000Y-127960380D02*
X163822000Y-126960380D01*
X163726761Y-127103238D01*
X163631523Y-127198476D01*
X163536285Y-127246095D01*
G04 #@! TO.C,R3*
X160996333Y-93289380D02*
X160663000Y-92813190D01*
X160424904Y-93289380D02*
X160424904Y-92289380D01*
X160805857Y-92289380D01*
X160901095Y-92337000D01*
X160948714Y-92384619D01*
X160996333Y-92479857D01*
X160996333Y-92622714D01*
X160948714Y-92717952D01*
X160901095Y-92765571D01*
X160805857Y-92813190D01*
X160424904Y-92813190D01*
X161329666Y-92289380D02*
X161948714Y-92289380D01*
X161615380Y-92670333D01*
X161758238Y-92670333D01*
X161853476Y-92717952D01*
X161901095Y-92765571D01*
X161948714Y-92860809D01*
X161948714Y-93098904D01*
X161901095Y-93194142D01*
X161853476Y-93241761D01*
X161758238Y-93289380D01*
X161472523Y-93289380D01*
X161377285Y-93241761D01*
X161329666Y-93194142D01*
G04 #@! TO.C,R5*
X171791333Y-121356380D02*
X171458000Y-120880190D01*
X171219904Y-121356380D02*
X171219904Y-120356380D01*
X171600857Y-120356380D01*
X171696095Y-120404000D01*
X171743714Y-120451619D01*
X171791333Y-120546857D01*
X171791333Y-120689714D01*
X171743714Y-120784952D01*
X171696095Y-120832571D01*
X171600857Y-120880190D01*
X171219904Y-120880190D01*
X172696095Y-120356380D02*
X172219904Y-120356380D01*
X172172285Y-120832571D01*
X172219904Y-120784952D01*
X172315142Y-120737333D01*
X172553238Y-120737333D01*
X172648476Y-120784952D01*
X172696095Y-120832571D01*
X172743714Y-120927809D01*
X172743714Y-121165904D01*
X172696095Y-121261142D01*
X172648476Y-121308761D01*
X172553238Y-121356380D01*
X172315142Y-121356380D01*
X172219904Y-121308761D01*
X172172285Y-121261142D01*
G04 #@! TO.C,R2*
X166965333Y-126690380D02*
X166632000Y-126214190D01*
X166393904Y-126690380D02*
X166393904Y-125690380D01*
X166774857Y-125690380D01*
X166870095Y-125738000D01*
X166917714Y-125785619D01*
X166965333Y-125880857D01*
X166965333Y-126023714D01*
X166917714Y-126118952D01*
X166870095Y-126166571D01*
X166774857Y-126214190D01*
X166393904Y-126214190D01*
X167346285Y-125785619D02*
X167393904Y-125738000D01*
X167489142Y-125690380D01*
X167727238Y-125690380D01*
X167822476Y-125738000D01*
X167870095Y-125785619D01*
X167917714Y-125880857D01*
X167917714Y-125976095D01*
X167870095Y-126118952D01*
X167298666Y-126690380D01*
X167917714Y-126690380D01*
G04 #@! TO.C,R4*
X163536333Y-93289380D02*
X163203000Y-92813190D01*
X162964904Y-93289380D02*
X162964904Y-92289380D01*
X163345857Y-92289380D01*
X163441095Y-92337000D01*
X163488714Y-92384619D01*
X163536333Y-92479857D01*
X163536333Y-92622714D01*
X163488714Y-92717952D01*
X163441095Y-92765571D01*
X163345857Y-92813190D01*
X162964904Y-92813190D01*
X164393476Y-92622714D02*
X164393476Y-93289380D01*
X164155380Y-92241761D02*
X163917285Y-92956047D01*
X164536333Y-92956047D01*
G04 #@! TO.C,R10*
X95496142Y-114879380D02*
X95162809Y-114403190D01*
X94924714Y-114879380D02*
X94924714Y-113879380D01*
X95305666Y-113879380D01*
X95400904Y-113927000D01*
X95448523Y-113974619D01*
X95496142Y-114069857D01*
X95496142Y-114212714D01*
X95448523Y-114307952D01*
X95400904Y-114355571D01*
X95305666Y-114403190D01*
X94924714Y-114403190D01*
X96448523Y-114879380D02*
X95877095Y-114879380D01*
X96162809Y-114879380D02*
X96162809Y-113879380D01*
X96067571Y-114022238D01*
X95972333Y-114117476D01*
X95877095Y-114165095D01*
X97067571Y-113879380D02*
X97162809Y-113879380D01*
X97258047Y-113927000D01*
X97305666Y-113974619D01*
X97353285Y-114069857D01*
X97400904Y-114260333D01*
X97400904Y-114498428D01*
X97353285Y-114688904D01*
X97305666Y-114784142D01*
X97258047Y-114831761D01*
X97162809Y-114879380D01*
X97067571Y-114879380D01*
X96972333Y-114831761D01*
X96924714Y-114784142D01*
X96877095Y-114688904D01*
X96829476Y-114498428D01*
X96829476Y-114260333D01*
X96877095Y-114069857D01*
X96924714Y-113974619D01*
X96972333Y-113927000D01*
X97067571Y-113879380D01*
G04 #@! TO.C,R13*
X98163142Y-99131380D02*
X97829809Y-98655190D01*
X97591714Y-99131380D02*
X97591714Y-98131380D01*
X97972666Y-98131380D01*
X98067904Y-98179000D01*
X98115523Y-98226619D01*
X98163142Y-98321857D01*
X98163142Y-98464714D01*
X98115523Y-98559952D01*
X98067904Y-98607571D01*
X97972666Y-98655190D01*
X97591714Y-98655190D01*
X99115523Y-99131380D02*
X98544095Y-99131380D01*
X98829809Y-99131380D02*
X98829809Y-98131380D01*
X98734571Y-98274238D01*
X98639333Y-98369476D01*
X98544095Y-98417095D01*
X99448857Y-98131380D02*
X100067904Y-98131380D01*
X99734571Y-98512333D01*
X99877428Y-98512333D01*
X99972666Y-98559952D01*
X100020285Y-98607571D01*
X100067904Y-98702809D01*
X100067904Y-98940904D01*
X100020285Y-99036142D01*
X99972666Y-99083761D01*
X99877428Y-99131380D01*
X99591714Y-99131380D01*
X99496476Y-99083761D01*
X99448857Y-99036142D01*
G04 #@! TO.C,R15*
X111371142Y-114879380D02*
X111037809Y-114403190D01*
X110799714Y-114879380D02*
X110799714Y-113879380D01*
X111180666Y-113879380D01*
X111275904Y-113927000D01*
X111323523Y-113974619D01*
X111371142Y-114069857D01*
X111371142Y-114212714D01*
X111323523Y-114307952D01*
X111275904Y-114355571D01*
X111180666Y-114403190D01*
X110799714Y-114403190D01*
X112323523Y-114879380D02*
X111752095Y-114879380D01*
X112037809Y-114879380D02*
X112037809Y-113879380D01*
X111942571Y-114022238D01*
X111847333Y-114117476D01*
X111752095Y-114165095D01*
X113228285Y-113879380D02*
X112752095Y-113879380D01*
X112704476Y-114355571D01*
X112752095Y-114307952D01*
X112847333Y-114260333D01*
X113085428Y-114260333D01*
X113180666Y-114307952D01*
X113228285Y-114355571D01*
X113275904Y-114450809D01*
X113275904Y-114688904D01*
X113228285Y-114784142D01*
X113180666Y-114831761D01*
X113085428Y-114879380D01*
X112847333Y-114879380D01*
X112752095Y-114831761D01*
X112704476Y-114784142D01*
G04 #@! TO.C,R18*
X114927142Y-121356380D02*
X114593809Y-120880190D01*
X114355714Y-121356380D02*
X114355714Y-120356380D01*
X114736666Y-120356380D01*
X114831904Y-120404000D01*
X114879523Y-120451619D01*
X114927142Y-120546857D01*
X114927142Y-120689714D01*
X114879523Y-120784952D01*
X114831904Y-120832571D01*
X114736666Y-120880190D01*
X114355714Y-120880190D01*
X115879523Y-121356380D02*
X115308095Y-121356380D01*
X115593809Y-121356380D02*
X115593809Y-120356380D01*
X115498571Y-120499238D01*
X115403333Y-120594476D01*
X115308095Y-120642095D01*
X116450952Y-120784952D02*
X116355714Y-120737333D01*
X116308095Y-120689714D01*
X116260476Y-120594476D01*
X116260476Y-120546857D01*
X116308095Y-120451619D01*
X116355714Y-120404000D01*
X116450952Y-120356380D01*
X116641428Y-120356380D01*
X116736666Y-120404000D01*
X116784285Y-120451619D01*
X116831904Y-120546857D01*
X116831904Y-120594476D01*
X116784285Y-120689714D01*
X116736666Y-120737333D01*
X116641428Y-120784952D01*
X116450952Y-120784952D01*
X116355714Y-120832571D01*
X116308095Y-120880190D01*
X116260476Y-120975428D01*
X116260476Y-121165904D01*
X116308095Y-121261142D01*
X116355714Y-121308761D01*
X116450952Y-121356380D01*
X116641428Y-121356380D01*
X116736666Y-121308761D01*
X116784285Y-121261142D01*
X116831904Y-121165904D01*
X116831904Y-120975428D01*
X116784285Y-120880190D01*
X116736666Y-120832571D01*
X116641428Y-120784952D01*
G04 #@! TO.C,R21*
X115054142Y-108656380D02*
X114720809Y-108180190D01*
X114482714Y-108656380D02*
X114482714Y-107656380D01*
X114863666Y-107656380D01*
X114958904Y-107704000D01*
X115006523Y-107751619D01*
X115054142Y-107846857D01*
X115054142Y-107989714D01*
X115006523Y-108084952D01*
X114958904Y-108132571D01*
X114863666Y-108180190D01*
X114482714Y-108180190D01*
X115435095Y-107751619D02*
X115482714Y-107704000D01*
X115577952Y-107656380D01*
X115816047Y-107656380D01*
X115911285Y-107704000D01*
X115958904Y-107751619D01*
X116006523Y-107846857D01*
X116006523Y-107942095D01*
X115958904Y-108084952D01*
X115387476Y-108656380D01*
X116006523Y-108656380D01*
X116958904Y-108656380D02*
X116387476Y-108656380D01*
X116673190Y-108656380D02*
X116673190Y-107656380D01*
X116577952Y-107799238D01*
X116482714Y-107894476D01*
X116387476Y-107942095D01*
G04 #@! TO.C,R25*
X123055142Y-110053380D02*
X122721809Y-109577190D01*
X122483714Y-110053380D02*
X122483714Y-109053380D01*
X122864666Y-109053380D01*
X122959904Y-109101000D01*
X123007523Y-109148619D01*
X123055142Y-109243857D01*
X123055142Y-109386714D01*
X123007523Y-109481952D01*
X122959904Y-109529571D01*
X122864666Y-109577190D01*
X122483714Y-109577190D01*
X123436095Y-109148619D02*
X123483714Y-109101000D01*
X123578952Y-109053380D01*
X123817047Y-109053380D01*
X123912285Y-109101000D01*
X123959904Y-109148619D01*
X124007523Y-109243857D01*
X124007523Y-109339095D01*
X123959904Y-109481952D01*
X123388476Y-110053380D01*
X124007523Y-110053380D01*
X124912285Y-109053380D02*
X124436095Y-109053380D01*
X124388476Y-109529571D01*
X124436095Y-109481952D01*
X124531333Y-109434333D01*
X124769428Y-109434333D01*
X124864666Y-109481952D01*
X124912285Y-109529571D01*
X124959904Y-109624809D01*
X124959904Y-109862904D01*
X124912285Y-109958142D01*
X124864666Y-110005761D01*
X124769428Y-110053380D01*
X124531333Y-110053380D01*
X124436095Y-110005761D01*
X124388476Y-109958142D01*
G04 #@! TO.C,R11*
X95623142Y-108402380D02*
X95289809Y-107926190D01*
X95051714Y-108402380D02*
X95051714Y-107402380D01*
X95432666Y-107402380D01*
X95527904Y-107450000D01*
X95575523Y-107497619D01*
X95623142Y-107592857D01*
X95623142Y-107735714D01*
X95575523Y-107830952D01*
X95527904Y-107878571D01*
X95432666Y-107926190D01*
X95051714Y-107926190D01*
X96575523Y-108402380D02*
X96004095Y-108402380D01*
X96289809Y-108402380D02*
X96289809Y-107402380D01*
X96194571Y-107545238D01*
X96099333Y-107640476D01*
X96004095Y-107688095D01*
X97527904Y-108402380D02*
X96956476Y-108402380D01*
X97242190Y-108402380D02*
X97242190Y-107402380D01*
X97146952Y-107545238D01*
X97051714Y-107640476D01*
X96956476Y-107688095D01*
G04 #@! TO.C,R14*
X111244142Y-121356380D02*
X110910809Y-120880190D01*
X110672714Y-121356380D02*
X110672714Y-120356380D01*
X111053666Y-120356380D01*
X111148904Y-120404000D01*
X111196523Y-120451619D01*
X111244142Y-120546857D01*
X111244142Y-120689714D01*
X111196523Y-120784952D01*
X111148904Y-120832571D01*
X111053666Y-120880190D01*
X110672714Y-120880190D01*
X112196523Y-121356380D02*
X111625095Y-121356380D01*
X111910809Y-121356380D02*
X111910809Y-120356380D01*
X111815571Y-120499238D01*
X111720333Y-120594476D01*
X111625095Y-120642095D01*
X113053666Y-120689714D02*
X113053666Y-121356380D01*
X112815571Y-120308761D02*
X112577476Y-121023047D01*
X113196523Y-121023047D01*
G04 #@! TO.C,R19*
X115054142Y-114879380D02*
X114720809Y-114403190D01*
X114482714Y-114879380D02*
X114482714Y-113879380D01*
X114863666Y-113879380D01*
X114958904Y-113927000D01*
X115006523Y-113974619D01*
X115054142Y-114069857D01*
X115054142Y-114212714D01*
X115006523Y-114307952D01*
X114958904Y-114355571D01*
X114863666Y-114403190D01*
X114482714Y-114403190D01*
X116006523Y-114879380D02*
X115435095Y-114879380D01*
X115720809Y-114879380D02*
X115720809Y-113879380D01*
X115625571Y-114022238D01*
X115530333Y-114117476D01*
X115435095Y-114165095D01*
X116482714Y-114879380D02*
X116673190Y-114879380D01*
X116768428Y-114831761D01*
X116816047Y-114784142D01*
X116911285Y-114641285D01*
X116958904Y-114450809D01*
X116958904Y-114069857D01*
X116911285Y-113974619D01*
X116863666Y-113927000D01*
X116768428Y-113879380D01*
X116577952Y-113879380D01*
X116482714Y-113927000D01*
X116435095Y-113974619D01*
X116387476Y-114069857D01*
X116387476Y-114307952D01*
X116435095Y-114403190D01*
X116482714Y-114450809D01*
X116577952Y-114498428D01*
X116768428Y-114498428D01*
X116863666Y-114450809D01*
X116911285Y-114403190D01*
X116958904Y-114307952D01*
G04 #@! TO.C,R23*
X115054142Y-101798380D02*
X114720809Y-101322190D01*
X114482714Y-101798380D02*
X114482714Y-100798380D01*
X114863666Y-100798380D01*
X114958904Y-100846000D01*
X115006523Y-100893619D01*
X115054142Y-100988857D01*
X115054142Y-101131714D01*
X115006523Y-101226952D01*
X114958904Y-101274571D01*
X114863666Y-101322190D01*
X114482714Y-101322190D01*
X115435095Y-100893619D02*
X115482714Y-100846000D01*
X115577952Y-100798380D01*
X115816047Y-100798380D01*
X115911285Y-100846000D01*
X115958904Y-100893619D01*
X116006523Y-100988857D01*
X116006523Y-101084095D01*
X115958904Y-101226952D01*
X115387476Y-101798380D01*
X116006523Y-101798380D01*
X116339857Y-100798380D02*
X116958904Y-100798380D01*
X116625571Y-101179333D01*
X116768428Y-101179333D01*
X116863666Y-101226952D01*
X116911285Y-101274571D01*
X116958904Y-101369809D01*
X116958904Y-101607904D01*
X116911285Y-101703142D01*
X116863666Y-101750761D01*
X116768428Y-101798380D01*
X116482714Y-101798380D01*
X116387476Y-101750761D01*
X116339857Y-101703142D01*
G04 #@! TO.C,R27*
X129024142Y-110053380D02*
X128690809Y-109577190D01*
X128452714Y-110053380D02*
X128452714Y-109053380D01*
X128833666Y-109053380D01*
X128928904Y-109101000D01*
X128976523Y-109148619D01*
X129024142Y-109243857D01*
X129024142Y-109386714D01*
X128976523Y-109481952D01*
X128928904Y-109529571D01*
X128833666Y-109577190D01*
X128452714Y-109577190D01*
X129405095Y-109148619D02*
X129452714Y-109101000D01*
X129547952Y-109053380D01*
X129786047Y-109053380D01*
X129881285Y-109101000D01*
X129928904Y-109148619D01*
X129976523Y-109243857D01*
X129976523Y-109339095D01*
X129928904Y-109481952D01*
X129357476Y-110053380D01*
X129976523Y-110053380D01*
X130309857Y-109053380D02*
X130976523Y-109053380D01*
X130547952Y-110053380D01*
G04 #@! TO.C,R31*
X162552142Y-75382380D02*
X162218809Y-74906190D01*
X161980714Y-75382380D02*
X161980714Y-74382380D01*
X162361666Y-74382380D01*
X162456904Y-74430000D01*
X162504523Y-74477619D01*
X162552142Y-74572857D01*
X162552142Y-74715714D01*
X162504523Y-74810952D01*
X162456904Y-74858571D01*
X162361666Y-74906190D01*
X161980714Y-74906190D01*
X162885476Y-74382380D02*
X163504523Y-74382380D01*
X163171190Y-74763333D01*
X163314047Y-74763333D01*
X163409285Y-74810952D01*
X163456904Y-74858571D01*
X163504523Y-74953809D01*
X163504523Y-75191904D01*
X163456904Y-75287142D01*
X163409285Y-75334761D01*
X163314047Y-75382380D01*
X163028333Y-75382380D01*
X162933095Y-75334761D01*
X162885476Y-75287142D01*
X164456904Y-75382380D02*
X163885476Y-75382380D01*
X164171190Y-75382380D02*
X164171190Y-74382380D01*
X164075952Y-74525238D01*
X163980714Y-74620476D01*
X163885476Y-74668095D01*
G04 #@! TO.C,RV1*
X122467761Y-126055380D02*
X122134428Y-125579190D01*
X121896333Y-126055380D02*
X121896333Y-125055380D01*
X122277285Y-125055380D01*
X122372523Y-125103000D01*
X122420142Y-125150619D01*
X122467761Y-125245857D01*
X122467761Y-125388714D01*
X122420142Y-125483952D01*
X122372523Y-125531571D01*
X122277285Y-125579190D01*
X121896333Y-125579190D01*
X122753476Y-125055380D02*
X123086809Y-126055380D01*
X123420142Y-125055380D01*
X124277285Y-126055380D02*
X123705857Y-126055380D01*
X123991571Y-126055380D02*
X123991571Y-125055380D01*
X123896333Y-125198238D01*
X123801095Y-125293476D01*
X123705857Y-125341095D01*
G04 #@! TO.C,SW1*
X86423666Y-70508761D02*
X86566523Y-70556380D01*
X86804619Y-70556380D01*
X86899857Y-70508761D01*
X86947476Y-70461142D01*
X86995095Y-70365904D01*
X86995095Y-70270666D01*
X86947476Y-70175428D01*
X86899857Y-70127809D01*
X86804619Y-70080190D01*
X86614142Y-70032571D01*
X86518904Y-69984952D01*
X86471285Y-69937333D01*
X86423666Y-69842095D01*
X86423666Y-69746857D01*
X86471285Y-69651619D01*
X86518904Y-69604000D01*
X86614142Y-69556380D01*
X86852238Y-69556380D01*
X86995095Y-69604000D01*
X87328428Y-69556380D02*
X87566523Y-70556380D01*
X87757000Y-69842095D01*
X87947476Y-70556380D01*
X88185571Y-69556380D01*
X89090333Y-70556380D02*
X88518904Y-70556380D01*
X88804619Y-70556380D02*
X88804619Y-69556380D01*
X88709380Y-69699238D01*
X88614142Y-69794476D01*
X88518904Y-69842095D01*
G04 #@! TO.C,TH1*
X132191285Y-131913380D02*
X132762714Y-131913380D01*
X132477000Y-132913380D02*
X132477000Y-131913380D01*
X133096047Y-132913380D02*
X133096047Y-131913380D01*
X133096047Y-132389571D02*
X133667476Y-132389571D01*
X133667476Y-132913380D02*
X133667476Y-131913380D01*
X134667476Y-132913380D02*
X134096047Y-132913380D01*
X134381761Y-132913380D02*
X134381761Y-131913380D01*
X134286523Y-132056238D01*
X134191285Y-132151476D01*
X134096047Y-132199095D01*
G04 #@! TO.C,TH2*
X132191285Y-127468380D02*
X132762714Y-127468380D01*
X132477000Y-128468380D02*
X132477000Y-127468380D01*
X133096047Y-128468380D02*
X133096047Y-127468380D01*
X133096047Y-127944571D02*
X133667476Y-127944571D01*
X133667476Y-128468380D02*
X133667476Y-127468380D01*
X134096047Y-127563619D02*
X134143666Y-127516000D01*
X134238904Y-127468380D01*
X134477000Y-127468380D01*
X134572238Y-127516000D01*
X134619857Y-127563619D01*
X134667476Y-127658857D01*
X134667476Y-127754095D01*
X134619857Y-127896952D01*
X134048428Y-128468380D01*
X134667476Y-128468380D01*
G04 #@! TO.C,+5V*
X123682285Y-66492428D02*
X124444190Y-66492428D01*
X124063238Y-66873380D02*
X124063238Y-66111476D01*
X125396571Y-65873380D02*
X124920380Y-65873380D01*
X124872761Y-66349571D01*
X124920380Y-66301952D01*
X125015619Y-66254333D01*
X125253714Y-66254333D01*
X125348952Y-66301952D01*
X125396571Y-66349571D01*
X125444190Y-66444809D01*
X125444190Y-66682904D01*
X125396571Y-66778142D01*
X125348952Y-66825761D01*
X125253714Y-66873380D01*
X125015619Y-66873380D01*
X124920380Y-66825761D01*
X124872761Y-66778142D01*
X125729904Y-65873380D02*
X126063238Y-66873380D01*
X126396571Y-65873380D01*
G04 #@! TO.C,U7*
X82296095Y-93784380D02*
X82296095Y-94593904D01*
X82343714Y-94689142D01*
X82391333Y-94736761D01*
X82486571Y-94784380D01*
X82677047Y-94784380D01*
X82772285Y-94736761D01*
X82819904Y-94689142D01*
X82867523Y-94593904D01*
X82867523Y-93784380D01*
X83248476Y-93784380D02*
X83915142Y-93784380D01*
X83486571Y-94784380D01*
G04 #@! TO.C,U4*
X104775095Y-92543380D02*
X104775095Y-93352904D01*
X104822714Y-93448142D01*
X104870333Y-93495761D01*
X104965571Y-93543380D01*
X105156047Y-93543380D01*
X105251285Y-93495761D01*
X105298904Y-93448142D01*
X105346523Y-93352904D01*
X105346523Y-92543380D01*
X106251285Y-92876714D02*
X106251285Y-93543380D01*
X106013190Y-92495761D02*
X105775095Y-93210047D01*
X106394142Y-93210047D01*
G04 #@! TO.C,U8*
X130556095Y-98639380D02*
X130556095Y-99448904D01*
X130603714Y-99544142D01*
X130651333Y-99591761D01*
X130746571Y-99639380D01*
X130937047Y-99639380D01*
X131032285Y-99591761D01*
X131079904Y-99544142D01*
X131127523Y-99448904D01*
X131127523Y-98639380D01*
X131746571Y-99067952D02*
X131651333Y-99020333D01*
X131603714Y-98972714D01*
X131556095Y-98877476D01*
X131556095Y-98829857D01*
X131603714Y-98734619D01*
X131651333Y-98687000D01*
X131746571Y-98639380D01*
X131937047Y-98639380D01*
X132032285Y-98687000D01*
X132079904Y-98734619D01*
X132127523Y-98829857D01*
X132127523Y-98877476D01*
X132079904Y-98972714D01*
X132032285Y-99020333D01*
X131937047Y-99067952D01*
X131746571Y-99067952D01*
X131651333Y-99115571D01*
X131603714Y-99163190D01*
X131556095Y-99258428D01*
X131556095Y-99448904D01*
X131603714Y-99544142D01*
X131651333Y-99591761D01*
X131746571Y-99639380D01*
X131937047Y-99639380D01*
X132032285Y-99591761D01*
X132079904Y-99544142D01*
X132127523Y-99448904D01*
X132127523Y-99258428D01*
X132079904Y-99163190D01*
X132032285Y-99115571D01*
X131937047Y-99067952D01*
G04 #@! TO.C,U5*
X89408095Y-102957380D02*
X89408095Y-103766904D01*
X89455714Y-103862142D01*
X89503333Y-103909761D01*
X89598571Y-103957380D01*
X89789047Y-103957380D01*
X89884285Y-103909761D01*
X89931904Y-103862142D01*
X89979523Y-103766904D01*
X89979523Y-102957380D01*
X90931904Y-102957380D02*
X90455714Y-102957380D01*
X90408095Y-103433571D01*
X90455714Y-103385952D01*
X90550952Y-103338333D01*
X90789047Y-103338333D01*
X90884285Y-103385952D01*
X90931904Y-103433571D01*
X90979523Y-103528809D01*
X90979523Y-103766904D01*
X90931904Y-103862142D01*
X90884285Y-103909761D01*
X90789047Y-103957380D01*
X90550952Y-103957380D01*
X90455714Y-103909761D01*
X90408095Y-103862142D01*
G04 #@! TO.C,U3*
X120904095Y-80322380D02*
X120904095Y-81131904D01*
X120951714Y-81227142D01*
X120999333Y-81274761D01*
X121094571Y-81322380D01*
X121285047Y-81322380D01*
X121380285Y-81274761D01*
X121427904Y-81227142D01*
X121475523Y-81131904D01*
X121475523Y-80322380D01*
X121856476Y-80322380D02*
X122475523Y-80322380D01*
X122142190Y-80703333D01*
X122285047Y-80703333D01*
X122380285Y-80750952D01*
X122427904Y-80798571D01*
X122475523Y-80893809D01*
X122475523Y-81131904D01*
X122427904Y-81227142D01*
X122380285Y-81274761D01*
X122285047Y-81322380D01*
X121999333Y-81322380D01*
X121904095Y-81274761D01*
X121856476Y-81227142D01*
G04 #@! TO.C,U1*
X165227095Y-103084380D02*
X165227095Y-103893904D01*
X165274714Y-103989142D01*
X165322333Y-104036761D01*
X165417571Y-104084380D01*
X165608047Y-104084380D01*
X165703285Y-104036761D01*
X165750904Y-103989142D01*
X165798523Y-103893904D01*
X165798523Y-103084380D01*
X166798523Y-104084380D02*
X166227095Y-104084380D01*
X166512809Y-104084380D02*
X166512809Y-103084380D01*
X166417571Y-103227238D01*
X166322333Y-103322476D01*
X166227095Y-103370095D01*
G04 #@! TO.C,U2*
X109220095Y-102966380D02*
X109220095Y-103775904D01*
X109267714Y-103871142D01*
X109315333Y-103918761D01*
X109410571Y-103966380D01*
X109601047Y-103966380D01*
X109696285Y-103918761D01*
X109743904Y-103871142D01*
X109791523Y-103775904D01*
X109791523Y-102966380D01*
X110220095Y-103061619D02*
X110267714Y-103014000D01*
X110362952Y-102966380D01*
X110601047Y-102966380D01*
X110696285Y-103014000D01*
X110743904Y-103061619D01*
X110791523Y-103156857D01*
X110791523Y-103252095D01*
X110743904Y-103394952D01*
X110172476Y-103966380D01*
X110791523Y-103966380D01*
G04 #@! TO.C,U6*
X121412095Y-94956380D02*
X121412095Y-95765904D01*
X121459714Y-95861142D01*
X121507333Y-95908761D01*
X121602571Y-95956380D01*
X121793047Y-95956380D01*
X121888285Y-95908761D01*
X121935904Y-95861142D01*
X121983523Y-95765904D01*
X121983523Y-94956380D01*
X122888285Y-94956380D02*
X122697809Y-94956380D01*
X122602571Y-95004000D01*
X122554952Y-95051619D01*
X122459714Y-95194476D01*
X122412095Y-95384952D01*
X122412095Y-95765904D01*
X122459714Y-95861142D01*
X122507333Y-95908761D01*
X122602571Y-95956380D01*
X122793047Y-95956380D01*
X122888285Y-95908761D01*
X122935904Y-95861142D01*
X122983523Y-95765904D01*
X122983523Y-95527809D01*
X122935904Y-95432571D01*
X122888285Y-95384952D01*
X122793047Y-95337333D01*
X122602571Y-95337333D01*
X122507333Y-95384952D01*
X122459714Y-95432571D01*
X122412095Y-95527809D01*
G04 #@! TO.C,Y1*
X89947809Y-86293190D02*
X89947809Y-86769380D01*
X89614476Y-85769380D02*
X89947809Y-86293190D01*
X90281142Y-85769380D01*
X91138285Y-86769380D02*
X90566857Y-86769380D01*
X90852571Y-86769380D02*
X90852571Y-85769380D01*
X90757333Y-85912238D01*
X90662095Y-86007476D01*
X90566857Y-86055095D01*
G04 #@! TO.C,GND*
X117729095Y-62238000D02*
X117633857Y-62190380D01*
X117491000Y-62190380D01*
X117348142Y-62238000D01*
X117252904Y-62333238D01*
X117205285Y-62428476D01*
X117157666Y-62618952D01*
X117157666Y-62761809D01*
X117205285Y-62952285D01*
X117252904Y-63047523D01*
X117348142Y-63142761D01*
X117491000Y-63190380D01*
X117586238Y-63190380D01*
X117729095Y-63142761D01*
X117776714Y-63095142D01*
X117776714Y-62761809D01*
X117586238Y-62761809D01*
X118205285Y-63190380D02*
X118205285Y-62190380D01*
X118776714Y-63190380D01*
X118776714Y-62190380D01*
X119252904Y-63190380D02*
X119252904Y-62190380D01*
X119491000Y-62190380D01*
X119633857Y-62238000D01*
X119729095Y-62333238D01*
X119776714Y-62428476D01*
X119824333Y-62618952D01*
X119824333Y-62761809D01*
X119776714Y-62952285D01*
X119729095Y-63047523D01*
X119633857Y-63142761D01*
X119491000Y-63190380D01*
X119252904Y-63190380D01*
G04 #@! TD*
D14*
X108487798Y-90521202D02*
X108552746Y-90678000D01*
X108477335Y-90860059D01*
X108423698Y-90913696D01*
X108172151Y-90829847D01*
X108109254Y-90678000D01*
X108174202Y-90521202D01*
X108331000Y-90456254D01*
X108487798Y-90521202D01*
D15*
G36*
X108487798Y-90521202D02*
G01*
X108552746Y-90678000D01*
X108477335Y-90860059D01*
X108423698Y-90913696D01*
X108172151Y-90829847D01*
X108109254Y-90678000D01*
X108174202Y-90521202D01*
X108331000Y-90456254D01*
X108487798Y-90521202D01*
G37*
M02*
