G04 #@! TF.GenerationSoftware,KiCad,Pcbnew,5.1.9*
G04 #@! TF.CreationDate,2021-01-09T13:55:21+02:00*
G04 #@! TF.ProjectId,block,626c6f63-6b2e-46b6-9963-61645f706362,rev?*
G04 #@! TF.SameCoordinates,Original*
G04 #@! TF.FileFunction,Soldermask,Bot*
G04 #@! TF.FilePolarity,Negative*
%FSLAX46Y46*%
G04 Gerber Fmt 4.6, Leading zero omitted, Abs format (unit mm)*
G04 Created by KiCad (PCBNEW 5.1.9) date 2021-01-09 13:55:21*
%MOMM*%
%LPD*%
G01*
G04 APERTURE LIST*
%ADD10C,1.900000*%
%ADD11C,3.100000*%
%ADD12O,1.800000X1.800000*%
%ADD13C,1.700000*%
%ADD14C,2.800000*%
%ADD15C,4.400000*%
%ADD16C,2.100000*%
%ADD17O,2.500000X2.500000*%
%ADD18C,2.500000*%
%ADD19O,1.700000X1.700000*%
G04 APERTURE END LIST*
G04 #@! TO.C,D21*
G36*
G01*
X124550000Y-120900000D02*
X124550000Y-119100000D01*
G75*
G02*
X124600000Y-119050000I50000J0D01*
G01*
X126400000Y-119050000D01*
G75*
G02*
X126450000Y-119100000I0J-50000D01*
G01*
X126450000Y-120900000D01*
G75*
G02*
X126400000Y-120950000I-50000J0D01*
G01*
X124600000Y-120950000D01*
G75*
G02*
X124550000Y-120900000I0J50000D01*
G01*
G37*
D10*
X128040000Y-120000000D03*
G04 #@! TD*
G04 #@! TO.C,D13*
G36*
G01*
X105050000Y-107900000D02*
X105050000Y-106100000D01*
G75*
G02*
X105100000Y-106050000I50000J0D01*
G01*
X106900000Y-106050000D01*
G75*
G02*
X106950000Y-106100000I0J-50000D01*
G01*
X106950000Y-107900000D01*
G75*
G02*
X106900000Y-107950000I-50000J0D01*
G01*
X105100000Y-107950000D01*
G75*
G02*
X105050000Y-107900000I0J50000D01*
G01*
G37*
X108540000Y-107000000D03*
G04 #@! TD*
G04 #@! TO.C,D7*
X169040000Y-107000000D03*
G36*
G01*
X165550000Y-107900000D02*
X165550000Y-106100000D01*
G75*
G02*
X165600000Y-106050000I50000J0D01*
G01*
X167400000Y-106050000D01*
G75*
G02*
X167450000Y-106100000I0J-50000D01*
G01*
X167450000Y-107900000D01*
G75*
G02*
X167400000Y-107950000I-50000J0D01*
G01*
X165600000Y-107950000D01*
G75*
G02*
X165550000Y-107900000I0J50000D01*
G01*
G37*
G04 #@! TD*
G04 #@! TO.C,D6*
X169040000Y-113500000D03*
G36*
G01*
X165550000Y-114400000D02*
X165550000Y-112600000D01*
G75*
G02*
X165600000Y-112550000I50000J0D01*
G01*
X167400000Y-112550000D01*
G75*
G02*
X167450000Y-112600000I0J-50000D01*
G01*
X167450000Y-114400000D01*
G75*
G02*
X167400000Y-114450000I-50000J0D01*
G01*
X165600000Y-114450000D01*
G75*
G02*
X165550000Y-114400000I0J50000D01*
G01*
G37*
G04 #@! TD*
D11*
G04 #@! TO.C,NEUTRAL*
X88000000Y-132000000D03*
G04 #@! TD*
G04 #@! TO.C,LIVE*
X95000000Y-132000000D03*
G04 #@! TD*
D12*
G04 #@! TO.C,J3*
X156210000Y-69469000D03*
X156210000Y-66929000D03*
G36*
G01*
X155310000Y-65239000D02*
X155310000Y-63539000D01*
G75*
G02*
X155360000Y-63489000I50000J0D01*
G01*
X157060000Y-63489000D01*
G75*
G02*
X157110000Y-63539000I0J-50000D01*
G01*
X157110000Y-65239000D01*
G75*
G02*
X157060000Y-65289000I-50000J0D01*
G01*
X155360000Y-65289000D01*
G75*
G02*
X155310000Y-65239000I0J50000D01*
G01*
G37*
G04 #@! TD*
G04 #@! TO.C,J2*
X156210000Y-82677000D03*
G36*
G01*
X155310000Y-80987000D02*
X155310000Y-79287000D01*
G75*
G02*
X155360000Y-79237000I50000J0D01*
G01*
X157060000Y-79237000D01*
G75*
G02*
X157110000Y-79287000I0J-50000D01*
G01*
X157110000Y-80987000D01*
G75*
G02*
X157060000Y-81037000I-50000J0D01*
G01*
X155360000Y-81037000D01*
G75*
G02*
X155310000Y-80987000I0J50000D01*
G01*
G37*
G04 #@! TD*
D11*
G04 #@! TO.C,BT1*
X111633000Y-71247000D03*
G36*
G01*
X113133000Y-93287000D02*
X110133000Y-93287000D01*
G75*
G02*
X110083000Y-93237000I0J50000D01*
G01*
X110083000Y-90237000D01*
G75*
G02*
X110133000Y-90187000I50000J0D01*
G01*
X113133000Y-90187000D01*
G75*
G02*
X113183000Y-90237000I0J-50000D01*
G01*
X113183000Y-93237000D01*
G75*
G02*
X113133000Y-93287000I-50000J0D01*
G01*
G37*
G04 #@! TD*
G04 #@! TO.C,C24*
G36*
G01*
X79637500Y-94239500D02*
X79112500Y-94239500D01*
G75*
G02*
X78850000Y-93977000I0J262500D01*
G01*
X78850000Y-93327000D01*
G75*
G02*
X79112500Y-93064500I262500J0D01*
G01*
X79637500Y-93064500D01*
G75*
G02*
X79900000Y-93327000I0J-262500D01*
G01*
X79900000Y-93977000D01*
G75*
G02*
X79637500Y-94239500I-262500J0D01*
G01*
G37*
G36*
G01*
X79637500Y-95964500D02*
X79112500Y-95964500D01*
G75*
G02*
X78850000Y-95702000I0J262500D01*
G01*
X78850000Y-95052000D01*
G75*
G02*
X79112500Y-94789500I262500J0D01*
G01*
X79637500Y-94789500D01*
G75*
G02*
X79900000Y-95052000I0J-262500D01*
G01*
X79900000Y-95702000D01*
G75*
G02*
X79637500Y-95964500I-262500J0D01*
G01*
G37*
G04 #@! TD*
G04 #@! TO.C,C9*
G36*
G01*
X99309724Y-93939500D02*
X98302276Y-93939500D01*
G75*
G02*
X98031000Y-93668224I0J271276D01*
G01*
X98031000Y-92935776D01*
G75*
G02*
X98302276Y-92664500I271276J0D01*
G01*
X99309724Y-92664500D01*
G75*
G02*
X99581000Y-92935776I0J-271276D01*
G01*
X99581000Y-93668224D01*
G75*
G02*
X99309724Y-93939500I-271276J0D01*
G01*
G37*
G36*
G01*
X99309724Y-96014500D02*
X98302276Y-96014500D01*
G75*
G02*
X98031000Y-95743224I0J271276D01*
G01*
X98031000Y-95010776D01*
G75*
G02*
X98302276Y-94739500I271276J0D01*
G01*
X99309724Y-94739500D01*
G75*
G02*
X99581000Y-95010776I0J-271276D01*
G01*
X99581000Y-95743224D01*
G75*
G02*
X99309724Y-96014500I-271276J0D01*
G01*
G37*
G04 #@! TD*
G04 #@! TO.C,C11*
G36*
G01*
X97290500Y-94239500D02*
X96765500Y-94239500D01*
G75*
G02*
X96503000Y-93977000I0J262500D01*
G01*
X96503000Y-93327000D01*
G75*
G02*
X96765500Y-93064500I262500J0D01*
G01*
X97290500Y-93064500D01*
G75*
G02*
X97553000Y-93327000I0J-262500D01*
G01*
X97553000Y-93977000D01*
G75*
G02*
X97290500Y-94239500I-262500J0D01*
G01*
G37*
G36*
G01*
X97290500Y-95964500D02*
X96765500Y-95964500D01*
G75*
G02*
X96503000Y-95702000I0J262500D01*
G01*
X96503000Y-95052000D01*
G75*
G02*
X96765500Y-94789500I262500J0D01*
G01*
X97290500Y-94789500D01*
G75*
G02*
X97553000Y-95052000I0J-262500D01*
G01*
X97553000Y-95702000D01*
G75*
G02*
X97290500Y-95964500I-262500J0D01*
G01*
G37*
G04 #@! TD*
G04 #@! TO.C,C27*
G36*
G01*
X129374000Y-96355000D02*
X129374000Y-97955000D01*
G75*
G02*
X129324000Y-98005000I-50000J0D01*
G01*
X127724000Y-98005000D01*
G75*
G02*
X127674000Y-97955000I0J50000D01*
G01*
X127674000Y-96355000D01*
G75*
G02*
X127724000Y-96305000I50000J0D01*
G01*
X129324000Y-96305000D01*
G75*
G02*
X129374000Y-96355000I0J-50000D01*
G01*
G37*
D13*
X126524000Y-97155000D03*
G04 #@! TD*
G04 #@! TO.C,C28*
X126524000Y-102870000D03*
G36*
G01*
X129374000Y-102070000D02*
X129374000Y-103670000D01*
G75*
G02*
X129324000Y-103720000I-50000J0D01*
G01*
X127724000Y-103720000D01*
G75*
G02*
X127674000Y-103670000I0J50000D01*
G01*
X127674000Y-102070000D01*
G75*
G02*
X127724000Y-102020000I50000J0D01*
G01*
X129324000Y-102020000D01*
G75*
G02*
X129374000Y-102070000I0J-50000D01*
G01*
G37*
G04 #@! TD*
G04 #@! TO.C,C25*
G36*
G01*
X144056000Y-98259000D02*
X142456000Y-98259000D01*
G75*
G02*
X142406000Y-98209000I0J50000D01*
G01*
X142406000Y-96609000D01*
G75*
G02*
X142456000Y-96559000I50000J0D01*
G01*
X144056000Y-96559000D01*
G75*
G02*
X144106000Y-96609000I0J-50000D01*
G01*
X144106000Y-98209000D01*
G75*
G02*
X144056000Y-98259000I-50000J0D01*
G01*
G37*
X143256000Y-95409000D03*
G04 #@! TD*
G04 #@! TO.C,C26*
X143256000Y-91408000D03*
G36*
G01*
X142456000Y-88558000D02*
X144056000Y-88558000D01*
G75*
G02*
X144106000Y-88608000I0J-50000D01*
G01*
X144106000Y-90208000D01*
G75*
G02*
X144056000Y-90258000I-50000J0D01*
G01*
X142456000Y-90258000D01*
G75*
G02*
X142406000Y-90208000I0J50000D01*
G01*
X142406000Y-88608000D01*
G75*
G02*
X142456000Y-88558000I50000J0D01*
G01*
G37*
G04 #@! TD*
G04 #@! TO.C,C20*
G36*
G01*
X83684500Y-94027500D02*
X84209500Y-94027500D01*
G75*
G02*
X84472000Y-94290000I0J-262500D01*
G01*
X84472000Y-94940000D01*
G75*
G02*
X84209500Y-95202500I-262500J0D01*
G01*
X83684500Y-95202500D01*
G75*
G02*
X83422000Y-94940000I0J262500D01*
G01*
X83422000Y-94290000D01*
G75*
G02*
X83684500Y-94027500I262500J0D01*
G01*
G37*
G36*
G01*
X83684500Y-95752500D02*
X84209500Y-95752500D01*
G75*
G02*
X84472000Y-96015000I0J-262500D01*
G01*
X84472000Y-96665000D01*
G75*
G02*
X84209500Y-96927500I-262500J0D01*
G01*
X83684500Y-96927500D01*
G75*
G02*
X83422000Y-96665000I0J262500D01*
G01*
X83422000Y-96015000D01*
G75*
G02*
X83684500Y-95752500I262500J0D01*
G01*
G37*
G04 #@! TD*
G04 #@! TO.C,C21*
G36*
G01*
X81779500Y-95752500D02*
X82304500Y-95752500D01*
G75*
G02*
X82567000Y-96015000I0J-262500D01*
G01*
X82567000Y-96665000D01*
G75*
G02*
X82304500Y-96927500I-262500J0D01*
G01*
X81779500Y-96927500D01*
G75*
G02*
X81517000Y-96665000I0J262500D01*
G01*
X81517000Y-96015000D01*
G75*
G02*
X81779500Y-95752500I262500J0D01*
G01*
G37*
G36*
G01*
X81779500Y-94027500D02*
X82304500Y-94027500D01*
G75*
G02*
X82567000Y-94290000I0J-262500D01*
G01*
X82567000Y-94940000D01*
G75*
G02*
X82304500Y-95202500I-262500J0D01*
G01*
X81779500Y-95202500D01*
G75*
G02*
X81517000Y-94940000I0J262500D01*
G01*
X81517000Y-94290000D01*
G75*
G02*
X81779500Y-94027500I262500J0D01*
G01*
G37*
G04 #@! TD*
G04 #@! TO.C,C13*
G36*
G01*
X113021500Y-99615500D02*
X113546500Y-99615500D01*
G75*
G02*
X113809000Y-99878000I0J-262500D01*
G01*
X113809000Y-100528000D01*
G75*
G02*
X113546500Y-100790500I-262500J0D01*
G01*
X113021500Y-100790500D01*
G75*
G02*
X112759000Y-100528000I0J262500D01*
G01*
X112759000Y-99878000D01*
G75*
G02*
X113021500Y-99615500I262500J0D01*
G01*
G37*
G36*
G01*
X113021500Y-101340500D02*
X113546500Y-101340500D01*
G75*
G02*
X113809000Y-101603000I0J-262500D01*
G01*
X113809000Y-102253000D01*
G75*
G02*
X113546500Y-102515500I-262500J0D01*
G01*
X113021500Y-102515500D01*
G75*
G02*
X112759000Y-102253000I0J262500D01*
G01*
X112759000Y-101603000D01*
G75*
G02*
X113021500Y-101340500I262500J0D01*
G01*
G37*
G04 #@! TD*
G04 #@! TO.C,C22*
G36*
G01*
X115942500Y-94943000D02*
X116467500Y-94943000D01*
G75*
G02*
X116730000Y-95205500I0J-262500D01*
G01*
X116730000Y-95855500D01*
G75*
G02*
X116467500Y-96118000I-262500J0D01*
G01*
X115942500Y-96118000D01*
G75*
G02*
X115680000Y-95855500I0J262500D01*
G01*
X115680000Y-95205500D01*
G75*
G02*
X115942500Y-94943000I262500J0D01*
G01*
G37*
G36*
G01*
X115942500Y-96668000D02*
X116467500Y-96668000D01*
G75*
G02*
X116730000Y-96930500I0J-262500D01*
G01*
X116730000Y-97580500D01*
G75*
G02*
X116467500Y-97843000I-262500J0D01*
G01*
X115942500Y-97843000D01*
G75*
G02*
X115680000Y-97580500I0J262500D01*
G01*
X115680000Y-96930500D01*
G75*
G02*
X115942500Y-96668000I262500J0D01*
G01*
G37*
G04 #@! TD*
G04 #@! TO.C,C14*
G36*
G01*
X107831500Y-101452000D02*
X107306500Y-101452000D01*
G75*
G02*
X107044000Y-101189500I0J262500D01*
G01*
X107044000Y-100539500D01*
G75*
G02*
X107306500Y-100277000I262500J0D01*
G01*
X107831500Y-100277000D01*
G75*
G02*
X108094000Y-100539500I0J-262500D01*
G01*
X108094000Y-101189500D01*
G75*
G02*
X107831500Y-101452000I-262500J0D01*
G01*
G37*
G36*
G01*
X107831500Y-103177000D02*
X107306500Y-103177000D01*
G75*
G02*
X107044000Y-102914500I0J262500D01*
G01*
X107044000Y-102264500D01*
G75*
G02*
X107306500Y-102002000I262500J0D01*
G01*
X107831500Y-102002000D01*
G75*
G02*
X108094000Y-102264500I0J-262500D01*
G01*
X108094000Y-102914500D01*
G75*
G02*
X107831500Y-103177000I-262500J0D01*
G01*
G37*
G04 #@! TD*
G04 #@! TO.C,C23*
G36*
G01*
X114418500Y-94943000D02*
X114943500Y-94943000D01*
G75*
G02*
X115206000Y-95205500I0J-262500D01*
G01*
X115206000Y-95855500D01*
G75*
G02*
X114943500Y-96118000I-262500J0D01*
G01*
X114418500Y-96118000D01*
G75*
G02*
X114156000Y-95855500I0J262500D01*
G01*
X114156000Y-95205500D01*
G75*
G02*
X114418500Y-94943000I262500J0D01*
G01*
G37*
G36*
G01*
X114418500Y-96668000D02*
X114943500Y-96668000D01*
G75*
G02*
X115206000Y-96930500I0J-262500D01*
G01*
X115206000Y-97580500D01*
G75*
G02*
X114943500Y-97843000I-262500J0D01*
G01*
X114418500Y-97843000D01*
G75*
G02*
X114156000Y-97580500I0J262500D01*
G01*
X114156000Y-96930500D01*
G75*
G02*
X114418500Y-96668000I262500J0D01*
G01*
G37*
G04 #@! TD*
G04 #@! TO.C,D16*
G36*
G01*
X79050000Y-120900000D02*
X79050000Y-119100000D01*
G75*
G02*
X79100000Y-119050000I50000J0D01*
G01*
X80900000Y-119050000D01*
G75*
G02*
X80950000Y-119100000I0J-50000D01*
G01*
X80950000Y-120900000D01*
G75*
G02*
X80900000Y-120950000I-50000J0D01*
G01*
X79100000Y-120950000D01*
G75*
G02*
X79050000Y-120900000I0J50000D01*
G01*
G37*
D10*
X82540000Y-120000000D03*
G04 #@! TD*
G04 #@! TO.C,D18*
G36*
G01*
X79060000Y-114400000D02*
X79060000Y-112600000D01*
G75*
G02*
X79110000Y-112550000I50000J0D01*
G01*
X80910000Y-112550000D01*
G75*
G02*
X80960000Y-112600000I0J-50000D01*
G01*
X80960000Y-114400000D01*
G75*
G02*
X80910000Y-114450000I-50000J0D01*
G01*
X79110000Y-114450000D01*
G75*
G02*
X79060000Y-114400000I0J50000D01*
G01*
G37*
X82550000Y-113500000D03*
G04 #@! TD*
G04 #@! TO.C,D20*
G36*
G01*
X79050000Y-107900000D02*
X79050000Y-106100000D01*
G75*
G02*
X79100000Y-106050000I50000J0D01*
G01*
X80900000Y-106050000D01*
G75*
G02*
X80950000Y-106100000I0J-50000D01*
G01*
X80950000Y-107900000D01*
G75*
G02*
X80900000Y-107950000I-50000J0D01*
G01*
X79100000Y-107950000D01*
G75*
G02*
X79050000Y-107900000I0J50000D01*
G01*
G37*
X82540000Y-107000000D03*
G04 #@! TD*
G04 #@! TO.C,D22*
X82540000Y-100500000D03*
G36*
G01*
X79050000Y-101400000D02*
X79050000Y-99600000D01*
G75*
G02*
X79100000Y-99550000I50000J0D01*
G01*
X80900000Y-99550000D01*
G75*
G02*
X80950000Y-99600000I0J-50000D01*
G01*
X80950000Y-101400000D01*
G75*
G02*
X80900000Y-101450000I-50000J0D01*
G01*
X79100000Y-101450000D01*
G75*
G02*
X79050000Y-101400000I0J50000D01*
G01*
G37*
G04 #@! TD*
G04 #@! TO.C,D24*
G36*
G01*
X85550000Y-120900000D02*
X85550000Y-119100000D01*
G75*
G02*
X85600000Y-119050000I50000J0D01*
G01*
X87400000Y-119050000D01*
G75*
G02*
X87450000Y-119100000I0J-50000D01*
G01*
X87450000Y-120900000D01*
G75*
G02*
X87400000Y-120950000I-50000J0D01*
G01*
X85600000Y-120950000D01*
G75*
G02*
X85550000Y-120900000I0J50000D01*
G01*
G37*
X89040000Y-120000000D03*
G04 #@! TD*
G04 #@! TO.C,D26*
X89040000Y-113500000D03*
G36*
G01*
X85550000Y-114400000D02*
X85550000Y-112600000D01*
G75*
G02*
X85600000Y-112550000I50000J0D01*
G01*
X87400000Y-112550000D01*
G75*
G02*
X87450000Y-112600000I0J-50000D01*
G01*
X87450000Y-114400000D01*
G75*
G02*
X87400000Y-114450000I-50000J0D01*
G01*
X85600000Y-114450000D01*
G75*
G02*
X85550000Y-114400000I0J50000D01*
G01*
G37*
G04 #@! TD*
G04 #@! TO.C,D28*
G36*
G01*
X85550000Y-107900000D02*
X85550000Y-106100000D01*
G75*
G02*
X85600000Y-106050000I50000J0D01*
G01*
X87400000Y-106050000D01*
G75*
G02*
X87450000Y-106100000I0J-50000D01*
G01*
X87450000Y-107900000D01*
G75*
G02*
X87400000Y-107950000I-50000J0D01*
G01*
X85600000Y-107950000D01*
G75*
G02*
X85550000Y-107900000I0J50000D01*
G01*
G37*
X89040000Y-107000000D03*
G04 #@! TD*
G04 #@! TO.C,D29*
X102040000Y-120000000D03*
G36*
G01*
X98550000Y-120900000D02*
X98550000Y-119100000D01*
G75*
G02*
X98600000Y-119050000I50000J0D01*
G01*
X100400000Y-119050000D01*
G75*
G02*
X100450000Y-119100000I0J-50000D01*
G01*
X100450000Y-120900000D01*
G75*
G02*
X100400000Y-120950000I-50000J0D01*
G01*
X98600000Y-120950000D01*
G75*
G02*
X98550000Y-120900000I0J50000D01*
G01*
G37*
G04 #@! TD*
G04 #@! TO.C,D1*
X162540000Y-120000000D03*
G36*
G01*
X159050000Y-120900000D02*
X159050000Y-119100000D01*
G75*
G02*
X159100000Y-119050000I50000J0D01*
G01*
X160900000Y-119050000D01*
G75*
G02*
X160950000Y-119100000I0J-50000D01*
G01*
X160950000Y-120900000D01*
G75*
G02*
X160900000Y-120950000I-50000J0D01*
G01*
X159100000Y-120950000D01*
G75*
G02*
X159050000Y-120900000I0J50000D01*
G01*
G37*
G04 #@! TD*
G04 #@! TO.C,D2*
X162540000Y-113500000D03*
G36*
G01*
X159050000Y-114400000D02*
X159050000Y-112600000D01*
G75*
G02*
X159100000Y-112550000I50000J0D01*
G01*
X160900000Y-112550000D01*
G75*
G02*
X160950000Y-112600000I0J-50000D01*
G01*
X160950000Y-114400000D01*
G75*
G02*
X160900000Y-114450000I-50000J0D01*
G01*
X159100000Y-114450000D01*
G75*
G02*
X159050000Y-114400000I0J50000D01*
G01*
G37*
G04 #@! TD*
G04 #@! TO.C,D3*
G36*
G01*
X159050000Y-107900000D02*
X159050000Y-106100000D01*
G75*
G02*
X159100000Y-106050000I50000J0D01*
G01*
X160900000Y-106050000D01*
G75*
G02*
X160950000Y-106100000I0J-50000D01*
G01*
X160950000Y-107900000D01*
G75*
G02*
X160900000Y-107950000I-50000J0D01*
G01*
X159100000Y-107950000D01*
G75*
G02*
X159050000Y-107900000I0J50000D01*
G01*
G37*
X162540000Y-107000000D03*
G04 #@! TD*
G04 #@! TO.C,D4*
X162540000Y-100500000D03*
G36*
G01*
X159050000Y-101400000D02*
X159050000Y-99600000D01*
G75*
G02*
X159100000Y-99550000I50000J0D01*
G01*
X160900000Y-99550000D01*
G75*
G02*
X160950000Y-99600000I0J-50000D01*
G01*
X160950000Y-101400000D01*
G75*
G02*
X160900000Y-101450000I-50000J0D01*
G01*
X159100000Y-101450000D01*
G75*
G02*
X159050000Y-101400000I0J50000D01*
G01*
G37*
G04 #@! TD*
G04 #@! TO.C,D5*
G36*
G01*
X165550000Y-120900000D02*
X165550000Y-119100000D01*
G75*
G02*
X165600000Y-119050000I50000J0D01*
G01*
X167400000Y-119050000D01*
G75*
G02*
X167450000Y-119100000I0J-50000D01*
G01*
X167450000Y-120900000D01*
G75*
G02*
X167400000Y-120950000I-50000J0D01*
G01*
X165600000Y-120950000D01*
G75*
G02*
X165550000Y-120900000I0J50000D01*
G01*
G37*
X169040000Y-120000000D03*
G04 #@! TD*
G04 #@! TO.C,D8*
X102040000Y-113500000D03*
G36*
G01*
X98550000Y-114400000D02*
X98550000Y-112600000D01*
G75*
G02*
X98600000Y-112550000I50000J0D01*
G01*
X100400000Y-112550000D01*
G75*
G02*
X100450000Y-112600000I0J-50000D01*
G01*
X100450000Y-114400000D01*
G75*
G02*
X100400000Y-114450000I-50000J0D01*
G01*
X98600000Y-114450000D01*
G75*
G02*
X98550000Y-114400000I0J50000D01*
G01*
G37*
G04 #@! TD*
G04 #@! TO.C,D9*
G36*
G01*
X98550000Y-107900000D02*
X98550000Y-106100000D01*
G75*
G02*
X98600000Y-106050000I50000J0D01*
G01*
X100400000Y-106050000D01*
G75*
G02*
X100450000Y-106100000I0J-50000D01*
G01*
X100450000Y-107900000D01*
G75*
G02*
X100400000Y-107950000I-50000J0D01*
G01*
X98600000Y-107950000D01*
G75*
G02*
X98550000Y-107900000I0J50000D01*
G01*
G37*
X102040000Y-107000000D03*
G04 #@! TD*
G04 #@! TO.C,D10*
G36*
G01*
X98550000Y-101400000D02*
X98550000Y-99600000D01*
G75*
G02*
X98600000Y-99550000I50000J0D01*
G01*
X100400000Y-99550000D01*
G75*
G02*
X100450000Y-99600000I0J-50000D01*
G01*
X100450000Y-101400000D01*
G75*
G02*
X100400000Y-101450000I-50000J0D01*
G01*
X98600000Y-101450000D01*
G75*
G02*
X98550000Y-101400000I0J50000D01*
G01*
G37*
X102040000Y-100500000D03*
G04 #@! TD*
G04 #@! TO.C,D11*
X108540000Y-120000000D03*
G36*
G01*
X105050000Y-120900000D02*
X105050000Y-119100000D01*
G75*
G02*
X105100000Y-119050000I50000J0D01*
G01*
X106900000Y-119050000D01*
G75*
G02*
X106950000Y-119100000I0J-50000D01*
G01*
X106950000Y-120900000D01*
G75*
G02*
X106900000Y-120950000I-50000J0D01*
G01*
X105100000Y-120950000D01*
G75*
G02*
X105050000Y-120900000I0J50000D01*
G01*
G37*
G04 #@! TD*
G04 #@! TO.C,D12*
G36*
G01*
X105050000Y-114400000D02*
X105050000Y-112600000D01*
G75*
G02*
X105100000Y-112550000I50000J0D01*
G01*
X106900000Y-112550000D01*
G75*
G02*
X106950000Y-112600000I0J-50000D01*
G01*
X106950000Y-114400000D01*
G75*
G02*
X106900000Y-114450000I-50000J0D01*
G01*
X105100000Y-114450000D01*
G75*
G02*
X105050000Y-114400000I0J50000D01*
G01*
G37*
X108540000Y-113500000D03*
G04 #@! TD*
G04 #@! TO.C,D14*
X121540000Y-120000000D03*
G36*
G01*
X118050000Y-120900000D02*
X118050000Y-119100000D01*
G75*
G02*
X118100000Y-119050000I50000J0D01*
G01*
X119900000Y-119050000D01*
G75*
G02*
X119950000Y-119100000I0J-50000D01*
G01*
X119950000Y-120900000D01*
G75*
G02*
X119900000Y-120950000I-50000J0D01*
G01*
X118100000Y-120950000D01*
G75*
G02*
X118050000Y-120900000I0J50000D01*
G01*
G37*
G04 #@! TD*
G04 #@! TO.C,D15*
X121540000Y-113500000D03*
G36*
G01*
X118050000Y-114400000D02*
X118050000Y-112600000D01*
G75*
G02*
X118100000Y-112550000I50000J0D01*
G01*
X119900000Y-112550000D01*
G75*
G02*
X119950000Y-112600000I0J-50000D01*
G01*
X119950000Y-114400000D01*
G75*
G02*
X119900000Y-114450000I-50000J0D01*
G01*
X118100000Y-114450000D01*
G75*
G02*
X118050000Y-114400000I0J50000D01*
G01*
G37*
G04 #@! TD*
G04 #@! TO.C,D17*
G36*
G01*
X118050000Y-107900000D02*
X118050000Y-106100000D01*
G75*
G02*
X118100000Y-106050000I50000J0D01*
G01*
X119900000Y-106050000D01*
G75*
G02*
X119950000Y-106100000I0J-50000D01*
G01*
X119950000Y-107900000D01*
G75*
G02*
X119900000Y-107950000I-50000J0D01*
G01*
X118100000Y-107950000D01*
G75*
G02*
X118050000Y-107900000I0J50000D01*
G01*
G37*
X121540000Y-107000000D03*
G04 #@! TD*
G04 #@! TO.C,D19*
X121540000Y-100500000D03*
G36*
G01*
X118050000Y-101400000D02*
X118050000Y-99600000D01*
G75*
G02*
X118100000Y-99550000I50000J0D01*
G01*
X119900000Y-99550000D01*
G75*
G02*
X119950000Y-99600000I0J-50000D01*
G01*
X119950000Y-101400000D01*
G75*
G02*
X119900000Y-101450000I-50000J0D01*
G01*
X118100000Y-101450000D01*
G75*
G02*
X118050000Y-101400000I0J50000D01*
G01*
G37*
G04 #@! TD*
G04 #@! TO.C,D23*
X128040000Y-113500000D03*
G36*
G01*
X124550000Y-114400000D02*
X124550000Y-112600000D01*
G75*
G02*
X124600000Y-112550000I50000J0D01*
G01*
X126400000Y-112550000D01*
G75*
G02*
X126450000Y-112600000I0J-50000D01*
G01*
X126450000Y-114400000D01*
G75*
G02*
X126400000Y-114450000I-50000J0D01*
G01*
X124600000Y-114450000D01*
G75*
G02*
X124550000Y-114400000I0J50000D01*
G01*
G37*
G04 #@! TD*
G04 #@! TO.C,D25*
X169040000Y-82423000D03*
G36*
G01*
X165550000Y-83323000D02*
X165550000Y-81523000D01*
G75*
G02*
X165600000Y-81473000I50000J0D01*
G01*
X167400000Y-81473000D01*
G75*
G02*
X167450000Y-81523000I0J-50000D01*
G01*
X167450000Y-83323000D01*
G75*
G02*
X167400000Y-83373000I-50000J0D01*
G01*
X165600000Y-83373000D01*
G75*
G02*
X165550000Y-83323000I0J50000D01*
G01*
G37*
G04 #@! TD*
G04 #@! TO.C,D27*
G36*
G01*
X165550000Y-76719000D02*
X165550000Y-74919000D01*
G75*
G02*
X165600000Y-74869000I50000J0D01*
G01*
X167400000Y-74869000D01*
G75*
G02*
X167450000Y-74919000I0J-50000D01*
G01*
X167450000Y-76719000D01*
G75*
G02*
X167400000Y-76769000I-50000J0D01*
G01*
X165600000Y-76769000D01*
G75*
G02*
X165550000Y-76719000I0J50000D01*
G01*
G37*
X169040000Y-75819000D03*
G04 #@! TD*
D11*
G04 #@! TO.C,F1*
X122555000Y-131826000D03*
X100055000Y-131826000D03*
D14*
X111305000Y-131826000D03*
G04 #@! TD*
D15*
G04 #@! TO.C,H1*
X169040000Y-132000000D03*
G04 #@! TD*
G04 #@! TO.C,H2*
X80000000Y-132000000D03*
G04 #@! TD*
G04 #@! TO.C,H3*
X80000000Y-67000000D03*
G04 #@! TD*
G04 #@! TO.C,H4*
X169040000Y-67000000D03*
G04 #@! TD*
G04 #@! TO.C,PS1*
G36*
G01*
X139353000Y-122063000D02*
X139353000Y-124063000D01*
G75*
G02*
X139303000Y-124113000I-50000J0D01*
G01*
X137303000Y-124113000D01*
G75*
G02*
X137253000Y-124063000I0J50000D01*
G01*
X137253000Y-122063000D01*
G75*
G02*
X137303000Y-122013000I50000J0D01*
G01*
X139303000Y-122013000D01*
G75*
G02*
X139353000Y-122063000I0J-50000D01*
G01*
G37*
D16*
X134403000Y-123063000D03*
X143273000Y-102303000D03*
X154703000Y-102303000D03*
X133113000Y-102303000D03*
G04 #@! TD*
D17*
G04 #@! TO.C,R34*
X159639000Y-134366000D03*
D18*
X144399000Y-134366000D03*
G04 #@! TD*
G04 #@! TO.C,R35*
X159639000Y-128778000D03*
D17*
X144399000Y-128778000D03*
G04 #@! TD*
D10*
G04 #@! TO.C,RV1*
X126238000Y-134366000D03*
X128938000Y-126866000D03*
G04 #@! TD*
D19*
G04 #@! TO.C,TH1*
X133985000Y-134493000D03*
D13*
X139065000Y-134493000D03*
G04 #@! TD*
G04 #@! TO.C,TH2*
X139065000Y-130175000D03*
D19*
X133985000Y-130175000D03*
G04 #@! TD*
D11*
G04 #@! TO.C,+5V*
X126365000Y-64008000D03*
G04 #@! TD*
G04 #@! TO.C,GND*
X121539000Y-64008000D03*
G04 #@! TD*
M02*
