G04 #@! TF.GenerationSoftware,KiCad,Pcbnew,5.1.9*
G04 #@! TF.CreationDate,2021-01-09T13:55:21+02:00*
G04 #@! TF.ProjectId,block,626c6f63-6b2e-46b6-9963-61645f706362,rev?*
G04 #@! TF.SameCoordinates,Original*
G04 #@! TF.FileFunction,Soldermask,Top*
G04 #@! TF.FilePolarity,Negative*
%FSLAX46Y46*%
G04 Gerber Fmt 4.6, Leading zero omitted, Abs format (unit mm)*
G04 Created by KiCad (PCBNEW 5.1.9) date 2021-01-09 13:55:21*
%MOMM*%
%LPD*%
G01*
G04 APERTURE LIST*
%ADD10C,1.900000*%
%ADD11C,3.100000*%
%ADD12O,1.800000X1.800000*%
%ADD13C,1.700000*%
%ADD14C,2.800000*%
%ADD15C,4.400000*%
%ADD16C,2.100000*%
%ADD17O,2.500000X2.500000*%
%ADD18C,2.500000*%
%ADD19O,1.700000X1.700000*%
G04 APERTURE END LIST*
G04 #@! TO.C,U9*
G36*
G01*
X149690000Y-64077000D02*
X149690000Y-63177000D01*
G75*
G02*
X149740000Y-63127000I50000J0D01*
G01*
X151740000Y-63127000D01*
G75*
G02*
X151790000Y-63177000I0J-50000D01*
G01*
X151790000Y-64077000D01*
G75*
G02*
X151740000Y-64127000I-50000J0D01*
G01*
X149740000Y-64127000D01*
G75*
G02*
X149690000Y-64077000I0J50000D01*
G01*
G37*
G36*
G01*
X149690000Y-65347000D02*
X149690000Y-64447000D01*
G75*
G02*
X149740000Y-64397000I50000J0D01*
G01*
X151740000Y-64397000D01*
G75*
G02*
X151790000Y-64447000I0J-50000D01*
G01*
X151790000Y-65347000D01*
G75*
G02*
X151740000Y-65397000I-50000J0D01*
G01*
X149740000Y-65397000D01*
G75*
G02*
X149690000Y-65347000I0J50000D01*
G01*
G37*
G36*
G01*
X149690000Y-66617000D02*
X149690000Y-65717000D01*
G75*
G02*
X149740000Y-65667000I50000J0D01*
G01*
X151740000Y-65667000D01*
G75*
G02*
X151790000Y-65717000I0J-50000D01*
G01*
X151790000Y-66617000D01*
G75*
G02*
X151740000Y-66667000I-50000J0D01*
G01*
X149740000Y-66667000D01*
G75*
G02*
X149690000Y-66617000I0J50000D01*
G01*
G37*
G36*
G01*
X149690000Y-67887000D02*
X149690000Y-66987000D01*
G75*
G02*
X149740000Y-66937000I50000J0D01*
G01*
X151740000Y-66937000D01*
G75*
G02*
X151790000Y-66987000I0J-50000D01*
G01*
X151790000Y-67887000D01*
G75*
G02*
X151740000Y-67937000I-50000J0D01*
G01*
X149740000Y-67937000D01*
G75*
G02*
X149690000Y-67887000I0J50000D01*
G01*
G37*
G36*
G01*
X149690000Y-69157000D02*
X149690000Y-68257000D01*
G75*
G02*
X149740000Y-68207000I50000J0D01*
G01*
X151740000Y-68207000D01*
G75*
G02*
X151790000Y-68257000I0J-50000D01*
G01*
X151790000Y-69157000D01*
G75*
G02*
X151740000Y-69207000I-50000J0D01*
G01*
X149740000Y-69207000D01*
G75*
G02*
X149690000Y-69157000I0J50000D01*
G01*
G37*
G36*
G01*
X149690000Y-70427000D02*
X149690000Y-69527000D01*
G75*
G02*
X149740000Y-69477000I50000J0D01*
G01*
X151740000Y-69477000D01*
G75*
G02*
X151790000Y-69527000I0J-50000D01*
G01*
X151790000Y-70427000D01*
G75*
G02*
X151740000Y-70477000I-50000J0D01*
G01*
X149740000Y-70477000D01*
G75*
G02*
X149690000Y-70427000I0J50000D01*
G01*
G37*
G36*
G01*
X149690000Y-71697000D02*
X149690000Y-70797000D01*
G75*
G02*
X149740000Y-70747000I50000J0D01*
G01*
X151740000Y-70747000D01*
G75*
G02*
X151790000Y-70797000I0J-50000D01*
G01*
X151790000Y-71697000D01*
G75*
G02*
X151740000Y-71747000I-50000J0D01*
G01*
X149740000Y-71747000D01*
G75*
G02*
X149690000Y-71697000I0J50000D01*
G01*
G37*
G36*
G01*
X149690000Y-72967000D02*
X149690000Y-72067000D01*
G75*
G02*
X149740000Y-72017000I50000J0D01*
G01*
X151740000Y-72017000D01*
G75*
G02*
X151790000Y-72067000I0J-50000D01*
G01*
X151790000Y-72967000D01*
G75*
G02*
X151740000Y-73017000I-50000J0D01*
G01*
X149740000Y-73017000D01*
G75*
G02*
X149690000Y-72967000I0J50000D01*
G01*
G37*
G36*
G01*
X149690000Y-74237000D02*
X149690000Y-73337000D01*
G75*
G02*
X149740000Y-73287000I50000J0D01*
G01*
X151740000Y-73287000D01*
G75*
G02*
X151790000Y-73337000I0J-50000D01*
G01*
X151790000Y-74237000D01*
G75*
G02*
X151740000Y-74287000I-50000J0D01*
G01*
X149740000Y-74287000D01*
G75*
G02*
X149690000Y-74237000I0J50000D01*
G01*
G37*
G36*
G01*
X149690000Y-75507000D02*
X149690000Y-74607000D01*
G75*
G02*
X149740000Y-74557000I50000J0D01*
G01*
X151740000Y-74557000D01*
G75*
G02*
X151790000Y-74607000I0J-50000D01*
G01*
X151790000Y-75507000D01*
G75*
G02*
X151740000Y-75557000I-50000J0D01*
G01*
X149740000Y-75557000D01*
G75*
G02*
X149690000Y-75507000I0J50000D01*
G01*
G37*
G36*
G01*
X149690000Y-76777000D02*
X149690000Y-75877000D01*
G75*
G02*
X149740000Y-75827000I50000J0D01*
G01*
X151740000Y-75827000D01*
G75*
G02*
X151790000Y-75877000I0J-50000D01*
G01*
X151790000Y-76777000D01*
G75*
G02*
X151740000Y-76827000I-50000J0D01*
G01*
X149740000Y-76827000D01*
G75*
G02*
X149690000Y-76777000I0J50000D01*
G01*
G37*
G36*
G01*
X149690000Y-78047000D02*
X149690000Y-77147000D01*
G75*
G02*
X149740000Y-77097000I50000J0D01*
G01*
X151740000Y-77097000D01*
G75*
G02*
X151790000Y-77147000I0J-50000D01*
G01*
X151790000Y-78047000D01*
G75*
G02*
X151740000Y-78097000I-50000J0D01*
G01*
X149740000Y-78097000D01*
G75*
G02*
X149690000Y-78047000I0J50000D01*
G01*
G37*
G36*
G01*
X149690000Y-79317000D02*
X149690000Y-78417000D01*
G75*
G02*
X149740000Y-78367000I50000J0D01*
G01*
X151740000Y-78367000D01*
G75*
G02*
X151790000Y-78417000I0J-50000D01*
G01*
X151790000Y-79317000D01*
G75*
G02*
X151740000Y-79367000I-50000J0D01*
G01*
X149740000Y-79367000D01*
G75*
G02*
X149690000Y-79317000I0J50000D01*
G01*
G37*
G36*
G01*
X149690000Y-80587000D02*
X149690000Y-79687000D01*
G75*
G02*
X149740000Y-79637000I50000J0D01*
G01*
X151740000Y-79637000D01*
G75*
G02*
X151790000Y-79687000I0J-50000D01*
G01*
X151790000Y-80587000D01*
G75*
G02*
X151740000Y-80637000I-50000J0D01*
G01*
X149740000Y-80637000D01*
G75*
G02*
X149690000Y-80587000I0J50000D01*
G01*
G37*
G36*
G01*
X148405000Y-82187000D02*
X147505000Y-82187000D01*
G75*
G02*
X147455000Y-82137000I0J50000D01*
G01*
X147455000Y-80137000D01*
G75*
G02*
X147505000Y-80087000I50000J0D01*
G01*
X148405000Y-80087000D01*
G75*
G02*
X148455000Y-80137000I0J-50000D01*
G01*
X148455000Y-82137000D01*
G75*
G02*
X148405000Y-82187000I-50000J0D01*
G01*
G37*
G36*
G01*
X147135000Y-82187000D02*
X146235000Y-82187000D01*
G75*
G02*
X146185000Y-82137000I0J50000D01*
G01*
X146185000Y-80137000D01*
G75*
G02*
X146235000Y-80087000I50000J0D01*
G01*
X147135000Y-80087000D01*
G75*
G02*
X147185000Y-80137000I0J-50000D01*
G01*
X147185000Y-82137000D01*
G75*
G02*
X147135000Y-82187000I-50000J0D01*
G01*
G37*
G36*
G01*
X145865000Y-82187000D02*
X144965000Y-82187000D01*
G75*
G02*
X144915000Y-82137000I0J50000D01*
G01*
X144915000Y-80137000D01*
G75*
G02*
X144965000Y-80087000I50000J0D01*
G01*
X145865000Y-80087000D01*
G75*
G02*
X145915000Y-80137000I0J-50000D01*
G01*
X145915000Y-82137000D01*
G75*
G02*
X145865000Y-82187000I-50000J0D01*
G01*
G37*
G36*
G01*
X144595000Y-82187000D02*
X143695000Y-82187000D01*
G75*
G02*
X143645000Y-82137000I0J50000D01*
G01*
X143645000Y-80137000D01*
G75*
G02*
X143695000Y-80087000I50000J0D01*
G01*
X144595000Y-80087000D01*
G75*
G02*
X144645000Y-80137000I0J-50000D01*
G01*
X144645000Y-82137000D01*
G75*
G02*
X144595000Y-82187000I-50000J0D01*
G01*
G37*
G36*
G01*
X143325000Y-82187000D02*
X142425000Y-82187000D01*
G75*
G02*
X142375000Y-82137000I0J50000D01*
G01*
X142375000Y-80137000D01*
G75*
G02*
X142425000Y-80087000I50000J0D01*
G01*
X143325000Y-80087000D01*
G75*
G02*
X143375000Y-80137000I0J-50000D01*
G01*
X143375000Y-82137000D01*
G75*
G02*
X143325000Y-82187000I-50000J0D01*
G01*
G37*
G36*
G01*
X142055000Y-82187000D02*
X141155000Y-82187000D01*
G75*
G02*
X141105000Y-82137000I0J50000D01*
G01*
X141105000Y-80137000D01*
G75*
G02*
X141155000Y-80087000I50000J0D01*
G01*
X142055000Y-80087000D01*
G75*
G02*
X142105000Y-80137000I0J-50000D01*
G01*
X142105000Y-82137000D01*
G75*
G02*
X142055000Y-82187000I-50000J0D01*
G01*
G37*
G36*
G01*
X140785000Y-82187000D02*
X139885000Y-82187000D01*
G75*
G02*
X139835000Y-82137000I0J50000D01*
G01*
X139835000Y-80137000D01*
G75*
G02*
X139885000Y-80087000I50000J0D01*
G01*
X140785000Y-80087000D01*
G75*
G02*
X140835000Y-80137000I0J-50000D01*
G01*
X140835000Y-82137000D01*
G75*
G02*
X140785000Y-82187000I-50000J0D01*
G01*
G37*
G36*
G01*
X139515000Y-82187000D02*
X138615000Y-82187000D01*
G75*
G02*
X138565000Y-82137000I0J50000D01*
G01*
X138565000Y-80137000D01*
G75*
G02*
X138615000Y-80087000I50000J0D01*
G01*
X139515000Y-80087000D01*
G75*
G02*
X139565000Y-80137000I0J-50000D01*
G01*
X139565000Y-82137000D01*
G75*
G02*
X139515000Y-82187000I-50000J0D01*
G01*
G37*
G36*
G01*
X138245000Y-82187000D02*
X137345000Y-82187000D01*
G75*
G02*
X137295000Y-82137000I0J50000D01*
G01*
X137295000Y-80137000D01*
G75*
G02*
X137345000Y-80087000I50000J0D01*
G01*
X138245000Y-80087000D01*
G75*
G02*
X138295000Y-80137000I0J-50000D01*
G01*
X138295000Y-82137000D01*
G75*
G02*
X138245000Y-82187000I-50000J0D01*
G01*
G37*
G36*
G01*
X136975000Y-82187000D02*
X136075000Y-82187000D01*
G75*
G02*
X136025000Y-82137000I0J50000D01*
G01*
X136025000Y-80137000D01*
G75*
G02*
X136075000Y-80087000I50000J0D01*
G01*
X136975000Y-80087000D01*
G75*
G02*
X137025000Y-80137000I0J-50000D01*
G01*
X137025000Y-82137000D01*
G75*
G02*
X136975000Y-82187000I-50000J0D01*
G01*
G37*
G36*
G01*
X132690000Y-80587000D02*
X132690000Y-79687000D01*
G75*
G02*
X132740000Y-79637000I50000J0D01*
G01*
X134740000Y-79637000D01*
G75*
G02*
X134790000Y-79687000I0J-50000D01*
G01*
X134790000Y-80587000D01*
G75*
G02*
X134740000Y-80637000I-50000J0D01*
G01*
X132740000Y-80637000D01*
G75*
G02*
X132690000Y-80587000I0J50000D01*
G01*
G37*
G36*
G01*
X132690000Y-79317000D02*
X132690000Y-78417000D01*
G75*
G02*
X132740000Y-78367000I50000J0D01*
G01*
X134740000Y-78367000D01*
G75*
G02*
X134790000Y-78417000I0J-50000D01*
G01*
X134790000Y-79317000D01*
G75*
G02*
X134740000Y-79367000I-50000J0D01*
G01*
X132740000Y-79367000D01*
G75*
G02*
X132690000Y-79317000I0J50000D01*
G01*
G37*
G36*
G01*
X132690000Y-78047000D02*
X132690000Y-77147000D01*
G75*
G02*
X132740000Y-77097000I50000J0D01*
G01*
X134740000Y-77097000D01*
G75*
G02*
X134790000Y-77147000I0J-50000D01*
G01*
X134790000Y-78047000D01*
G75*
G02*
X134740000Y-78097000I-50000J0D01*
G01*
X132740000Y-78097000D01*
G75*
G02*
X132690000Y-78047000I0J50000D01*
G01*
G37*
G36*
G01*
X132690000Y-76777000D02*
X132690000Y-75877000D01*
G75*
G02*
X132740000Y-75827000I50000J0D01*
G01*
X134740000Y-75827000D01*
G75*
G02*
X134790000Y-75877000I0J-50000D01*
G01*
X134790000Y-76777000D01*
G75*
G02*
X134740000Y-76827000I-50000J0D01*
G01*
X132740000Y-76827000D01*
G75*
G02*
X132690000Y-76777000I0J50000D01*
G01*
G37*
G36*
G01*
X132690000Y-75507000D02*
X132690000Y-74607000D01*
G75*
G02*
X132740000Y-74557000I50000J0D01*
G01*
X134740000Y-74557000D01*
G75*
G02*
X134790000Y-74607000I0J-50000D01*
G01*
X134790000Y-75507000D01*
G75*
G02*
X134740000Y-75557000I-50000J0D01*
G01*
X132740000Y-75557000D01*
G75*
G02*
X132690000Y-75507000I0J50000D01*
G01*
G37*
G36*
G01*
X132690000Y-74237000D02*
X132690000Y-73337000D01*
G75*
G02*
X132740000Y-73287000I50000J0D01*
G01*
X134740000Y-73287000D01*
G75*
G02*
X134790000Y-73337000I0J-50000D01*
G01*
X134790000Y-74237000D01*
G75*
G02*
X134740000Y-74287000I-50000J0D01*
G01*
X132740000Y-74287000D01*
G75*
G02*
X132690000Y-74237000I0J50000D01*
G01*
G37*
G36*
G01*
X132690000Y-72967000D02*
X132690000Y-72067000D01*
G75*
G02*
X132740000Y-72017000I50000J0D01*
G01*
X134740000Y-72017000D01*
G75*
G02*
X134790000Y-72067000I0J-50000D01*
G01*
X134790000Y-72967000D01*
G75*
G02*
X134740000Y-73017000I-50000J0D01*
G01*
X132740000Y-73017000D01*
G75*
G02*
X132690000Y-72967000I0J50000D01*
G01*
G37*
G36*
G01*
X132690000Y-71697000D02*
X132690000Y-70797000D01*
G75*
G02*
X132740000Y-70747000I50000J0D01*
G01*
X134740000Y-70747000D01*
G75*
G02*
X134790000Y-70797000I0J-50000D01*
G01*
X134790000Y-71697000D01*
G75*
G02*
X134740000Y-71747000I-50000J0D01*
G01*
X132740000Y-71747000D01*
G75*
G02*
X132690000Y-71697000I0J50000D01*
G01*
G37*
G36*
G01*
X132690000Y-70427000D02*
X132690000Y-69527000D01*
G75*
G02*
X132740000Y-69477000I50000J0D01*
G01*
X134740000Y-69477000D01*
G75*
G02*
X134790000Y-69527000I0J-50000D01*
G01*
X134790000Y-70427000D01*
G75*
G02*
X134740000Y-70477000I-50000J0D01*
G01*
X132740000Y-70477000D01*
G75*
G02*
X132690000Y-70427000I0J50000D01*
G01*
G37*
G36*
G01*
X132690000Y-69157000D02*
X132690000Y-68257000D01*
G75*
G02*
X132740000Y-68207000I50000J0D01*
G01*
X134740000Y-68207000D01*
G75*
G02*
X134790000Y-68257000I0J-50000D01*
G01*
X134790000Y-69157000D01*
G75*
G02*
X134740000Y-69207000I-50000J0D01*
G01*
X132740000Y-69207000D01*
G75*
G02*
X132690000Y-69157000I0J50000D01*
G01*
G37*
G36*
G01*
X132690000Y-67887000D02*
X132690000Y-66987000D01*
G75*
G02*
X132740000Y-66937000I50000J0D01*
G01*
X134740000Y-66937000D01*
G75*
G02*
X134790000Y-66987000I0J-50000D01*
G01*
X134790000Y-67887000D01*
G75*
G02*
X134740000Y-67937000I-50000J0D01*
G01*
X132740000Y-67937000D01*
G75*
G02*
X132690000Y-67887000I0J50000D01*
G01*
G37*
G36*
G01*
X132690000Y-66617000D02*
X132690000Y-65717000D01*
G75*
G02*
X132740000Y-65667000I50000J0D01*
G01*
X134740000Y-65667000D01*
G75*
G02*
X134790000Y-65717000I0J-50000D01*
G01*
X134790000Y-66617000D01*
G75*
G02*
X134740000Y-66667000I-50000J0D01*
G01*
X132740000Y-66667000D01*
G75*
G02*
X132690000Y-66617000I0J50000D01*
G01*
G37*
G36*
G01*
X132690000Y-65347000D02*
X132690000Y-64447000D01*
G75*
G02*
X132740000Y-64397000I50000J0D01*
G01*
X134740000Y-64397000D01*
G75*
G02*
X134790000Y-64447000I0J-50000D01*
G01*
X134790000Y-65347000D01*
G75*
G02*
X134740000Y-65397000I-50000J0D01*
G01*
X132740000Y-65397000D01*
G75*
G02*
X132690000Y-65347000I0J50000D01*
G01*
G37*
G36*
G01*
X132690000Y-64077000D02*
X132690000Y-63177000D01*
G75*
G02*
X132740000Y-63127000I50000J0D01*
G01*
X134740000Y-63127000D01*
G75*
G02*
X134790000Y-63177000I0J-50000D01*
G01*
X134790000Y-64077000D01*
G75*
G02*
X134740000Y-64127000I-50000J0D01*
G01*
X132740000Y-64127000D01*
G75*
G02*
X132690000Y-64077000I0J50000D01*
G01*
G37*
G36*
G01*
X138690000Y-73627000D02*
X138690000Y-68627000D01*
G75*
G02*
X138740000Y-68577000I50000J0D01*
G01*
X143740000Y-68577000D01*
G75*
G02*
X143790000Y-68627000I0J-50000D01*
G01*
X143790000Y-73627000D01*
G75*
G02*
X143740000Y-73677000I-50000J0D01*
G01*
X138740000Y-73677000D01*
G75*
G02*
X138690000Y-73627000I0J50000D01*
G01*
G37*
G04 #@! TD*
G04 #@! TO.C,D21*
G36*
G01*
X124550000Y-120900000D02*
X124550000Y-119100000D01*
G75*
G02*
X124600000Y-119050000I50000J0D01*
G01*
X126400000Y-119050000D01*
G75*
G02*
X126450000Y-119100000I0J-50000D01*
G01*
X126450000Y-120900000D01*
G75*
G02*
X126400000Y-120950000I-50000J0D01*
G01*
X124600000Y-120950000D01*
G75*
G02*
X124550000Y-120900000I0J50000D01*
G01*
G37*
D10*
X128040000Y-120000000D03*
G04 #@! TD*
G04 #@! TO.C,R29*
G36*
G01*
X163965500Y-83595500D02*
X163440500Y-83595500D01*
G75*
G02*
X163178000Y-83333000I0J262500D01*
G01*
X163178000Y-82783000D01*
G75*
G02*
X163440500Y-82520500I262500J0D01*
G01*
X163965500Y-82520500D01*
G75*
G02*
X164228000Y-82783000I0J-262500D01*
G01*
X164228000Y-83333000D01*
G75*
G02*
X163965500Y-83595500I-262500J0D01*
G01*
G37*
G36*
G01*
X163965500Y-85420500D02*
X163440500Y-85420500D01*
G75*
G02*
X163178000Y-85158000I0J262500D01*
G01*
X163178000Y-84608000D01*
G75*
G02*
X163440500Y-84345500I262500J0D01*
G01*
X163965500Y-84345500D01*
G75*
G02*
X164228000Y-84608000I0J-262500D01*
G01*
X164228000Y-85158000D01*
G75*
G02*
X163965500Y-85420500I-262500J0D01*
G01*
G37*
G04 #@! TD*
G04 #@! TO.C,D13*
G36*
G01*
X105050000Y-107900000D02*
X105050000Y-106100000D01*
G75*
G02*
X105100000Y-106050000I50000J0D01*
G01*
X106900000Y-106050000D01*
G75*
G02*
X106950000Y-106100000I0J-50000D01*
G01*
X106950000Y-107900000D01*
G75*
G02*
X106900000Y-107950000I-50000J0D01*
G01*
X105100000Y-107950000D01*
G75*
G02*
X105050000Y-107900000I0J50000D01*
G01*
G37*
X108540000Y-107000000D03*
G04 #@! TD*
G04 #@! TO.C,R16*
G36*
G01*
X111641500Y-107241000D02*
X111116500Y-107241000D01*
G75*
G02*
X110854000Y-106978500I0J262500D01*
G01*
X110854000Y-106428500D01*
G75*
G02*
X111116500Y-106166000I262500J0D01*
G01*
X111641500Y-106166000D01*
G75*
G02*
X111904000Y-106428500I0J-262500D01*
G01*
X111904000Y-106978500D01*
G75*
G02*
X111641500Y-107241000I-262500J0D01*
G01*
G37*
G36*
G01*
X111641500Y-105416000D02*
X111116500Y-105416000D01*
G75*
G02*
X110854000Y-105153500I0J262500D01*
G01*
X110854000Y-104603500D01*
G75*
G02*
X111116500Y-104341000I262500J0D01*
G01*
X111641500Y-104341000D01*
G75*
G02*
X111904000Y-104603500I0J-262500D01*
G01*
X111904000Y-105153500D01*
G75*
G02*
X111641500Y-105416000I-262500J0D01*
G01*
G37*
G04 #@! TD*
G04 #@! TO.C,R7*
G36*
G01*
X172347500Y-105138500D02*
X171822500Y-105138500D01*
G75*
G02*
X171560000Y-104876000I0J262500D01*
G01*
X171560000Y-104326000D01*
G75*
G02*
X171822500Y-104063500I262500J0D01*
G01*
X172347500Y-104063500D01*
G75*
G02*
X172610000Y-104326000I0J-262500D01*
G01*
X172610000Y-104876000D01*
G75*
G02*
X172347500Y-105138500I-262500J0D01*
G01*
G37*
G36*
G01*
X172347500Y-106963500D02*
X171822500Y-106963500D01*
G75*
G02*
X171560000Y-106701000I0J262500D01*
G01*
X171560000Y-106151000D01*
G75*
G02*
X171822500Y-105888500I262500J0D01*
G01*
X172347500Y-105888500D01*
G75*
G02*
X172610000Y-106151000I0J-262500D01*
G01*
X172610000Y-106701000D01*
G75*
G02*
X172347500Y-106963500I-262500J0D01*
G01*
G37*
G04 #@! TD*
G04 #@! TO.C,R6*
G36*
G01*
X172220500Y-111615500D02*
X171695500Y-111615500D01*
G75*
G02*
X171433000Y-111353000I0J262500D01*
G01*
X171433000Y-110803000D01*
G75*
G02*
X171695500Y-110540500I262500J0D01*
G01*
X172220500Y-110540500D01*
G75*
G02*
X172483000Y-110803000I0J-262500D01*
G01*
X172483000Y-111353000D01*
G75*
G02*
X172220500Y-111615500I-262500J0D01*
G01*
G37*
G36*
G01*
X172220500Y-113440500D02*
X171695500Y-113440500D01*
G75*
G02*
X171433000Y-113178000I0J262500D01*
G01*
X171433000Y-112628000D01*
G75*
G02*
X171695500Y-112365500I262500J0D01*
G01*
X172220500Y-112365500D01*
G75*
G02*
X172483000Y-112628000I0J-262500D01*
G01*
X172483000Y-113178000D01*
G75*
G02*
X172220500Y-113440500I-262500J0D01*
G01*
G37*
G04 #@! TD*
G04 #@! TO.C,D7*
X169040000Y-107000000D03*
G36*
G01*
X165550000Y-107900000D02*
X165550000Y-106100000D01*
G75*
G02*
X165600000Y-106050000I50000J0D01*
G01*
X167400000Y-106050000D01*
G75*
G02*
X167450000Y-106100000I0J-50000D01*
G01*
X167450000Y-107900000D01*
G75*
G02*
X167400000Y-107950000I-50000J0D01*
G01*
X165600000Y-107950000D01*
G75*
G02*
X165550000Y-107900000I0J50000D01*
G01*
G37*
G04 #@! TD*
G04 #@! TO.C,D6*
X169040000Y-113500000D03*
G36*
G01*
X165550000Y-114400000D02*
X165550000Y-112600000D01*
G75*
G02*
X165600000Y-112550000I50000J0D01*
G01*
X167400000Y-112550000D01*
G75*
G02*
X167450000Y-112600000I0J-50000D01*
G01*
X167450000Y-114400000D01*
G75*
G02*
X167400000Y-114450000I-50000J0D01*
G01*
X165600000Y-114450000D01*
G75*
G02*
X165550000Y-114400000I0J50000D01*
G01*
G37*
G04 #@! TD*
D11*
G04 #@! TO.C,NEUTRAL*
X88000000Y-132000000D03*
G04 #@! TD*
G04 #@! TO.C,LIVE*
X95000000Y-132000000D03*
G04 #@! TD*
G04 #@! TO.C,R36*
G36*
G01*
X130804000Y-67699500D02*
X130804000Y-67174500D01*
G75*
G02*
X131066500Y-66912000I262500J0D01*
G01*
X131616500Y-66912000D01*
G75*
G02*
X131879000Y-67174500I0J-262500D01*
G01*
X131879000Y-67699500D01*
G75*
G02*
X131616500Y-67962000I-262500J0D01*
G01*
X131066500Y-67962000D01*
G75*
G02*
X130804000Y-67699500I0J262500D01*
G01*
G37*
G36*
G01*
X128979000Y-67699500D02*
X128979000Y-67174500D01*
G75*
G02*
X129241500Y-66912000I262500J0D01*
G01*
X129791500Y-66912000D01*
G75*
G02*
X130054000Y-67174500I0J-262500D01*
G01*
X130054000Y-67699500D01*
G75*
G02*
X129791500Y-67962000I-262500J0D01*
G01*
X129241500Y-67962000D01*
G75*
G02*
X128979000Y-67699500I0J262500D01*
G01*
G37*
G04 #@! TD*
D12*
G04 #@! TO.C,J3*
X156210000Y-69469000D03*
X156210000Y-66929000D03*
G36*
G01*
X155310000Y-65239000D02*
X155310000Y-63539000D01*
G75*
G02*
X155360000Y-63489000I50000J0D01*
G01*
X157060000Y-63489000D01*
G75*
G02*
X157110000Y-63539000I0J-50000D01*
G01*
X157110000Y-65239000D01*
G75*
G02*
X157060000Y-65289000I-50000J0D01*
G01*
X155360000Y-65289000D01*
G75*
G02*
X155310000Y-65239000I0J50000D01*
G01*
G37*
G04 #@! TD*
G04 #@! TO.C,J2*
X156210000Y-82677000D03*
G36*
G01*
X155310000Y-80987000D02*
X155310000Y-79287000D01*
G75*
G02*
X155360000Y-79237000I50000J0D01*
G01*
X157060000Y-79237000D01*
G75*
G02*
X157110000Y-79287000I0J-50000D01*
G01*
X157110000Y-80987000D01*
G75*
G02*
X157060000Y-81037000I-50000J0D01*
G01*
X155360000Y-81037000D01*
G75*
G02*
X155310000Y-80987000I0J50000D01*
G01*
G37*
G04 #@! TD*
G04 #@! TO.C,C30*
G36*
G01*
X130127500Y-63364500D02*
X130127500Y-63889500D01*
G75*
G02*
X129865000Y-64152000I-262500J0D01*
G01*
X129215000Y-64152000D01*
G75*
G02*
X128952500Y-63889500I0J262500D01*
G01*
X128952500Y-63364500D01*
G75*
G02*
X129215000Y-63102000I262500J0D01*
G01*
X129865000Y-63102000D01*
G75*
G02*
X130127500Y-63364500I0J-262500D01*
G01*
G37*
G36*
G01*
X131852500Y-63364500D02*
X131852500Y-63889500D01*
G75*
G02*
X131590000Y-64152000I-262500J0D01*
G01*
X130940000Y-64152000D01*
G75*
G02*
X130677500Y-63889500I0J262500D01*
G01*
X130677500Y-63364500D01*
G75*
G02*
X130940000Y-63102000I262500J0D01*
G01*
X131590000Y-63102000D01*
G75*
G02*
X131852500Y-63364500I0J-262500D01*
G01*
G37*
G04 #@! TD*
G04 #@! TO.C,C29*
G36*
G01*
X129775000Y-65049776D02*
X129775000Y-66057224D01*
G75*
G02*
X129503724Y-66328500I-271276J0D01*
G01*
X128771276Y-66328500D01*
G75*
G02*
X128500000Y-66057224I0J271276D01*
G01*
X128500000Y-65049776D01*
G75*
G02*
X128771276Y-64778500I271276J0D01*
G01*
X129503724Y-64778500D01*
G75*
G02*
X129775000Y-65049776I0J-271276D01*
G01*
G37*
G36*
G01*
X131850000Y-65049776D02*
X131850000Y-66057224D01*
G75*
G02*
X131578724Y-66328500I-271276J0D01*
G01*
X130846276Y-66328500D01*
G75*
G02*
X130575000Y-66057224I0J271276D01*
G01*
X130575000Y-65049776D01*
G75*
G02*
X130846276Y-64778500I271276J0D01*
G01*
X131578724Y-64778500D01*
G75*
G02*
X131850000Y-65049776I0J-271276D01*
G01*
G37*
G04 #@! TD*
G04 #@! TO.C,C31*
G36*
G01*
X130154000Y-68825500D02*
X130154000Y-69350500D01*
G75*
G02*
X129891500Y-69613000I-262500J0D01*
G01*
X129241500Y-69613000D01*
G75*
G02*
X128979000Y-69350500I0J262500D01*
G01*
X128979000Y-68825500D01*
G75*
G02*
X129241500Y-68563000I262500J0D01*
G01*
X129891500Y-68563000D01*
G75*
G02*
X130154000Y-68825500I0J-262500D01*
G01*
G37*
G36*
G01*
X131879000Y-68825500D02*
X131879000Y-69350500D01*
G75*
G02*
X131616500Y-69613000I-262500J0D01*
G01*
X130966500Y-69613000D01*
G75*
G02*
X130704000Y-69350500I0J262500D01*
G01*
X130704000Y-68825500D01*
G75*
G02*
X130966500Y-68563000I262500J0D01*
G01*
X131616500Y-68563000D01*
G75*
G02*
X131879000Y-68825500I0J-262500D01*
G01*
G37*
G04 #@! TD*
D11*
G04 #@! TO.C,BT1*
X111633000Y-71247000D03*
G36*
G01*
X113133000Y-93287000D02*
X110133000Y-93287000D01*
G75*
G02*
X110083000Y-93237000I0J50000D01*
G01*
X110083000Y-90237000D01*
G75*
G02*
X110133000Y-90187000I50000J0D01*
G01*
X113133000Y-90187000D01*
G75*
G02*
X113183000Y-90237000I0J-50000D01*
G01*
X113183000Y-93237000D01*
G75*
G02*
X113133000Y-93287000I-50000J0D01*
G01*
G37*
G04 #@! TD*
G04 #@! TO.C,C18*
G36*
G01*
X93493000Y-83574500D02*
X93493000Y-83049500D01*
G75*
G02*
X93755500Y-82787000I262500J0D01*
G01*
X94405500Y-82787000D01*
G75*
G02*
X94668000Y-83049500I0J-262500D01*
G01*
X94668000Y-83574500D01*
G75*
G02*
X94405500Y-83837000I-262500J0D01*
G01*
X93755500Y-83837000D01*
G75*
G02*
X93493000Y-83574500I0J262500D01*
G01*
G37*
G36*
G01*
X91768000Y-83574500D02*
X91768000Y-83049500D01*
G75*
G02*
X92030500Y-82787000I262500J0D01*
G01*
X92680500Y-82787000D01*
G75*
G02*
X92943000Y-83049500I0J-262500D01*
G01*
X92943000Y-83574500D01*
G75*
G02*
X92680500Y-83837000I-262500J0D01*
G01*
X92030500Y-83837000D01*
G75*
G02*
X91768000Y-83574500I0J262500D01*
G01*
G37*
G04 #@! TD*
G04 #@! TO.C,C19*
G36*
G01*
X94668000Y-89018500D02*
X94668000Y-89543500D01*
G75*
G02*
X94405500Y-89806000I-262500J0D01*
G01*
X93755500Y-89806000D01*
G75*
G02*
X93493000Y-89543500I0J262500D01*
G01*
X93493000Y-89018500D01*
G75*
G02*
X93755500Y-88756000I262500J0D01*
G01*
X94405500Y-88756000D01*
G75*
G02*
X94668000Y-89018500I0J-262500D01*
G01*
G37*
G36*
G01*
X92943000Y-89018500D02*
X92943000Y-89543500D01*
G75*
G02*
X92680500Y-89806000I-262500J0D01*
G01*
X92030500Y-89806000D01*
G75*
G02*
X91768000Y-89543500I0J262500D01*
G01*
X91768000Y-89018500D01*
G75*
G02*
X92030500Y-88756000I262500J0D01*
G01*
X92680500Y-88756000D01*
G75*
G02*
X92943000Y-89018500I0J-262500D01*
G01*
G37*
G04 #@! TD*
G04 #@! TO.C,C10*
G36*
G01*
X106815500Y-76914500D02*
X106290500Y-76914500D01*
G75*
G02*
X106028000Y-76652000I0J262500D01*
G01*
X106028000Y-76002000D01*
G75*
G02*
X106290500Y-75739500I262500J0D01*
G01*
X106815500Y-75739500D01*
G75*
G02*
X107078000Y-76002000I0J-262500D01*
G01*
X107078000Y-76652000D01*
G75*
G02*
X106815500Y-76914500I-262500J0D01*
G01*
G37*
G36*
G01*
X106815500Y-75189500D02*
X106290500Y-75189500D01*
G75*
G02*
X106028000Y-74927000I0J262500D01*
G01*
X106028000Y-74277000D01*
G75*
G02*
X106290500Y-74014500I262500J0D01*
G01*
X106815500Y-74014500D01*
G75*
G02*
X107078000Y-74277000I0J-262500D01*
G01*
X107078000Y-74927000D01*
G75*
G02*
X106815500Y-75189500I-262500J0D01*
G01*
G37*
G04 #@! TD*
G04 #@! TO.C,C27*
G36*
G01*
X129374000Y-96355000D02*
X129374000Y-97955000D01*
G75*
G02*
X129324000Y-98005000I-50000J0D01*
G01*
X127724000Y-98005000D01*
G75*
G02*
X127674000Y-97955000I0J50000D01*
G01*
X127674000Y-96355000D01*
G75*
G02*
X127724000Y-96305000I50000J0D01*
G01*
X129324000Y-96305000D01*
G75*
G02*
X129374000Y-96355000I0J-50000D01*
G01*
G37*
D13*
X126524000Y-97155000D03*
G04 #@! TD*
G04 #@! TO.C,C12*
G36*
G01*
X105164500Y-76914500D02*
X104639500Y-76914500D01*
G75*
G02*
X104377000Y-76652000I0J262500D01*
G01*
X104377000Y-76002000D01*
G75*
G02*
X104639500Y-75739500I262500J0D01*
G01*
X105164500Y-75739500D01*
G75*
G02*
X105427000Y-76002000I0J-262500D01*
G01*
X105427000Y-76652000D01*
G75*
G02*
X105164500Y-76914500I-262500J0D01*
G01*
G37*
G36*
G01*
X105164500Y-75189500D02*
X104639500Y-75189500D01*
G75*
G02*
X104377000Y-74927000I0J262500D01*
G01*
X104377000Y-74277000D01*
G75*
G02*
X104639500Y-74014500I262500J0D01*
G01*
X105164500Y-74014500D01*
G75*
G02*
X105427000Y-74277000I0J-262500D01*
G01*
X105427000Y-74927000D01*
G75*
G02*
X105164500Y-75189500I-262500J0D01*
G01*
G37*
G04 #@! TD*
G04 #@! TO.C,C28*
X126524000Y-102870000D03*
G36*
G01*
X129374000Y-102070000D02*
X129374000Y-103670000D01*
G75*
G02*
X129324000Y-103720000I-50000J0D01*
G01*
X127724000Y-103720000D01*
G75*
G02*
X127674000Y-103670000I0J50000D01*
G01*
X127674000Y-102070000D01*
G75*
G02*
X127724000Y-102020000I50000J0D01*
G01*
X129324000Y-102020000D01*
G75*
G02*
X129374000Y-102070000I0J-50000D01*
G01*
G37*
G04 #@! TD*
G04 #@! TO.C,C25*
G36*
G01*
X144056000Y-98259000D02*
X142456000Y-98259000D01*
G75*
G02*
X142406000Y-98209000I0J50000D01*
G01*
X142406000Y-96609000D01*
G75*
G02*
X142456000Y-96559000I50000J0D01*
G01*
X144056000Y-96559000D01*
G75*
G02*
X144106000Y-96609000I0J-50000D01*
G01*
X144106000Y-98209000D01*
G75*
G02*
X144056000Y-98259000I-50000J0D01*
G01*
G37*
X143256000Y-95409000D03*
G04 #@! TD*
G04 #@! TO.C,C3*
G36*
G01*
X102751500Y-94948500D02*
X102226500Y-94948500D01*
G75*
G02*
X101964000Y-94686000I0J262500D01*
G01*
X101964000Y-94036000D01*
G75*
G02*
X102226500Y-93773500I262500J0D01*
G01*
X102751500Y-93773500D01*
G75*
G02*
X103014000Y-94036000I0J-262500D01*
G01*
X103014000Y-94686000D01*
G75*
G02*
X102751500Y-94948500I-262500J0D01*
G01*
G37*
G36*
G01*
X102751500Y-96673500D02*
X102226500Y-96673500D01*
G75*
G02*
X101964000Y-96411000I0J262500D01*
G01*
X101964000Y-95761000D01*
G75*
G02*
X102226500Y-95498500I262500J0D01*
G01*
X102751500Y-95498500D01*
G75*
G02*
X103014000Y-95761000I0J-262500D01*
G01*
X103014000Y-96411000D01*
G75*
G02*
X102751500Y-96673500I-262500J0D01*
G01*
G37*
G04 #@! TD*
G04 #@! TO.C,C4*
G36*
G01*
X101227500Y-94975000D02*
X100702500Y-94975000D01*
G75*
G02*
X100440000Y-94712500I0J262500D01*
G01*
X100440000Y-94062500D01*
G75*
G02*
X100702500Y-93800000I262500J0D01*
G01*
X101227500Y-93800000D01*
G75*
G02*
X101490000Y-94062500I0J-262500D01*
G01*
X101490000Y-94712500D01*
G75*
G02*
X101227500Y-94975000I-262500J0D01*
G01*
G37*
G36*
G01*
X101227500Y-96700000D02*
X100702500Y-96700000D01*
G75*
G02*
X100440000Y-96437500I0J262500D01*
G01*
X100440000Y-95787500D01*
G75*
G02*
X100702500Y-95525000I262500J0D01*
G01*
X101227500Y-95525000D01*
G75*
G02*
X101490000Y-95787500I0J-262500D01*
G01*
X101490000Y-96437500D01*
G75*
G02*
X101227500Y-96700000I-262500J0D01*
G01*
G37*
G04 #@! TD*
G04 #@! TO.C,C5*
G36*
G01*
X112022500Y-83973500D02*
X111497500Y-83973500D01*
G75*
G02*
X111235000Y-83711000I0J262500D01*
G01*
X111235000Y-83061000D01*
G75*
G02*
X111497500Y-82798500I262500J0D01*
G01*
X112022500Y-82798500D01*
G75*
G02*
X112285000Y-83061000I0J-262500D01*
G01*
X112285000Y-83711000D01*
G75*
G02*
X112022500Y-83973500I-262500J0D01*
G01*
G37*
G36*
G01*
X112022500Y-82248500D02*
X111497500Y-82248500D01*
G75*
G02*
X111235000Y-81986000I0J262500D01*
G01*
X111235000Y-81336000D01*
G75*
G02*
X111497500Y-81073500I262500J0D01*
G01*
X112022500Y-81073500D01*
G75*
G02*
X112285000Y-81336000I0J-262500D01*
G01*
X112285000Y-81986000D01*
G75*
G02*
X112022500Y-82248500I-262500J0D01*
G01*
G37*
G04 #@! TD*
G04 #@! TO.C,C26*
X143256000Y-91408000D03*
G36*
G01*
X142456000Y-88558000D02*
X144056000Y-88558000D01*
G75*
G02*
X144106000Y-88608000I0J-50000D01*
G01*
X144106000Y-90208000D01*
G75*
G02*
X144056000Y-90258000I-50000J0D01*
G01*
X142456000Y-90258000D01*
G75*
G02*
X142406000Y-90208000I0J50000D01*
G01*
X142406000Y-88608000D01*
G75*
G02*
X142456000Y-88558000I50000J0D01*
G01*
G37*
G04 #@! TD*
G04 #@! TO.C,C6*
G36*
G01*
X113546500Y-82248500D02*
X113021500Y-82248500D01*
G75*
G02*
X112759000Y-81986000I0J262500D01*
G01*
X112759000Y-81336000D01*
G75*
G02*
X113021500Y-81073500I262500J0D01*
G01*
X113546500Y-81073500D01*
G75*
G02*
X113809000Y-81336000I0J-262500D01*
G01*
X113809000Y-81986000D01*
G75*
G02*
X113546500Y-82248500I-262500J0D01*
G01*
G37*
G36*
G01*
X113546500Y-83973500D02*
X113021500Y-83973500D01*
G75*
G02*
X112759000Y-83711000I0J262500D01*
G01*
X112759000Y-83061000D01*
G75*
G02*
X113021500Y-82798500I262500J0D01*
G01*
X113546500Y-82798500D01*
G75*
G02*
X113809000Y-83061000I0J-262500D01*
G01*
X113809000Y-83711000D01*
G75*
G02*
X113546500Y-83973500I-262500J0D01*
G01*
G37*
G04 #@! TD*
G04 #@! TO.C,C7*
G36*
G01*
X102861500Y-73988000D02*
X103386500Y-73988000D01*
G75*
G02*
X103649000Y-74250500I0J-262500D01*
G01*
X103649000Y-74900500D01*
G75*
G02*
X103386500Y-75163000I-262500J0D01*
G01*
X102861500Y-75163000D01*
G75*
G02*
X102599000Y-74900500I0J262500D01*
G01*
X102599000Y-74250500D01*
G75*
G02*
X102861500Y-73988000I262500J0D01*
G01*
G37*
G36*
G01*
X102861500Y-75713000D02*
X103386500Y-75713000D01*
G75*
G02*
X103649000Y-75975500I0J-262500D01*
G01*
X103649000Y-76625500D01*
G75*
G02*
X103386500Y-76888000I-262500J0D01*
G01*
X102861500Y-76888000D01*
G75*
G02*
X102599000Y-76625500I0J262500D01*
G01*
X102599000Y-75975500D01*
G75*
G02*
X102861500Y-75713000I262500J0D01*
G01*
G37*
G04 #@! TD*
G04 #@! TO.C,C15*
G36*
G01*
X116213500Y-75771500D02*
X115688500Y-75771500D01*
G75*
G02*
X115426000Y-75509000I0J262500D01*
G01*
X115426000Y-74859000D01*
G75*
G02*
X115688500Y-74596500I262500J0D01*
G01*
X116213500Y-74596500D01*
G75*
G02*
X116476000Y-74859000I0J-262500D01*
G01*
X116476000Y-75509000D01*
G75*
G02*
X116213500Y-75771500I-262500J0D01*
G01*
G37*
G36*
G01*
X116213500Y-77496500D02*
X115688500Y-77496500D01*
G75*
G02*
X115426000Y-77234000I0J262500D01*
G01*
X115426000Y-76584000D01*
G75*
G02*
X115688500Y-76321500I262500J0D01*
G01*
X116213500Y-76321500D01*
G75*
G02*
X116476000Y-76584000I0J-262500D01*
G01*
X116476000Y-77234000D01*
G75*
G02*
X116213500Y-77496500I-262500J0D01*
G01*
G37*
G04 #@! TD*
G04 #@! TO.C,C8*
G36*
G01*
X100715276Y-73487500D02*
X101722724Y-73487500D01*
G75*
G02*
X101994000Y-73758776I0J-271276D01*
G01*
X101994000Y-74491224D01*
G75*
G02*
X101722724Y-74762500I-271276J0D01*
G01*
X100715276Y-74762500D01*
G75*
G02*
X100444000Y-74491224I0J271276D01*
G01*
X100444000Y-73758776D01*
G75*
G02*
X100715276Y-73487500I271276J0D01*
G01*
G37*
G36*
G01*
X100715276Y-75562500D02*
X101722724Y-75562500D01*
G75*
G02*
X101994000Y-75833776I0J-271276D01*
G01*
X101994000Y-76566224D01*
G75*
G02*
X101722724Y-76837500I-271276J0D01*
G01*
X100715276Y-76837500D01*
G75*
G02*
X100444000Y-76566224I0J271276D01*
G01*
X100444000Y-75833776D01*
G75*
G02*
X100715276Y-75562500I271276J0D01*
G01*
G37*
G04 #@! TD*
G04 #@! TO.C,C1*
G36*
G01*
X167504500Y-92149000D02*
X168029500Y-92149000D01*
G75*
G02*
X168292000Y-92411500I0J-262500D01*
G01*
X168292000Y-93061500D01*
G75*
G02*
X168029500Y-93324000I-262500J0D01*
G01*
X167504500Y-93324000D01*
G75*
G02*
X167242000Y-93061500I0J262500D01*
G01*
X167242000Y-92411500D01*
G75*
G02*
X167504500Y-92149000I262500J0D01*
G01*
G37*
G36*
G01*
X167504500Y-93874000D02*
X168029500Y-93874000D01*
G75*
G02*
X168292000Y-94136500I0J-262500D01*
G01*
X168292000Y-94786500D01*
G75*
G02*
X168029500Y-95049000I-262500J0D01*
G01*
X167504500Y-95049000D01*
G75*
G02*
X167242000Y-94786500I0J262500D01*
G01*
X167242000Y-94136500D01*
G75*
G02*
X167504500Y-93874000I262500J0D01*
G01*
G37*
G04 #@! TD*
G04 #@! TO.C,C2*
G36*
G01*
X165853500Y-93874000D02*
X166378500Y-93874000D01*
G75*
G02*
X166641000Y-94136500I0J-262500D01*
G01*
X166641000Y-94786500D01*
G75*
G02*
X166378500Y-95049000I-262500J0D01*
G01*
X165853500Y-95049000D01*
G75*
G02*
X165591000Y-94786500I0J262500D01*
G01*
X165591000Y-94136500D01*
G75*
G02*
X165853500Y-93874000I262500J0D01*
G01*
G37*
G36*
G01*
X165853500Y-92149000D02*
X166378500Y-92149000D01*
G75*
G02*
X166641000Y-92411500I0J-262500D01*
G01*
X166641000Y-93061500D01*
G75*
G02*
X166378500Y-93324000I-262500J0D01*
G01*
X165853500Y-93324000D01*
G75*
G02*
X165591000Y-93061500I0J262500D01*
G01*
X165591000Y-92411500D01*
G75*
G02*
X165853500Y-92149000I262500J0D01*
G01*
G37*
G04 #@! TD*
G04 #@! TO.C,C16*
G36*
G01*
X126373500Y-76941000D02*
X125848500Y-76941000D01*
G75*
G02*
X125586000Y-76678500I0J262500D01*
G01*
X125586000Y-76028500D01*
G75*
G02*
X125848500Y-75766000I262500J0D01*
G01*
X126373500Y-75766000D01*
G75*
G02*
X126636000Y-76028500I0J-262500D01*
G01*
X126636000Y-76678500D01*
G75*
G02*
X126373500Y-76941000I-262500J0D01*
G01*
G37*
G36*
G01*
X126373500Y-78666000D02*
X125848500Y-78666000D01*
G75*
G02*
X125586000Y-78403500I0J262500D01*
G01*
X125586000Y-77753500D01*
G75*
G02*
X125848500Y-77491000I262500J0D01*
G01*
X126373500Y-77491000D01*
G75*
G02*
X126636000Y-77753500I0J-262500D01*
G01*
X126636000Y-78403500D01*
G75*
G02*
X126373500Y-78666000I-262500J0D01*
G01*
G37*
G04 #@! TD*
G04 #@! TO.C,C17*
G36*
G01*
X128024500Y-78639500D02*
X127499500Y-78639500D01*
G75*
G02*
X127237000Y-78377000I0J262500D01*
G01*
X127237000Y-77727000D01*
G75*
G02*
X127499500Y-77464500I262500J0D01*
G01*
X128024500Y-77464500D01*
G75*
G02*
X128287000Y-77727000I0J-262500D01*
G01*
X128287000Y-78377000D01*
G75*
G02*
X128024500Y-78639500I-262500J0D01*
G01*
G37*
G36*
G01*
X128024500Y-76914500D02*
X127499500Y-76914500D01*
G75*
G02*
X127237000Y-76652000I0J262500D01*
G01*
X127237000Y-76002000D01*
G75*
G02*
X127499500Y-75739500I262500J0D01*
G01*
X128024500Y-75739500D01*
G75*
G02*
X128287000Y-76002000I0J-262500D01*
G01*
X128287000Y-76652000D01*
G75*
G02*
X128024500Y-76914500I-262500J0D01*
G01*
G37*
G04 #@! TD*
G04 #@! TO.C,D16*
G36*
G01*
X79050000Y-120900000D02*
X79050000Y-119100000D01*
G75*
G02*
X79100000Y-119050000I50000J0D01*
G01*
X80900000Y-119050000D01*
G75*
G02*
X80950000Y-119100000I0J-50000D01*
G01*
X80950000Y-120900000D01*
G75*
G02*
X80900000Y-120950000I-50000J0D01*
G01*
X79100000Y-120950000D01*
G75*
G02*
X79050000Y-120900000I0J50000D01*
G01*
G37*
D10*
X82540000Y-120000000D03*
G04 #@! TD*
G04 #@! TO.C,D18*
G36*
G01*
X79060000Y-114400000D02*
X79060000Y-112600000D01*
G75*
G02*
X79110000Y-112550000I50000J0D01*
G01*
X80910000Y-112550000D01*
G75*
G02*
X80960000Y-112600000I0J-50000D01*
G01*
X80960000Y-114400000D01*
G75*
G02*
X80910000Y-114450000I-50000J0D01*
G01*
X79110000Y-114450000D01*
G75*
G02*
X79060000Y-114400000I0J50000D01*
G01*
G37*
X82550000Y-113500000D03*
G04 #@! TD*
G04 #@! TO.C,D20*
G36*
G01*
X79050000Y-107900000D02*
X79050000Y-106100000D01*
G75*
G02*
X79100000Y-106050000I50000J0D01*
G01*
X80900000Y-106050000D01*
G75*
G02*
X80950000Y-106100000I0J-50000D01*
G01*
X80950000Y-107900000D01*
G75*
G02*
X80900000Y-107950000I-50000J0D01*
G01*
X79100000Y-107950000D01*
G75*
G02*
X79050000Y-107900000I0J50000D01*
G01*
G37*
X82540000Y-107000000D03*
G04 #@! TD*
G04 #@! TO.C,D22*
X82540000Y-100500000D03*
G36*
G01*
X79050000Y-101400000D02*
X79050000Y-99600000D01*
G75*
G02*
X79100000Y-99550000I50000J0D01*
G01*
X80900000Y-99550000D01*
G75*
G02*
X80950000Y-99600000I0J-50000D01*
G01*
X80950000Y-101400000D01*
G75*
G02*
X80900000Y-101450000I-50000J0D01*
G01*
X79100000Y-101450000D01*
G75*
G02*
X79050000Y-101400000I0J50000D01*
G01*
G37*
G04 #@! TD*
G04 #@! TO.C,D24*
G36*
G01*
X85550000Y-120900000D02*
X85550000Y-119100000D01*
G75*
G02*
X85600000Y-119050000I50000J0D01*
G01*
X87400000Y-119050000D01*
G75*
G02*
X87450000Y-119100000I0J-50000D01*
G01*
X87450000Y-120900000D01*
G75*
G02*
X87400000Y-120950000I-50000J0D01*
G01*
X85600000Y-120950000D01*
G75*
G02*
X85550000Y-120900000I0J50000D01*
G01*
G37*
X89040000Y-120000000D03*
G04 #@! TD*
G04 #@! TO.C,D26*
X89040000Y-113500000D03*
G36*
G01*
X85550000Y-114400000D02*
X85550000Y-112600000D01*
G75*
G02*
X85600000Y-112550000I50000J0D01*
G01*
X87400000Y-112550000D01*
G75*
G02*
X87450000Y-112600000I0J-50000D01*
G01*
X87450000Y-114400000D01*
G75*
G02*
X87400000Y-114450000I-50000J0D01*
G01*
X85600000Y-114450000D01*
G75*
G02*
X85550000Y-114400000I0J50000D01*
G01*
G37*
G04 #@! TD*
G04 #@! TO.C,D28*
G36*
G01*
X85550000Y-107900000D02*
X85550000Y-106100000D01*
G75*
G02*
X85600000Y-106050000I50000J0D01*
G01*
X87400000Y-106050000D01*
G75*
G02*
X87450000Y-106100000I0J-50000D01*
G01*
X87450000Y-107900000D01*
G75*
G02*
X87400000Y-107950000I-50000J0D01*
G01*
X85600000Y-107950000D01*
G75*
G02*
X85550000Y-107900000I0J50000D01*
G01*
G37*
X89040000Y-107000000D03*
G04 #@! TD*
G04 #@! TO.C,D29*
X102040000Y-120000000D03*
G36*
G01*
X98550000Y-120900000D02*
X98550000Y-119100000D01*
G75*
G02*
X98600000Y-119050000I50000J0D01*
G01*
X100400000Y-119050000D01*
G75*
G02*
X100450000Y-119100000I0J-50000D01*
G01*
X100450000Y-120900000D01*
G75*
G02*
X100400000Y-120950000I-50000J0D01*
G01*
X98600000Y-120950000D01*
G75*
G02*
X98550000Y-120900000I0J50000D01*
G01*
G37*
G04 #@! TD*
G04 #@! TO.C,D1*
X162540000Y-120000000D03*
G36*
G01*
X159050000Y-120900000D02*
X159050000Y-119100000D01*
G75*
G02*
X159100000Y-119050000I50000J0D01*
G01*
X160900000Y-119050000D01*
G75*
G02*
X160950000Y-119100000I0J-50000D01*
G01*
X160950000Y-120900000D01*
G75*
G02*
X160900000Y-120950000I-50000J0D01*
G01*
X159100000Y-120950000D01*
G75*
G02*
X159050000Y-120900000I0J50000D01*
G01*
G37*
G04 #@! TD*
G04 #@! TO.C,D2*
X162540000Y-113500000D03*
G36*
G01*
X159050000Y-114400000D02*
X159050000Y-112600000D01*
G75*
G02*
X159100000Y-112550000I50000J0D01*
G01*
X160900000Y-112550000D01*
G75*
G02*
X160950000Y-112600000I0J-50000D01*
G01*
X160950000Y-114400000D01*
G75*
G02*
X160900000Y-114450000I-50000J0D01*
G01*
X159100000Y-114450000D01*
G75*
G02*
X159050000Y-114400000I0J50000D01*
G01*
G37*
G04 #@! TD*
G04 #@! TO.C,D3*
G36*
G01*
X159050000Y-107900000D02*
X159050000Y-106100000D01*
G75*
G02*
X159100000Y-106050000I50000J0D01*
G01*
X160900000Y-106050000D01*
G75*
G02*
X160950000Y-106100000I0J-50000D01*
G01*
X160950000Y-107900000D01*
G75*
G02*
X160900000Y-107950000I-50000J0D01*
G01*
X159100000Y-107950000D01*
G75*
G02*
X159050000Y-107900000I0J50000D01*
G01*
G37*
X162540000Y-107000000D03*
G04 #@! TD*
G04 #@! TO.C,D4*
X162540000Y-100500000D03*
G36*
G01*
X159050000Y-101400000D02*
X159050000Y-99600000D01*
G75*
G02*
X159100000Y-99550000I50000J0D01*
G01*
X160900000Y-99550000D01*
G75*
G02*
X160950000Y-99600000I0J-50000D01*
G01*
X160950000Y-101400000D01*
G75*
G02*
X160900000Y-101450000I-50000J0D01*
G01*
X159100000Y-101450000D01*
G75*
G02*
X159050000Y-101400000I0J50000D01*
G01*
G37*
G04 #@! TD*
G04 #@! TO.C,D5*
G36*
G01*
X165550000Y-120900000D02*
X165550000Y-119100000D01*
G75*
G02*
X165600000Y-119050000I50000J0D01*
G01*
X167400000Y-119050000D01*
G75*
G02*
X167450000Y-119100000I0J-50000D01*
G01*
X167450000Y-120900000D01*
G75*
G02*
X167400000Y-120950000I-50000J0D01*
G01*
X165600000Y-120950000D01*
G75*
G02*
X165550000Y-120900000I0J50000D01*
G01*
G37*
X169040000Y-120000000D03*
G04 #@! TD*
G04 #@! TO.C,D8*
X102040000Y-113500000D03*
G36*
G01*
X98550000Y-114400000D02*
X98550000Y-112600000D01*
G75*
G02*
X98600000Y-112550000I50000J0D01*
G01*
X100400000Y-112550000D01*
G75*
G02*
X100450000Y-112600000I0J-50000D01*
G01*
X100450000Y-114400000D01*
G75*
G02*
X100400000Y-114450000I-50000J0D01*
G01*
X98600000Y-114450000D01*
G75*
G02*
X98550000Y-114400000I0J50000D01*
G01*
G37*
G04 #@! TD*
G04 #@! TO.C,D9*
G36*
G01*
X98550000Y-107900000D02*
X98550000Y-106100000D01*
G75*
G02*
X98600000Y-106050000I50000J0D01*
G01*
X100400000Y-106050000D01*
G75*
G02*
X100450000Y-106100000I0J-50000D01*
G01*
X100450000Y-107900000D01*
G75*
G02*
X100400000Y-107950000I-50000J0D01*
G01*
X98600000Y-107950000D01*
G75*
G02*
X98550000Y-107900000I0J50000D01*
G01*
G37*
X102040000Y-107000000D03*
G04 #@! TD*
G04 #@! TO.C,D10*
G36*
G01*
X98550000Y-101400000D02*
X98550000Y-99600000D01*
G75*
G02*
X98600000Y-99550000I50000J0D01*
G01*
X100400000Y-99550000D01*
G75*
G02*
X100450000Y-99600000I0J-50000D01*
G01*
X100450000Y-101400000D01*
G75*
G02*
X100400000Y-101450000I-50000J0D01*
G01*
X98600000Y-101450000D01*
G75*
G02*
X98550000Y-101400000I0J50000D01*
G01*
G37*
X102040000Y-100500000D03*
G04 #@! TD*
G04 #@! TO.C,D11*
X108540000Y-120000000D03*
G36*
G01*
X105050000Y-120900000D02*
X105050000Y-119100000D01*
G75*
G02*
X105100000Y-119050000I50000J0D01*
G01*
X106900000Y-119050000D01*
G75*
G02*
X106950000Y-119100000I0J-50000D01*
G01*
X106950000Y-120900000D01*
G75*
G02*
X106900000Y-120950000I-50000J0D01*
G01*
X105100000Y-120950000D01*
G75*
G02*
X105050000Y-120900000I0J50000D01*
G01*
G37*
G04 #@! TD*
G04 #@! TO.C,D12*
G36*
G01*
X105050000Y-114400000D02*
X105050000Y-112600000D01*
G75*
G02*
X105100000Y-112550000I50000J0D01*
G01*
X106900000Y-112550000D01*
G75*
G02*
X106950000Y-112600000I0J-50000D01*
G01*
X106950000Y-114400000D01*
G75*
G02*
X106900000Y-114450000I-50000J0D01*
G01*
X105100000Y-114450000D01*
G75*
G02*
X105050000Y-114400000I0J50000D01*
G01*
G37*
X108540000Y-113500000D03*
G04 #@! TD*
G04 #@! TO.C,D14*
X121540000Y-120000000D03*
G36*
G01*
X118050000Y-120900000D02*
X118050000Y-119100000D01*
G75*
G02*
X118100000Y-119050000I50000J0D01*
G01*
X119900000Y-119050000D01*
G75*
G02*
X119950000Y-119100000I0J-50000D01*
G01*
X119950000Y-120900000D01*
G75*
G02*
X119900000Y-120950000I-50000J0D01*
G01*
X118100000Y-120950000D01*
G75*
G02*
X118050000Y-120900000I0J50000D01*
G01*
G37*
G04 #@! TD*
G04 #@! TO.C,D15*
X121540000Y-113500000D03*
G36*
G01*
X118050000Y-114400000D02*
X118050000Y-112600000D01*
G75*
G02*
X118100000Y-112550000I50000J0D01*
G01*
X119900000Y-112550000D01*
G75*
G02*
X119950000Y-112600000I0J-50000D01*
G01*
X119950000Y-114400000D01*
G75*
G02*
X119900000Y-114450000I-50000J0D01*
G01*
X118100000Y-114450000D01*
G75*
G02*
X118050000Y-114400000I0J50000D01*
G01*
G37*
G04 #@! TD*
G04 #@! TO.C,D17*
G36*
G01*
X118050000Y-107900000D02*
X118050000Y-106100000D01*
G75*
G02*
X118100000Y-106050000I50000J0D01*
G01*
X119900000Y-106050000D01*
G75*
G02*
X119950000Y-106100000I0J-50000D01*
G01*
X119950000Y-107900000D01*
G75*
G02*
X119900000Y-107950000I-50000J0D01*
G01*
X118100000Y-107950000D01*
G75*
G02*
X118050000Y-107900000I0J50000D01*
G01*
G37*
X121540000Y-107000000D03*
G04 #@! TD*
G04 #@! TO.C,D19*
X121540000Y-100500000D03*
G36*
G01*
X118050000Y-101400000D02*
X118050000Y-99600000D01*
G75*
G02*
X118100000Y-99550000I50000J0D01*
G01*
X119900000Y-99550000D01*
G75*
G02*
X119950000Y-99600000I0J-50000D01*
G01*
X119950000Y-101400000D01*
G75*
G02*
X119900000Y-101450000I-50000J0D01*
G01*
X118100000Y-101450000D01*
G75*
G02*
X118050000Y-101400000I0J50000D01*
G01*
G37*
G04 #@! TD*
G04 #@! TO.C,D23*
X128040000Y-113500000D03*
G36*
G01*
X124550000Y-114400000D02*
X124550000Y-112600000D01*
G75*
G02*
X124600000Y-112550000I50000J0D01*
G01*
X126400000Y-112550000D01*
G75*
G02*
X126450000Y-112600000I0J-50000D01*
G01*
X126450000Y-114400000D01*
G75*
G02*
X126400000Y-114450000I-50000J0D01*
G01*
X124600000Y-114450000D01*
G75*
G02*
X124550000Y-114400000I0J50000D01*
G01*
G37*
G04 #@! TD*
G04 #@! TO.C,D25*
X169040000Y-82423000D03*
G36*
G01*
X165550000Y-83323000D02*
X165550000Y-81523000D01*
G75*
G02*
X165600000Y-81473000I50000J0D01*
G01*
X167400000Y-81473000D01*
G75*
G02*
X167450000Y-81523000I0J-50000D01*
G01*
X167450000Y-83323000D01*
G75*
G02*
X167400000Y-83373000I-50000J0D01*
G01*
X165600000Y-83373000D01*
G75*
G02*
X165550000Y-83323000I0J50000D01*
G01*
G37*
G04 #@! TD*
G04 #@! TO.C,D27*
G36*
G01*
X165550000Y-76719000D02*
X165550000Y-74919000D01*
G75*
G02*
X165600000Y-74869000I50000J0D01*
G01*
X167400000Y-74869000D01*
G75*
G02*
X167450000Y-74919000I0J-50000D01*
G01*
X167450000Y-76719000D01*
G75*
G02*
X167400000Y-76769000I-50000J0D01*
G01*
X165600000Y-76769000D01*
G75*
G02*
X165550000Y-76719000I0J50000D01*
G01*
G37*
X169040000Y-75819000D03*
G04 #@! TD*
D11*
G04 #@! TO.C,F1*
X122555000Y-131826000D03*
X100055000Y-131826000D03*
D14*
X111305000Y-131826000D03*
G04 #@! TD*
D15*
G04 #@! TO.C,H1*
X169040000Y-132000000D03*
G04 #@! TD*
G04 #@! TO.C,H2*
X80000000Y-132000000D03*
G04 #@! TD*
G04 #@! TO.C,H3*
X80000000Y-67000000D03*
G04 #@! TD*
G04 #@! TO.C,H4*
X169040000Y-67000000D03*
G04 #@! TD*
G04 #@! TO.C,J1*
G36*
G01*
X79350000Y-79618000D02*
X79350000Y-78878000D01*
G75*
G02*
X79400000Y-78828000I50000J0D01*
G01*
X81800000Y-78828000D01*
G75*
G02*
X81850000Y-78878000I0J-50000D01*
G01*
X81850000Y-79618000D01*
G75*
G02*
X81800000Y-79668000I-50000J0D01*
G01*
X79400000Y-79668000D01*
G75*
G02*
X79350000Y-79618000I0J50000D01*
G01*
G37*
G36*
G01*
X83250000Y-79618000D02*
X83250000Y-78878000D01*
G75*
G02*
X83300000Y-78828000I50000J0D01*
G01*
X85700000Y-78828000D01*
G75*
G02*
X85750000Y-78878000I0J-50000D01*
G01*
X85750000Y-79618000D01*
G75*
G02*
X85700000Y-79668000I-50000J0D01*
G01*
X83300000Y-79668000D01*
G75*
G02*
X83250000Y-79618000I0J50000D01*
G01*
G37*
G36*
G01*
X79350000Y-80888000D02*
X79350000Y-80148000D01*
G75*
G02*
X79400000Y-80098000I50000J0D01*
G01*
X81800000Y-80098000D01*
G75*
G02*
X81850000Y-80148000I0J-50000D01*
G01*
X81850000Y-80888000D01*
G75*
G02*
X81800000Y-80938000I-50000J0D01*
G01*
X79400000Y-80938000D01*
G75*
G02*
X79350000Y-80888000I0J50000D01*
G01*
G37*
G36*
G01*
X83250000Y-80888000D02*
X83250000Y-80148000D01*
G75*
G02*
X83300000Y-80098000I50000J0D01*
G01*
X85700000Y-80098000D01*
G75*
G02*
X85750000Y-80148000I0J-50000D01*
G01*
X85750000Y-80888000D01*
G75*
G02*
X85700000Y-80938000I-50000J0D01*
G01*
X83300000Y-80938000D01*
G75*
G02*
X83250000Y-80888000I0J50000D01*
G01*
G37*
G36*
G01*
X79350000Y-82158000D02*
X79350000Y-81418000D01*
G75*
G02*
X79400000Y-81368000I50000J0D01*
G01*
X81800000Y-81368000D01*
G75*
G02*
X81850000Y-81418000I0J-50000D01*
G01*
X81850000Y-82158000D01*
G75*
G02*
X81800000Y-82208000I-50000J0D01*
G01*
X79400000Y-82208000D01*
G75*
G02*
X79350000Y-82158000I0J50000D01*
G01*
G37*
G36*
G01*
X83250000Y-82158000D02*
X83250000Y-81418000D01*
G75*
G02*
X83300000Y-81368000I50000J0D01*
G01*
X85700000Y-81368000D01*
G75*
G02*
X85750000Y-81418000I0J-50000D01*
G01*
X85750000Y-82158000D01*
G75*
G02*
X85700000Y-82208000I-50000J0D01*
G01*
X83300000Y-82208000D01*
G75*
G02*
X83250000Y-82158000I0J50000D01*
G01*
G37*
G36*
G01*
X79350000Y-83428000D02*
X79350000Y-82688000D01*
G75*
G02*
X79400000Y-82638000I50000J0D01*
G01*
X81800000Y-82638000D01*
G75*
G02*
X81850000Y-82688000I0J-50000D01*
G01*
X81850000Y-83428000D01*
G75*
G02*
X81800000Y-83478000I-50000J0D01*
G01*
X79400000Y-83478000D01*
G75*
G02*
X79350000Y-83428000I0J50000D01*
G01*
G37*
G36*
G01*
X83250000Y-83428000D02*
X83250000Y-82688000D01*
G75*
G02*
X83300000Y-82638000I50000J0D01*
G01*
X85700000Y-82638000D01*
G75*
G02*
X85750000Y-82688000I0J-50000D01*
G01*
X85750000Y-83428000D01*
G75*
G02*
X85700000Y-83478000I-50000J0D01*
G01*
X83300000Y-83478000D01*
G75*
G02*
X83250000Y-83428000I0J50000D01*
G01*
G37*
G36*
G01*
X79350000Y-84698000D02*
X79350000Y-83958000D01*
G75*
G02*
X79400000Y-83908000I50000J0D01*
G01*
X81800000Y-83908000D01*
G75*
G02*
X81850000Y-83958000I0J-50000D01*
G01*
X81850000Y-84698000D01*
G75*
G02*
X81800000Y-84748000I-50000J0D01*
G01*
X79400000Y-84748000D01*
G75*
G02*
X79350000Y-84698000I0J50000D01*
G01*
G37*
G36*
G01*
X83250000Y-84698000D02*
X83250000Y-83958000D01*
G75*
G02*
X83300000Y-83908000I50000J0D01*
G01*
X85700000Y-83908000D01*
G75*
G02*
X85750000Y-83958000I0J-50000D01*
G01*
X85750000Y-84698000D01*
G75*
G02*
X85700000Y-84748000I-50000J0D01*
G01*
X83300000Y-84748000D01*
G75*
G02*
X83250000Y-84698000I0J50000D01*
G01*
G37*
G04 #@! TD*
G04 #@! TO.C,PS1*
G36*
G01*
X139353000Y-122063000D02*
X139353000Y-124063000D01*
G75*
G02*
X139303000Y-124113000I-50000J0D01*
G01*
X137303000Y-124113000D01*
G75*
G02*
X137253000Y-124063000I0J50000D01*
G01*
X137253000Y-122063000D01*
G75*
G02*
X137303000Y-122013000I50000J0D01*
G01*
X139303000Y-122013000D01*
G75*
G02*
X139353000Y-122063000I0J-50000D01*
G01*
G37*
D16*
X134403000Y-123063000D03*
X143273000Y-102303000D03*
X154703000Y-102303000D03*
X133113000Y-102303000D03*
G04 #@! TD*
G04 #@! TO.C,R12*
G36*
G01*
X86478500Y-73861000D02*
X87003500Y-73861000D01*
G75*
G02*
X87266000Y-74123500I0J-262500D01*
G01*
X87266000Y-74673500D01*
G75*
G02*
X87003500Y-74936000I-262500J0D01*
G01*
X86478500Y-74936000D01*
G75*
G02*
X86216000Y-74673500I0J262500D01*
G01*
X86216000Y-74123500D01*
G75*
G02*
X86478500Y-73861000I262500J0D01*
G01*
G37*
G36*
G01*
X86478500Y-75686000D02*
X87003500Y-75686000D01*
G75*
G02*
X87266000Y-75948500I0J-262500D01*
G01*
X87266000Y-76498500D01*
G75*
G02*
X87003500Y-76761000I-262500J0D01*
G01*
X86478500Y-76761000D01*
G75*
G02*
X86216000Y-76498500I0J262500D01*
G01*
X86216000Y-75948500D01*
G75*
G02*
X86478500Y-75686000I262500J0D01*
G01*
G37*
G04 #@! TD*
D17*
G04 #@! TO.C,R34*
X159639000Y-134366000D03*
D18*
X144399000Y-134366000D03*
G04 #@! TD*
G04 #@! TO.C,R35*
X159639000Y-128778000D03*
D17*
X144399000Y-128778000D03*
G04 #@! TD*
G04 #@! TO.C,R17*
G36*
G01*
X84446500Y-75662500D02*
X84971500Y-75662500D01*
G75*
G02*
X85234000Y-75925000I0J-262500D01*
G01*
X85234000Y-76475000D01*
G75*
G02*
X84971500Y-76737500I-262500J0D01*
G01*
X84446500Y-76737500D01*
G75*
G02*
X84184000Y-76475000I0J262500D01*
G01*
X84184000Y-75925000D01*
G75*
G02*
X84446500Y-75662500I262500J0D01*
G01*
G37*
G36*
G01*
X84446500Y-73837500D02*
X84971500Y-73837500D01*
G75*
G02*
X85234000Y-74100000I0J-262500D01*
G01*
X85234000Y-74650000D01*
G75*
G02*
X84971500Y-74912500I-262500J0D01*
G01*
X84446500Y-74912500D01*
G75*
G02*
X84184000Y-74650000I0J262500D01*
G01*
X84184000Y-74100000D01*
G75*
G02*
X84446500Y-73837500I262500J0D01*
G01*
G37*
G04 #@! TD*
G04 #@! TO.C,R8*
G36*
G01*
X77080500Y-90521500D02*
X77605500Y-90521500D01*
G75*
G02*
X77868000Y-90784000I0J-262500D01*
G01*
X77868000Y-91334000D01*
G75*
G02*
X77605500Y-91596500I-262500J0D01*
G01*
X77080500Y-91596500D01*
G75*
G02*
X76818000Y-91334000I0J262500D01*
G01*
X76818000Y-90784000D01*
G75*
G02*
X77080500Y-90521500I262500J0D01*
G01*
G37*
G36*
G01*
X77080500Y-92346500D02*
X77605500Y-92346500D01*
G75*
G02*
X77868000Y-92609000I0J-262500D01*
G01*
X77868000Y-93159000D01*
G75*
G02*
X77605500Y-93421500I-262500J0D01*
G01*
X77080500Y-93421500D01*
G75*
G02*
X76818000Y-93159000I0J262500D01*
G01*
X76818000Y-92609000D01*
G75*
G02*
X77080500Y-92346500I262500J0D01*
G01*
G37*
G04 #@! TD*
G04 #@! TO.C,R9*
G36*
G01*
X79637500Y-91573000D02*
X79112500Y-91573000D01*
G75*
G02*
X78850000Y-91310500I0J262500D01*
G01*
X78850000Y-90760500D01*
G75*
G02*
X79112500Y-90498000I262500J0D01*
G01*
X79637500Y-90498000D01*
G75*
G02*
X79900000Y-90760500I0J-262500D01*
G01*
X79900000Y-91310500D01*
G75*
G02*
X79637500Y-91573000I-262500J0D01*
G01*
G37*
G36*
G01*
X79637500Y-93398000D02*
X79112500Y-93398000D01*
G75*
G02*
X78850000Y-93135500I0J262500D01*
G01*
X78850000Y-92585500D01*
G75*
G02*
X79112500Y-92323000I262500J0D01*
G01*
X79637500Y-92323000D01*
G75*
G02*
X79900000Y-92585500I0J-262500D01*
G01*
X79900000Y-93135500D01*
G75*
G02*
X79637500Y-93398000I-262500J0D01*
G01*
G37*
G04 #@! TD*
G04 #@! TO.C,R20*
G36*
G01*
X77478500Y-118116000D02*
X76953500Y-118116000D01*
G75*
G02*
X76691000Y-117853500I0J262500D01*
G01*
X76691000Y-117303500D01*
G75*
G02*
X76953500Y-117041000I262500J0D01*
G01*
X77478500Y-117041000D01*
G75*
G02*
X77741000Y-117303500I0J-262500D01*
G01*
X77741000Y-117853500D01*
G75*
G02*
X77478500Y-118116000I-262500J0D01*
G01*
G37*
G36*
G01*
X77478500Y-119941000D02*
X76953500Y-119941000D01*
G75*
G02*
X76691000Y-119678500I0J262500D01*
G01*
X76691000Y-119128500D01*
G75*
G02*
X76953500Y-118866000I262500J0D01*
G01*
X77478500Y-118866000D01*
G75*
G02*
X77741000Y-119128500I0J-262500D01*
G01*
X77741000Y-119678500D01*
G75*
G02*
X77478500Y-119941000I-262500J0D01*
G01*
G37*
G04 #@! TD*
G04 #@! TO.C,R24*
G36*
G01*
X77478500Y-106883500D02*
X76953500Y-106883500D01*
G75*
G02*
X76691000Y-106621000I0J262500D01*
G01*
X76691000Y-106071000D01*
G75*
G02*
X76953500Y-105808500I262500J0D01*
G01*
X77478500Y-105808500D01*
G75*
G02*
X77741000Y-106071000I0J-262500D01*
G01*
X77741000Y-106621000D01*
G75*
G02*
X77478500Y-106883500I-262500J0D01*
G01*
G37*
G36*
G01*
X77478500Y-105058500D02*
X76953500Y-105058500D01*
G75*
G02*
X76691000Y-104796000I0J262500D01*
G01*
X76691000Y-104246000D01*
G75*
G02*
X76953500Y-103983500I262500J0D01*
G01*
X77478500Y-103983500D01*
G75*
G02*
X77741000Y-104246000I0J-262500D01*
G01*
X77741000Y-104796000D01*
G75*
G02*
X77478500Y-105058500I-262500J0D01*
G01*
G37*
G04 #@! TD*
G04 #@! TO.C,R28*
G36*
G01*
X92210500Y-118092500D02*
X91685500Y-118092500D01*
G75*
G02*
X91423000Y-117830000I0J262500D01*
G01*
X91423000Y-117280000D01*
G75*
G02*
X91685500Y-117017500I262500J0D01*
G01*
X92210500Y-117017500D01*
G75*
G02*
X92473000Y-117280000I0J-262500D01*
G01*
X92473000Y-117830000D01*
G75*
G02*
X92210500Y-118092500I-262500J0D01*
G01*
G37*
G36*
G01*
X92210500Y-119917500D02*
X91685500Y-119917500D01*
G75*
G02*
X91423000Y-119655000I0J262500D01*
G01*
X91423000Y-119105000D01*
G75*
G02*
X91685500Y-118842500I262500J0D01*
G01*
X92210500Y-118842500D01*
G75*
G02*
X92473000Y-119105000I0J-262500D01*
G01*
X92473000Y-119655000D01*
G75*
G02*
X92210500Y-119917500I-262500J0D01*
G01*
G37*
G04 #@! TD*
G04 #@! TO.C,R32*
G36*
G01*
X92210500Y-105138500D02*
X91685500Y-105138500D01*
G75*
G02*
X91423000Y-104876000I0J262500D01*
G01*
X91423000Y-104326000D01*
G75*
G02*
X91685500Y-104063500I262500J0D01*
G01*
X92210500Y-104063500D01*
G75*
G02*
X92473000Y-104326000I0J-262500D01*
G01*
X92473000Y-104876000D01*
G75*
G02*
X92210500Y-105138500I-262500J0D01*
G01*
G37*
G36*
G01*
X92210500Y-106963500D02*
X91685500Y-106963500D01*
G75*
G02*
X91423000Y-106701000I0J262500D01*
G01*
X91423000Y-106151000D01*
G75*
G02*
X91685500Y-105888500I262500J0D01*
G01*
X92210500Y-105888500D01*
G75*
G02*
X92473000Y-106151000I0J-262500D01*
G01*
X92473000Y-106701000D01*
G75*
G02*
X92210500Y-106963500I-262500J0D01*
G01*
G37*
G04 #@! TD*
G04 #@! TO.C,R22*
G36*
G01*
X77478500Y-111615500D02*
X76953500Y-111615500D01*
G75*
G02*
X76691000Y-111353000I0J262500D01*
G01*
X76691000Y-110803000D01*
G75*
G02*
X76953500Y-110540500I262500J0D01*
G01*
X77478500Y-110540500D01*
G75*
G02*
X77741000Y-110803000I0J-262500D01*
G01*
X77741000Y-111353000D01*
G75*
G02*
X77478500Y-111615500I-262500J0D01*
G01*
G37*
G36*
G01*
X77478500Y-113440500D02*
X76953500Y-113440500D01*
G75*
G02*
X76691000Y-113178000I0J262500D01*
G01*
X76691000Y-112628000D01*
G75*
G02*
X76953500Y-112365500I262500J0D01*
G01*
X77478500Y-112365500D01*
G75*
G02*
X77741000Y-112628000I0J-262500D01*
G01*
X77741000Y-113178000D01*
G75*
G02*
X77478500Y-113440500I-262500J0D01*
G01*
G37*
G04 #@! TD*
G04 #@! TO.C,R26*
G36*
G01*
X77478500Y-100486500D02*
X76953500Y-100486500D01*
G75*
G02*
X76691000Y-100224000I0J262500D01*
G01*
X76691000Y-99674000D01*
G75*
G02*
X76953500Y-99411500I262500J0D01*
G01*
X77478500Y-99411500D01*
G75*
G02*
X77741000Y-99674000I0J-262500D01*
G01*
X77741000Y-100224000D01*
G75*
G02*
X77478500Y-100486500I-262500J0D01*
G01*
G37*
G36*
G01*
X77478500Y-98661500D02*
X76953500Y-98661500D01*
G75*
G02*
X76691000Y-98399000I0J262500D01*
G01*
X76691000Y-97849000D01*
G75*
G02*
X76953500Y-97586500I262500J0D01*
G01*
X77478500Y-97586500D01*
G75*
G02*
X77741000Y-97849000I0J-262500D01*
G01*
X77741000Y-98399000D01*
G75*
G02*
X77478500Y-98661500I-262500J0D01*
G01*
G37*
G04 #@! TD*
G04 #@! TO.C,R30*
G36*
G01*
X92210500Y-113440500D02*
X91685500Y-113440500D01*
G75*
G02*
X91423000Y-113178000I0J262500D01*
G01*
X91423000Y-112628000D01*
G75*
G02*
X91685500Y-112365500I262500J0D01*
G01*
X92210500Y-112365500D01*
G75*
G02*
X92473000Y-112628000I0J-262500D01*
G01*
X92473000Y-113178000D01*
G75*
G02*
X92210500Y-113440500I-262500J0D01*
G01*
G37*
G36*
G01*
X92210500Y-111615500D02*
X91685500Y-111615500D01*
G75*
G02*
X91423000Y-111353000I0J262500D01*
G01*
X91423000Y-110803000D01*
G75*
G02*
X91685500Y-110540500I262500J0D01*
G01*
X92210500Y-110540500D01*
G75*
G02*
X92473000Y-110803000I0J-262500D01*
G01*
X92473000Y-111353000D01*
G75*
G02*
X92210500Y-111615500I-262500J0D01*
G01*
G37*
G04 #@! TD*
G04 #@! TO.C,R33*
G36*
G01*
X96909500Y-119964500D02*
X96384500Y-119964500D01*
G75*
G02*
X96122000Y-119702000I0J262500D01*
G01*
X96122000Y-119152000D01*
G75*
G02*
X96384500Y-118889500I262500J0D01*
G01*
X96909500Y-118889500D01*
G75*
G02*
X97172000Y-119152000I0J-262500D01*
G01*
X97172000Y-119702000D01*
G75*
G02*
X96909500Y-119964500I-262500J0D01*
G01*
G37*
G36*
G01*
X96909500Y-118139500D02*
X96384500Y-118139500D01*
G75*
G02*
X96122000Y-117877000I0J262500D01*
G01*
X96122000Y-117327000D01*
G75*
G02*
X96384500Y-117064500I262500J0D01*
G01*
X96909500Y-117064500D01*
G75*
G02*
X97172000Y-117327000I0J-262500D01*
G01*
X97172000Y-117877000D01*
G75*
G02*
X96909500Y-118139500I-262500J0D01*
G01*
G37*
G04 #@! TD*
G04 #@! TO.C,R1*
G36*
G01*
X163584500Y-124696500D02*
X163059500Y-124696500D01*
G75*
G02*
X162797000Y-124434000I0J262500D01*
G01*
X162797000Y-123884000D01*
G75*
G02*
X163059500Y-123621500I262500J0D01*
G01*
X163584500Y-123621500D01*
G75*
G02*
X163847000Y-123884000I0J-262500D01*
G01*
X163847000Y-124434000D01*
G75*
G02*
X163584500Y-124696500I-262500J0D01*
G01*
G37*
G36*
G01*
X163584500Y-126521500D02*
X163059500Y-126521500D01*
G75*
G02*
X162797000Y-126259000I0J262500D01*
G01*
X162797000Y-125709000D01*
G75*
G02*
X163059500Y-125446500I262500J0D01*
G01*
X163584500Y-125446500D01*
G75*
G02*
X163847000Y-125709000I0J-262500D01*
G01*
X163847000Y-126259000D01*
G75*
G02*
X163584500Y-126521500I-262500J0D01*
G01*
G37*
G04 #@! TD*
G04 #@! TO.C,R3*
G36*
G01*
X161933500Y-94724500D02*
X161408500Y-94724500D01*
G75*
G02*
X161146000Y-94462000I0J262500D01*
G01*
X161146000Y-93912000D01*
G75*
G02*
X161408500Y-93649500I262500J0D01*
G01*
X161933500Y-93649500D01*
G75*
G02*
X162196000Y-93912000I0J-262500D01*
G01*
X162196000Y-94462000D01*
G75*
G02*
X161933500Y-94724500I-262500J0D01*
G01*
G37*
G36*
G01*
X161933500Y-96549500D02*
X161408500Y-96549500D01*
G75*
G02*
X161146000Y-96287000I0J262500D01*
G01*
X161146000Y-95737000D01*
G75*
G02*
X161408500Y-95474500I262500J0D01*
G01*
X161933500Y-95474500D01*
G75*
G02*
X162196000Y-95737000I0J-262500D01*
G01*
X162196000Y-96287000D01*
G75*
G02*
X161933500Y-96549500I-262500J0D01*
G01*
G37*
G04 #@! TD*
G04 #@! TO.C,R5*
G36*
G01*
X172220500Y-118092500D02*
X171695500Y-118092500D01*
G75*
G02*
X171433000Y-117830000I0J262500D01*
G01*
X171433000Y-117280000D01*
G75*
G02*
X171695500Y-117017500I262500J0D01*
G01*
X172220500Y-117017500D01*
G75*
G02*
X172483000Y-117280000I0J-262500D01*
G01*
X172483000Y-117830000D01*
G75*
G02*
X172220500Y-118092500I-262500J0D01*
G01*
G37*
G36*
G01*
X172220500Y-119917500D02*
X171695500Y-119917500D01*
G75*
G02*
X171433000Y-119655000I0J262500D01*
G01*
X171433000Y-119105000D01*
G75*
G02*
X171695500Y-118842500I262500J0D01*
G01*
X172220500Y-118842500D01*
G75*
G02*
X172483000Y-119105000I0J-262500D01*
G01*
X172483000Y-119655000D01*
G75*
G02*
X172220500Y-119917500I-262500J0D01*
G01*
G37*
G04 #@! TD*
G04 #@! TO.C,R2*
G36*
G01*
X165743500Y-124720000D02*
X165218500Y-124720000D01*
G75*
G02*
X164956000Y-124457500I0J262500D01*
G01*
X164956000Y-123907500D01*
G75*
G02*
X165218500Y-123645000I262500J0D01*
G01*
X165743500Y-123645000D01*
G75*
G02*
X166006000Y-123907500I0J-262500D01*
G01*
X166006000Y-124457500D01*
G75*
G02*
X165743500Y-124720000I-262500J0D01*
G01*
G37*
G36*
G01*
X165743500Y-126545000D02*
X165218500Y-126545000D01*
G75*
G02*
X164956000Y-126282500I0J262500D01*
G01*
X164956000Y-125732500D01*
G75*
G02*
X165218500Y-125470000I262500J0D01*
G01*
X165743500Y-125470000D01*
G75*
G02*
X166006000Y-125732500I0J-262500D01*
G01*
X166006000Y-126282500D01*
G75*
G02*
X165743500Y-126545000I-262500J0D01*
G01*
G37*
G04 #@! TD*
G04 #@! TO.C,R4*
G36*
G01*
X163457500Y-96549500D02*
X162932500Y-96549500D01*
G75*
G02*
X162670000Y-96287000I0J262500D01*
G01*
X162670000Y-95737000D01*
G75*
G02*
X162932500Y-95474500I262500J0D01*
G01*
X163457500Y-95474500D01*
G75*
G02*
X163720000Y-95737000I0J-262500D01*
G01*
X163720000Y-96287000D01*
G75*
G02*
X163457500Y-96549500I-262500J0D01*
G01*
G37*
G36*
G01*
X163457500Y-94724500D02*
X162932500Y-94724500D01*
G75*
G02*
X162670000Y-94462000I0J262500D01*
G01*
X162670000Y-93912000D01*
G75*
G02*
X162932500Y-93649500I262500J0D01*
G01*
X163457500Y-93649500D01*
G75*
G02*
X163720000Y-93912000I0J-262500D01*
G01*
X163720000Y-94462000D01*
G75*
G02*
X163457500Y-94724500I-262500J0D01*
G01*
G37*
G04 #@! TD*
G04 #@! TO.C,R10*
G36*
G01*
X96909500Y-113487500D02*
X96384500Y-113487500D01*
G75*
G02*
X96122000Y-113225000I0J262500D01*
G01*
X96122000Y-112675000D01*
G75*
G02*
X96384500Y-112412500I262500J0D01*
G01*
X96909500Y-112412500D01*
G75*
G02*
X97172000Y-112675000I0J-262500D01*
G01*
X97172000Y-113225000D01*
G75*
G02*
X96909500Y-113487500I-262500J0D01*
G01*
G37*
G36*
G01*
X96909500Y-111662500D02*
X96384500Y-111662500D01*
G75*
G02*
X96122000Y-111400000I0J262500D01*
G01*
X96122000Y-110850000D01*
G75*
G02*
X96384500Y-110587500I262500J0D01*
G01*
X96909500Y-110587500D01*
G75*
G02*
X97172000Y-110850000I0J-262500D01*
G01*
X97172000Y-111400000D01*
G75*
G02*
X96909500Y-111662500I-262500J0D01*
G01*
G37*
G04 #@! TD*
G04 #@! TO.C,R13*
G36*
G01*
X96909500Y-98581500D02*
X96384500Y-98581500D01*
G75*
G02*
X96122000Y-98319000I0J262500D01*
G01*
X96122000Y-97769000D01*
G75*
G02*
X96384500Y-97506500I262500J0D01*
G01*
X96909500Y-97506500D01*
G75*
G02*
X97172000Y-97769000I0J-262500D01*
G01*
X97172000Y-98319000D01*
G75*
G02*
X96909500Y-98581500I-262500J0D01*
G01*
G37*
G36*
G01*
X96909500Y-100406500D02*
X96384500Y-100406500D01*
G75*
G02*
X96122000Y-100144000I0J262500D01*
G01*
X96122000Y-99594000D01*
G75*
G02*
X96384500Y-99331500I262500J0D01*
G01*
X96909500Y-99331500D01*
G75*
G02*
X97172000Y-99594000I0J-262500D01*
G01*
X97172000Y-100144000D01*
G75*
G02*
X96909500Y-100406500I-262500J0D01*
G01*
G37*
G04 #@! TD*
G04 #@! TO.C,R15*
G36*
G01*
X111641500Y-111639000D02*
X111116500Y-111639000D01*
G75*
G02*
X110854000Y-111376500I0J262500D01*
G01*
X110854000Y-110826500D01*
G75*
G02*
X111116500Y-110564000I262500J0D01*
G01*
X111641500Y-110564000D01*
G75*
G02*
X111904000Y-110826500I0J-262500D01*
G01*
X111904000Y-111376500D01*
G75*
G02*
X111641500Y-111639000I-262500J0D01*
G01*
G37*
G36*
G01*
X111641500Y-113464000D02*
X111116500Y-113464000D01*
G75*
G02*
X110854000Y-113201500I0J262500D01*
G01*
X110854000Y-112651500D01*
G75*
G02*
X111116500Y-112389000I262500J0D01*
G01*
X111641500Y-112389000D01*
G75*
G02*
X111904000Y-112651500I0J-262500D01*
G01*
X111904000Y-113201500D01*
G75*
G02*
X111641500Y-113464000I-262500J0D01*
G01*
G37*
G04 #@! TD*
G04 #@! TO.C,R18*
G36*
G01*
X116467500Y-118139500D02*
X115942500Y-118139500D01*
G75*
G02*
X115680000Y-117877000I0J262500D01*
G01*
X115680000Y-117327000D01*
G75*
G02*
X115942500Y-117064500I262500J0D01*
G01*
X116467500Y-117064500D01*
G75*
G02*
X116730000Y-117327000I0J-262500D01*
G01*
X116730000Y-117877000D01*
G75*
G02*
X116467500Y-118139500I-262500J0D01*
G01*
G37*
G36*
G01*
X116467500Y-119964500D02*
X115942500Y-119964500D01*
G75*
G02*
X115680000Y-119702000I0J262500D01*
G01*
X115680000Y-119152000D01*
G75*
G02*
X115942500Y-118889500I262500J0D01*
G01*
X116467500Y-118889500D01*
G75*
G02*
X116730000Y-119152000I0J-262500D01*
G01*
X116730000Y-119702000D01*
G75*
G02*
X116467500Y-119964500I-262500J0D01*
G01*
G37*
G04 #@! TD*
G04 #@! TO.C,R21*
G36*
G01*
X116467500Y-106963500D02*
X115942500Y-106963500D01*
G75*
G02*
X115680000Y-106701000I0J262500D01*
G01*
X115680000Y-106151000D01*
G75*
G02*
X115942500Y-105888500I262500J0D01*
G01*
X116467500Y-105888500D01*
G75*
G02*
X116730000Y-106151000I0J-262500D01*
G01*
X116730000Y-106701000D01*
G75*
G02*
X116467500Y-106963500I-262500J0D01*
G01*
G37*
G36*
G01*
X116467500Y-105138500D02*
X115942500Y-105138500D01*
G75*
G02*
X115680000Y-104876000I0J262500D01*
G01*
X115680000Y-104326000D01*
G75*
G02*
X115942500Y-104063500I262500J0D01*
G01*
X116467500Y-104063500D01*
G75*
G02*
X116730000Y-104326000I0J-262500D01*
G01*
X116730000Y-104876000D01*
G75*
G02*
X116467500Y-105138500I-262500J0D01*
G01*
G37*
G04 #@! TD*
G04 #@! TO.C,R25*
G36*
G01*
X125594500Y-108809500D02*
X126119500Y-108809500D01*
G75*
G02*
X126382000Y-109072000I0J-262500D01*
G01*
X126382000Y-109622000D01*
G75*
G02*
X126119500Y-109884500I-262500J0D01*
G01*
X125594500Y-109884500D01*
G75*
G02*
X125332000Y-109622000I0J262500D01*
G01*
X125332000Y-109072000D01*
G75*
G02*
X125594500Y-108809500I262500J0D01*
G01*
G37*
G36*
G01*
X125594500Y-106984500D02*
X126119500Y-106984500D01*
G75*
G02*
X126382000Y-107247000I0J-262500D01*
G01*
X126382000Y-107797000D01*
G75*
G02*
X126119500Y-108059500I-262500J0D01*
G01*
X125594500Y-108059500D01*
G75*
G02*
X125332000Y-107797000I0J262500D01*
G01*
X125332000Y-107247000D01*
G75*
G02*
X125594500Y-106984500I262500J0D01*
G01*
G37*
G04 #@! TD*
G04 #@! TO.C,R11*
G36*
G01*
X96909500Y-106987000D02*
X96384500Y-106987000D01*
G75*
G02*
X96122000Y-106724500I0J262500D01*
G01*
X96122000Y-106174500D01*
G75*
G02*
X96384500Y-105912000I262500J0D01*
G01*
X96909500Y-105912000D01*
G75*
G02*
X97172000Y-106174500I0J-262500D01*
G01*
X97172000Y-106724500D01*
G75*
G02*
X96909500Y-106987000I-262500J0D01*
G01*
G37*
G36*
G01*
X96909500Y-105162000D02*
X96384500Y-105162000D01*
G75*
G02*
X96122000Y-104899500I0J262500D01*
G01*
X96122000Y-104349500D01*
G75*
G02*
X96384500Y-104087000I262500J0D01*
G01*
X96909500Y-104087000D01*
G75*
G02*
X97172000Y-104349500I0J-262500D01*
G01*
X97172000Y-104899500D01*
G75*
G02*
X96909500Y-105162000I-262500J0D01*
G01*
G37*
G04 #@! TD*
G04 #@! TO.C,R14*
G36*
G01*
X111641500Y-119964500D02*
X111116500Y-119964500D01*
G75*
G02*
X110854000Y-119702000I0J262500D01*
G01*
X110854000Y-119152000D01*
G75*
G02*
X111116500Y-118889500I262500J0D01*
G01*
X111641500Y-118889500D01*
G75*
G02*
X111904000Y-119152000I0J-262500D01*
G01*
X111904000Y-119702000D01*
G75*
G02*
X111641500Y-119964500I-262500J0D01*
G01*
G37*
G36*
G01*
X111641500Y-118139500D02*
X111116500Y-118139500D01*
G75*
G02*
X110854000Y-117877000I0J262500D01*
G01*
X110854000Y-117327000D01*
G75*
G02*
X111116500Y-117064500I262500J0D01*
G01*
X111641500Y-117064500D01*
G75*
G02*
X111904000Y-117327000I0J-262500D01*
G01*
X111904000Y-117877000D01*
G75*
G02*
X111641500Y-118139500I-262500J0D01*
G01*
G37*
G04 #@! TD*
G04 #@! TO.C,R19*
G36*
G01*
X116467500Y-113487500D02*
X115942500Y-113487500D01*
G75*
G02*
X115680000Y-113225000I0J262500D01*
G01*
X115680000Y-112675000D01*
G75*
G02*
X115942500Y-112412500I262500J0D01*
G01*
X116467500Y-112412500D01*
G75*
G02*
X116730000Y-112675000I0J-262500D01*
G01*
X116730000Y-113225000D01*
G75*
G02*
X116467500Y-113487500I-262500J0D01*
G01*
G37*
G36*
G01*
X116467500Y-111662500D02*
X115942500Y-111662500D01*
G75*
G02*
X115680000Y-111400000I0J262500D01*
G01*
X115680000Y-110850000D01*
G75*
G02*
X115942500Y-110587500I262500J0D01*
G01*
X116467500Y-110587500D01*
G75*
G02*
X116730000Y-110850000I0J-262500D01*
G01*
X116730000Y-111400000D01*
G75*
G02*
X116467500Y-111662500I-262500J0D01*
G01*
G37*
G04 #@! TD*
G04 #@! TO.C,R23*
G36*
G01*
X116467500Y-100406500D02*
X115942500Y-100406500D01*
G75*
G02*
X115680000Y-100144000I0J262500D01*
G01*
X115680000Y-99594000D01*
G75*
G02*
X115942500Y-99331500I262500J0D01*
G01*
X116467500Y-99331500D01*
G75*
G02*
X116730000Y-99594000I0J-262500D01*
G01*
X116730000Y-100144000D01*
G75*
G02*
X116467500Y-100406500I-262500J0D01*
G01*
G37*
G36*
G01*
X116467500Y-98581500D02*
X115942500Y-98581500D01*
G75*
G02*
X115680000Y-98319000I0J262500D01*
G01*
X115680000Y-97769000D01*
G75*
G02*
X115942500Y-97506500I262500J0D01*
G01*
X116467500Y-97506500D01*
G75*
G02*
X116730000Y-97769000I0J-262500D01*
G01*
X116730000Y-98319000D01*
G75*
G02*
X116467500Y-98581500I-262500J0D01*
G01*
G37*
G04 #@! TD*
G04 #@! TO.C,R27*
G36*
G01*
X127372500Y-106984500D02*
X127897500Y-106984500D01*
G75*
G02*
X128160000Y-107247000I0J-262500D01*
G01*
X128160000Y-107797000D01*
G75*
G02*
X127897500Y-108059500I-262500J0D01*
G01*
X127372500Y-108059500D01*
G75*
G02*
X127110000Y-107797000I0J262500D01*
G01*
X127110000Y-107247000D01*
G75*
G02*
X127372500Y-106984500I262500J0D01*
G01*
G37*
G36*
G01*
X127372500Y-108809500D02*
X127897500Y-108809500D01*
G75*
G02*
X128160000Y-109072000I0J-262500D01*
G01*
X128160000Y-109622000D01*
G75*
G02*
X127897500Y-109884500I-262500J0D01*
G01*
X127372500Y-109884500D01*
G75*
G02*
X127110000Y-109622000I0J262500D01*
G01*
X127110000Y-109072000D01*
G75*
G02*
X127372500Y-108809500I262500J0D01*
G01*
G37*
G04 #@! TD*
G04 #@! TO.C,R31*
G36*
G01*
X163965500Y-76944500D02*
X163440500Y-76944500D01*
G75*
G02*
X163178000Y-76682000I0J262500D01*
G01*
X163178000Y-76132000D01*
G75*
G02*
X163440500Y-75869500I262500J0D01*
G01*
X163965500Y-75869500D01*
G75*
G02*
X164228000Y-76132000I0J-262500D01*
G01*
X164228000Y-76682000D01*
G75*
G02*
X163965500Y-76944500I-262500J0D01*
G01*
G37*
G36*
G01*
X163965500Y-78769500D02*
X163440500Y-78769500D01*
G75*
G02*
X163178000Y-78507000I0J262500D01*
G01*
X163178000Y-77957000D01*
G75*
G02*
X163440500Y-77694500I262500J0D01*
G01*
X163965500Y-77694500D01*
G75*
G02*
X164228000Y-77957000I0J-262500D01*
G01*
X164228000Y-78507000D01*
G75*
G02*
X163965500Y-78769500I-262500J0D01*
G01*
G37*
G04 #@! TD*
D10*
G04 #@! TO.C,RV1*
X126238000Y-134366000D03*
X128938000Y-126866000D03*
G04 #@! TD*
G04 #@! TO.C,SW1*
G36*
G01*
X95751000Y-73748000D02*
X94351000Y-73748000D01*
G75*
G02*
X94301000Y-73698000I0J50000D01*
G01*
X94301000Y-72098000D01*
G75*
G02*
X94351000Y-72048000I50000J0D01*
G01*
X95751000Y-72048000D01*
G75*
G02*
X95801000Y-72098000I0J-50000D01*
G01*
X95801000Y-73698000D01*
G75*
G02*
X95751000Y-73748000I-50000J0D01*
G01*
G37*
G36*
G01*
X95751000Y-65748000D02*
X94351000Y-65748000D01*
G75*
G02*
X94301000Y-65698000I0J50000D01*
G01*
X94301000Y-64098000D01*
G75*
G02*
X94351000Y-64048000I50000J0D01*
G01*
X95751000Y-64048000D01*
G75*
G02*
X95801000Y-64098000I0J-50000D01*
G01*
X95801000Y-65698000D01*
G75*
G02*
X95751000Y-65748000I-50000J0D01*
G01*
G37*
G36*
G01*
X91251000Y-73748000D02*
X89851000Y-73748000D01*
G75*
G02*
X89801000Y-73698000I0J50000D01*
G01*
X89801000Y-72098000D01*
G75*
G02*
X89851000Y-72048000I50000J0D01*
G01*
X91251000Y-72048000D01*
G75*
G02*
X91301000Y-72098000I0J-50000D01*
G01*
X91301000Y-73698000D01*
G75*
G02*
X91251000Y-73748000I-50000J0D01*
G01*
G37*
G36*
G01*
X91251000Y-65748000D02*
X89851000Y-65748000D01*
G75*
G02*
X89801000Y-65698000I0J50000D01*
G01*
X89801000Y-64098000D01*
G75*
G02*
X89851000Y-64048000I50000J0D01*
G01*
X91251000Y-64048000D01*
G75*
G02*
X91301000Y-64098000I0J-50000D01*
G01*
X91301000Y-65698000D01*
G75*
G02*
X91251000Y-65748000I-50000J0D01*
G01*
G37*
G04 #@! TD*
D19*
G04 #@! TO.C,TH1*
X133985000Y-134493000D03*
D13*
X139065000Y-134493000D03*
G04 #@! TD*
G04 #@! TO.C,TH2*
X139065000Y-130175000D03*
D19*
X133985000Y-130175000D03*
G04 #@! TD*
D11*
G04 #@! TO.C,+5V*
X126365000Y-64008000D03*
G04 #@! TD*
G04 #@! TO.C,U7*
G36*
G01*
X82878000Y-92662000D02*
X82878000Y-93012000D01*
G75*
G02*
X82703000Y-93187000I-175000J0D01*
G01*
X81003000Y-93187000D01*
G75*
G02*
X80828000Y-93012000I0J175000D01*
G01*
X80828000Y-92662000D01*
G75*
G02*
X81003000Y-92487000I175000J0D01*
G01*
X82703000Y-92487000D01*
G75*
G02*
X82878000Y-92662000I0J-175000D01*
G01*
G37*
G36*
G01*
X82878000Y-91392000D02*
X82878000Y-91742000D01*
G75*
G02*
X82703000Y-91917000I-175000J0D01*
G01*
X81003000Y-91917000D01*
G75*
G02*
X80828000Y-91742000I0J175000D01*
G01*
X80828000Y-91392000D01*
G75*
G02*
X81003000Y-91217000I175000J0D01*
G01*
X82703000Y-91217000D01*
G75*
G02*
X82878000Y-91392000I0J-175000D01*
G01*
G37*
G36*
G01*
X82878000Y-90122000D02*
X82878000Y-90472000D01*
G75*
G02*
X82703000Y-90647000I-175000J0D01*
G01*
X81003000Y-90647000D01*
G75*
G02*
X80828000Y-90472000I0J175000D01*
G01*
X80828000Y-90122000D01*
G75*
G02*
X81003000Y-89947000I175000J0D01*
G01*
X82703000Y-89947000D01*
G75*
G02*
X82878000Y-90122000I0J-175000D01*
G01*
G37*
G36*
G01*
X82878000Y-88852000D02*
X82878000Y-89202000D01*
G75*
G02*
X82703000Y-89377000I-175000J0D01*
G01*
X81003000Y-89377000D01*
G75*
G02*
X80828000Y-89202000I0J175000D01*
G01*
X80828000Y-88852000D01*
G75*
G02*
X81003000Y-88677000I175000J0D01*
G01*
X82703000Y-88677000D01*
G75*
G02*
X82878000Y-88852000I0J-175000D01*
G01*
G37*
G36*
G01*
X87828000Y-88852000D02*
X87828000Y-89202000D01*
G75*
G02*
X87653000Y-89377000I-175000J0D01*
G01*
X85953000Y-89377000D01*
G75*
G02*
X85778000Y-89202000I0J175000D01*
G01*
X85778000Y-88852000D01*
G75*
G02*
X85953000Y-88677000I175000J0D01*
G01*
X87653000Y-88677000D01*
G75*
G02*
X87828000Y-88852000I0J-175000D01*
G01*
G37*
G36*
G01*
X87828000Y-90122000D02*
X87828000Y-90472000D01*
G75*
G02*
X87653000Y-90647000I-175000J0D01*
G01*
X85953000Y-90647000D01*
G75*
G02*
X85778000Y-90472000I0J175000D01*
G01*
X85778000Y-90122000D01*
G75*
G02*
X85953000Y-89947000I175000J0D01*
G01*
X87653000Y-89947000D01*
G75*
G02*
X87828000Y-90122000I0J-175000D01*
G01*
G37*
G36*
G01*
X87828000Y-91392000D02*
X87828000Y-91742000D01*
G75*
G02*
X87653000Y-91917000I-175000J0D01*
G01*
X85953000Y-91917000D01*
G75*
G02*
X85778000Y-91742000I0J175000D01*
G01*
X85778000Y-91392000D01*
G75*
G02*
X85953000Y-91217000I175000J0D01*
G01*
X87653000Y-91217000D01*
G75*
G02*
X87828000Y-91392000I0J-175000D01*
G01*
G37*
G36*
G01*
X87828000Y-92662000D02*
X87828000Y-93012000D01*
G75*
G02*
X87653000Y-93187000I-175000J0D01*
G01*
X85953000Y-93187000D01*
G75*
G02*
X85778000Y-93012000I0J175000D01*
G01*
X85778000Y-92662000D01*
G75*
G02*
X85953000Y-92487000I175000J0D01*
G01*
X87653000Y-92487000D01*
G75*
G02*
X87828000Y-92662000I0J-175000D01*
G01*
G37*
G04 #@! TD*
G04 #@! TO.C,U4*
G36*
G01*
X108989000Y-89121000D02*
X108989000Y-89321000D01*
G75*
G02*
X108889000Y-89421000I-100000J0D01*
G01*
X107439000Y-89421000D01*
G75*
G02*
X107339000Y-89321000I0J100000D01*
G01*
X107339000Y-89121000D01*
G75*
G02*
X107439000Y-89021000I100000J0D01*
G01*
X108889000Y-89021000D01*
G75*
G02*
X108989000Y-89121000I0J-100000D01*
G01*
G37*
G36*
G01*
X108989000Y-88621000D02*
X108989000Y-88821000D01*
G75*
G02*
X108889000Y-88921000I-100000J0D01*
G01*
X107439000Y-88921000D01*
G75*
G02*
X107339000Y-88821000I0J100000D01*
G01*
X107339000Y-88621000D01*
G75*
G02*
X107439000Y-88521000I100000J0D01*
G01*
X108889000Y-88521000D01*
G75*
G02*
X108989000Y-88621000I0J-100000D01*
G01*
G37*
G36*
G01*
X108989000Y-88121000D02*
X108989000Y-88321000D01*
G75*
G02*
X108889000Y-88421000I-100000J0D01*
G01*
X107439000Y-88421000D01*
G75*
G02*
X107339000Y-88321000I0J100000D01*
G01*
X107339000Y-88121000D01*
G75*
G02*
X107439000Y-88021000I100000J0D01*
G01*
X108889000Y-88021000D01*
G75*
G02*
X108989000Y-88121000I0J-100000D01*
G01*
G37*
G36*
G01*
X108989000Y-87621000D02*
X108989000Y-87821000D01*
G75*
G02*
X108889000Y-87921000I-100000J0D01*
G01*
X107439000Y-87921000D01*
G75*
G02*
X107339000Y-87821000I0J100000D01*
G01*
X107339000Y-87621000D01*
G75*
G02*
X107439000Y-87521000I100000J0D01*
G01*
X108889000Y-87521000D01*
G75*
G02*
X108989000Y-87621000I0J-100000D01*
G01*
G37*
G36*
G01*
X108989000Y-87121000D02*
X108989000Y-87321000D01*
G75*
G02*
X108889000Y-87421000I-100000J0D01*
G01*
X107439000Y-87421000D01*
G75*
G02*
X107339000Y-87321000I0J100000D01*
G01*
X107339000Y-87121000D01*
G75*
G02*
X107439000Y-87021000I100000J0D01*
G01*
X108889000Y-87021000D01*
G75*
G02*
X108989000Y-87121000I0J-100000D01*
G01*
G37*
G36*
G01*
X108989000Y-86621000D02*
X108989000Y-86821000D01*
G75*
G02*
X108889000Y-86921000I-100000J0D01*
G01*
X107439000Y-86921000D01*
G75*
G02*
X107339000Y-86821000I0J100000D01*
G01*
X107339000Y-86621000D01*
G75*
G02*
X107439000Y-86521000I100000J0D01*
G01*
X108889000Y-86521000D01*
G75*
G02*
X108989000Y-86621000I0J-100000D01*
G01*
G37*
G36*
G01*
X108989000Y-86121000D02*
X108989000Y-86321000D01*
G75*
G02*
X108889000Y-86421000I-100000J0D01*
G01*
X107439000Y-86421000D01*
G75*
G02*
X107339000Y-86321000I0J100000D01*
G01*
X107339000Y-86121000D01*
G75*
G02*
X107439000Y-86021000I100000J0D01*
G01*
X108889000Y-86021000D01*
G75*
G02*
X108989000Y-86121000I0J-100000D01*
G01*
G37*
G36*
G01*
X108989000Y-85621000D02*
X108989000Y-85821000D01*
G75*
G02*
X108889000Y-85921000I-100000J0D01*
G01*
X107439000Y-85921000D01*
G75*
G02*
X107339000Y-85821000I0J100000D01*
G01*
X107339000Y-85621000D01*
G75*
G02*
X107439000Y-85521000I100000J0D01*
G01*
X108889000Y-85521000D01*
G75*
G02*
X108989000Y-85621000I0J-100000D01*
G01*
G37*
G36*
G01*
X108989000Y-85121000D02*
X108989000Y-85321000D01*
G75*
G02*
X108889000Y-85421000I-100000J0D01*
G01*
X107439000Y-85421000D01*
G75*
G02*
X107339000Y-85321000I0J100000D01*
G01*
X107339000Y-85121000D01*
G75*
G02*
X107439000Y-85021000I100000J0D01*
G01*
X108889000Y-85021000D01*
G75*
G02*
X108989000Y-85121000I0J-100000D01*
G01*
G37*
G36*
G01*
X108989000Y-84621000D02*
X108989000Y-84821000D01*
G75*
G02*
X108889000Y-84921000I-100000J0D01*
G01*
X107439000Y-84921000D01*
G75*
G02*
X107339000Y-84821000I0J100000D01*
G01*
X107339000Y-84621000D01*
G75*
G02*
X107439000Y-84521000I100000J0D01*
G01*
X108889000Y-84521000D01*
G75*
G02*
X108989000Y-84621000I0J-100000D01*
G01*
G37*
G36*
G01*
X108989000Y-84121000D02*
X108989000Y-84321000D01*
G75*
G02*
X108889000Y-84421000I-100000J0D01*
G01*
X107439000Y-84421000D01*
G75*
G02*
X107339000Y-84321000I0J100000D01*
G01*
X107339000Y-84121000D01*
G75*
G02*
X107439000Y-84021000I100000J0D01*
G01*
X108889000Y-84021000D01*
G75*
G02*
X108989000Y-84121000I0J-100000D01*
G01*
G37*
G36*
G01*
X108989000Y-83621000D02*
X108989000Y-83821000D01*
G75*
G02*
X108889000Y-83921000I-100000J0D01*
G01*
X107439000Y-83921000D01*
G75*
G02*
X107339000Y-83821000I0J100000D01*
G01*
X107339000Y-83621000D01*
G75*
G02*
X107439000Y-83521000I100000J0D01*
G01*
X108889000Y-83521000D01*
G75*
G02*
X108989000Y-83621000I0J-100000D01*
G01*
G37*
G36*
G01*
X108989000Y-83121000D02*
X108989000Y-83321000D01*
G75*
G02*
X108889000Y-83421000I-100000J0D01*
G01*
X107439000Y-83421000D01*
G75*
G02*
X107339000Y-83321000I0J100000D01*
G01*
X107339000Y-83121000D01*
G75*
G02*
X107439000Y-83021000I100000J0D01*
G01*
X108889000Y-83021000D01*
G75*
G02*
X108989000Y-83121000I0J-100000D01*
G01*
G37*
G36*
G01*
X108989000Y-82621000D02*
X108989000Y-82821000D01*
G75*
G02*
X108889000Y-82921000I-100000J0D01*
G01*
X107439000Y-82921000D01*
G75*
G02*
X107339000Y-82821000I0J100000D01*
G01*
X107339000Y-82621000D01*
G75*
G02*
X107439000Y-82521000I100000J0D01*
G01*
X108889000Y-82521000D01*
G75*
G02*
X108989000Y-82621000I0J-100000D01*
G01*
G37*
G36*
G01*
X108989000Y-82121000D02*
X108989000Y-82321000D01*
G75*
G02*
X108889000Y-82421000I-100000J0D01*
G01*
X107439000Y-82421000D01*
G75*
G02*
X107339000Y-82321000I0J100000D01*
G01*
X107339000Y-82121000D01*
G75*
G02*
X107439000Y-82021000I100000J0D01*
G01*
X108889000Y-82021000D01*
G75*
G02*
X108989000Y-82121000I0J-100000D01*
G01*
G37*
G36*
G01*
X108989000Y-81621000D02*
X108989000Y-81821000D01*
G75*
G02*
X108889000Y-81921000I-100000J0D01*
G01*
X107439000Y-81921000D01*
G75*
G02*
X107339000Y-81821000I0J100000D01*
G01*
X107339000Y-81621000D01*
G75*
G02*
X107439000Y-81521000I100000J0D01*
G01*
X108889000Y-81521000D01*
G75*
G02*
X108989000Y-81621000I0J-100000D01*
G01*
G37*
G36*
G01*
X106439000Y-79071000D02*
X106439000Y-80521000D01*
G75*
G02*
X106339000Y-80621000I-100000J0D01*
G01*
X106139000Y-80621000D01*
G75*
G02*
X106039000Y-80521000I0J100000D01*
G01*
X106039000Y-79071000D01*
G75*
G02*
X106139000Y-78971000I100000J0D01*
G01*
X106339000Y-78971000D01*
G75*
G02*
X106439000Y-79071000I0J-100000D01*
G01*
G37*
G36*
G01*
X105939000Y-79071000D02*
X105939000Y-80521000D01*
G75*
G02*
X105839000Y-80621000I-100000J0D01*
G01*
X105639000Y-80621000D01*
G75*
G02*
X105539000Y-80521000I0J100000D01*
G01*
X105539000Y-79071000D01*
G75*
G02*
X105639000Y-78971000I100000J0D01*
G01*
X105839000Y-78971000D01*
G75*
G02*
X105939000Y-79071000I0J-100000D01*
G01*
G37*
G36*
G01*
X105439000Y-79071000D02*
X105439000Y-80521000D01*
G75*
G02*
X105339000Y-80621000I-100000J0D01*
G01*
X105139000Y-80621000D01*
G75*
G02*
X105039000Y-80521000I0J100000D01*
G01*
X105039000Y-79071000D01*
G75*
G02*
X105139000Y-78971000I100000J0D01*
G01*
X105339000Y-78971000D01*
G75*
G02*
X105439000Y-79071000I0J-100000D01*
G01*
G37*
G36*
G01*
X104939000Y-79071000D02*
X104939000Y-80521000D01*
G75*
G02*
X104839000Y-80621000I-100000J0D01*
G01*
X104639000Y-80621000D01*
G75*
G02*
X104539000Y-80521000I0J100000D01*
G01*
X104539000Y-79071000D01*
G75*
G02*
X104639000Y-78971000I100000J0D01*
G01*
X104839000Y-78971000D01*
G75*
G02*
X104939000Y-79071000I0J-100000D01*
G01*
G37*
G36*
G01*
X104439000Y-79071000D02*
X104439000Y-80521000D01*
G75*
G02*
X104339000Y-80621000I-100000J0D01*
G01*
X104139000Y-80621000D01*
G75*
G02*
X104039000Y-80521000I0J100000D01*
G01*
X104039000Y-79071000D01*
G75*
G02*
X104139000Y-78971000I100000J0D01*
G01*
X104339000Y-78971000D01*
G75*
G02*
X104439000Y-79071000I0J-100000D01*
G01*
G37*
G36*
G01*
X103939000Y-79071000D02*
X103939000Y-80521000D01*
G75*
G02*
X103839000Y-80621000I-100000J0D01*
G01*
X103639000Y-80621000D01*
G75*
G02*
X103539000Y-80521000I0J100000D01*
G01*
X103539000Y-79071000D01*
G75*
G02*
X103639000Y-78971000I100000J0D01*
G01*
X103839000Y-78971000D01*
G75*
G02*
X103939000Y-79071000I0J-100000D01*
G01*
G37*
G36*
G01*
X103439000Y-79071000D02*
X103439000Y-80521000D01*
G75*
G02*
X103339000Y-80621000I-100000J0D01*
G01*
X103139000Y-80621000D01*
G75*
G02*
X103039000Y-80521000I0J100000D01*
G01*
X103039000Y-79071000D01*
G75*
G02*
X103139000Y-78971000I100000J0D01*
G01*
X103339000Y-78971000D01*
G75*
G02*
X103439000Y-79071000I0J-100000D01*
G01*
G37*
G36*
G01*
X102939000Y-79071000D02*
X102939000Y-80521000D01*
G75*
G02*
X102839000Y-80621000I-100000J0D01*
G01*
X102639000Y-80621000D01*
G75*
G02*
X102539000Y-80521000I0J100000D01*
G01*
X102539000Y-79071000D01*
G75*
G02*
X102639000Y-78971000I100000J0D01*
G01*
X102839000Y-78971000D01*
G75*
G02*
X102939000Y-79071000I0J-100000D01*
G01*
G37*
G36*
G01*
X102439000Y-79071000D02*
X102439000Y-80521000D01*
G75*
G02*
X102339000Y-80621000I-100000J0D01*
G01*
X102139000Y-80621000D01*
G75*
G02*
X102039000Y-80521000I0J100000D01*
G01*
X102039000Y-79071000D01*
G75*
G02*
X102139000Y-78971000I100000J0D01*
G01*
X102339000Y-78971000D01*
G75*
G02*
X102439000Y-79071000I0J-100000D01*
G01*
G37*
G36*
G01*
X101939000Y-79071000D02*
X101939000Y-80521000D01*
G75*
G02*
X101839000Y-80621000I-100000J0D01*
G01*
X101639000Y-80621000D01*
G75*
G02*
X101539000Y-80521000I0J100000D01*
G01*
X101539000Y-79071000D01*
G75*
G02*
X101639000Y-78971000I100000J0D01*
G01*
X101839000Y-78971000D01*
G75*
G02*
X101939000Y-79071000I0J-100000D01*
G01*
G37*
G36*
G01*
X101439000Y-79071000D02*
X101439000Y-80521000D01*
G75*
G02*
X101339000Y-80621000I-100000J0D01*
G01*
X101139000Y-80621000D01*
G75*
G02*
X101039000Y-80521000I0J100000D01*
G01*
X101039000Y-79071000D01*
G75*
G02*
X101139000Y-78971000I100000J0D01*
G01*
X101339000Y-78971000D01*
G75*
G02*
X101439000Y-79071000I0J-100000D01*
G01*
G37*
G36*
G01*
X100939000Y-79071000D02*
X100939000Y-80521000D01*
G75*
G02*
X100839000Y-80621000I-100000J0D01*
G01*
X100639000Y-80621000D01*
G75*
G02*
X100539000Y-80521000I0J100000D01*
G01*
X100539000Y-79071000D01*
G75*
G02*
X100639000Y-78971000I100000J0D01*
G01*
X100839000Y-78971000D01*
G75*
G02*
X100939000Y-79071000I0J-100000D01*
G01*
G37*
G36*
G01*
X100439000Y-79071000D02*
X100439000Y-80521000D01*
G75*
G02*
X100339000Y-80621000I-100000J0D01*
G01*
X100139000Y-80621000D01*
G75*
G02*
X100039000Y-80521000I0J100000D01*
G01*
X100039000Y-79071000D01*
G75*
G02*
X100139000Y-78971000I100000J0D01*
G01*
X100339000Y-78971000D01*
G75*
G02*
X100439000Y-79071000I0J-100000D01*
G01*
G37*
G36*
G01*
X99939000Y-79071000D02*
X99939000Y-80521000D01*
G75*
G02*
X99839000Y-80621000I-100000J0D01*
G01*
X99639000Y-80621000D01*
G75*
G02*
X99539000Y-80521000I0J100000D01*
G01*
X99539000Y-79071000D01*
G75*
G02*
X99639000Y-78971000I100000J0D01*
G01*
X99839000Y-78971000D01*
G75*
G02*
X99939000Y-79071000I0J-100000D01*
G01*
G37*
G36*
G01*
X99439000Y-79071000D02*
X99439000Y-80521000D01*
G75*
G02*
X99339000Y-80621000I-100000J0D01*
G01*
X99139000Y-80621000D01*
G75*
G02*
X99039000Y-80521000I0J100000D01*
G01*
X99039000Y-79071000D01*
G75*
G02*
X99139000Y-78971000I100000J0D01*
G01*
X99339000Y-78971000D01*
G75*
G02*
X99439000Y-79071000I0J-100000D01*
G01*
G37*
G36*
G01*
X98939000Y-79071000D02*
X98939000Y-80521000D01*
G75*
G02*
X98839000Y-80621000I-100000J0D01*
G01*
X98639000Y-80621000D01*
G75*
G02*
X98539000Y-80521000I0J100000D01*
G01*
X98539000Y-79071000D01*
G75*
G02*
X98639000Y-78971000I100000J0D01*
G01*
X98839000Y-78971000D01*
G75*
G02*
X98939000Y-79071000I0J-100000D01*
G01*
G37*
G36*
G01*
X97639000Y-81621000D02*
X97639000Y-81821000D01*
G75*
G02*
X97539000Y-81921000I-100000J0D01*
G01*
X96089000Y-81921000D01*
G75*
G02*
X95989000Y-81821000I0J100000D01*
G01*
X95989000Y-81621000D01*
G75*
G02*
X96089000Y-81521000I100000J0D01*
G01*
X97539000Y-81521000D01*
G75*
G02*
X97639000Y-81621000I0J-100000D01*
G01*
G37*
G36*
G01*
X97639000Y-82121000D02*
X97639000Y-82321000D01*
G75*
G02*
X97539000Y-82421000I-100000J0D01*
G01*
X96089000Y-82421000D01*
G75*
G02*
X95989000Y-82321000I0J100000D01*
G01*
X95989000Y-82121000D01*
G75*
G02*
X96089000Y-82021000I100000J0D01*
G01*
X97539000Y-82021000D01*
G75*
G02*
X97639000Y-82121000I0J-100000D01*
G01*
G37*
G36*
G01*
X97639000Y-82621000D02*
X97639000Y-82821000D01*
G75*
G02*
X97539000Y-82921000I-100000J0D01*
G01*
X96089000Y-82921000D01*
G75*
G02*
X95989000Y-82821000I0J100000D01*
G01*
X95989000Y-82621000D01*
G75*
G02*
X96089000Y-82521000I100000J0D01*
G01*
X97539000Y-82521000D01*
G75*
G02*
X97639000Y-82621000I0J-100000D01*
G01*
G37*
G36*
G01*
X97639000Y-83121000D02*
X97639000Y-83321000D01*
G75*
G02*
X97539000Y-83421000I-100000J0D01*
G01*
X96089000Y-83421000D01*
G75*
G02*
X95989000Y-83321000I0J100000D01*
G01*
X95989000Y-83121000D01*
G75*
G02*
X96089000Y-83021000I100000J0D01*
G01*
X97539000Y-83021000D01*
G75*
G02*
X97639000Y-83121000I0J-100000D01*
G01*
G37*
G36*
G01*
X97639000Y-83621000D02*
X97639000Y-83821000D01*
G75*
G02*
X97539000Y-83921000I-100000J0D01*
G01*
X96089000Y-83921000D01*
G75*
G02*
X95989000Y-83821000I0J100000D01*
G01*
X95989000Y-83621000D01*
G75*
G02*
X96089000Y-83521000I100000J0D01*
G01*
X97539000Y-83521000D01*
G75*
G02*
X97639000Y-83621000I0J-100000D01*
G01*
G37*
G36*
G01*
X97639000Y-84121000D02*
X97639000Y-84321000D01*
G75*
G02*
X97539000Y-84421000I-100000J0D01*
G01*
X96089000Y-84421000D01*
G75*
G02*
X95989000Y-84321000I0J100000D01*
G01*
X95989000Y-84121000D01*
G75*
G02*
X96089000Y-84021000I100000J0D01*
G01*
X97539000Y-84021000D01*
G75*
G02*
X97639000Y-84121000I0J-100000D01*
G01*
G37*
G36*
G01*
X97639000Y-84621000D02*
X97639000Y-84821000D01*
G75*
G02*
X97539000Y-84921000I-100000J0D01*
G01*
X96089000Y-84921000D01*
G75*
G02*
X95989000Y-84821000I0J100000D01*
G01*
X95989000Y-84621000D01*
G75*
G02*
X96089000Y-84521000I100000J0D01*
G01*
X97539000Y-84521000D01*
G75*
G02*
X97639000Y-84621000I0J-100000D01*
G01*
G37*
G36*
G01*
X97639000Y-85121000D02*
X97639000Y-85321000D01*
G75*
G02*
X97539000Y-85421000I-100000J0D01*
G01*
X96089000Y-85421000D01*
G75*
G02*
X95989000Y-85321000I0J100000D01*
G01*
X95989000Y-85121000D01*
G75*
G02*
X96089000Y-85021000I100000J0D01*
G01*
X97539000Y-85021000D01*
G75*
G02*
X97639000Y-85121000I0J-100000D01*
G01*
G37*
G36*
G01*
X97639000Y-85621000D02*
X97639000Y-85821000D01*
G75*
G02*
X97539000Y-85921000I-100000J0D01*
G01*
X96089000Y-85921000D01*
G75*
G02*
X95989000Y-85821000I0J100000D01*
G01*
X95989000Y-85621000D01*
G75*
G02*
X96089000Y-85521000I100000J0D01*
G01*
X97539000Y-85521000D01*
G75*
G02*
X97639000Y-85621000I0J-100000D01*
G01*
G37*
G36*
G01*
X97639000Y-86121000D02*
X97639000Y-86321000D01*
G75*
G02*
X97539000Y-86421000I-100000J0D01*
G01*
X96089000Y-86421000D01*
G75*
G02*
X95989000Y-86321000I0J100000D01*
G01*
X95989000Y-86121000D01*
G75*
G02*
X96089000Y-86021000I100000J0D01*
G01*
X97539000Y-86021000D01*
G75*
G02*
X97639000Y-86121000I0J-100000D01*
G01*
G37*
G36*
G01*
X97639000Y-86621000D02*
X97639000Y-86821000D01*
G75*
G02*
X97539000Y-86921000I-100000J0D01*
G01*
X96089000Y-86921000D01*
G75*
G02*
X95989000Y-86821000I0J100000D01*
G01*
X95989000Y-86621000D01*
G75*
G02*
X96089000Y-86521000I100000J0D01*
G01*
X97539000Y-86521000D01*
G75*
G02*
X97639000Y-86621000I0J-100000D01*
G01*
G37*
G36*
G01*
X97639000Y-87121000D02*
X97639000Y-87321000D01*
G75*
G02*
X97539000Y-87421000I-100000J0D01*
G01*
X96089000Y-87421000D01*
G75*
G02*
X95989000Y-87321000I0J100000D01*
G01*
X95989000Y-87121000D01*
G75*
G02*
X96089000Y-87021000I100000J0D01*
G01*
X97539000Y-87021000D01*
G75*
G02*
X97639000Y-87121000I0J-100000D01*
G01*
G37*
G36*
G01*
X97639000Y-87621000D02*
X97639000Y-87821000D01*
G75*
G02*
X97539000Y-87921000I-100000J0D01*
G01*
X96089000Y-87921000D01*
G75*
G02*
X95989000Y-87821000I0J100000D01*
G01*
X95989000Y-87621000D01*
G75*
G02*
X96089000Y-87521000I100000J0D01*
G01*
X97539000Y-87521000D01*
G75*
G02*
X97639000Y-87621000I0J-100000D01*
G01*
G37*
G36*
G01*
X97639000Y-88121000D02*
X97639000Y-88321000D01*
G75*
G02*
X97539000Y-88421000I-100000J0D01*
G01*
X96089000Y-88421000D01*
G75*
G02*
X95989000Y-88321000I0J100000D01*
G01*
X95989000Y-88121000D01*
G75*
G02*
X96089000Y-88021000I100000J0D01*
G01*
X97539000Y-88021000D01*
G75*
G02*
X97639000Y-88121000I0J-100000D01*
G01*
G37*
G36*
G01*
X97639000Y-88621000D02*
X97639000Y-88821000D01*
G75*
G02*
X97539000Y-88921000I-100000J0D01*
G01*
X96089000Y-88921000D01*
G75*
G02*
X95989000Y-88821000I0J100000D01*
G01*
X95989000Y-88621000D01*
G75*
G02*
X96089000Y-88521000I100000J0D01*
G01*
X97539000Y-88521000D01*
G75*
G02*
X97639000Y-88621000I0J-100000D01*
G01*
G37*
G36*
G01*
X97639000Y-89121000D02*
X97639000Y-89321000D01*
G75*
G02*
X97539000Y-89421000I-100000J0D01*
G01*
X96089000Y-89421000D01*
G75*
G02*
X95989000Y-89321000I0J100000D01*
G01*
X95989000Y-89121000D01*
G75*
G02*
X96089000Y-89021000I100000J0D01*
G01*
X97539000Y-89021000D01*
G75*
G02*
X97639000Y-89121000I0J-100000D01*
G01*
G37*
G36*
G01*
X98939000Y-90421000D02*
X98939000Y-91871000D01*
G75*
G02*
X98839000Y-91971000I-100000J0D01*
G01*
X98639000Y-91971000D01*
G75*
G02*
X98539000Y-91871000I0J100000D01*
G01*
X98539000Y-90421000D01*
G75*
G02*
X98639000Y-90321000I100000J0D01*
G01*
X98839000Y-90321000D01*
G75*
G02*
X98939000Y-90421000I0J-100000D01*
G01*
G37*
G36*
G01*
X99439000Y-90421000D02*
X99439000Y-91871000D01*
G75*
G02*
X99339000Y-91971000I-100000J0D01*
G01*
X99139000Y-91971000D01*
G75*
G02*
X99039000Y-91871000I0J100000D01*
G01*
X99039000Y-90421000D01*
G75*
G02*
X99139000Y-90321000I100000J0D01*
G01*
X99339000Y-90321000D01*
G75*
G02*
X99439000Y-90421000I0J-100000D01*
G01*
G37*
G36*
G01*
X99939000Y-90421000D02*
X99939000Y-91871000D01*
G75*
G02*
X99839000Y-91971000I-100000J0D01*
G01*
X99639000Y-91971000D01*
G75*
G02*
X99539000Y-91871000I0J100000D01*
G01*
X99539000Y-90421000D01*
G75*
G02*
X99639000Y-90321000I100000J0D01*
G01*
X99839000Y-90321000D01*
G75*
G02*
X99939000Y-90421000I0J-100000D01*
G01*
G37*
G36*
G01*
X100439000Y-90421000D02*
X100439000Y-91871000D01*
G75*
G02*
X100339000Y-91971000I-100000J0D01*
G01*
X100139000Y-91971000D01*
G75*
G02*
X100039000Y-91871000I0J100000D01*
G01*
X100039000Y-90421000D01*
G75*
G02*
X100139000Y-90321000I100000J0D01*
G01*
X100339000Y-90321000D01*
G75*
G02*
X100439000Y-90421000I0J-100000D01*
G01*
G37*
G36*
G01*
X100939000Y-90421000D02*
X100939000Y-91871000D01*
G75*
G02*
X100839000Y-91971000I-100000J0D01*
G01*
X100639000Y-91971000D01*
G75*
G02*
X100539000Y-91871000I0J100000D01*
G01*
X100539000Y-90421000D01*
G75*
G02*
X100639000Y-90321000I100000J0D01*
G01*
X100839000Y-90321000D01*
G75*
G02*
X100939000Y-90421000I0J-100000D01*
G01*
G37*
G36*
G01*
X101439000Y-90421000D02*
X101439000Y-91871000D01*
G75*
G02*
X101339000Y-91971000I-100000J0D01*
G01*
X101139000Y-91971000D01*
G75*
G02*
X101039000Y-91871000I0J100000D01*
G01*
X101039000Y-90421000D01*
G75*
G02*
X101139000Y-90321000I100000J0D01*
G01*
X101339000Y-90321000D01*
G75*
G02*
X101439000Y-90421000I0J-100000D01*
G01*
G37*
G36*
G01*
X101939000Y-90421000D02*
X101939000Y-91871000D01*
G75*
G02*
X101839000Y-91971000I-100000J0D01*
G01*
X101639000Y-91971000D01*
G75*
G02*
X101539000Y-91871000I0J100000D01*
G01*
X101539000Y-90421000D01*
G75*
G02*
X101639000Y-90321000I100000J0D01*
G01*
X101839000Y-90321000D01*
G75*
G02*
X101939000Y-90421000I0J-100000D01*
G01*
G37*
G36*
G01*
X102439000Y-90421000D02*
X102439000Y-91871000D01*
G75*
G02*
X102339000Y-91971000I-100000J0D01*
G01*
X102139000Y-91971000D01*
G75*
G02*
X102039000Y-91871000I0J100000D01*
G01*
X102039000Y-90421000D01*
G75*
G02*
X102139000Y-90321000I100000J0D01*
G01*
X102339000Y-90321000D01*
G75*
G02*
X102439000Y-90421000I0J-100000D01*
G01*
G37*
G36*
G01*
X102939000Y-90421000D02*
X102939000Y-91871000D01*
G75*
G02*
X102839000Y-91971000I-100000J0D01*
G01*
X102639000Y-91971000D01*
G75*
G02*
X102539000Y-91871000I0J100000D01*
G01*
X102539000Y-90421000D01*
G75*
G02*
X102639000Y-90321000I100000J0D01*
G01*
X102839000Y-90321000D01*
G75*
G02*
X102939000Y-90421000I0J-100000D01*
G01*
G37*
G36*
G01*
X103439000Y-90421000D02*
X103439000Y-91871000D01*
G75*
G02*
X103339000Y-91971000I-100000J0D01*
G01*
X103139000Y-91971000D01*
G75*
G02*
X103039000Y-91871000I0J100000D01*
G01*
X103039000Y-90421000D01*
G75*
G02*
X103139000Y-90321000I100000J0D01*
G01*
X103339000Y-90321000D01*
G75*
G02*
X103439000Y-90421000I0J-100000D01*
G01*
G37*
G36*
G01*
X103939000Y-90421000D02*
X103939000Y-91871000D01*
G75*
G02*
X103839000Y-91971000I-100000J0D01*
G01*
X103639000Y-91971000D01*
G75*
G02*
X103539000Y-91871000I0J100000D01*
G01*
X103539000Y-90421000D01*
G75*
G02*
X103639000Y-90321000I100000J0D01*
G01*
X103839000Y-90321000D01*
G75*
G02*
X103939000Y-90421000I0J-100000D01*
G01*
G37*
G36*
G01*
X104439000Y-90421000D02*
X104439000Y-91871000D01*
G75*
G02*
X104339000Y-91971000I-100000J0D01*
G01*
X104139000Y-91971000D01*
G75*
G02*
X104039000Y-91871000I0J100000D01*
G01*
X104039000Y-90421000D01*
G75*
G02*
X104139000Y-90321000I100000J0D01*
G01*
X104339000Y-90321000D01*
G75*
G02*
X104439000Y-90421000I0J-100000D01*
G01*
G37*
G36*
G01*
X104939000Y-90421000D02*
X104939000Y-91871000D01*
G75*
G02*
X104839000Y-91971000I-100000J0D01*
G01*
X104639000Y-91971000D01*
G75*
G02*
X104539000Y-91871000I0J100000D01*
G01*
X104539000Y-90421000D01*
G75*
G02*
X104639000Y-90321000I100000J0D01*
G01*
X104839000Y-90321000D01*
G75*
G02*
X104939000Y-90421000I0J-100000D01*
G01*
G37*
G36*
G01*
X105439000Y-90421000D02*
X105439000Y-91871000D01*
G75*
G02*
X105339000Y-91971000I-100000J0D01*
G01*
X105139000Y-91971000D01*
G75*
G02*
X105039000Y-91871000I0J100000D01*
G01*
X105039000Y-90421000D01*
G75*
G02*
X105139000Y-90321000I100000J0D01*
G01*
X105339000Y-90321000D01*
G75*
G02*
X105439000Y-90421000I0J-100000D01*
G01*
G37*
G36*
G01*
X105939000Y-90421000D02*
X105939000Y-91871000D01*
G75*
G02*
X105839000Y-91971000I-100000J0D01*
G01*
X105639000Y-91971000D01*
G75*
G02*
X105539000Y-91871000I0J100000D01*
G01*
X105539000Y-90421000D01*
G75*
G02*
X105639000Y-90321000I100000J0D01*
G01*
X105839000Y-90321000D01*
G75*
G02*
X105939000Y-90421000I0J-100000D01*
G01*
G37*
G36*
G01*
X106439000Y-90421000D02*
X106439000Y-91871000D01*
G75*
G02*
X106339000Y-91971000I-100000J0D01*
G01*
X106139000Y-91971000D01*
G75*
G02*
X106039000Y-91871000I0J100000D01*
G01*
X106039000Y-90421000D01*
G75*
G02*
X106139000Y-90321000I100000J0D01*
G01*
X106339000Y-90321000D01*
G75*
G02*
X106439000Y-90421000I0J-100000D01*
G01*
G37*
G04 #@! TD*
G04 #@! TO.C,U8*
G36*
G01*
X134083000Y-98382000D02*
X132883000Y-98382000D01*
G75*
G02*
X132833000Y-98332000I0J50000D01*
G01*
X132833000Y-96132000D01*
G75*
G02*
X132883000Y-96082000I50000J0D01*
G01*
X134083000Y-96082000D01*
G75*
G02*
X134133000Y-96132000I0J-50000D01*
G01*
X134133000Y-98332000D01*
G75*
G02*
X134083000Y-98382000I-50000J0D01*
G01*
G37*
G36*
G01*
X138643000Y-98382000D02*
X137443000Y-98382000D01*
G75*
G02*
X137393000Y-98332000I0J50000D01*
G01*
X137393000Y-96132000D01*
G75*
G02*
X137443000Y-96082000I50000J0D01*
G01*
X138643000Y-96082000D01*
G75*
G02*
X138693000Y-96132000I0J-50000D01*
G01*
X138693000Y-98332000D01*
G75*
G02*
X138643000Y-98382000I-50000J0D01*
G01*
G37*
G36*
G01*
X138663000Y-94182000D02*
X132863000Y-94182000D01*
G75*
G02*
X132813000Y-94132000I0J50000D01*
G01*
X132813000Y-87732000D01*
G75*
G02*
X132863000Y-87682000I50000J0D01*
G01*
X138663000Y-87682000D01*
G75*
G02*
X138713000Y-87732000I0J-50000D01*
G01*
X138713000Y-94132000D01*
G75*
G02*
X138663000Y-94182000I-50000J0D01*
G01*
G37*
G04 #@! TD*
G04 #@! TO.C,U5*
G36*
G01*
X92550000Y-102114000D02*
X92550000Y-102364000D01*
G75*
G02*
X92425000Y-102489000I-125000J0D01*
G01*
X91100000Y-102489000D01*
G75*
G02*
X90975000Y-102364000I0J125000D01*
G01*
X90975000Y-102114000D01*
G75*
G02*
X91100000Y-101989000I125000J0D01*
G01*
X92425000Y-101989000D01*
G75*
G02*
X92550000Y-102114000I0J-125000D01*
G01*
G37*
G36*
G01*
X92550000Y-101464000D02*
X92550000Y-101714000D01*
G75*
G02*
X92425000Y-101839000I-125000J0D01*
G01*
X91100000Y-101839000D01*
G75*
G02*
X90975000Y-101714000I0J125000D01*
G01*
X90975000Y-101464000D01*
G75*
G02*
X91100000Y-101339000I125000J0D01*
G01*
X92425000Y-101339000D01*
G75*
G02*
X92550000Y-101464000I0J-125000D01*
G01*
G37*
G36*
G01*
X92550000Y-100814000D02*
X92550000Y-101064000D01*
G75*
G02*
X92425000Y-101189000I-125000J0D01*
G01*
X91100000Y-101189000D01*
G75*
G02*
X90975000Y-101064000I0J125000D01*
G01*
X90975000Y-100814000D01*
G75*
G02*
X91100000Y-100689000I125000J0D01*
G01*
X92425000Y-100689000D01*
G75*
G02*
X92550000Y-100814000I0J-125000D01*
G01*
G37*
G36*
G01*
X92550000Y-100164000D02*
X92550000Y-100414000D01*
G75*
G02*
X92425000Y-100539000I-125000J0D01*
G01*
X91100000Y-100539000D01*
G75*
G02*
X90975000Y-100414000I0J125000D01*
G01*
X90975000Y-100164000D01*
G75*
G02*
X91100000Y-100039000I125000J0D01*
G01*
X92425000Y-100039000D01*
G75*
G02*
X92550000Y-100164000I0J-125000D01*
G01*
G37*
G36*
G01*
X92550000Y-99514000D02*
X92550000Y-99764000D01*
G75*
G02*
X92425000Y-99889000I-125000J0D01*
G01*
X91100000Y-99889000D01*
G75*
G02*
X90975000Y-99764000I0J125000D01*
G01*
X90975000Y-99514000D01*
G75*
G02*
X91100000Y-99389000I125000J0D01*
G01*
X92425000Y-99389000D01*
G75*
G02*
X92550000Y-99514000I0J-125000D01*
G01*
G37*
G36*
G01*
X92550000Y-98864000D02*
X92550000Y-99114000D01*
G75*
G02*
X92425000Y-99239000I-125000J0D01*
G01*
X91100000Y-99239000D01*
G75*
G02*
X90975000Y-99114000I0J125000D01*
G01*
X90975000Y-98864000D01*
G75*
G02*
X91100000Y-98739000I125000J0D01*
G01*
X92425000Y-98739000D01*
G75*
G02*
X92550000Y-98864000I0J-125000D01*
G01*
G37*
G36*
G01*
X92550000Y-98214000D02*
X92550000Y-98464000D01*
G75*
G02*
X92425000Y-98589000I-125000J0D01*
G01*
X91100000Y-98589000D01*
G75*
G02*
X90975000Y-98464000I0J125000D01*
G01*
X90975000Y-98214000D01*
G75*
G02*
X91100000Y-98089000I125000J0D01*
G01*
X92425000Y-98089000D01*
G75*
G02*
X92550000Y-98214000I0J-125000D01*
G01*
G37*
G36*
G01*
X92550000Y-97564000D02*
X92550000Y-97814000D01*
G75*
G02*
X92425000Y-97939000I-125000J0D01*
G01*
X91100000Y-97939000D01*
G75*
G02*
X90975000Y-97814000I0J125000D01*
G01*
X90975000Y-97564000D01*
G75*
G02*
X91100000Y-97439000I125000J0D01*
G01*
X92425000Y-97439000D01*
G75*
G02*
X92550000Y-97564000I0J-125000D01*
G01*
G37*
G36*
G01*
X92550000Y-96914000D02*
X92550000Y-97164000D01*
G75*
G02*
X92425000Y-97289000I-125000J0D01*
G01*
X91100000Y-97289000D01*
G75*
G02*
X90975000Y-97164000I0J125000D01*
G01*
X90975000Y-96914000D01*
G75*
G02*
X91100000Y-96789000I125000J0D01*
G01*
X92425000Y-96789000D01*
G75*
G02*
X92550000Y-96914000I0J-125000D01*
G01*
G37*
G36*
G01*
X92550000Y-96264000D02*
X92550000Y-96514000D01*
G75*
G02*
X92425000Y-96639000I-125000J0D01*
G01*
X91100000Y-96639000D01*
G75*
G02*
X90975000Y-96514000I0J125000D01*
G01*
X90975000Y-96264000D01*
G75*
G02*
X91100000Y-96139000I125000J0D01*
G01*
X92425000Y-96139000D01*
G75*
G02*
X92550000Y-96264000I0J-125000D01*
G01*
G37*
G36*
G01*
X86825000Y-96264000D02*
X86825000Y-96514000D01*
G75*
G02*
X86700000Y-96639000I-125000J0D01*
G01*
X85375000Y-96639000D01*
G75*
G02*
X85250000Y-96514000I0J125000D01*
G01*
X85250000Y-96264000D01*
G75*
G02*
X85375000Y-96139000I125000J0D01*
G01*
X86700000Y-96139000D01*
G75*
G02*
X86825000Y-96264000I0J-125000D01*
G01*
G37*
G36*
G01*
X86825000Y-96914000D02*
X86825000Y-97164000D01*
G75*
G02*
X86700000Y-97289000I-125000J0D01*
G01*
X85375000Y-97289000D01*
G75*
G02*
X85250000Y-97164000I0J125000D01*
G01*
X85250000Y-96914000D01*
G75*
G02*
X85375000Y-96789000I125000J0D01*
G01*
X86700000Y-96789000D01*
G75*
G02*
X86825000Y-96914000I0J-125000D01*
G01*
G37*
G36*
G01*
X86825000Y-97564000D02*
X86825000Y-97814000D01*
G75*
G02*
X86700000Y-97939000I-125000J0D01*
G01*
X85375000Y-97939000D01*
G75*
G02*
X85250000Y-97814000I0J125000D01*
G01*
X85250000Y-97564000D01*
G75*
G02*
X85375000Y-97439000I125000J0D01*
G01*
X86700000Y-97439000D01*
G75*
G02*
X86825000Y-97564000I0J-125000D01*
G01*
G37*
G36*
G01*
X86825000Y-98214000D02*
X86825000Y-98464000D01*
G75*
G02*
X86700000Y-98589000I-125000J0D01*
G01*
X85375000Y-98589000D01*
G75*
G02*
X85250000Y-98464000I0J125000D01*
G01*
X85250000Y-98214000D01*
G75*
G02*
X85375000Y-98089000I125000J0D01*
G01*
X86700000Y-98089000D01*
G75*
G02*
X86825000Y-98214000I0J-125000D01*
G01*
G37*
G36*
G01*
X86825000Y-98864000D02*
X86825000Y-99114000D01*
G75*
G02*
X86700000Y-99239000I-125000J0D01*
G01*
X85375000Y-99239000D01*
G75*
G02*
X85250000Y-99114000I0J125000D01*
G01*
X85250000Y-98864000D01*
G75*
G02*
X85375000Y-98739000I125000J0D01*
G01*
X86700000Y-98739000D01*
G75*
G02*
X86825000Y-98864000I0J-125000D01*
G01*
G37*
G36*
G01*
X86825000Y-99514000D02*
X86825000Y-99764000D01*
G75*
G02*
X86700000Y-99889000I-125000J0D01*
G01*
X85375000Y-99889000D01*
G75*
G02*
X85250000Y-99764000I0J125000D01*
G01*
X85250000Y-99514000D01*
G75*
G02*
X85375000Y-99389000I125000J0D01*
G01*
X86700000Y-99389000D01*
G75*
G02*
X86825000Y-99514000I0J-125000D01*
G01*
G37*
G36*
G01*
X86825000Y-100164000D02*
X86825000Y-100414000D01*
G75*
G02*
X86700000Y-100539000I-125000J0D01*
G01*
X85375000Y-100539000D01*
G75*
G02*
X85250000Y-100414000I0J125000D01*
G01*
X85250000Y-100164000D01*
G75*
G02*
X85375000Y-100039000I125000J0D01*
G01*
X86700000Y-100039000D01*
G75*
G02*
X86825000Y-100164000I0J-125000D01*
G01*
G37*
G36*
G01*
X86825000Y-100814000D02*
X86825000Y-101064000D01*
G75*
G02*
X86700000Y-101189000I-125000J0D01*
G01*
X85375000Y-101189000D01*
G75*
G02*
X85250000Y-101064000I0J125000D01*
G01*
X85250000Y-100814000D01*
G75*
G02*
X85375000Y-100689000I125000J0D01*
G01*
X86700000Y-100689000D01*
G75*
G02*
X86825000Y-100814000I0J-125000D01*
G01*
G37*
G36*
G01*
X86825000Y-101464000D02*
X86825000Y-101714000D01*
G75*
G02*
X86700000Y-101839000I-125000J0D01*
G01*
X85375000Y-101839000D01*
G75*
G02*
X85250000Y-101714000I0J125000D01*
G01*
X85250000Y-101464000D01*
G75*
G02*
X85375000Y-101339000I125000J0D01*
G01*
X86700000Y-101339000D01*
G75*
G02*
X86825000Y-101464000I0J-125000D01*
G01*
G37*
G36*
G01*
X86825000Y-102114000D02*
X86825000Y-102364000D01*
G75*
G02*
X86700000Y-102489000I-125000J0D01*
G01*
X85375000Y-102489000D01*
G75*
G02*
X85250000Y-102364000I0J125000D01*
G01*
X85250000Y-102114000D01*
G75*
G02*
X85375000Y-101989000I125000J0D01*
G01*
X86700000Y-101989000D01*
G75*
G02*
X86825000Y-102114000I0J-125000D01*
G01*
G37*
G04 #@! TD*
G04 #@! TO.C,U3*
G36*
G01*
X124023000Y-79200000D02*
X124023000Y-79550000D01*
G75*
G02*
X123848000Y-79725000I-175000J0D01*
G01*
X122148000Y-79725000D01*
G75*
G02*
X121973000Y-79550000I0J175000D01*
G01*
X121973000Y-79200000D01*
G75*
G02*
X122148000Y-79025000I175000J0D01*
G01*
X123848000Y-79025000D01*
G75*
G02*
X124023000Y-79200000I0J-175000D01*
G01*
G37*
G36*
G01*
X124023000Y-77930000D02*
X124023000Y-78280000D01*
G75*
G02*
X123848000Y-78455000I-175000J0D01*
G01*
X122148000Y-78455000D01*
G75*
G02*
X121973000Y-78280000I0J175000D01*
G01*
X121973000Y-77930000D01*
G75*
G02*
X122148000Y-77755000I175000J0D01*
G01*
X123848000Y-77755000D01*
G75*
G02*
X124023000Y-77930000I0J-175000D01*
G01*
G37*
G36*
G01*
X124023000Y-76660000D02*
X124023000Y-77010000D01*
G75*
G02*
X123848000Y-77185000I-175000J0D01*
G01*
X122148000Y-77185000D01*
G75*
G02*
X121973000Y-77010000I0J175000D01*
G01*
X121973000Y-76660000D01*
G75*
G02*
X122148000Y-76485000I175000J0D01*
G01*
X123848000Y-76485000D01*
G75*
G02*
X124023000Y-76660000I0J-175000D01*
G01*
G37*
G36*
G01*
X124023000Y-75390000D02*
X124023000Y-75740000D01*
G75*
G02*
X123848000Y-75915000I-175000J0D01*
G01*
X122148000Y-75915000D01*
G75*
G02*
X121973000Y-75740000I0J175000D01*
G01*
X121973000Y-75390000D01*
G75*
G02*
X122148000Y-75215000I175000J0D01*
G01*
X123848000Y-75215000D01*
G75*
G02*
X124023000Y-75390000I0J-175000D01*
G01*
G37*
G36*
G01*
X119073000Y-75390000D02*
X119073000Y-75740000D01*
G75*
G02*
X118898000Y-75915000I-175000J0D01*
G01*
X117198000Y-75915000D01*
G75*
G02*
X117023000Y-75740000I0J175000D01*
G01*
X117023000Y-75390000D01*
G75*
G02*
X117198000Y-75215000I175000J0D01*
G01*
X118898000Y-75215000D01*
G75*
G02*
X119073000Y-75390000I0J-175000D01*
G01*
G37*
G36*
G01*
X119073000Y-76660000D02*
X119073000Y-77010000D01*
G75*
G02*
X118898000Y-77185000I-175000J0D01*
G01*
X117198000Y-77185000D01*
G75*
G02*
X117023000Y-77010000I0J175000D01*
G01*
X117023000Y-76660000D01*
G75*
G02*
X117198000Y-76485000I175000J0D01*
G01*
X118898000Y-76485000D01*
G75*
G02*
X119073000Y-76660000I0J-175000D01*
G01*
G37*
G36*
G01*
X119073000Y-77930000D02*
X119073000Y-78280000D01*
G75*
G02*
X118898000Y-78455000I-175000J0D01*
G01*
X117198000Y-78455000D01*
G75*
G02*
X117023000Y-78280000I0J175000D01*
G01*
X117023000Y-77930000D01*
G75*
G02*
X117198000Y-77755000I175000J0D01*
G01*
X118898000Y-77755000D01*
G75*
G02*
X119073000Y-77930000I0J-175000D01*
G01*
G37*
G36*
G01*
X119073000Y-79200000D02*
X119073000Y-79550000D01*
G75*
G02*
X118898000Y-79725000I-175000J0D01*
G01*
X117198000Y-79725000D01*
G75*
G02*
X117023000Y-79550000I0J175000D01*
G01*
X117023000Y-79200000D01*
G75*
G02*
X117198000Y-79025000I175000J0D01*
G01*
X118898000Y-79025000D01*
G75*
G02*
X119073000Y-79200000I0J-175000D01*
G01*
G37*
G04 #@! TD*
G04 #@! TO.C,U1*
G36*
G01*
X172560000Y-102114000D02*
X172560000Y-102364000D01*
G75*
G02*
X172435000Y-102489000I-125000J0D01*
G01*
X171110000Y-102489000D01*
G75*
G02*
X170985000Y-102364000I0J125000D01*
G01*
X170985000Y-102114000D01*
G75*
G02*
X171110000Y-101989000I125000J0D01*
G01*
X172435000Y-101989000D01*
G75*
G02*
X172560000Y-102114000I0J-125000D01*
G01*
G37*
G36*
G01*
X172560000Y-101464000D02*
X172560000Y-101714000D01*
G75*
G02*
X172435000Y-101839000I-125000J0D01*
G01*
X171110000Y-101839000D01*
G75*
G02*
X170985000Y-101714000I0J125000D01*
G01*
X170985000Y-101464000D01*
G75*
G02*
X171110000Y-101339000I125000J0D01*
G01*
X172435000Y-101339000D01*
G75*
G02*
X172560000Y-101464000I0J-125000D01*
G01*
G37*
G36*
G01*
X172560000Y-100814000D02*
X172560000Y-101064000D01*
G75*
G02*
X172435000Y-101189000I-125000J0D01*
G01*
X171110000Y-101189000D01*
G75*
G02*
X170985000Y-101064000I0J125000D01*
G01*
X170985000Y-100814000D01*
G75*
G02*
X171110000Y-100689000I125000J0D01*
G01*
X172435000Y-100689000D01*
G75*
G02*
X172560000Y-100814000I0J-125000D01*
G01*
G37*
G36*
G01*
X172560000Y-100164000D02*
X172560000Y-100414000D01*
G75*
G02*
X172435000Y-100539000I-125000J0D01*
G01*
X171110000Y-100539000D01*
G75*
G02*
X170985000Y-100414000I0J125000D01*
G01*
X170985000Y-100164000D01*
G75*
G02*
X171110000Y-100039000I125000J0D01*
G01*
X172435000Y-100039000D01*
G75*
G02*
X172560000Y-100164000I0J-125000D01*
G01*
G37*
G36*
G01*
X172560000Y-99514000D02*
X172560000Y-99764000D01*
G75*
G02*
X172435000Y-99889000I-125000J0D01*
G01*
X171110000Y-99889000D01*
G75*
G02*
X170985000Y-99764000I0J125000D01*
G01*
X170985000Y-99514000D01*
G75*
G02*
X171110000Y-99389000I125000J0D01*
G01*
X172435000Y-99389000D01*
G75*
G02*
X172560000Y-99514000I0J-125000D01*
G01*
G37*
G36*
G01*
X172560000Y-98864000D02*
X172560000Y-99114000D01*
G75*
G02*
X172435000Y-99239000I-125000J0D01*
G01*
X171110000Y-99239000D01*
G75*
G02*
X170985000Y-99114000I0J125000D01*
G01*
X170985000Y-98864000D01*
G75*
G02*
X171110000Y-98739000I125000J0D01*
G01*
X172435000Y-98739000D01*
G75*
G02*
X172560000Y-98864000I0J-125000D01*
G01*
G37*
G36*
G01*
X172560000Y-98214000D02*
X172560000Y-98464000D01*
G75*
G02*
X172435000Y-98589000I-125000J0D01*
G01*
X171110000Y-98589000D01*
G75*
G02*
X170985000Y-98464000I0J125000D01*
G01*
X170985000Y-98214000D01*
G75*
G02*
X171110000Y-98089000I125000J0D01*
G01*
X172435000Y-98089000D01*
G75*
G02*
X172560000Y-98214000I0J-125000D01*
G01*
G37*
G36*
G01*
X172560000Y-97564000D02*
X172560000Y-97814000D01*
G75*
G02*
X172435000Y-97939000I-125000J0D01*
G01*
X171110000Y-97939000D01*
G75*
G02*
X170985000Y-97814000I0J125000D01*
G01*
X170985000Y-97564000D01*
G75*
G02*
X171110000Y-97439000I125000J0D01*
G01*
X172435000Y-97439000D01*
G75*
G02*
X172560000Y-97564000I0J-125000D01*
G01*
G37*
G36*
G01*
X172560000Y-96914000D02*
X172560000Y-97164000D01*
G75*
G02*
X172435000Y-97289000I-125000J0D01*
G01*
X171110000Y-97289000D01*
G75*
G02*
X170985000Y-97164000I0J125000D01*
G01*
X170985000Y-96914000D01*
G75*
G02*
X171110000Y-96789000I125000J0D01*
G01*
X172435000Y-96789000D01*
G75*
G02*
X172560000Y-96914000I0J-125000D01*
G01*
G37*
G36*
G01*
X172560000Y-96264000D02*
X172560000Y-96514000D01*
G75*
G02*
X172435000Y-96639000I-125000J0D01*
G01*
X171110000Y-96639000D01*
G75*
G02*
X170985000Y-96514000I0J125000D01*
G01*
X170985000Y-96264000D01*
G75*
G02*
X171110000Y-96139000I125000J0D01*
G01*
X172435000Y-96139000D01*
G75*
G02*
X172560000Y-96264000I0J-125000D01*
G01*
G37*
G36*
G01*
X166835000Y-96264000D02*
X166835000Y-96514000D01*
G75*
G02*
X166710000Y-96639000I-125000J0D01*
G01*
X165385000Y-96639000D01*
G75*
G02*
X165260000Y-96514000I0J125000D01*
G01*
X165260000Y-96264000D01*
G75*
G02*
X165385000Y-96139000I125000J0D01*
G01*
X166710000Y-96139000D01*
G75*
G02*
X166835000Y-96264000I0J-125000D01*
G01*
G37*
G36*
G01*
X166835000Y-96914000D02*
X166835000Y-97164000D01*
G75*
G02*
X166710000Y-97289000I-125000J0D01*
G01*
X165385000Y-97289000D01*
G75*
G02*
X165260000Y-97164000I0J125000D01*
G01*
X165260000Y-96914000D01*
G75*
G02*
X165385000Y-96789000I125000J0D01*
G01*
X166710000Y-96789000D01*
G75*
G02*
X166835000Y-96914000I0J-125000D01*
G01*
G37*
G36*
G01*
X166835000Y-97564000D02*
X166835000Y-97814000D01*
G75*
G02*
X166710000Y-97939000I-125000J0D01*
G01*
X165385000Y-97939000D01*
G75*
G02*
X165260000Y-97814000I0J125000D01*
G01*
X165260000Y-97564000D01*
G75*
G02*
X165385000Y-97439000I125000J0D01*
G01*
X166710000Y-97439000D01*
G75*
G02*
X166835000Y-97564000I0J-125000D01*
G01*
G37*
G36*
G01*
X166835000Y-98214000D02*
X166835000Y-98464000D01*
G75*
G02*
X166710000Y-98589000I-125000J0D01*
G01*
X165385000Y-98589000D01*
G75*
G02*
X165260000Y-98464000I0J125000D01*
G01*
X165260000Y-98214000D01*
G75*
G02*
X165385000Y-98089000I125000J0D01*
G01*
X166710000Y-98089000D01*
G75*
G02*
X166835000Y-98214000I0J-125000D01*
G01*
G37*
G36*
G01*
X166835000Y-98864000D02*
X166835000Y-99114000D01*
G75*
G02*
X166710000Y-99239000I-125000J0D01*
G01*
X165385000Y-99239000D01*
G75*
G02*
X165260000Y-99114000I0J125000D01*
G01*
X165260000Y-98864000D01*
G75*
G02*
X165385000Y-98739000I125000J0D01*
G01*
X166710000Y-98739000D01*
G75*
G02*
X166835000Y-98864000I0J-125000D01*
G01*
G37*
G36*
G01*
X166835000Y-99514000D02*
X166835000Y-99764000D01*
G75*
G02*
X166710000Y-99889000I-125000J0D01*
G01*
X165385000Y-99889000D01*
G75*
G02*
X165260000Y-99764000I0J125000D01*
G01*
X165260000Y-99514000D01*
G75*
G02*
X165385000Y-99389000I125000J0D01*
G01*
X166710000Y-99389000D01*
G75*
G02*
X166835000Y-99514000I0J-125000D01*
G01*
G37*
G36*
G01*
X166835000Y-100164000D02*
X166835000Y-100414000D01*
G75*
G02*
X166710000Y-100539000I-125000J0D01*
G01*
X165385000Y-100539000D01*
G75*
G02*
X165260000Y-100414000I0J125000D01*
G01*
X165260000Y-100164000D01*
G75*
G02*
X165385000Y-100039000I125000J0D01*
G01*
X166710000Y-100039000D01*
G75*
G02*
X166835000Y-100164000I0J-125000D01*
G01*
G37*
G36*
G01*
X166835000Y-100814000D02*
X166835000Y-101064000D01*
G75*
G02*
X166710000Y-101189000I-125000J0D01*
G01*
X165385000Y-101189000D01*
G75*
G02*
X165260000Y-101064000I0J125000D01*
G01*
X165260000Y-100814000D01*
G75*
G02*
X165385000Y-100689000I125000J0D01*
G01*
X166710000Y-100689000D01*
G75*
G02*
X166835000Y-100814000I0J-125000D01*
G01*
G37*
G36*
G01*
X166835000Y-101464000D02*
X166835000Y-101714000D01*
G75*
G02*
X166710000Y-101839000I-125000J0D01*
G01*
X165385000Y-101839000D01*
G75*
G02*
X165260000Y-101714000I0J125000D01*
G01*
X165260000Y-101464000D01*
G75*
G02*
X165385000Y-101339000I125000J0D01*
G01*
X166710000Y-101339000D01*
G75*
G02*
X166835000Y-101464000I0J-125000D01*
G01*
G37*
G36*
G01*
X166835000Y-102114000D02*
X166835000Y-102364000D01*
G75*
G02*
X166710000Y-102489000I-125000J0D01*
G01*
X165385000Y-102489000D01*
G75*
G02*
X165260000Y-102364000I0J125000D01*
G01*
X165260000Y-102114000D01*
G75*
G02*
X165385000Y-101989000I125000J0D01*
G01*
X166710000Y-101989000D01*
G75*
G02*
X166835000Y-102114000I0J-125000D01*
G01*
G37*
G04 #@! TD*
G04 #@! TO.C,U2*
G36*
G01*
X106383000Y-102114000D02*
X106383000Y-102364000D01*
G75*
G02*
X106258000Y-102489000I-125000J0D01*
G01*
X104933000Y-102489000D01*
G75*
G02*
X104808000Y-102364000I0J125000D01*
G01*
X104808000Y-102114000D01*
G75*
G02*
X104933000Y-101989000I125000J0D01*
G01*
X106258000Y-101989000D01*
G75*
G02*
X106383000Y-102114000I0J-125000D01*
G01*
G37*
G36*
G01*
X106383000Y-101464000D02*
X106383000Y-101714000D01*
G75*
G02*
X106258000Y-101839000I-125000J0D01*
G01*
X104933000Y-101839000D01*
G75*
G02*
X104808000Y-101714000I0J125000D01*
G01*
X104808000Y-101464000D01*
G75*
G02*
X104933000Y-101339000I125000J0D01*
G01*
X106258000Y-101339000D01*
G75*
G02*
X106383000Y-101464000I0J-125000D01*
G01*
G37*
G36*
G01*
X106383000Y-100814000D02*
X106383000Y-101064000D01*
G75*
G02*
X106258000Y-101189000I-125000J0D01*
G01*
X104933000Y-101189000D01*
G75*
G02*
X104808000Y-101064000I0J125000D01*
G01*
X104808000Y-100814000D01*
G75*
G02*
X104933000Y-100689000I125000J0D01*
G01*
X106258000Y-100689000D01*
G75*
G02*
X106383000Y-100814000I0J-125000D01*
G01*
G37*
G36*
G01*
X106383000Y-100164000D02*
X106383000Y-100414000D01*
G75*
G02*
X106258000Y-100539000I-125000J0D01*
G01*
X104933000Y-100539000D01*
G75*
G02*
X104808000Y-100414000I0J125000D01*
G01*
X104808000Y-100164000D01*
G75*
G02*
X104933000Y-100039000I125000J0D01*
G01*
X106258000Y-100039000D01*
G75*
G02*
X106383000Y-100164000I0J-125000D01*
G01*
G37*
G36*
G01*
X106383000Y-99514000D02*
X106383000Y-99764000D01*
G75*
G02*
X106258000Y-99889000I-125000J0D01*
G01*
X104933000Y-99889000D01*
G75*
G02*
X104808000Y-99764000I0J125000D01*
G01*
X104808000Y-99514000D01*
G75*
G02*
X104933000Y-99389000I125000J0D01*
G01*
X106258000Y-99389000D01*
G75*
G02*
X106383000Y-99514000I0J-125000D01*
G01*
G37*
G36*
G01*
X106383000Y-98864000D02*
X106383000Y-99114000D01*
G75*
G02*
X106258000Y-99239000I-125000J0D01*
G01*
X104933000Y-99239000D01*
G75*
G02*
X104808000Y-99114000I0J125000D01*
G01*
X104808000Y-98864000D01*
G75*
G02*
X104933000Y-98739000I125000J0D01*
G01*
X106258000Y-98739000D01*
G75*
G02*
X106383000Y-98864000I0J-125000D01*
G01*
G37*
G36*
G01*
X106383000Y-98214000D02*
X106383000Y-98464000D01*
G75*
G02*
X106258000Y-98589000I-125000J0D01*
G01*
X104933000Y-98589000D01*
G75*
G02*
X104808000Y-98464000I0J125000D01*
G01*
X104808000Y-98214000D01*
G75*
G02*
X104933000Y-98089000I125000J0D01*
G01*
X106258000Y-98089000D01*
G75*
G02*
X106383000Y-98214000I0J-125000D01*
G01*
G37*
G36*
G01*
X106383000Y-97564000D02*
X106383000Y-97814000D01*
G75*
G02*
X106258000Y-97939000I-125000J0D01*
G01*
X104933000Y-97939000D01*
G75*
G02*
X104808000Y-97814000I0J125000D01*
G01*
X104808000Y-97564000D01*
G75*
G02*
X104933000Y-97439000I125000J0D01*
G01*
X106258000Y-97439000D01*
G75*
G02*
X106383000Y-97564000I0J-125000D01*
G01*
G37*
G36*
G01*
X106383000Y-96914000D02*
X106383000Y-97164000D01*
G75*
G02*
X106258000Y-97289000I-125000J0D01*
G01*
X104933000Y-97289000D01*
G75*
G02*
X104808000Y-97164000I0J125000D01*
G01*
X104808000Y-96914000D01*
G75*
G02*
X104933000Y-96789000I125000J0D01*
G01*
X106258000Y-96789000D01*
G75*
G02*
X106383000Y-96914000I0J-125000D01*
G01*
G37*
G36*
G01*
X106383000Y-96264000D02*
X106383000Y-96514000D01*
G75*
G02*
X106258000Y-96639000I-125000J0D01*
G01*
X104933000Y-96639000D01*
G75*
G02*
X104808000Y-96514000I0J125000D01*
G01*
X104808000Y-96264000D01*
G75*
G02*
X104933000Y-96139000I125000J0D01*
G01*
X106258000Y-96139000D01*
G75*
G02*
X106383000Y-96264000I0J-125000D01*
G01*
G37*
G36*
G01*
X112108000Y-96264000D02*
X112108000Y-96514000D01*
G75*
G02*
X111983000Y-96639000I-125000J0D01*
G01*
X110658000Y-96639000D01*
G75*
G02*
X110533000Y-96514000I0J125000D01*
G01*
X110533000Y-96264000D01*
G75*
G02*
X110658000Y-96139000I125000J0D01*
G01*
X111983000Y-96139000D01*
G75*
G02*
X112108000Y-96264000I0J-125000D01*
G01*
G37*
G36*
G01*
X112108000Y-96914000D02*
X112108000Y-97164000D01*
G75*
G02*
X111983000Y-97289000I-125000J0D01*
G01*
X110658000Y-97289000D01*
G75*
G02*
X110533000Y-97164000I0J125000D01*
G01*
X110533000Y-96914000D01*
G75*
G02*
X110658000Y-96789000I125000J0D01*
G01*
X111983000Y-96789000D01*
G75*
G02*
X112108000Y-96914000I0J-125000D01*
G01*
G37*
G36*
G01*
X112108000Y-97564000D02*
X112108000Y-97814000D01*
G75*
G02*
X111983000Y-97939000I-125000J0D01*
G01*
X110658000Y-97939000D01*
G75*
G02*
X110533000Y-97814000I0J125000D01*
G01*
X110533000Y-97564000D01*
G75*
G02*
X110658000Y-97439000I125000J0D01*
G01*
X111983000Y-97439000D01*
G75*
G02*
X112108000Y-97564000I0J-125000D01*
G01*
G37*
G36*
G01*
X112108000Y-98214000D02*
X112108000Y-98464000D01*
G75*
G02*
X111983000Y-98589000I-125000J0D01*
G01*
X110658000Y-98589000D01*
G75*
G02*
X110533000Y-98464000I0J125000D01*
G01*
X110533000Y-98214000D01*
G75*
G02*
X110658000Y-98089000I125000J0D01*
G01*
X111983000Y-98089000D01*
G75*
G02*
X112108000Y-98214000I0J-125000D01*
G01*
G37*
G36*
G01*
X112108000Y-98864000D02*
X112108000Y-99114000D01*
G75*
G02*
X111983000Y-99239000I-125000J0D01*
G01*
X110658000Y-99239000D01*
G75*
G02*
X110533000Y-99114000I0J125000D01*
G01*
X110533000Y-98864000D01*
G75*
G02*
X110658000Y-98739000I125000J0D01*
G01*
X111983000Y-98739000D01*
G75*
G02*
X112108000Y-98864000I0J-125000D01*
G01*
G37*
G36*
G01*
X112108000Y-99514000D02*
X112108000Y-99764000D01*
G75*
G02*
X111983000Y-99889000I-125000J0D01*
G01*
X110658000Y-99889000D01*
G75*
G02*
X110533000Y-99764000I0J125000D01*
G01*
X110533000Y-99514000D01*
G75*
G02*
X110658000Y-99389000I125000J0D01*
G01*
X111983000Y-99389000D01*
G75*
G02*
X112108000Y-99514000I0J-125000D01*
G01*
G37*
G36*
G01*
X112108000Y-100164000D02*
X112108000Y-100414000D01*
G75*
G02*
X111983000Y-100539000I-125000J0D01*
G01*
X110658000Y-100539000D01*
G75*
G02*
X110533000Y-100414000I0J125000D01*
G01*
X110533000Y-100164000D01*
G75*
G02*
X110658000Y-100039000I125000J0D01*
G01*
X111983000Y-100039000D01*
G75*
G02*
X112108000Y-100164000I0J-125000D01*
G01*
G37*
G36*
G01*
X112108000Y-100814000D02*
X112108000Y-101064000D01*
G75*
G02*
X111983000Y-101189000I-125000J0D01*
G01*
X110658000Y-101189000D01*
G75*
G02*
X110533000Y-101064000I0J125000D01*
G01*
X110533000Y-100814000D01*
G75*
G02*
X110658000Y-100689000I125000J0D01*
G01*
X111983000Y-100689000D01*
G75*
G02*
X112108000Y-100814000I0J-125000D01*
G01*
G37*
G36*
G01*
X112108000Y-101464000D02*
X112108000Y-101714000D01*
G75*
G02*
X111983000Y-101839000I-125000J0D01*
G01*
X110658000Y-101839000D01*
G75*
G02*
X110533000Y-101714000I0J125000D01*
G01*
X110533000Y-101464000D01*
G75*
G02*
X110658000Y-101339000I125000J0D01*
G01*
X111983000Y-101339000D01*
G75*
G02*
X112108000Y-101464000I0J-125000D01*
G01*
G37*
G36*
G01*
X112108000Y-102114000D02*
X112108000Y-102364000D01*
G75*
G02*
X111983000Y-102489000I-125000J0D01*
G01*
X110658000Y-102489000D01*
G75*
G02*
X110533000Y-102364000I0J125000D01*
G01*
X110533000Y-102114000D01*
G75*
G02*
X110658000Y-101989000I125000J0D01*
G01*
X111983000Y-101989000D01*
G75*
G02*
X112108000Y-102114000I0J-125000D01*
G01*
G37*
G04 #@! TD*
G04 #@! TO.C,U6*
G36*
G01*
X117051000Y-93859000D02*
X117051000Y-94109000D01*
G75*
G02*
X116926000Y-94234000I-125000J0D01*
G01*
X115601000Y-94234000D01*
G75*
G02*
X115476000Y-94109000I0J125000D01*
G01*
X115476000Y-93859000D01*
G75*
G02*
X115601000Y-93734000I125000J0D01*
G01*
X116926000Y-93734000D01*
G75*
G02*
X117051000Y-93859000I0J-125000D01*
G01*
G37*
G36*
G01*
X117051000Y-93209000D02*
X117051000Y-93459000D01*
G75*
G02*
X116926000Y-93584000I-125000J0D01*
G01*
X115601000Y-93584000D01*
G75*
G02*
X115476000Y-93459000I0J125000D01*
G01*
X115476000Y-93209000D01*
G75*
G02*
X115601000Y-93084000I125000J0D01*
G01*
X116926000Y-93084000D01*
G75*
G02*
X117051000Y-93209000I0J-125000D01*
G01*
G37*
G36*
G01*
X117051000Y-92559000D02*
X117051000Y-92809000D01*
G75*
G02*
X116926000Y-92934000I-125000J0D01*
G01*
X115601000Y-92934000D01*
G75*
G02*
X115476000Y-92809000I0J125000D01*
G01*
X115476000Y-92559000D01*
G75*
G02*
X115601000Y-92434000I125000J0D01*
G01*
X116926000Y-92434000D01*
G75*
G02*
X117051000Y-92559000I0J-125000D01*
G01*
G37*
G36*
G01*
X117051000Y-91909000D02*
X117051000Y-92159000D01*
G75*
G02*
X116926000Y-92284000I-125000J0D01*
G01*
X115601000Y-92284000D01*
G75*
G02*
X115476000Y-92159000I0J125000D01*
G01*
X115476000Y-91909000D01*
G75*
G02*
X115601000Y-91784000I125000J0D01*
G01*
X116926000Y-91784000D01*
G75*
G02*
X117051000Y-91909000I0J-125000D01*
G01*
G37*
G36*
G01*
X117051000Y-91259000D02*
X117051000Y-91509000D01*
G75*
G02*
X116926000Y-91634000I-125000J0D01*
G01*
X115601000Y-91634000D01*
G75*
G02*
X115476000Y-91509000I0J125000D01*
G01*
X115476000Y-91259000D01*
G75*
G02*
X115601000Y-91134000I125000J0D01*
G01*
X116926000Y-91134000D01*
G75*
G02*
X117051000Y-91259000I0J-125000D01*
G01*
G37*
G36*
G01*
X117051000Y-90609000D02*
X117051000Y-90859000D01*
G75*
G02*
X116926000Y-90984000I-125000J0D01*
G01*
X115601000Y-90984000D01*
G75*
G02*
X115476000Y-90859000I0J125000D01*
G01*
X115476000Y-90609000D01*
G75*
G02*
X115601000Y-90484000I125000J0D01*
G01*
X116926000Y-90484000D01*
G75*
G02*
X117051000Y-90609000I0J-125000D01*
G01*
G37*
G36*
G01*
X117051000Y-89959000D02*
X117051000Y-90209000D01*
G75*
G02*
X116926000Y-90334000I-125000J0D01*
G01*
X115601000Y-90334000D01*
G75*
G02*
X115476000Y-90209000I0J125000D01*
G01*
X115476000Y-89959000D01*
G75*
G02*
X115601000Y-89834000I125000J0D01*
G01*
X116926000Y-89834000D01*
G75*
G02*
X117051000Y-89959000I0J-125000D01*
G01*
G37*
G36*
G01*
X117051000Y-89309000D02*
X117051000Y-89559000D01*
G75*
G02*
X116926000Y-89684000I-125000J0D01*
G01*
X115601000Y-89684000D01*
G75*
G02*
X115476000Y-89559000I0J125000D01*
G01*
X115476000Y-89309000D01*
G75*
G02*
X115601000Y-89184000I125000J0D01*
G01*
X116926000Y-89184000D01*
G75*
G02*
X117051000Y-89309000I0J-125000D01*
G01*
G37*
G36*
G01*
X117051000Y-88659000D02*
X117051000Y-88909000D01*
G75*
G02*
X116926000Y-89034000I-125000J0D01*
G01*
X115601000Y-89034000D01*
G75*
G02*
X115476000Y-88909000I0J125000D01*
G01*
X115476000Y-88659000D01*
G75*
G02*
X115601000Y-88534000I125000J0D01*
G01*
X116926000Y-88534000D01*
G75*
G02*
X117051000Y-88659000I0J-125000D01*
G01*
G37*
G36*
G01*
X117051000Y-88009000D02*
X117051000Y-88259000D01*
G75*
G02*
X116926000Y-88384000I-125000J0D01*
G01*
X115601000Y-88384000D01*
G75*
G02*
X115476000Y-88259000I0J125000D01*
G01*
X115476000Y-88009000D01*
G75*
G02*
X115601000Y-87884000I125000J0D01*
G01*
X116926000Y-87884000D01*
G75*
G02*
X117051000Y-88009000I0J-125000D01*
G01*
G37*
G36*
G01*
X122776000Y-88009000D02*
X122776000Y-88259000D01*
G75*
G02*
X122651000Y-88384000I-125000J0D01*
G01*
X121326000Y-88384000D01*
G75*
G02*
X121201000Y-88259000I0J125000D01*
G01*
X121201000Y-88009000D01*
G75*
G02*
X121326000Y-87884000I125000J0D01*
G01*
X122651000Y-87884000D01*
G75*
G02*
X122776000Y-88009000I0J-125000D01*
G01*
G37*
G36*
G01*
X122776000Y-88659000D02*
X122776000Y-88909000D01*
G75*
G02*
X122651000Y-89034000I-125000J0D01*
G01*
X121326000Y-89034000D01*
G75*
G02*
X121201000Y-88909000I0J125000D01*
G01*
X121201000Y-88659000D01*
G75*
G02*
X121326000Y-88534000I125000J0D01*
G01*
X122651000Y-88534000D01*
G75*
G02*
X122776000Y-88659000I0J-125000D01*
G01*
G37*
G36*
G01*
X122776000Y-89309000D02*
X122776000Y-89559000D01*
G75*
G02*
X122651000Y-89684000I-125000J0D01*
G01*
X121326000Y-89684000D01*
G75*
G02*
X121201000Y-89559000I0J125000D01*
G01*
X121201000Y-89309000D01*
G75*
G02*
X121326000Y-89184000I125000J0D01*
G01*
X122651000Y-89184000D01*
G75*
G02*
X122776000Y-89309000I0J-125000D01*
G01*
G37*
G36*
G01*
X122776000Y-89959000D02*
X122776000Y-90209000D01*
G75*
G02*
X122651000Y-90334000I-125000J0D01*
G01*
X121326000Y-90334000D01*
G75*
G02*
X121201000Y-90209000I0J125000D01*
G01*
X121201000Y-89959000D01*
G75*
G02*
X121326000Y-89834000I125000J0D01*
G01*
X122651000Y-89834000D01*
G75*
G02*
X122776000Y-89959000I0J-125000D01*
G01*
G37*
G36*
G01*
X122776000Y-90609000D02*
X122776000Y-90859000D01*
G75*
G02*
X122651000Y-90984000I-125000J0D01*
G01*
X121326000Y-90984000D01*
G75*
G02*
X121201000Y-90859000I0J125000D01*
G01*
X121201000Y-90609000D01*
G75*
G02*
X121326000Y-90484000I125000J0D01*
G01*
X122651000Y-90484000D01*
G75*
G02*
X122776000Y-90609000I0J-125000D01*
G01*
G37*
G36*
G01*
X122776000Y-91259000D02*
X122776000Y-91509000D01*
G75*
G02*
X122651000Y-91634000I-125000J0D01*
G01*
X121326000Y-91634000D01*
G75*
G02*
X121201000Y-91509000I0J125000D01*
G01*
X121201000Y-91259000D01*
G75*
G02*
X121326000Y-91134000I125000J0D01*
G01*
X122651000Y-91134000D01*
G75*
G02*
X122776000Y-91259000I0J-125000D01*
G01*
G37*
G36*
G01*
X122776000Y-91909000D02*
X122776000Y-92159000D01*
G75*
G02*
X122651000Y-92284000I-125000J0D01*
G01*
X121326000Y-92284000D01*
G75*
G02*
X121201000Y-92159000I0J125000D01*
G01*
X121201000Y-91909000D01*
G75*
G02*
X121326000Y-91784000I125000J0D01*
G01*
X122651000Y-91784000D01*
G75*
G02*
X122776000Y-91909000I0J-125000D01*
G01*
G37*
G36*
G01*
X122776000Y-92559000D02*
X122776000Y-92809000D01*
G75*
G02*
X122651000Y-92934000I-125000J0D01*
G01*
X121326000Y-92934000D01*
G75*
G02*
X121201000Y-92809000I0J125000D01*
G01*
X121201000Y-92559000D01*
G75*
G02*
X121326000Y-92434000I125000J0D01*
G01*
X122651000Y-92434000D01*
G75*
G02*
X122776000Y-92559000I0J-125000D01*
G01*
G37*
G36*
G01*
X122776000Y-93209000D02*
X122776000Y-93459000D01*
G75*
G02*
X122651000Y-93584000I-125000J0D01*
G01*
X121326000Y-93584000D01*
G75*
G02*
X121201000Y-93459000I0J125000D01*
G01*
X121201000Y-93209000D01*
G75*
G02*
X121326000Y-93084000I125000J0D01*
G01*
X122651000Y-93084000D01*
G75*
G02*
X122776000Y-93209000I0J-125000D01*
G01*
G37*
G36*
G01*
X122776000Y-93859000D02*
X122776000Y-94109000D01*
G75*
G02*
X122651000Y-94234000I-125000J0D01*
G01*
X121326000Y-94234000D01*
G75*
G02*
X121201000Y-94109000I0J125000D01*
G01*
X121201000Y-93859000D01*
G75*
G02*
X121326000Y-93734000I125000J0D01*
G01*
X122651000Y-93734000D01*
G75*
G02*
X122776000Y-93859000I0J-125000D01*
G01*
G37*
G04 #@! TD*
G04 #@! TO.C,Y1*
G36*
G01*
X91680000Y-84467000D02*
X92880000Y-84467000D01*
G75*
G02*
X92930000Y-84517000I0J-50000D01*
G01*
X92930000Y-85917000D01*
G75*
G02*
X92880000Y-85967000I-50000J0D01*
G01*
X91680000Y-85967000D01*
G75*
G02*
X91630000Y-85917000I0J50000D01*
G01*
X91630000Y-84517000D01*
G75*
G02*
X91680000Y-84467000I50000J0D01*
G01*
G37*
G36*
G01*
X91680000Y-86667000D02*
X92880000Y-86667000D01*
G75*
G02*
X92930000Y-86717000I0J-50000D01*
G01*
X92930000Y-88117000D01*
G75*
G02*
X92880000Y-88167000I-50000J0D01*
G01*
X91680000Y-88167000D01*
G75*
G02*
X91630000Y-88117000I0J50000D01*
G01*
X91630000Y-86717000D01*
G75*
G02*
X91680000Y-86667000I50000J0D01*
G01*
G37*
G36*
G01*
X93380000Y-86667000D02*
X94580000Y-86667000D01*
G75*
G02*
X94630000Y-86717000I0J-50000D01*
G01*
X94630000Y-88117000D01*
G75*
G02*
X94580000Y-88167000I-50000J0D01*
G01*
X93380000Y-88167000D01*
G75*
G02*
X93330000Y-88117000I0J50000D01*
G01*
X93330000Y-86717000D01*
G75*
G02*
X93380000Y-86667000I50000J0D01*
G01*
G37*
G36*
G01*
X93380000Y-84467000D02*
X94580000Y-84467000D01*
G75*
G02*
X94630000Y-84517000I0J-50000D01*
G01*
X94630000Y-85917000D01*
G75*
G02*
X94580000Y-85967000I-50000J0D01*
G01*
X93380000Y-85967000D01*
G75*
G02*
X93330000Y-85917000I0J50000D01*
G01*
X93330000Y-84517000D01*
G75*
G02*
X93380000Y-84467000I50000J0D01*
G01*
G37*
G04 #@! TD*
G04 #@! TO.C,GND*
X121539000Y-64008000D03*
G04 #@! TD*
M02*
