M48
; DRILL file {KiCad 5.1.9} date Sat Jan  9 13:53:51 2021
; FORMAT={-:-/ absolute / metric / decimal}
; #@! TF.CreationDate,2021-01-09T13:53:51+02:00
; #@! TF.GenerationSoftware,Kicad,Pcbnew,5.1.9
FMAT,2
METRIC
T1C0.400
T2C0.800
T3C0.900
T4C1.000
T5C1.200
T6C1.300
T7C1.500
T8C2.000
T9C2.700
T10C4.300
%
G90
G05
T1
X75.819Y-92.964
X77.343Y-89.789
X77.978Y-79.248
X78.486Y-83.312
X78.486Y-84.328
X78.867Y-85.471
X79.502Y-86.106
X79.697Y-89.271
X80.518Y-91.567
X80.645Y-93.853
X82.423Y-85.344
X83.185Y-117.221
X83.312Y-110.744
X83.82Y-91.821
X84.074Y-104.267
X84.963Y-77.851
X84.963Y-91.567
X84.963Y-94.234
X85.852Y-94.234
X85.979Y-103.378
X86.106Y-95.25
X86.487Y-81.788
X87.376Y-83.058
X87.757Y-100.711
X88.011Y-74.422
X88.265Y-79.248
X88.519Y-104.775
X88.773Y-95.25
X88.9Y-100.711
X89.043Y-80.488
X89.662Y-92.71
X89.748Y-94.66
X89.89Y-90.016
X90.091Y-96.218
X90.297Y-98.552
X90.355Y-97.387
X90.678Y-77.216
X90.713Y-91.223
X90.946Y-92.196
X91.186Y-116.078
X91.948Y-109.474
X93.322Y-98.552
X93.345Y-96.52
X93.345Y-104.267
X93.726Y-102.489
X93.726Y-117.602
X93.848Y-82.173
X94.158Y-99.366
X94.294Y-79.696
X94.47Y-90.406
X94.488Y-100.887
X94.615Y-102.489
X94.996Y-74.93
X95.005Y-97.453
X95.177Y-83.875
X95.18Y-87.63
X95.25Y-81.788
X95.631Y-102.489
X95.758Y-100.965
X96.012Y-93.599
X96.52Y-102.489
X96.774Y-96.647
X97.028Y-79.883
X97.189Y-92.262
X97.409Y-102.489
X97.917Y-109.347
X98.119Y-82.82
X98.127Y-84.841
X98.164Y-86.988
X98.298Y-97.409
X98.298Y-102.489
X98.404Y-81.585
X98.425Y-104.08
X98.676Y-85.849
X99.08Y-78.212
X99.191Y-86.953
X99.568Y-77.343
X99.622Y-85.344
X99.822Y-74.168
X99.822Y-94.361
X100.048Y-84.37
X100.173Y-92.697
X100.363Y-83.419
X100.604Y-78.212
X100.711Y-102.489
X100.902Y-82.577
X101.092Y-93.091
X101.346Y-89.281
X102.108Y-77.47
X102.235Y-85.217
X102.235Y-86.487
X102.495Y-92.938
X102.634Y-81.823
X102.997Y-89.027
X103.124Y-104.521
X103.632Y-98.552
X103.759Y-96.139
X103.886Y-77.851
X103.901Y-88.173
X104.61Y-86.796
X105.41Y-83.058
X105.664Y-103.251
X105.791Y-85.786
X105.791Y-86.741
X105.791Y-88.034
X105.918Y-84.455
X106.478Y-88.721
X106.553Y-87.376
X106.6Y-82.519
X107.263Y-96.953
X108.839Y-102.616
X109.666Y-87.359
X110.49Y-76.454
X110.49Y-116.332
X110.649Y-87.173
X110.718Y-79.696
X110.998Y-95.631
X111.379Y-103.759
X111.529Y-86.699
X111.542Y-80.263
X111.76Y-77.47
X111.76Y-78.486
X112.081Y-95.19
X112.209Y-85.965
X112.649Y-96.774
X112.709Y-103.006
X112.903Y-117.602
X113.094Y-85.499
X113.224Y-111.125
X113.665Y-94.107
X113.85Y-84.798
X113.983Y-103.441
X114.554Y-100.203
X114.554Y-102.743
X114.681Y-94.107
X115.062Y-98.806
X116.967Y-96.012
X118.11Y-81.534
X119.023Y-84.667
X119.126Y-87.28
X119.264Y-83.697
X119.441Y-82.004
X119.507Y-97.536
X120.269Y-90.218
X120.378Y-91.621
X120.396Y-104.267
X120.65Y-81.661
X120.666Y-93.024
X121.666Y-83.312
X122.682Y-83.312
X123.07Y-80.839
X123.444Y-92.71
X123.698Y-83.312
X123.698Y-90.043
X123.698Y-91.44
X124.46Y-89.027
X124.46Y-107.188
X124.714Y-83.312
X125.711Y-94.888
X125.73Y-83.312
X126.524Y-98.52
X126.524Y-99.409
X126.524Y-100.425
X126.524Y-101.314
X126.746Y-83.312
X127.889Y-88.011
X128.016Y-81.28
X128.016Y-82.296
X128.016Y-83.312
X128.143Y-67.818
X128.143Y-72.136
X128.143Y-73.025
X128.143Y-73.914
X128.143Y-74.803
X128.524Y-98.552
X128.524Y-99.441
X128.524Y-100.457
X128.524Y-101.346
X128.985Y-107.522
X129.54Y-94.869
X129.614Y-77.276
X129.655Y-87.237
X129.856Y-82.255
X129.921Y-102.87
X130.556Y-71.628
X130.556Y-94.869
X130.81Y-83.312
X130.81Y-102.87
X131.191Y-95.504
X131.318Y-88.646
X131.572Y-76.962
X131.572Y-80.772
X131.699Y-102.87
X131.826Y-91.059
X134.472Y-100.944
X134.747Y-81.788
X134.874Y-83.312
X135.234Y-100.182
X135.509Y-97.282
X135.996Y-99.42
X136.207Y-96.584
X136.525Y-82.677
X136.758Y-98.658
X136.779Y-63.627
X137.922Y-63.627
X138.652Y-95.409
X138.753Y-84.681
X139.065Y-63.627
X139.319Y-97.409
X139.541Y-95.409
X139.957Y-84.681
X139.986Y-91.408
X140.081Y-89.408
X140.208Y-63.627
X140.208Y-97.409
X140.43Y-95.409
X140.875Y-91.408
X140.97Y-89.408
X141.224Y-97.409
X141.319Y-95.409
X141.351Y-63.627
X141.764Y-91.408
X141.859Y-89.408
X142.494Y-63.627
X143.256Y-92.71
X143.256Y-93.853
X143.637Y-63.627
X144.505Y-101.071
X144.78Y-63.627
X144.982Y-67.385
X145.203Y-100.373
X145.415Y-96.266
X145.415Y-99.314
X145.923Y-63.627
X146.685Y-97.409
X147.066Y-63.627
X147.078Y-90.412
X147.574Y-97.409
X147.828Y-89.535
X148.463Y-63.627
X148.463Y-72.517
X148.463Y-97.409
X148.717Y-88.773
X148.971Y-64.897
X149.352Y-82.804
X149.352Y-97.409
X149.719Y-87.951
X150.241Y-97.409
X151.003Y-82.296
X152.776Y-83.179
X152.781Y-75.057
X153.543Y-73.787
X153.543Y-83.947
X156.591Y-87.249
X157.607Y-86.36
X160.528Y-85.598
X160.528Y-94.234
X160.528Y-96.012
X160.782Y-76.454
X161.544Y-123.952
X161.583Y-98.748
X161.798Y-102.616
X162.306Y-125.476
X162.689Y-97.082
X163.351Y-98.704
X163.449Y-91.694
X163.763Y-101.368
X164.098Y-94.474
X164.594Y-98.809
X164.719Y-127.381
X164.973Y-116.84
X165.1Y-90.424
X166.116Y-90.424
X166.878Y-124.206
X167.005Y-89.535
X167.435Y-99.363
X168.148Y-90.297
X168.313Y-99.841
X168.402Y-110.998
X168.529Y-104.521
X168.656Y-96.774
X169.291Y-89.408
X169.291Y-102.489
X169.418Y-101.219
X169.545Y-95.631
X170.307Y-88.646
X170.307Y-97.663
X170.561Y-100.341
X171.196Y-91.567
X171.704Y-95.504
X172.212Y-92.837
X173.355Y-102.87
T2
X126.238Y-134.366
X126.524Y-97.155
X126.524Y-102.87
X128.524Y-97.155
X128.524Y-102.87
X128.938Y-126.866
X133.985Y-130.175
X133.985Y-134.493
X139.065Y-130.175
X139.065Y-134.493
X143.256Y-89.408
X143.256Y-91.408
X143.256Y-95.409
X143.256Y-97.409
T3
X80.0Y-100.5
X80.0Y-107.0
X80.0Y-120.0
X80.01Y-113.5
X82.54Y-100.5
X82.54Y-107.0
X82.54Y-120.0
X82.55Y-113.5
X86.5Y-107.0
X86.5Y-113.5
X86.5Y-120.0
X89.04Y-107.0
X89.04Y-113.5
X89.04Y-120.0
X99.5Y-100.5
X99.5Y-107.0
X99.5Y-113.5
X99.5Y-120.0
X102.04Y-100.5
X102.04Y-107.0
X102.04Y-113.5
X102.04Y-120.0
X106.0Y-107.0
X106.0Y-113.5
X106.0Y-120.0
X108.54Y-107.0
X108.54Y-113.5
X108.54Y-120.0
X119.0Y-100.5
X119.0Y-107.0
X119.0Y-113.5
X119.0Y-120.0
X121.54Y-100.5
X121.54Y-107.0
X121.54Y-113.5
X121.54Y-120.0
X125.5Y-113.5
X125.5Y-120.0
X128.04Y-113.5
X128.04Y-120.0
X160.0Y-100.5
X160.0Y-107.0
X160.0Y-113.5
X160.0Y-120.0
X162.54Y-100.5
X162.54Y-107.0
X162.54Y-113.5
X162.54Y-120.0
X166.5Y-75.819
X166.5Y-82.423
X166.5Y-107.0
X166.5Y-113.5
X166.5Y-120.0
X169.04Y-75.819
X169.04Y-82.423
X169.04Y-107.0
X169.04Y-113.5
X169.04Y-120.0
T4
X133.113Y-102.303
X134.403Y-123.063
X138.303Y-123.063
X143.273Y-102.303
X154.703Y-102.303
X156.21Y-64.389
X156.21Y-66.929
X156.21Y-69.469
X156.21Y-80.137
X156.21Y-82.677
T5
X144.399Y-128.778
X144.399Y-134.366
X159.639Y-128.778
X159.639Y-134.366
T6
X100.055Y-131.826
X122.555Y-131.826
T7
X111.633Y-71.247
X111.633Y-91.737
T8
X88.0Y-132.0
X95.0Y-132.0
X121.539Y-64.008
X126.365Y-64.008
T9
X111.305Y-131.826
T10
X80.0Y-67.0
X80.0Y-132.0
X169.04Y-67.0
X169.04Y-132.0
T0
M30
