G04 #@! TF.GenerationSoftware,KiCad,Pcbnew,5.1.9*
G04 #@! TF.CreationDate,2021-01-09T13:55:21+02:00*
G04 #@! TF.ProjectId,block,626c6f63-6b2e-46b6-9963-61645f706362,rev?*
G04 #@! TF.SameCoordinates,Original*
G04 #@! TF.FileFunction,Legend,Bot*
G04 #@! TF.FilePolarity,Positive*
%FSLAX46Y46*%
G04 Gerber Fmt 4.6, Leading zero omitted, Abs format (unit mm)*
G04 Created by KiCad (PCBNEW 5.1.9) date 2021-01-09 13:55:21*
%MOMM*%
%LPD*%
G01*
G04 APERTURE LIST*
%ADD10C,0.120000*%
%ADD11C,0.150000*%
G04 APERTURE END LIST*
D10*
G04 #@! TO.C,D21*
X129270000Y-120000000D02*
G75*
G03*
X129270000Y-120000000I-2500000J0D01*
G01*
X124210000Y-121545000D02*
X124210000Y-118455000D01*
X129760000Y-119999538D02*
G75*
G02*
X124210000Y-121544830I-2990000J-462D01*
G01*
X129760000Y-120000462D02*
G75*
G03*
X124210000Y-118455170I-2990000J462D01*
G01*
G04 #@! TO.C,D13*
X109770000Y-107000000D02*
G75*
G03*
X109770000Y-107000000I-2500000J0D01*
G01*
X104710000Y-108545000D02*
X104710000Y-105455000D01*
X110260000Y-106999538D02*
G75*
G02*
X104710000Y-108544830I-2990000J-462D01*
G01*
X110260000Y-107000462D02*
G75*
G03*
X104710000Y-105455170I-2990000J462D01*
G01*
G04 #@! TO.C,D7*
X170270000Y-107000000D02*
G75*
G03*
X170270000Y-107000000I-2500000J0D01*
G01*
X165210000Y-108545000D02*
X165210000Y-105455000D01*
X170760000Y-107000462D02*
G75*
G03*
X165210000Y-105455170I-2990000J462D01*
G01*
X170760000Y-106999538D02*
G75*
G02*
X165210000Y-108544830I-2990000J-462D01*
G01*
G04 #@! TO.C,D6*
X170270000Y-113500000D02*
G75*
G03*
X170270000Y-113500000I-2500000J0D01*
G01*
X165210000Y-115045000D02*
X165210000Y-111955000D01*
X170760000Y-113500462D02*
G75*
G03*
X165210000Y-111955170I-2990000J462D01*
G01*
X170760000Y-113499538D02*
G75*
G02*
X165210000Y-115044830I-2990000J-462D01*
G01*
G04 #@! TO.C,BT1*
X114683000Y-90787000D02*
X114683000Y-93237000D01*
X108583000Y-93237000D02*
X108583000Y-90787000D01*
X114133000Y-93787000D02*
X109133000Y-93787000D01*
X111648231Y-62537262D02*
G75*
G03*
X108113000Y-90087000I-15231J-13999738D01*
G01*
X111617769Y-62537262D02*
G75*
G02*
X115153000Y-90087000I15231J-13999738D01*
G01*
X108089515Y-90082231D02*
G75*
G02*
X108583000Y-90787000I-256515J-704769D01*
G01*
X115176485Y-90082231D02*
G75*
G03*
X114683000Y-90787000I256515J-704769D01*
G01*
X114683000Y-93237000D02*
G75*
G02*
X114133000Y-93787000I-550000J0D01*
G01*
X108583000Y-93237000D02*
G75*
G03*
X109133000Y-93787000I550000J0D01*
G01*
G04 #@! TO.C,C24*
X78865000Y-94660767D02*
X78865000Y-94368233D01*
X79885000Y-94660767D02*
X79885000Y-94368233D01*
G04 #@! TO.C,C9*
X98071000Y-94600752D02*
X98071000Y-94078248D01*
X99541000Y-94600752D02*
X99541000Y-94078248D01*
G04 #@! TO.C,C11*
X96518000Y-94660767D02*
X96518000Y-94368233D01*
X97538000Y-94660767D02*
X97538000Y-94368233D01*
G04 #@! TO.C,C20*
X83437000Y-95331233D02*
X83437000Y-95623767D01*
X84457000Y-95331233D02*
X84457000Y-95623767D01*
G04 #@! TO.C,C21*
X82552000Y-95331233D02*
X82552000Y-95623767D01*
X81532000Y-95331233D02*
X81532000Y-95623767D01*
G04 #@! TO.C,C13*
X112774000Y-100919233D02*
X112774000Y-101211767D01*
X113794000Y-100919233D02*
X113794000Y-101211767D01*
G04 #@! TO.C,C22*
X115695000Y-96246733D02*
X115695000Y-96539267D01*
X116715000Y-96246733D02*
X116715000Y-96539267D01*
G04 #@! TO.C,C14*
X107059000Y-101873267D02*
X107059000Y-101580733D01*
X108079000Y-101873267D02*
X108079000Y-101580733D01*
G04 #@! TO.C,C23*
X114171000Y-96246733D02*
X114171000Y-96539267D01*
X115191000Y-96246733D02*
X115191000Y-96539267D01*
G04 #@! TO.C,D16*
X83770000Y-120000000D02*
G75*
G03*
X83770000Y-120000000I-2500000J0D01*
G01*
X78710000Y-121545000D02*
X78710000Y-118455000D01*
X84260000Y-119999538D02*
G75*
G02*
X78710000Y-121544830I-2990000J-462D01*
G01*
X84260000Y-120000462D02*
G75*
G03*
X78710000Y-118455170I-2990000J462D01*
G01*
G04 #@! TO.C,D18*
X83780000Y-113500000D02*
G75*
G03*
X83780000Y-113500000I-2500000J0D01*
G01*
X78720000Y-115045000D02*
X78720000Y-111955000D01*
X84270000Y-113499538D02*
G75*
G02*
X78720000Y-115044830I-2990000J-462D01*
G01*
X84270000Y-113500462D02*
G75*
G03*
X78720000Y-111955170I-2990000J462D01*
G01*
G04 #@! TO.C,D20*
X83770000Y-107000000D02*
G75*
G03*
X83770000Y-107000000I-2500000J0D01*
G01*
X78710000Y-108545000D02*
X78710000Y-105455000D01*
X84260000Y-106999538D02*
G75*
G02*
X78710000Y-108544830I-2990000J-462D01*
G01*
X84260000Y-107000462D02*
G75*
G03*
X78710000Y-105455170I-2990000J462D01*
G01*
G04 #@! TO.C,D22*
X78710000Y-102045000D02*
X78710000Y-98955000D01*
X83770000Y-100500000D02*
G75*
G03*
X83770000Y-100500000I-2500000J0D01*
G01*
X84260000Y-100500462D02*
G75*
G03*
X78710000Y-98955170I-2990000J462D01*
G01*
X84260000Y-100499538D02*
G75*
G02*
X78710000Y-102044830I-2990000J-462D01*
G01*
G04 #@! TO.C,D24*
X90270000Y-120000000D02*
G75*
G03*
X90270000Y-120000000I-2500000J0D01*
G01*
X85210000Y-121545000D02*
X85210000Y-118455000D01*
X90760000Y-119999538D02*
G75*
G02*
X85210000Y-121544830I-2990000J-462D01*
G01*
X90760000Y-120000462D02*
G75*
G03*
X85210000Y-118455170I-2990000J462D01*
G01*
G04 #@! TO.C,D26*
X85210000Y-115045000D02*
X85210000Y-111955000D01*
X90270000Y-113500000D02*
G75*
G03*
X90270000Y-113500000I-2500000J0D01*
G01*
X90760000Y-113500462D02*
G75*
G03*
X85210000Y-111955170I-2990000J462D01*
G01*
X90760000Y-113499538D02*
G75*
G02*
X85210000Y-115044830I-2990000J-462D01*
G01*
G04 #@! TO.C,D28*
X90270000Y-107000000D02*
G75*
G03*
X90270000Y-107000000I-2500000J0D01*
G01*
X85210000Y-108545000D02*
X85210000Y-105455000D01*
X90760000Y-106999538D02*
G75*
G02*
X85210000Y-108544830I-2990000J-462D01*
G01*
X90760000Y-107000462D02*
G75*
G03*
X85210000Y-105455170I-2990000J462D01*
G01*
G04 #@! TO.C,D29*
X98210000Y-121545000D02*
X98210000Y-118455000D01*
X103270000Y-120000000D02*
G75*
G03*
X103270000Y-120000000I-2500000J0D01*
G01*
X103760000Y-120000462D02*
G75*
G03*
X98210000Y-118455170I-2990000J462D01*
G01*
X103760000Y-119999538D02*
G75*
G02*
X98210000Y-121544830I-2990000J-462D01*
G01*
G04 #@! TO.C,D1*
X158710000Y-121545000D02*
X158710000Y-118455000D01*
X163770000Y-120000000D02*
G75*
G03*
X163770000Y-120000000I-2500000J0D01*
G01*
X164260000Y-120000462D02*
G75*
G03*
X158710000Y-118455170I-2990000J462D01*
G01*
X164260000Y-119999538D02*
G75*
G02*
X158710000Y-121544830I-2990000J-462D01*
G01*
G04 #@! TO.C,D2*
X158710000Y-115045000D02*
X158710000Y-111955000D01*
X163770000Y-113500000D02*
G75*
G03*
X163770000Y-113500000I-2500000J0D01*
G01*
X164260000Y-113500462D02*
G75*
G03*
X158710000Y-111955170I-2990000J462D01*
G01*
X164260000Y-113499538D02*
G75*
G02*
X158710000Y-115044830I-2990000J-462D01*
G01*
G04 #@! TO.C,D3*
X163770000Y-107000000D02*
G75*
G03*
X163770000Y-107000000I-2500000J0D01*
G01*
X158710000Y-108545000D02*
X158710000Y-105455000D01*
X164260000Y-106999538D02*
G75*
G02*
X158710000Y-108544830I-2990000J-462D01*
G01*
X164260000Y-107000462D02*
G75*
G03*
X158710000Y-105455170I-2990000J462D01*
G01*
G04 #@! TO.C,D4*
X158710000Y-102045000D02*
X158710000Y-98955000D01*
X163770000Y-100500000D02*
G75*
G03*
X163770000Y-100500000I-2500000J0D01*
G01*
X164260000Y-100500462D02*
G75*
G03*
X158710000Y-98955170I-2990000J462D01*
G01*
X164260000Y-100499538D02*
G75*
G02*
X158710000Y-102044830I-2990000J-462D01*
G01*
G04 #@! TO.C,D5*
X170270000Y-120000000D02*
G75*
G03*
X170270000Y-120000000I-2500000J0D01*
G01*
X165210000Y-121545000D02*
X165210000Y-118455000D01*
X170760000Y-119999538D02*
G75*
G02*
X165210000Y-121544830I-2990000J-462D01*
G01*
X170760000Y-120000462D02*
G75*
G03*
X165210000Y-118455170I-2990000J462D01*
G01*
G04 #@! TO.C,D8*
X98210000Y-115045000D02*
X98210000Y-111955000D01*
X103270000Y-113500000D02*
G75*
G03*
X103270000Y-113500000I-2500000J0D01*
G01*
X103760000Y-113500462D02*
G75*
G03*
X98210000Y-111955170I-2990000J462D01*
G01*
X103760000Y-113499538D02*
G75*
G02*
X98210000Y-115044830I-2990000J-462D01*
G01*
G04 #@! TO.C,D9*
X103270000Y-107000000D02*
G75*
G03*
X103270000Y-107000000I-2500000J0D01*
G01*
X98210000Y-108545000D02*
X98210000Y-105455000D01*
X103760000Y-106999538D02*
G75*
G02*
X98210000Y-108544830I-2990000J-462D01*
G01*
X103760000Y-107000462D02*
G75*
G03*
X98210000Y-105455170I-2990000J462D01*
G01*
G04 #@! TO.C,D10*
X103270000Y-100500000D02*
G75*
G03*
X103270000Y-100500000I-2500000J0D01*
G01*
X98210000Y-102045000D02*
X98210000Y-98955000D01*
X103760000Y-100499538D02*
G75*
G02*
X98210000Y-102044830I-2990000J-462D01*
G01*
X103760000Y-100500462D02*
G75*
G03*
X98210000Y-98955170I-2990000J462D01*
G01*
G04 #@! TO.C,D11*
X104710000Y-121545000D02*
X104710000Y-118455000D01*
X109770000Y-120000000D02*
G75*
G03*
X109770000Y-120000000I-2500000J0D01*
G01*
X110260000Y-120000462D02*
G75*
G03*
X104710000Y-118455170I-2990000J462D01*
G01*
X110260000Y-119999538D02*
G75*
G02*
X104710000Y-121544830I-2990000J-462D01*
G01*
G04 #@! TO.C,D12*
X109770000Y-113500000D02*
G75*
G03*
X109770000Y-113500000I-2500000J0D01*
G01*
X104710000Y-115045000D02*
X104710000Y-111955000D01*
X110260000Y-113499538D02*
G75*
G02*
X104710000Y-115044830I-2990000J-462D01*
G01*
X110260000Y-113500462D02*
G75*
G03*
X104710000Y-111955170I-2990000J462D01*
G01*
G04 #@! TO.C,D14*
X117710000Y-121545000D02*
X117710000Y-118455000D01*
X122770000Y-120000000D02*
G75*
G03*
X122770000Y-120000000I-2500000J0D01*
G01*
X123260000Y-120000462D02*
G75*
G03*
X117710000Y-118455170I-2990000J462D01*
G01*
X123260000Y-119999538D02*
G75*
G02*
X117710000Y-121544830I-2990000J-462D01*
G01*
G04 #@! TO.C,D15*
X117710000Y-115045000D02*
X117710000Y-111955000D01*
X122770000Y-113500000D02*
G75*
G03*
X122770000Y-113500000I-2500000J0D01*
G01*
X123260000Y-113500462D02*
G75*
G03*
X117710000Y-111955170I-2990000J462D01*
G01*
X123260000Y-113499538D02*
G75*
G02*
X117710000Y-115044830I-2990000J-462D01*
G01*
G04 #@! TO.C,D17*
X122770000Y-107000000D02*
G75*
G03*
X122770000Y-107000000I-2500000J0D01*
G01*
X117710000Y-108545000D02*
X117710000Y-105455000D01*
X123260000Y-106999538D02*
G75*
G02*
X117710000Y-108544830I-2990000J-462D01*
G01*
X123260000Y-107000462D02*
G75*
G03*
X117710000Y-105455170I-2990000J462D01*
G01*
G04 #@! TO.C,D19*
X117710000Y-102045000D02*
X117710000Y-98955000D01*
X122770000Y-100500000D02*
G75*
G03*
X122770000Y-100500000I-2500000J0D01*
G01*
X123260000Y-100500462D02*
G75*
G03*
X117710000Y-98955170I-2990000J462D01*
G01*
X123260000Y-100499538D02*
G75*
G02*
X117710000Y-102044830I-2990000J-462D01*
G01*
G04 #@! TO.C,D23*
X124210000Y-115045000D02*
X124210000Y-111955000D01*
X129270000Y-113500000D02*
G75*
G03*
X129270000Y-113500000I-2500000J0D01*
G01*
X129760000Y-113500462D02*
G75*
G03*
X124210000Y-111955170I-2990000J462D01*
G01*
X129760000Y-113499538D02*
G75*
G02*
X124210000Y-115044830I-2990000J-462D01*
G01*
G04 #@! TO.C,D25*
X165210000Y-83968000D02*
X165210000Y-80878000D01*
X170270000Y-82423000D02*
G75*
G03*
X170270000Y-82423000I-2500000J0D01*
G01*
X170760000Y-82423462D02*
G75*
G03*
X165210000Y-80878170I-2990000J462D01*
G01*
X170760000Y-82422538D02*
G75*
G02*
X165210000Y-83967830I-2990000J-462D01*
G01*
G04 #@! TO.C,D27*
X170270000Y-75819000D02*
G75*
G03*
X170270000Y-75819000I-2500000J0D01*
G01*
X165210000Y-77364000D02*
X165210000Y-74274000D01*
X170760000Y-75818538D02*
G75*
G02*
X165210000Y-77363830I-2990000J-462D01*
G01*
X170760000Y-75819462D02*
G75*
G03*
X165210000Y-74274170I-2990000J462D01*
G01*
G04 #@! TO.C,D21*
D11*
X132659285Y-120086380D02*
X132659285Y-119086380D01*
X132421190Y-119086380D01*
X132278333Y-119134000D01*
X132183095Y-119229238D01*
X132135476Y-119324476D01*
X132087857Y-119514952D01*
X132087857Y-119657809D01*
X132135476Y-119848285D01*
X132183095Y-119943523D01*
X132278333Y-120038761D01*
X132421190Y-120086380D01*
X132659285Y-120086380D01*
X131706904Y-119181619D02*
X131659285Y-119134000D01*
X131564047Y-119086380D01*
X131325952Y-119086380D01*
X131230714Y-119134000D01*
X131183095Y-119181619D01*
X131135476Y-119276857D01*
X131135476Y-119372095D01*
X131183095Y-119514952D01*
X131754523Y-120086380D01*
X131135476Y-120086380D01*
X130183095Y-120086380D02*
X130754523Y-120086380D01*
X130468809Y-120086380D02*
X130468809Y-119086380D01*
X130564047Y-119229238D01*
X130659285Y-119324476D01*
X130754523Y-119372095D01*
G04 #@! TO.C,D13*
X113355285Y-107386380D02*
X113355285Y-106386380D01*
X113117190Y-106386380D01*
X112974333Y-106434000D01*
X112879095Y-106529238D01*
X112831476Y-106624476D01*
X112783857Y-106814952D01*
X112783857Y-106957809D01*
X112831476Y-107148285D01*
X112879095Y-107243523D01*
X112974333Y-107338761D01*
X113117190Y-107386380D01*
X113355285Y-107386380D01*
X111831476Y-107386380D02*
X112402904Y-107386380D01*
X112117190Y-107386380D02*
X112117190Y-106386380D01*
X112212428Y-106529238D01*
X112307666Y-106624476D01*
X112402904Y-106672095D01*
X111498142Y-106386380D02*
X110879095Y-106386380D01*
X111212428Y-106767333D01*
X111069571Y-106767333D01*
X110974333Y-106814952D01*
X110926714Y-106862571D01*
X110879095Y-106957809D01*
X110879095Y-107195904D01*
X110926714Y-107291142D01*
X110974333Y-107338761D01*
X111069571Y-107386380D01*
X111355285Y-107386380D01*
X111450523Y-107338761D01*
X111498142Y-107291142D01*
G04 #@! TO.C,D7*
X172823095Y-107513380D02*
X172823095Y-106513380D01*
X172585000Y-106513380D01*
X172442142Y-106561000D01*
X172346904Y-106656238D01*
X172299285Y-106751476D01*
X172251666Y-106941952D01*
X172251666Y-107084809D01*
X172299285Y-107275285D01*
X172346904Y-107370523D01*
X172442142Y-107465761D01*
X172585000Y-107513380D01*
X172823095Y-107513380D01*
X171918333Y-106513380D02*
X171251666Y-106513380D01*
X171680238Y-107513380D01*
G04 #@! TO.C,D6*
X172823095Y-113990380D02*
X172823095Y-112990380D01*
X172585000Y-112990380D01*
X172442142Y-113038000D01*
X172346904Y-113133238D01*
X172299285Y-113228476D01*
X172251666Y-113418952D01*
X172251666Y-113561809D01*
X172299285Y-113752285D01*
X172346904Y-113847523D01*
X172442142Y-113942761D01*
X172585000Y-113990380D01*
X172823095Y-113990380D01*
X171394523Y-112990380D02*
X171585000Y-112990380D01*
X171680238Y-113038000D01*
X171727857Y-113085619D01*
X171823095Y-113228476D01*
X171870714Y-113418952D01*
X171870714Y-113799904D01*
X171823095Y-113895142D01*
X171775476Y-113942761D01*
X171680238Y-113990380D01*
X171489761Y-113990380D01*
X171394523Y-113942761D01*
X171346904Y-113895142D01*
X171299285Y-113799904D01*
X171299285Y-113561809D01*
X171346904Y-113466571D01*
X171394523Y-113418952D01*
X171489761Y-113371333D01*
X171680238Y-113371333D01*
X171775476Y-113418952D01*
X171823095Y-113466571D01*
X171870714Y-113561809D01*
G04 #@! TO.C,BT1*
X117752714Y-91622571D02*
X117609857Y-91670190D01*
X117562238Y-91717809D01*
X117514619Y-91813047D01*
X117514619Y-91955904D01*
X117562238Y-92051142D01*
X117609857Y-92098761D01*
X117705095Y-92146380D01*
X118086047Y-92146380D01*
X118086047Y-91146380D01*
X117752714Y-91146380D01*
X117657476Y-91194000D01*
X117609857Y-91241619D01*
X117562238Y-91336857D01*
X117562238Y-91432095D01*
X117609857Y-91527333D01*
X117657476Y-91574952D01*
X117752714Y-91622571D01*
X118086047Y-91622571D01*
X117228904Y-91146380D02*
X116657476Y-91146380D01*
X116943190Y-92146380D02*
X116943190Y-91146380D01*
X115800333Y-92146380D02*
X116371761Y-92146380D01*
X116086047Y-92146380D02*
X116086047Y-91146380D01*
X116181285Y-91289238D01*
X116276523Y-91384476D01*
X116371761Y-91432095D01*
X111740142Y-88415571D02*
X111740142Y-89558428D01*
X112311571Y-88987000D02*
X111168714Y-88987000D01*
G04 #@! TO.C,C24*
X77731857Y-95099142D02*
X77779476Y-95146761D01*
X77922333Y-95194380D01*
X78017571Y-95194380D01*
X78160428Y-95146761D01*
X78255666Y-95051523D01*
X78303285Y-94956285D01*
X78350904Y-94765809D01*
X78350904Y-94622952D01*
X78303285Y-94432476D01*
X78255666Y-94337238D01*
X78160428Y-94242000D01*
X78017571Y-94194380D01*
X77922333Y-94194380D01*
X77779476Y-94242000D01*
X77731857Y-94289619D01*
X77350904Y-94289619D02*
X77303285Y-94242000D01*
X77208047Y-94194380D01*
X76969952Y-94194380D01*
X76874714Y-94242000D01*
X76827095Y-94289619D01*
X76779476Y-94384857D01*
X76779476Y-94480095D01*
X76827095Y-94622952D01*
X77398523Y-95194380D01*
X76779476Y-95194380D01*
X75922333Y-94527714D02*
X75922333Y-95194380D01*
X76160428Y-94146761D02*
X76398523Y-94861047D01*
X75779476Y-94861047D01*
G04 #@! TO.C,C9*
X99861666Y-97258142D02*
X99909285Y-97305761D01*
X100052142Y-97353380D01*
X100147380Y-97353380D01*
X100290238Y-97305761D01*
X100385476Y-97210523D01*
X100433095Y-97115285D01*
X100480714Y-96924809D01*
X100480714Y-96781952D01*
X100433095Y-96591476D01*
X100385476Y-96496238D01*
X100290238Y-96401000D01*
X100147380Y-96353380D01*
X100052142Y-96353380D01*
X99909285Y-96401000D01*
X99861666Y-96448619D01*
X99385476Y-97353380D02*
X99195000Y-97353380D01*
X99099761Y-97305761D01*
X99052142Y-97258142D01*
X98956904Y-97115285D01*
X98909285Y-96924809D01*
X98909285Y-96543857D01*
X98956904Y-96448619D01*
X99004523Y-96401000D01*
X99099761Y-96353380D01*
X99290238Y-96353380D01*
X99385476Y-96401000D01*
X99433095Y-96448619D01*
X99480714Y-96543857D01*
X99480714Y-96781952D01*
X99433095Y-96877190D01*
X99385476Y-96924809D01*
X99290238Y-96972428D01*
X99099761Y-96972428D01*
X99004523Y-96924809D01*
X98956904Y-96877190D01*
X98909285Y-96781952D01*
G04 #@! TO.C,C11*
X95384857Y-95226142D02*
X95432476Y-95273761D01*
X95575333Y-95321380D01*
X95670571Y-95321380D01*
X95813428Y-95273761D01*
X95908666Y-95178523D01*
X95956285Y-95083285D01*
X96003904Y-94892809D01*
X96003904Y-94749952D01*
X95956285Y-94559476D01*
X95908666Y-94464238D01*
X95813428Y-94369000D01*
X95670571Y-94321380D01*
X95575333Y-94321380D01*
X95432476Y-94369000D01*
X95384857Y-94416619D01*
X94432476Y-95321380D02*
X95003904Y-95321380D01*
X94718190Y-95321380D02*
X94718190Y-94321380D01*
X94813428Y-94464238D01*
X94908666Y-94559476D01*
X95003904Y-94607095D01*
X93480095Y-95321380D02*
X94051523Y-95321380D01*
X93765809Y-95321380D02*
X93765809Y-94321380D01*
X93861047Y-94464238D01*
X93956285Y-94559476D01*
X94051523Y-94607095D01*
G04 #@! TO.C,C20*
X85351857Y-93321142D02*
X85399476Y-93368761D01*
X85542333Y-93416380D01*
X85637571Y-93416380D01*
X85780428Y-93368761D01*
X85875666Y-93273523D01*
X85923285Y-93178285D01*
X85970904Y-92987809D01*
X85970904Y-92844952D01*
X85923285Y-92654476D01*
X85875666Y-92559238D01*
X85780428Y-92464000D01*
X85637571Y-92416380D01*
X85542333Y-92416380D01*
X85399476Y-92464000D01*
X85351857Y-92511619D01*
X84970904Y-92511619D02*
X84923285Y-92464000D01*
X84828047Y-92416380D01*
X84589952Y-92416380D01*
X84494714Y-92464000D01*
X84447095Y-92511619D01*
X84399476Y-92606857D01*
X84399476Y-92702095D01*
X84447095Y-92844952D01*
X85018523Y-93416380D01*
X84399476Y-93416380D01*
X83780428Y-92416380D02*
X83685190Y-92416380D01*
X83589952Y-92464000D01*
X83542333Y-92511619D01*
X83494714Y-92606857D01*
X83447095Y-92797333D01*
X83447095Y-93035428D01*
X83494714Y-93225904D01*
X83542333Y-93321142D01*
X83589952Y-93368761D01*
X83685190Y-93416380D01*
X83780428Y-93416380D01*
X83875666Y-93368761D01*
X83923285Y-93321142D01*
X83970904Y-93225904D01*
X84018523Y-93035428D01*
X84018523Y-92797333D01*
X83970904Y-92606857D01*
X83923285Y-92511619D01*
X83875666Y-92464000D01*
X83780428Y-92416380D01*
G04 #@! TO.C,C21*
X82303857Y-93067142D02*
X82351476Y-93114761D01*
X82494333Y-93162380D01*
X82589571Y-93162380D01*
X82732428Y-93114761D01*
X82827666Y-93019523D01*
X82875285Y-92924285D01*
X82922904Y-92733809D01*
X82922904Y-92590952D01*
X82875285Y-92400476D01*
X82827666Y-92305238D01*
X82732428Y-92210000D01*
X82589571Y-92162380D01*
X82494333Y-92162380D01*
X82351476Y-92210000D01*
X82303857Y-92257619D01*
X81922904Y-92257619D02*
X81875285Y-92210000D01*
X81780047Y-92162380D01*
X81541952Y-92162380D01*
X81446714Y-92210000D01*
X81399095Y-92257619D01*
X81351476Y-92352857D01*
X81351476Y-92448095D01*
X81399095Y-92590952D01*
X81970523Y-93162380D01*
X81351476Y-93162380D01*
X80399095Y-93162380D02*
X80970523Y-93162380D01*
X80684809Y-93162380D02*
X80684809Y-92162380D01*
X80780047Y-92305238D01*
X80875285Y-92400476D01*
X80970523Y-92448095D01*
G04 #@! TO.C,C13*
X111767857Y-100306142D02*
X111815476Y-100353761D01*
X111958333Y-100401380D01*
X112053571Y-100401380D01*
X112196428Y-100353761D01*
X112291666Y-100258523D01*
X112339285Y-100163285D01*
X112386904Y-99972809D01*
X112386904Y-99829952D01*
X112339285Y-99639476D01*
X112291666Y-99544238D01*
X112196428Y-99449000D01*
X112053571Y-99401380D01*
X111958333Y-99401380D01*
X111815476Y-99449000D01*
X111767857Y-99496619D01*
X110815476Y-100401380D02*
X111386904Y-100401380D01*
X111101190Y-100401380D02*
X111101190Y-99401380D01*
X111196428Y-99544238D01*
X111291666Y-99639476D01*
X111386904Y-99687095D01*
X110482142Y-99401380D02*
X109863095Y-99401380D01*
X110196428Y-99782333D01*
X110053571Y-99782333D01*
X109958333Y-99829952D01*
X109910714Y-99877571D01*
X109863095Y-99972809D01*
X109863095Y-100210904D01*
X109910714Y-100306142D01*
X109958333Y-100353761D01*
X110053571Y-100401380D01*
X110339285Y-100401380D01*
X110434523Y-100353761D01*
X110482142Y-100306142D01*
G04 #@! TO.C,C22*
X119006857Y-95226142D02*
X119054476Y-95273761D01*
X119197333Y-95321380D01*
X119292571Y-95321380D01*
X119435428Y-95273761D01*
X119530666Y-95178523D01*
X119578285Y-95083285D01*
X119625904Y-94892809D01*
X119625904Y-94749952D01*
X119578285Y-94559476D01*
X119530666Y-94464238D01*
X119435428Y-94369000D01*
X119292571Y-94321380D01*
X119197333Y-94321380D01*
X119054476Y-94369000D01*
X119006857Y-94416619D01*
X118625904Y-94416619D02*
X118578285Y-94369000D01*
X118483047Y-94321380D01*
X118244952Y-94321380D01*
X118149714Y-94369000D01*
X118102095Y-94416619D01*
X118054476Y-94511857D01*
X118054476Y-94607095D01*
X118102095Y-94749952D01*
X118673523Y-95321380D01*
X118054476Y-95321380D01*
X117673523Y-94416619D02*
X117625904Y-94369000D01*
X117530666Y-94321380D01*
X117292571Y-94321380D01*
X117197333Y-94369000D01*
X117149714Y-94416619D01*
X117102095Y-94511857D01*
X117102095Y-94607095D01*
X117149714Y-94749952D01*
X117721142Y-95321380D01*
X117102095Y-95321380D01*
G04 #@! TO.C,C14*
X105925857Y-101703142D02*
X105973476Y-101750761D01*
X106116333Y-101798380D01*
X106211571Y-101798380D01*
X106354428Y-101750761D01*
X106449666Y-101655523D01*
X106497285Y-101560285D01*
X106544904Y-101369809D01*
X106544904Y-101226952D01*
X106497285Y-101036476D01*
X106449666Y-100941238D01*
X106354428Y-100846000D01*
X106211571Y-100798380D01*
X106116333Y-100798380D01*
X105973476Y-100846000D01*
X105925857Y-100893619D01*
X104973476Y-101798380D02*
X105544904Y-101798380D01*
X105259190Y-101798380D02*
X105259190Y-100798380D01*
X105354428Y-100941238D01*
X105449666Y-101036476D01*
X105544904Y-101084095D01*
X104116333Y-101131714D02*
X104116333Y-101798380D01*
X104354428Y-100750761D02*
X104592523Y-101465047D01*
X103973476Y-101465047D01*
G04 #@! TO.C,C23*
X112783857Y-98274142D02*
X112831476Y-98321761D01*
X112974333Y-98369380D01*
X113069571Y-98369380D01*
X113212428Y-98321761D01*
X113307666Y-98226523D01*
X113355285Y-98131285D01*
X113402904Y-97940809D01*
X113402904Y-97797952D01*
X113355285Y-97607476D01*
X113307666Y-97512238D01*
X113212428Y-97417000D01*
X113069571Y-97369380D01*
X112974333Y-97369380D01*
X112831476Y-97417000D01*
X112783857Y-97464619D01*
X112402904Y-97464619D02*
X112355285Y-97417000D01*
X112260047Y-97369380D01*
X112021952Y-97369380D01*
X111926714Y-97417000D01*
X111879095Y-97464619D01*
X111831476Y-97559857D01*
X111831476Y-97655095D01*
X111879095Y-97797952D01*
X112450523Y-98369380D01*
X111831476Y-98369380D01*
X111498142Y-97369380D02*
X110879095Y-97369380D01*
X111212428Y-97750333D01*
X111069571Y-97750333D01*
X110974333Y-97797952D01*
X110926714Y-97845571D01*
X110879095Y-97940809D01*
X110879095Y-98178904D01*
X110926714Y-98274142D01*
X110974333Y-98321761D01*
X111069571Y-98369380D01*
X111355285Y-98369380D01*
X111450523Y-98321761D01*
X111498142Y-98274142D01*
G04 #@! TO.C,D16*
X78049285Y-120467380D02*
X78049285Y-119467380D01*
X77811190Y-119467380D01*
X77668333Y-119515000D01*
X77573095Y-119610238D01*
X77525476Y-119705476D01*
X77477857Y-119895952D01*
X77477857Y-120038809D01*
X77525476Y-120229285D01*
X77573095Y-120324523D01*
X77668333Y-120419761D01*
X77811190Y-120467380D01*
X78049285Y-120467380D01*
X76525476Y-120467380D02*
X77096904Y-120467380D01*
X76811190Y-120467380D02*
X76811190Y-119467380D01*
X76906428Y-119610238D01*
X77001666Y-119705476D01*
X77096904Y-119753095D01*
X75668333Y-119467380D02*
X75858809Y-119467380D01*
X75954047Y-119515000D01*
X76001666Y-119562619D01*
X76096904Y-119705476D01*
X76144523Y-119895952D01*
X76144523Y-120276904D01*
X76096904Y-120372142D01*
X76049285Y-120419761D01*
X75954047Y-120467380D01*
X75763571Y-120467380D01*
X75668333Y-120419761D01*
X75620714Y-120372142D01*
X75573095Y-120276904D01*
X75573095Y-120038809D01*
X75620714Y-119943571D01*
X75668333Y-119895952D01*
X75763571Y-119848333D01*
X75954047Y-119848333D01*
X76049285Y-119895952D01*
X76096904Y-119943571D01*
X76144523Y-120038809D01*
G04 #@! TO.C,D18*
X78049285Y-113990380D02*
X78049285Y-112990380D01*
X77811190Y-112990380D01*
X77668333Y-113038000D01*
X77573095Y-113133238D01*
X77525476Y-113228476D01*
X77477857Y-113418952D01*
X77477857Y-113561809D01*
X77525476Y-113752285D01*
X77573095Y-113847523D01*
X77668333Y-113942761D01*
X77811190Y-113990380D01*
X78049285Y-113990380D01*
X76525476Y-113990380D02*
X77096904Y-113990380D01*
X76811190Y-113990380D02*
X76811190Y-112990380D01*
X76906428Y-113133238D01*
X77001666Y-113228476D01*
X77096904Y-113276095D01*
X75954047Y-113418952D02*
X76049285Y-113371333D01*
X76096904Y-113323714D01*
X76144523Y-113228476D01*
X76144523Y-113180857D01*
X76096904Y-113085619D01*
X76049285Y-113038000D01*
X75954047Y-112990380D01*
X75763571Y-112990380D01*
X75668333Y-113038000D01*
X75620714Y-113085619D01*
X75573095Y-113180857D01*
X75573095Y-113228476D01*
X75620714Y-113323714D01*
X75668333Y-113371333D01*
X75763571Y-113418952D01*
X75954047Y-113418952D01*
X76049285Y-113466571D01*
X76096904Y-113514190D01*
X76144523Y-113609428D01*
X76144523Y-113799904D01*
X76096904Y-113895142D01*
X76049285Y-113942761D01*
X75954047Y-113990380D01*
X75763571Y-113990380D01*
X75668333Y-113942761D01*
X75620714Y-113895142D01*
X75573095Y-113799904D01*
X75573095Y-113609428D01*
X75620714Y-113514190D01*
X75668333Y-113466571D01*
X75763571Y-113418952D01*
G04 #@! TO.C,D20*
X78049285Y-107386380D02*
X78049285Y-106386380D01*
X77811190Y-106386380D01*
X77668333Y-106434000D01*
X77573095Y-106529238D01*
X77525476Y-106624476D01*
X77477857Y-106814952D01*
X77477857Y-106957809D01*
X77525476Y-107148285D01*
X77573095Y-107243523D01*
X77668333Y-107338761D01*
X77811190Y-107386380D01*
X78049285Y-107386380D01*
X77096904Y-106481619D02*
X77049285Y-106434000D01*
X76954047Y-106386380D01*
X76715952Y-106386380D01*
X76620714Y-106434000D01*
X76573095Y-106481619D01*
X76525476Y-106576857D01*
X76525476Y-106672095D01*
X76573095Y-106814952D01*
X77144523Y-107386380D01*
X76525476Y-107386380D01*
X75906428Y-106386380D02*
X75811190Y-106386380D01*
X75715952Y-106434000D01*
X75668333Y-106481619D01*
X75620714Y-106576857D01*
X75573095Y-106767333D01*
X75573095Y-107005428D01*
X75620714Y-107195904D01*
X75668333Y-107291142D01*
X75715952Y-107338761D01*
X75811190Y-107386380D01*
X75906428Y-107386380D01*
X76001666Y-107338761D01*
X76049285Y-107291142D01*
X76096904Y-107195904D01*
X76144523Y-107005428D01*
X76144523Y-106767333D01*
X76096904Y-106576857D01*
X76049285Y-106481619D01*
X76001666Y-106434000D01*
X75906428Y-106386380D01*
G04 #@! TO.C,D22*
X82484285Y-104912380D02*
X82484285Y-103912380D01*
X82246190Y-103912380D01*
X82103333Y-103960000D01*
X82008095Y-104055238D01*
X81960476Y-104150476D01*
X81912857Y-104340952D01*
X81912857Y-104483809D01*
X81960476Y-104674285D01*
X82008095Y-104769523D01*
X82103333Y-104864761D01*
X82246190Y-104912380D01*
X82484285Y-104912380D01*
X81531904Y-104007619D02*
X81484285Y-103960000D01*
X81389047Y-103912380D01*
X81150952Y-103912380D01*
X81055714Y-103960000D01*
X81008095Y-104007619D01*
X80960476Y-104102857D01*
X80960476Y-104198095D01*
X81008095Y-104340952D01*
X81579523Y-104912380D01*
X80960476Y-104912380D01*
X80579523Y-104007619D02*
X80531904Y-103960000D01*
X80436666Y-103912380D01*
X80198571Y-103912380D01*
X80103333Y-103960000D01*
X80055714Y-104007619D01*
X80008095Y-104102857D01*
X80008095Y-104198095D01*
X80055714Y-104340952D01*
X80627142Y-104912380D01*
X80008095Y-104912380D01*
G04 #@! TO.C,D24*
X93670285Y-120467380D02*
X93670285Y-119467380D01*
X93432190Y-119467380D01*
X93289333Y-119515000D01*
X93194095Y-119610238D01*
X93146476Y-119705476D01*
X93098857Y-119895952D01*
X93098857Y-120038809D01*
X93146476Y-120229285D01*
X93194095Y-120324523D01*
X93289333Y-120419761D01*
X93432190Y-120467380D01*
X93670285Y-120467380D01*
X92717904Y-119562619D02*
X92670285Y-119515000D01*
X92575047Y-119467380D01*
X92336952Y-119467380D01*
X92241714Y-119515000D01*
X92194095Y-119562619D01*
X92146476Y-119657857D01*
X92146476Y-119753095D01*
X92194095Y-119895952D01*
X92765523Y-120467380D01*
X92146476Y-120467380D01*
X91289333Y-119800714D02*
X91289333Y-120467380D01*
X91527428Y-119419761D02*
X91765523Y-120134047D01*
X91146476Y-120134047D01*
G04 #@! TO.C,D26*
X93670285Y-113863380D02*
X93670285Y-112863380D01*
X93432190Y-112863380D01*
X93289333Y-112911000D01*
X93194095Y-113006238D01*
X93146476Y-113101476D01*
X93098857Y-113291952D01*
X93098857Y-113434809D01*
X93146476Y-113625285D01*
X93194095Y-113720523D01*
X93289333Y-113815761D01*
X93432190Y-113863380D01*
X93670285Y-113863380D01*
X92717904Y-112958619D02*
X92670285Y-112911000D01*
X92575047Y-112863380D01*
X92336952Y-112863380D01*
X92241714Y-112911000D01*
X92194095Y-112958619D01*
X92146476Y-113053857D01*
X92146476Y-113149095D01*
X92194095Y-113291952D01*
X92765523Y-113863380D01*
X92146476Y-113863380D01*
X91289333Y-112863380D02*
X91479809Y-112863380D01*
X91575047Y-112911000D01*
X91622666Y-112958619D01*
X91717904Y-113101476D01*
X91765523Y-113291952D01*
X91765523Y-113672904D01*
X91717904Y-113768142D01*
X91670285Y-113815761D01*
X91575047Y-113863380D01*
X91384571Y-113863380D01*
X91289333Y-113815761D01*
X91241714Y-113768142D01*
X91194095Y-113672904D01*
X91194095Y-113434809D01*
X91241714Y-113339571D01*
X91289333Y-113291952D01*
X91384571Y-113244333D01*
X91575047Y-113244333D01*
X91670285Y-113291952D01*
X91717904Y-113339571D01*
X91765523Y-113434809D01*
G04 #@! TO.C,D28*
X93797285Y-107386380D02*
X93797285Y-106386380D01*
X93559190Y-106386380D01*
X93416333Y-106434000D01*
X93321095Y-106529238D01*
X93273476Y-106624476D01*
X93225857Y-106814952D01*
X93225857Y-106957809D01*
X93273476Y-107148285D01*
X93321095Y-107243523D01*
X93416333Y-107338761D01*
X93559190Y-107386380D01*
X93797285Y-107386380D01*
X92844904Y-106481619D02*
X92797285Y-106434000D01*
X92702047Y-106386380D01*
X92463952Y-106386380D01*
X92368714Y-106434000D01*
X92321095Y-106481619D01*
X92273476Y-106576857D01*
X92273476Y-106672095D01*
X92321095Y-106814952D01*
X92892523Y-107386380D01*
X92273476Y-107386380D01*
X91702047Y-106814952D02*
X91797285Y-106767333D01*
X91844904Y-106719714D01*
X91892523Y-106624476D01*
X91892523Y-106576857D01*
X91844904Y-106481619D01*
X91797285Y-106434000D01*
X91702047Y-106386380D01*
X91511571Y-106386380D01*
X91416333Y-106434000D01*
X91368714Y-106481619D01*
X91321095Y-106576857D01*
X91321095Y-106624476D01*
X91368714Y-106719714D01*
X91416333Y-106767333D01*
X91511571Y-106814952D01*
X91702047Y-106814952D01*
X91797285Y-106862571D01*
X91844904Y-106910190D01*
X91892523Y-107005428D01*
X91892523Y-107195904D01*
X91844904Y-107291142D01*
X91797285Y-107338761D01*
X91702047Y-107386380D01*
X91511571Y-107386380D01*
X91416333Y-107338761D01*
X91368714Y-107291142D01*
X91321095Y-107195904D01*
X91321095Y-107005428D01*
X91368714Y-106910190D01*
X91416333Y-106862571D01*
X91511571Y-106814952D01*
G04 #@! TO.C,D29*
X97353285Y-120467380D02*
X97353285Y-119467380D01*
X97115190Y-119467380D01*
X96972333Y-119515000D01*
X96877095Y-119610238D01*
X96829476Y-119705476D01*
X96781857Y-119895952D01*
X96781857Y-120038809D01*
X96829476Y-120229285D01*
X96877095Y-120324523D01*
X96972333Y-120419761D01*
X97115190Y-120467380D01*
X97353285Y-120467380D01*
X96400904Y-119562619D02*
X96353285Y-119515000D01*
X96258047Y-119467380D01*
X96019952Y-119467380D01*
X95924714Y-119515000D01*
X95877095Y-119562619D01*
X95829476Y-119657857D01*
X95829476Y-119753095D01*
X95877095Y-119895952D01*
X96448523Y-120467380D01*
X95829476Y-120467380D01*
X95353285Y-120467380D02*
X95162809Y-120467380D01*
X95067571Y-120419761D01*
X95019952Y-120372142D01*
X94924714Y-120229285D01*
X94877095Y-120038809D01*
X94877095Y-119657857D01*
X94924714Y-119562619D01*
X94972333Y-119515000D01*
X95067571Y-119467380D01*
X95258047Y-119467380D01*
X95353285Y-119515000D01*
X95400904Y-119562619D01*
X95448523Y-119657857D01*
X95448523Y-119895952D01*
X95400904Y-119991190D01*
X95353285Y-120038809D01*
X95258047Y-120086428D01*
X95067571Y-120086428D01*
X94972333Y-120038809D01*
X94924714Y-119991190D01*
X94877095Y-119895952D01*
G04 #@! TO.C,D1*
X157710095Y-120467380D02*
X157710095Y-119467380D01*
X157472000Y-119467380D01*
X157329142Y-119515000D01*
X157233904Y-119610238D01*
X157186285Y-119705476D01*
X157138666Y-119895952D01*
X157138666Y-120038809D01*
X157186285Y-120229285D01*
X157233904Y-120324523D01*
X157329142Y-120419761D01*
X157472000Y-120467380D01*
X157710095Y-120467380D01*
X156186285Y-120467380D02*
X156757714Y-120467380D01*
X156472000Y-120467380D02*
X156472000Y-119467380D01*
X156567238Y-119610238D01*
X156662476Y-119705476D01*
X156757714Y-119753095D01*
G04 #@! TO.C,D2*
X157710095Y-113990380D02*
X157710095Y-112990380D01*
X157472000Y-112990380D01*
X157329142Y-113038000D01*
X157233904Y-113133238D01*
X157186285Y-113228476D01*
X157138666Y-113418952D01*
X157138666Y-113561809D01*
X157186285Y-113752285D01*
X157233904Y-113847523D01*
X157329142Y-113942761D01*
X157472000Y-113990380D01*
X157710095Y-113990380D01*
X156757714Y-113085619D02*
X156710095Y-113038000D01*
X156614857Y-112990380D01*
X156376761Y-112990380D01*
X156281523Y-113038000D01*
X156233904Y-113085619D01*
X156186285Y-113180857D01*
X156186285Y-113276095D01*
X156233904Y-113418952D01*
X156805333Y-113990380D01*
X156186285Y-113990380D01*
G04 #@! TO.C,D3*
X157710095Y-107513380D02*
X157710095Y-106513380D01*
X157472000Y-106513380D01*
X157329142Y-106561000D01*
X157233904Y-106656238D01*
X157186285Y-106751476D01*
X157138666Y-106941952D01*
X157138666Y-107084809D01*
X157186285Y-107275285D01*
X157233904Y-107370523D01*
X157329142Y-107465761D01*
X157472000Y-107513380D01*
X157710095Y-107513380D01*
X156805333Y-106513380D02*
X156186285Y-106513380D01*
X156519619Y-106894333D01*
X156376761Y-106894333D01*
X156281523Y-106941952D01*
X156233904Y-106989571D01*
X156186285Y-107084809D01*
X156186285Y-107322904D01*
X156233904Y-107418142D01*
X156281523Y-107465761D01*
X156376761Y-107513380D01*
X156662476Y-107513380D01*
X156757714Y-107465761D01*
X156805333Y-107418142D01*
G04 #@! TO.C,D4*
X157837095Y-101036380D02*
X157837095Y-100036380D01*
X157599000Y-100036380D01*
X157456142Y-100084000D01*
X157360904Y-100179238D01*
X157313285Y-100274476D01*
X157265666Y-100464952D01*
X157265666Y-100607809D01*
X157313285Y-100798285D01*
X157360904Y-100893523D01*
X157456142Y-100988761D01*
X157599000Y-101036380D01*
X157837095Y-101036380D01*
X156408523Y-100369714D02*
X156408523Y-101036380D01*
X156646619Y-99988761D02*
X156884714Y-100703047D01*
X156265666Y-100703047D01*
G04 #@! TO.C,D5*
X172950095Y-120467380D02*
X172950095Y-119467380D01*
X172712000Y-119467380D01*
X172569142Y-119515000D01*
X172473904Y-119610238D01*
X172426285Y-119705476D01*
X172378666Y-119895952D01*
X172378666Y-120038809D01*
X172426285Y-120229285D01*
X172473904Y-120324523D01*
X172569142Y-120419761D01*
X172712000Y-120467380D01*
X172950095Y-120467380D01*
X171473904Y-119467380D02*
X171950095Y-119467380D01*
X171997714Y-119943571D01*
X171950095Y-119895952D01*
X171854857Y-119848333D01*
X171616761Y-119848333D01*
X171521523Y-119895952D01*
X171473904Y-119943571D01*
X171426285Y-120038809D01*
X171426285Y-120276904D01*
X171473904Y-120372142D01*
X171521523Y-120419761D01*
X171616761Y-120467380D01*
X171854857Y-120467380D01*
X171950095Y-120419761D01*
X171997714Y-120372142D01*
G04 #@! TO.C,D8*
X97385095Y-113990380D02*
X97385095Y-112990380D01*
X97147000Y-112990380D01*
X97004142Y-113038000D01*
X96908904Y-113133238D01*
X96861285Y-113228476D01*
X96813666Y-113418952D01*
X96813666Y-113561809D01*
X96861285Y-113752285D01*
X96908904Y-113847523D01*
X97004142Y-113942761D01*
X97147000Y-113990380D01*
X97385095Y-113990380D01*
X96242238Y-113418952D02*
X96337476Y-113371333D01*
X96385095Y-113323714D01*
X96432714Y-113228476D01*
X96432714Y-113180857D01*
X96385095Y-113085619D01*
X96337476Y-113038000D01*
X96242238Y-112990380D01*
X96051761Y-112990380D01*
X95956523Y-113038000D01*
X95908904Y-113085619D01*
X95861285Y-113180857D01*
X95861285Y-113228476D01*
X95908904Y-113323714D01*
X95956523Y-113371333D01*
X96051761Y-113418952D01*
X96242238Y-113418952D01*
X96337476Y-113466571D01*
X96385095Y-113514190D01*
X96432714Y-113609428D01*
X96432714Y-113799904D01*
X96385095Y-113895142D01*
X96337476Y-113942761D01*
X96242238Y-113990380D01*
X96051761Y-113990380D01*
X95956523Y-113942761D01*
X95908904Y-113895142D01*
X95861285Y-113799904D01*
X95861285Y-113609428D01*
X95908904Y-113514190D01*
X95956523Y-113466571D01*
X96051761Y-113418952D01*
G04 #@! TO.C,D9*
X97258095Y-107513380D02*
X97258095Y-106513380D01*
X97020000Y-106513380D01*
X96877142Y-106561000D01*
X96781904Y-106656238D01*
X96734285Y-106751476D01*
X96686666Y-106941952D01*
X96686666Y-107084809D01*
X96734285Y-107275285D01*
X96781904Y-107370523D01*
X96877142Y-107465761D01*
X97020000Y-107513380D01*
X97258095Y-107513380D01*
X96210476Y-107513380D02*
X96020000Y-107513380D01*
X95924761Y-107465761D01*
X95877142Y-107418142D01*
X95781904Y-107275285D01*
X95734285Y-107084809D01*
X95734285Y-106703857D01*
X95781904Y-106608619D01*
X95829523Y-106561000D01*
X95924761Y-106513380D01*
X96115238Y-106513380D01*
X96210476Y-106561000D01*
X96258095Y-106608619D01*
X96305714Y-106703857D01*
X96305714Y-106941952D01*
X96258095Y-107037190D01*
X96210476Y-107084809D01*
X96115238Y-107132428D01*
X95924761Y-107132428D01*
X95829523Y-107084809D01*
X95781904Y-107037190D01*
X95734285Y-106941952D01*
G04 #@! TO.C,D10*
X97607285Y-99766380D02*
X97607285Y-98766380D01*
X97369190Y-98766380D01*
X97226333Y-98814000D01*
X97131095Y-98909238D01*
X97083476Y-99004476D01*
X97035857Y-99194952D01*
X97035857Y-99337809D01*
X97083476Y-99528285D01*
X97131095Y-99623523D01*
X97226333Y-99718761D01*
X97369190Y-99766380D01*
X97607285Y-99766380D01*
X96083476Y-99766380D02*
X96654904Y-99766380D01*
X96369190Y-99766380D02*
X96369190Y-98766380D01*
X96464428Y-98909238D01*
X96559666Y-99004476D01*
X96654904Y-99052095D01*
X95464428Y-98766380D02*
X95369190Y-98766380D01*
X95273952Y-98814000D01*
X95226333Y-98861619D01*
X95178714Y-98956857D01*
X95131095Y-99147333D01*
X95131095Y-99385428D01*
X95178714Y-99575904D01*
X95226333Y-99671142D01*
X95273952Y-99718761D01*
X95369190Y-99766380D01*
X95464428Y-99766380D01*
X95559666Y-99718761D01*
X95607285Y-99671142D01*
X95654904Y-99575904D01*
X95702523Y-99385428D01*
X95702523Y-99147333D01*
X95654904Y-98956857D01*
X95607285Y-98861619D01*
X95559666Y-98814000D01*
X95464428Y-98766380D01*
G04 #@! TO.C,D11*
X113101285Y-120467380D02*
X113101285Y-119467380D01*
X112863190Y-119467380D01*
X112720333Y-119515000D01*
X112625095Y-119610238D01*
X112577476Y-119705476D01*
X112529857Y-119895952D01*
X112529857Y-120038809D01*
X112577476Y-120229285D01*
X112625095Y-120324523D01*
X112720333Y-120419761D01*
X112863190Y-120467380D01*
X113101285Y-120467380D01*
X111577476Y-120467380D02*
X112148904Y-120467380D01*
X111863190Y-120467380D02*
X111863190Y-119467380D01*
X111958428Y-119610238D01*
X112053666Y-119705476D01*
X112148904Y-119753095D01*
X110625095Y-120467380D02*
X111196523Y-120467380D01*
X110910809Y-120467380D02*
X110910809Y-119467380D01*
X111006047Y-119610238D01*
X111101285Y-119705476D01*
X111196523Y-119753095D01*
G04 #@! TO.C,D12*
X113355285Y-113990380D02*
X113355285Y-112990380D01*
X113117190Y-112990380D01*
X112974333Y-113038000D01*
X112879095Y-113133238D01*
X112831476Y-113228476D01*
X112783857Y-113418952D01*
X112783857Y-113561809D01*
X112831476Y-113752285D01*
X112879095Y-113847523D01*
X112974333Y-113942761D01*
X113117190Y-113990380D01*
X113355285Y-113990380D01*
X111831476Y-113990380D02*
X112402904Y-113990380D01*
X112117190Y-113990380D02*
X112117190Y-112990380D01*
X112212428Y-113133238D01*
X112307666Y-113228476D01*
X112402904Y-113276095D01*
X111450523Y-113085619D02*
X111402904Y-113038000D01*
X111307666Y-112990380D01*
X111069571Y-112990380D01*
X110974333Y-113038000D01*
X110926714Y-113085619D01*
X110879095Y-113180857D01*
X110879095Y-113276095D01*
X110926714Y-113418952D01*
X111498142Y-113990380D01*
X110879095Y-113990380D01*
G04 #@! TO.C,D14*
X116784285Y-120467380D02*
X116784285Y-119467380D01*
X116546190Y-119467380D01*
X116403333Y-119515000D01*
X116308095Y-119610238D01*
X116260476Y-119705476D01*
X116212857Y-119895952D01*
X116212857Y-120038809D01*
X116260476Y-120229285D01*
X116308095Y-120324523D01*
X116403333Y-120419761D01*
X116546190Y-120467380D01*
X116784285Y-120467380D01*
X115260476Y-120467380D02*
X115831904Y-120467380D01*
X115546190Y-120467380D02*
X115546190Y-119467380D01*
X115641428Y-119610238D01*
X115736666Y-119705476D01*
X115831904Y-119753095D01*
X114403333Y-119800714D02*
X114403333Y-120467380D01*
X114641428Y-119419761D02*
X114879523Y-120134047D01*
X114260476Y-120134047D01*
G04 #@! TO.C,D15*
X116784285Y-113990380D02*
X116784285Y-112990380D01*
X116546190Y-112990380D01*
X116403333Y-113038000D01*
X116308095Y-113133238D01*
X116260476Y-113228476D01*
X116212857Y-113418952D01*
X116212857Y-113561809D01*
X116260476Y-113752285D01*
X116308095Y-113847523D01*
X116403333Y-113942761D01*
X116546190Y-113990380D01*
X116784285Y-113990380D01*
X115260476Y-113990380D02*
X115831904Y-113990380D01*
X115546190Y-113990380D02*
X115546190Y-112990380D01*
X115641428Y-113133238D01*
X115736666Y-113228476D01*
X115831904Y-113276095D01*
X114355714Y-112990380D02*
X114831904Y-112990380D01*
X114879523Y-113466571D01*
X114831904Y-113418952D01*
X114736666Y-113371333D01*
X114498571Y-113371333D01*
X114403333Y-113418952D01*
X114355714Y-113466571D01*
X114308095Y-113561809D01*
X114308095Y-113799904D01*
X114355714Y-113895142D01*
X114403333Y-113942761D01*
X114498571Y-113990380D01*
X114736666Y-113990380D01*
X114831904Y-113942761D01*
X114879523Y-113895142D01*
G04 #@! TO.C,D17*
X116784285Y-107513380D02*
X116784285Y-106513380D01*
X116546190Y-106513380D01*
X116403333Y-106561000D01*
X116308095Y-106656238D01*
X116260476Y-106751476D01*
X116212857Y-106941952D01*
X116212857Y-107084809D01*
X116260476Y-107275285D01*
X116308095Y-107370523D01*
X116403333Y-107465761D01*
X116546190Y-107513380D01*
X116784285Y-107513380D01*
X115260476Y-107513380D02*
X115831904Y-107513380D01*
X115546190Y-107513380D02*
X115546190Y-106513380D01*
X115641428Y-106656238D01*
X115736666Y-106751476D01*
X115831904Y-106799095D01*
X114927142Y-106513380D02*
X114260476Y-106513380D01*
X114689047Y-107513380D01*
G04 #@! TO.C,D19*
X116657285Y-101798380D02*
X116657285Y-100798380D01*
X116419190Y-100798380D01*
X116276333Y-100846000D01*
X116181095Y-100941238D01*
X116133476Y-101036476D01*
X116085857Y-101226952D01*
X116085857Y-101369809D01*
X116133476Y-101560285D01*
X116181095Y-101655523D01*
X116276333Y-101750761D01*
X116419190Y-101798380D01*
X116657285Y-101798380D01*
X115133476Y-101798380D02*
X115704904Y-101798380D01*
X115419190Y-101798380D02*
X115419190Y-100798380D01*
X115514428Y-100941238D01*
X115609666Y-101036476D01*
X115704904Y-101084095D01*
X114657285Y-101798380D02*
X114466809Y-101798380D01*
X114371571Y-101750761D01*
X114323952Y-101703142D01*
X114228714Y-101560285D01*
X114181095Y-101369809D01*
X114181095Y-100988857D01*
X114228714Y-100893619D01*
X114276333Y-100846000D01*
X114371571Y-100798380D01*
X114562047Y-100798380D01*
X114657285Y-100846000D01*
X114704904Y-100893619D01*
X114752523Y-100988857D01*
X114752523Y-101226952D01*
X114704904Y-101322190D01*
X114657285Y-101369809D01*
X114562047Y-101417428D01*
X114371571Y-101417428D01*
X114276333Y-101369809D01*
X114228714Y-101322190D01*
X114181095Y-101226952D01*
G04 #@! TO.C,D23*
X132913285Y-113863380D02*
X132913285Y-112863380D01*
X132675190Y-112863380D01*
X132532333Y-112911000D01*
X132437095Y-113006238D01*
X132389476Y-113101476D01*
X132341857Y-113291952D01*
X132341857Y-113434809D01*
X132389476Y-113625285D01*
X132437095Y-113720523D01*
X132532333Y-113815761D01*
X132675190Y-113863380D01*
X132913285Y-113863380D01*
X131960904Y-112958619D02*
X131913285Y-112911000D01*
X131818047Y-112863380D01*
X131579952Y-112863380D01*
X131484714Y-112911000D01*
X131437095Y-112958619D01*
X131389476Y-113053857D01*
X131389476Y-113149095D01*
X131437095Y-113291952D01*
X132008523Y-113863380D01*
X131389476Y-113863380D01*
X131056142Y-112863380D02*
X130437095Y-112863380D01*
X130770428Y-113244333D01*
X130627571Y-113244333D01*
X130532333Y-113291952D01*
X130484714Y-113339571D01*
X130437095Y-113434809D01*
X130437095Y-113672904D01*
X130484714Y-113768142D01*
X130532333Y-113815761D01*
X130627571Y-113863380D01*
X130913285Y-113863380D01*
X131008523Y-113815761D01*
X131056142Y-113768142D01*
G04 #@! TO.C,D25*
X173680285Y-82875380D02*
X173680285Y-81875380D01*
X173442190Y-81875380D01*
X173299333Y-81923000D01*
X173204095Y-82018238D01*
X173156476Y-82113476D01*
X173108857Y-82303952D01*
X173108857Y-82446809D01*
X173156476Y-82637285D01*
X173204095Y-82732523D01*
X173299333Y-82827761D01*
X173442190Y-82875380D01*
X173680285Y-82875380D01*
X172727904Y-81970619D02*
X172680285Y-81923000D01*
X172585047Y-81875380D01*
X172346952Y-81875380D01*
X172251714Y-81923000D01*
X172204095Y-81970619D01*
X172156476Y-82065857D01*
X172156476Y-82161095D01*
X172204095Y-82303952D01*
X172775523Y-82875380D01*
X172156476Y-82875380D01*
X171251714Y-81875380D02*
X171727904Y-81875380D01*
X171775523Y-82351571D01*
X171727904Y-82303952D01*
X171632666Y-82256333D01*
X171394571Y-82256333D01*
X171299333Y-82303952D01*
X171251714Y-82351571D01*
X171204095Y-82446809D01*
X171204095Y-82684904D01*
X171251714Y-82780142D01*
X171299333Y-82827761D01*
X171394571Y-82875380D01*
X171632666Y-82875380D01*
X171727904Y-82827761D01*
X171775523Y-82780142D01*
G04 #@! TO.C,D27*
X173680285Y-76525380D02*
X173680285Y-75525380D01*
X173442190Y-75525380D01*
X173299333Y-75573000D01*
X173204095Y-75668238D01*
X173156476Y-75763476D01*
X173108857Y-75953952D01*
X173108857Y-76096809D01*
X173156476Y-76287285D01*
X173204095Y-76382523D01*
X173299333Y-76477761D01*
X173442190Y-76525380D01*
X173680285Y-76525380D01*
X172727904Y-75620619D02*
X172680285Y-75573000D01*
X172585047Y-75525380D01*
X172346952Y-75525380D01*
X172251714Y-75573000D01*
X172204095Y-75620619D01*
X172156476Y-75715857D01*
X172156476Y-75811095D01*
X172204095Y-75953952D01*
X172775523Y-76525380D01*
X172156476Y-76525380D01*
X171823142Y-75525380D02*
X171156476Y-75525380D01*
X171585047Y-76525380D01*
G04 #@! TD*
M02*
