G04 #@! TF.GenerationSoftware,KiCad,Pcbnew,5.1.9*
G04 #@! TF.CreationDate,2021-01-09T13:55:21+02:00*
G04 #@! TF.ProjectId,block,626c6f63-6b2e-46b6-9963-61645f706362,rev?*
G04 #@! TF.SameCoordinates,Original*
G04 #@! TF.FileFunction,Profile,NP*
%FSLAX46Y46*%
G04 Gerber Fmt 4.6, Leading zero omitted, Abs format (unit mm)*
G04 Created by KiCad (PCBNEW 5.1.9) date 2021-01-09 13:55:21*
%MOMM*%
%LPD*%
G01*
G04 APERTURE LIST*
G04 #@! TA.AperFunction,Profile*
%ADD10C,0.050000*%
G04 #@! TD*
G04 APERTURE END LIST*
D10*
X136779000Y-127889000D02*
G75*
G02*
X136017000Y-127889000I-381000J0D01*
G01*
X136017000Y-120650000D02*
G75*
G02*
X136779000Y-120650000I381000J0D01*
G01*
X136779000Y-120650000D02*
X136779000Y-127889000D01*
X136017000Y-123063000D02*
X136017000Y-127889000D01*
X136017000Y-123063000D02*
X136017000Y-120650000D01*
X98298000Y-128524000D02*
G75*
G02*
X98298000Y-127762000I0J381000D01*
G01*
X125730000Y-128524000D02*
X98298000Y-128524000D01*
X125730000Y-127762000D02*
G75*
G02*
X125730000Y-128524000I0J-381000D01*
G01*
X120269000Y-127762000D02*
X125730000Y-127762000D01*
X114808000Y-127762000D02*
X120269000Y-127762000D01*
X104521000Y-127762000D02*
X114808000Y-127762000D01*
X98298000Y-127762000D02*
X104521000Y-127762000D01*
X142113000Y-135001000D02*
G75*
G02*
X141351000Y-135001000I-381000J0D01*
G01*
X141351000Y-120650000D02*
G75*
G02*
X142113000Y-120650000I381000J0D01*
G01*
X142113000Y-120650000D02*
X142113000Y-134239000D01*
X141351000Y-132461000D02*
X141351000Y-120650000D01*
X141351000Y-134239000D02*
X141351000Y-132461000D01*
X142113000Y-134239000D02*
X142113000Y-135001000D01*
X141351000Y-135001000D02*
X141351000Y-134239000D01*
X91821000Y-135636000D02*
G75*
G02*
X91059000Y-135636000I-381000J0D01*
G01*
X91059000Y-128778000D02*
G75*
G02*
X91821000Y-128778000I381000J0D01*
G01*
X91059000Y-135636000D02*
X91059000Y-132080000D01*
X91821000Y-128778000D02*
X91821000Y-135636000D01*
X91059000Y-132080000D02*
X91059000Y-128778000D01*
X130683000Y-123698000D02*
G75*
G02*
X130683000Y-124460000I0J-381000D01*
G01*
X130683000Y-124460000D02*
X130302000Y-124460000D01*
X86360000Y-124460000D02*
X130302000Y-124460000D01*
X85598000Y-124460000D02*
G75*
G02*
X85598000Y-123698000I0J381000D01*
G01*
X85598000Y-124460000D02*
X86360000Y-124460000D01*
X130683000Y-123698000D02*
X85598000Y-123698000D01*
X174040000Y-62000000D02*
X75000000Y-62000000D01*
X174040000Y-137000000D02*
X174040000Y-62000000D01*
X75000000Y-137000000D02*
X174040000Y-137000000D01*
X75000000Y-62000000D02*
X75000000Y-137000000D01*
M02*
